<svg width="25" height="18" viewBox="0 0 25 18" fill="none" xmlns="http://www.w3.org/2000/svg">
<path fill-rule="evenodd" clip-rule="evenodd" d="M17.0206 17.2175C19.617 17.2191 19.617 17.2191 19.1035 14.8647C18.9486 14.1553 20.1234 12.8681 20.997 12.7896C23.3953 12.5738 24.5419 11.0031 24.0895 8.59316C23.929 7.73781 23.3454 7.38437 22.5975 7.15766C21.6697 6.87663 21.3185 5.44434 21.9946 4.74309C22.0875 4.64673 22.1869 4.5558 22.2758 4.45582C23.4054 3.18588 23.214 2.40456 21.6063 1.91834C20.9715 1.72623 20.2781 1.49932 19.6448 1.57355C18.0441 1.76103 16.5604 1.24927 15.0225 1.05173C11.4954 0.599109 8.30498 1.39391 5.71077 3.98309C5.49895 4.19471 5.32333 4.44416 5.14088 4.68334C4.96144 4.9183 4.87936 5.1768 5.17025 5.37655C5.42593 5.55237 5.60738 5.35865 5.76489 5.17901C8.92015 1.57858 12.8157 1.03382 17.1697 2.43372C17.5207 2.54658 17.8219 2.46832 18.1495 2.41642C19.3318 2.22934 20.4832 2.3776 21.6136 2.75056C22.1877 2.93985 22.275 3.24663 21.8628 3.6918C21.8401 3.71635 21.8254 3.75256 21.7983 3.76784C20.1761 4.68857 20.7896 5.97843 21.1899 7.26146C21.3299 7.71046 21.6204 7.81848 21.9992 7.8565C23.0437 7.96191 23.4164 8.53623 23.3281 9.56297C23.2036 11.0103 22.724 11.9777 21.7739 11.8904C20.2336 11.749 19.4531 12.8281 18.4207 13.5426C17.8259 13.9542 18.1827 14.4404 18.2879 14.8976C18.6368 16.4122 18.6438 16.4108 17.1184 16.411C16.7498 16.411 16.3763 16.3718 16.014 16.419C15.4393 16.4943 15.1417 16.2666 15.0247 15.7124C14.9042 15.1431 14.5968 14.8566 13.9513 14.9751C13.3892 15.0783 12.8197 14.9681 12.2577 14.85C11.6272 14.7176 11.3138 14.9715 11.5618 15.6112C11.8465 16.3446 11.5035 16.3329 10.8988 16.4404C9.03098 16.7725 7.96642 15.9441 7.08533 14.3792C6.04491 12.5318 5.01575 10.7126 4.71039 8.57828C4.66734 8.27794 4.64923 7.89633 4.21512 8.00536C3.8488 8.09709 3.88501 8.4614 3.92544 8.76556C4.08416 9.96912 4.47382 11.1071 4.97512 12.2033C5.71621 13.824 6.7353 15.2772 7.76023 16.7262C7.99016 17.0511 8.23759 17.2348 8.66286 17.2249C9.76805 17.1992 10.8745 17.2104 11.98 17.2187C12.4787 17.2225 12.7473 17.0684 12.6298 16.5019C12.5807 16.2662 12.2138 15.8327 12.734 15.8091C13.2275 15.7868 14.0913 15.5343 14.2053 16.0012C14.6569 17.8515 16.0741 17.0258 17.0206 17.2175Z" fill="black"/>
<path fill-rule="evenodd" clip-rule="evenodd" d="M3.50864 6.06304C3.75668 5.75647 4.04233 5.47464 4.24048 5.14111C4.53216 4.64926 4.55228 4.12342 4.18958 3.64083C3.95603 3.32962 3.64141 3.13912 3.23989 3.22623C2.67602 3.34853 2.49699 3.82006 2.28013 4.28515C2.12343 4.6211 2.41954 5.296 1.94379 5.26643C1.33245 5.22861 1.37449 4.55753 1.37831 4.05261C1.38093 3.70399 1.53462 3.20309 0.987454 3.21858C0.486154 3.23246 0.587138 3.74945 0.571849 4.09304C0.516127 5.34388 0.908597 5.90211 2.09526 6.15517C2.42819 6.22639 2.61024 6.42735 2.84038 6.60578C3.51106 7.12619 4.29419 7.23321 5.10971 7.2139C5.32736 7.20867 5.52974 7.11895 5.56353 6.89948C5.60678 6.61845 5.4024 6.4714 5.14913 6.43741C4.59654 6.36318 4.01618 6.42212 3.50864 6.06304Z" fill="black"/>
<path fill-rule="evenodd" clip-rule="evenodd" d="M13.1834 2.93033C11.76 2.91725 10.5854 3.10212 9.53489 3.76616C9.27478 3.93051 8.86179 4.10935 9.16193 4.52837C9.41016 4.87558 9.6924 4.61568 9.94245 4.46279C11.2072 3.68992 12.5978 3.67705 14.0084 3.7899C14.3294 3.81565 14.7647 3.98805 14.8424 3.53342C14.9347 2.99128 14.4043 3.04559 14.076 2.98766C13.7181 2.92429 13.3461 2.93898 13.1834 2.93033Z" fill="black"/>
<path fill-rule="evenodd" clip-rule="evenodd" d="M17.9025 7.07283C17.9744 7.57936 18.2642 7.88895 18.7603 7.85838C19.192 7.83162 19.5199 7.55462 19.5012 7.07967C19.4813 6.57495 19.1717 6.2899 18.6581 6.3074C18.1824 6.3237 17.9691 6.63691 17.9025 7.07283Z" fill="black"/>
<path fill-rule="evenodd" clip-rule="evenodd" d="M3.0217 5.18257C3.52722 4.99006 3.65858 4.6867 3.61251 4.29161C3.59481 4.14014 3.4373 4.04076 3.33551 4.11499C3.00761 4.35398 2.99997 4.71346 3.0217 5.18257Z" fill="#EEF0F1"/>
</svg>
