<svg width="26" height="26" viewBox="0 0 26 26" fill="none" xmlns="http://www.w3.org/2000/svg">
<path d="M9.11707 14.2305C8.68998 14.2305 8.33582 13.8763 8.33582 13.4492C8.33582 13.0221 8.68998 12.668 9.11707 12.668H17.4504C17.8775 12.668 18.2316 13.0221 18.2316 13.4492C18.2316 13.8763 17.8775 14.2305 17.4504 14.2305H9.11707Z" fill="black"/>
<path d="M12.5024 17.6165V9.2832C12.5024 8.85612 12.8566 8.50195 13.2837 8.50195C13.7108 8.50195 14.0649 8.85612 14.0649 9.2832V17.6165C14.0649 18.0436 13.7108 18.3978 13.2837 18.3978C12.8566 18.3978 12.5024 18.0436 12.5024 17.6165Z" fill="black"/>
<path fill-rule="evenodd" clip-rule="evenodd" d="M10.1587 24.6478C4.50248 24.6478 2.08582 22.2311 2.08582 16.5749V10.3249C2.08582 4.66862 4.50248 2.25195 10.1587 2.25195H16.4087C22.065 2.25195 24.4816 4.66862 24.4816 10.3249V16.5749C24.4816 22.2311 22.065 24.6478 16.4087 24.6478H10.1587ZM3.64832 10.3249V16.5749C3.64832 21.377 5.35665 23.0853 10.1587 23.0853H16.4087C21.2108 23.0853 22.9191 21.377 22.9191 16.5749V10.3249C22.9191 5.52279 21.2108 3.81445 16.4087 3.81445H10.1587C5.35665 3.81445 3.64832 5.52279 3.64832 10.3249Z" fill="black"/>
</svg>
