<svg width="20" height="19" viewBox="0 0 20 19" fill="none" xmlns="http://www.w3.org/2000/svg">
<path fill-rule="evenodd" clip-rule="evenodd" d="M10.4247 18.1006C7.56713 18.1006 4.70954 18.1037 1.85178 18.0969C1.49294 18.096 0.966274 18.2313 0.960615 17.6703C0.955132 17.1206 1.4703 17.223 1.83957 17.2167C3.37678 17.1898 3.3766 17.1915 3.37643 15.6345C3.37625 13.5427 3.37607 11.4511 3.37678 9.35926C3.37678 9.03809 3.32532 8.62585 3.7701 8.60958C4.25574 8.59189 4.26352 9.00696 4.26317 9.37535C4.2614 11.7616 4.27731 14.1481 4.2499 16.5342C4.24389 17.0561 4.34381 17.2694 4.91699 17.2282C5.67905 17.173 6.44995 17.1809 7.21325 17.2264C7.7431 17.2579 7.8333 17.0455 7.82905 16.5726C7.80765 14.2158 7.8172 11.8587 7.82162 9.50198C7.82233 9.13607 7.70614 8.6117 8.25173 8.60905C8.7837 8.60639 8.70394 9.11927 8.70412 9.49579C8.70536 11.7938 8.73914 14.0927 8.68396 16.3893C8.66645 17.1185 8.90679 17.2789 9.56416 17.2267C10.2376 17.1732 10.9219 17.1731 11.595 17.2274C12.1577 17.2727 12.2771 17.0771 12.2695 16.5425C12.2385 14.3628 12.2571 12.1824 12.2571 10.0023C12.2571 9.82544 12.2569 9.64876 12.2573 9.47191C12.2582 9.09239 12.1871 8.60073 12.7334 8.61064C13.227 8.61966 13.1396 9.09292 13.1403 9.4353C13.1437 11.1736 13.1212 12.9122 13.1511 14.6498C13.1654 15.4916 12.7684 16.6162 13.3205 17.0934C13.7973 17.5055 14.8975 17.1514 15.713 17.229C16.5044 17.3044 16.7449 17.0662 16.7209 16.2457C16.6574 14.0674 16.6995 11.886 16.6998 9.70589C16.6998 9.49968 16.6874 9.29188 16.7078 9.08761C16.7375 8.78873 16.9023 8.57544 17.218 8.60533C17.4958 8.63151 17.5837 8.85965 17.5837 9.12068C17.583 9.73931 17.5851 10.3579 17.5851 10.9768C17.5855 12.8326 17.6081 14.6891 17.5714 16.5444C17.5602 17.0994 17.7227 17.289 18.262 17.2213C18.552 17.1848 18.8503 17.2105 19.145 17.2156C19.5192 17.2221 20.0151 17.1395 20.0006 17.6956C19.9875 18.1978 19.5118 18.0972 19.174 18.0977C16.2579 18.1022 13.3412 18.1006 10.4247 18.1006Z" fill="#010101"/>
<path fill-rule="evenodd" clip-rule="evenodd" d="M10.3921 7.26067C7.71044 7.26085 5.02829 7.23909 2.3472 7.275C1.61114 7.28508 1.43269 7.03129 1.35771 6.31539C1.2286 5.08361 1.65517 4.42395 2.79428 3.89374C5.13581 2.8038 7.40378 1.55327 9.68235 0.331927C10.2051 0.0517918 10.6069 0.0279167 11.147 0.314065C13.6904 1.66115 16.2609 2.95749 18.821 4.27274C19.5016 4.62238 19.9575 6.42044 19.5134 7.03235C19.2842 7.34821 18.9295 7.25766 18.6143 7.25802C15.8734 7.26209 13.1329 7.26067 10.3921 7.26067Z" fill="#020202"/>
<path fill-rule="evenodd" clip-rule="evenodd" d="M10.4735 6.38606C8.00004 6.38553 5.52675 6.39295 3.05347 6.37491C2.78553 6.37297 2.33067 6.60412 2.2907 6.07285C2.26205 5.69315 2.12888 5.26675 2.64105 5.00466C5.149 3.72053 7.64687 2.41659 10.1391 1.1024C10.4332 0.947298 10.6396 1.06243 10.8672 1.17951C13.3207 2.44135 15.7602 3.73008 18.2328 4.95319C18.7785 5.22289 18.7513 5.59888 18.7157 6.03076C18.6667 6.6264 18.1838 6.37315 17.8935 6.37544C15.4203 6.39525 12.9468 6.38659 10.4735 6.38606Z" fill="#FDFDFD"/>
<path fill-rule="evenodd" clip-rule="evenodd" d="M9.05663 4.12221C9.03947 3.29861 9.65103 2.66017 10.4679 2.64955C11.2816 2.63859 11.9183 3.26925 11.9167 4.08436C11.9149 4.8634 11.3154 5.49477 10.5519 5.52076C9.74405 5.54853 9.07343 4.92123 9.05663 4.12221Z" fill="#030303"/>
<path fill-rule="evenodd" clip-rule="evenodd" d="M10.4633 4.64618C10.1372 4.58711 9.93011 4.41609 9.93913 4.06433C9.94832 3.70603 10.1627 3.53218 10.5031 3.54456C10.8455 3.55694 11.0415 3.75166 11.0282 4.10642C11.0149 4.45978 10.7986 4.61647 10.4633 4.64618Z" fill="#F3F3F3"/>
</svg>
