<svg width="25" height="25" viewBox="0 0 25 25" fill="none" xmlns="http://www.w3.org/2000/svg">
<path fill-rule="evenodd" clip-rule="evenodd" d="M15.9732 22.4551L12.9832 20.6851C12.6732 20.5051 12.0732 20.5051 11.7732 20.6851L8.77316 22.4551C7.00316 23.5051 5.96316 23.0851 5.49316 22.7451C5.03316 22.4051 4.31316 21.5351 4.78316 19.5351L5.49316 16.4651C5.57316 16.1451 5.41316 15.5951 5.17316 15.3551L2.69316 12.8751C1.45316 11.6351 1.55316 10.5751 1.72316 10.0551C1.89316 9.53515 2.43316 8.61515 4.15316 8.32515L7.34316 7.79515C7.64316 7.74515 8.07316 7.42515 8.20316 7.15515L9.97317 3.62515C10.7732 2.01515 11.8232 1.77515 12.3732 1.77515C12.9232 1.77515 13.9732 2.01515 14.7732 3.62515L16.5332 7.14515C16.6732 7.41515 17.1032 7.73515 17.4032 7.78515L20.5932 8.31515C22.3232 8.60515 22.8632 9.52515 23.0232 10.0451C23.1832 10.5651 23.2832 11.6251 22.0532 12.8651L19.5732 15.3551C19.3332 15.5951 19.1832 16.1351 19.2532 16.4651L19.9632 19.5351C20.4232 21.5351 19.7132 22.4051 19.2532 22.7451C19.0032 22.9251 18.6032 23.1251 18.0332 23.1251C17.5032 23.1251 16.8232 22.9551 15.9732 22.4551Z" fill="white"/>
<path opacity="0.01" fill-rule="evenodd" clip-rule="evenodd" d="M24.373 0.455078V24.4551H0.373047V0.455078H24.373Z" fill="white"/>
</svg>
