<svg width="15" height="14" viewBox="0 0 15 14" fill="none" xmlns="http://www.w3.org/2000/svg">
<g clip-path="url(#clip0_1197_47440)">
<path d="M7.17961 12.8062C5.59461 12.8062 4.07453 12.1766 2.95376 11.0558C1.833 9.93508 1.20336 8.415 1.20336 6.83C1.20336 5.245 1.833 3.72492 2.95376 2.60415C4.07453 1.48339 5.59461 0.85375 7.17961 0.85375C8.76461 0.85375 10.2847 1.48339 11.4055 2.60415C12.5262 3.72492 13.1559 5.245 13.1559 6.83C13.1559 8.415 12.5262 9.93508 11.4055 11.0558C10.2847 12.1766 8.76461 12.8062 7.17961 12.8062ZM7.17961 13.66C8.99104 13.66 10.7283 12.9404 12.0091 11.6595C13.29 10.3787 14.0096 8.64143 14.0096 6.83C14.0096 5.01857 13.29 3.28133 12.0091 2.00046C10.7283 0.719587 8.99104 0 7.17961 0C5.36818 0 3.63094 0.719587 2.35007 2.00046C1.0692 3.28133 0.349609 5.01857 0.349609 6.83C0.349609 8.64143 1.0692 10.3787 2.35007 11.6595C3.63094 12.9404 5.36818 13.66 7.17961 13.66Z" fill="#292D32"/>
<path d="M7.17914 11.0988C6.047 11.0988 4.96122 10.649 4.16068 9.84848C3.36013 9.04794 2.91039 7.96216 2.91039 6.83002C2.91039 5.69788 3.36013 4.6121 4.16068 3.81156C4.96122 3.01101 6.047 2.56127 7.17914 2.56127C8.31128 2.56127 9.39706 3.01101 10.1976 3.81156C10.9981 4.6121 11.4479 5.69788 11.4479 6.83002C11.4479 7.96216 10.9981 9.04794 10.1976 9.84848C9.39706 10.649 8.31128 11.0988 7.17914 11.0988ZM7.17914 11.9525C7.85184 11.9525 8.51795 11.82 9.13944 11.5626C9.76093 11.3052 10.3256 10.9278 10.8013 10.4522C11.277 9.97651 11.6543 9.41181 11.9117 8.79032C12.1691 8.16883 12.3016 7.50272 12.3016 6.83002C12.3016 6.15732 12.1691 5.49121 11.9117 4.86972C11.6543 4.24823 11.277 3.68353 10.8013 3.20786C10.3256 2.7322 9.76093 2.35488 9.13944 2.09745C8.51795 1.84002 7.85184 1.70752 7.17914 1.70752C5.82057 1.70752 4.51764 2.24721 3.55699 3.20786C2.59633 4.16852 2.05664 5.47145 2.05664 6.83002C2.05664 8.18859 2.59633 9.49152 3.55699 10.4522C4.51764 11.4128 5.82057 11.9525 7.17914 11.9525Z" fill="#292D32"/>
<path d="M7.17965 9.39129C6.50036 9.39129 5.8489 9.12144 5.36857 8.64112C4.88824 8.16079 4.6184 7.50932 4.6184 6.83004C4.6184 6.15075 4.88824 5.49929 5.36857 5.01896C5.8489 4.53863 6.50036 4.26879 7.17965 4.26879C7.85893 4.26879 8.5104 4.53863 8.99073 5.01896C9.47105 5.49929 9.7409 6.15075 9.7409 6.83004C9.7409 7.50932 9.47105 8.16079 8.99073 8.64112C8.5104 9.12144 7.85893 9.39129 7.17965 9.39129ZM7.17965 10.245C8.08536 10.245 8.95398 9.88525 9.59442 9.24481C10.2349 8.60437 10.5946 7.73575 10.5946 6.83004C10.5946 5.92432 10.2349 5.05571 9.59442 4.41527C8.95398 3.77483 8.08536 3.41504 7.17965 3.41504C6.27393 3.41504 5.40532 3.77483 4.76488 4.41527C4.12444 5.05571 3.76465 5.92432 3.76465 6.83004C3.76465 7.73575 4.12444 8.60437 4.76488 9.24481C5.40532 9.88525 6.27393 10.245 7.17965 10.245Z" fill="#292D32"/>
<path d="M8.46066 6.82994C8.46066 7.16958 8.32574 7.49532 8.08558 7.73548C7.84541 7.97564 7.51968 8.11057 7.18004 8.11057C6.8404 8.11057 6.51466 7.97564 6.2745 7.73548C6.03434 7.49532 5.89941 7.16958 5.89941 6.82994C5.89941 6.4903 6.03434 6.16457 6.2745 5.9244C6.51466 5.68424 6.8404 5.54932 7.18004 5.54932C7.51968 5.54932 7.84541 5.68424 8.08558 5.9244C8.32574 6.16457 8.46066 6.4903 8.46066 6.82994Z" fill="#292D32"/>
</g>
<defs>
<clipPath id="clip0_1197_47440">
<rect width="13.66" height="13.66" fill="white" transform="translate(0.349609)"/>
</clipPath>
</defs>
</svg>
