<svg width="15" height="16" viewBox="0 0 15 16" fill="none" xmlns="http://www.w3.org/2000/svg">
<path d="M3.69995 7.25H5.19995V8.75H3.69995V7.25ZM3.69995 10.25H5.19995V11.75H3.69995V10.25ZM6.69995 7.25H8.19995V8.75H6.69995V7.25ZM6.69995 10.25H8.19995V11.75H6.69995V10.25ZM9.69995 7.25H11.2V8.75H9.69995V7.25ZM9.69995 10.25H11.2V11.75H9.69995V10.25Z" fill="black"/>
<path d="M10.95 2V2.25H11.2H12.7C13.3891 2.25 13.95 2.81082 13.95 3.5V14C13.95 14.6892 13.3891 15.25 12.7 15.25H2.19995C1.51077 15.25 0.949951 14.6892 0.949951 14V3.5C0.949951 2.81082 1.51077 2.25 2.19995 2.25H3.69995H3.94995V2V0.75H4.94995V2V2.25H5.19995H9.69995H9.94995V2V0.75H10.95V2ZM12.95 4.99998L12.9499 4.75H12.7H2.19995H1.94995V5V14V14.25H2.19995H12.7007H12.9507L12.9507 14L12.95 4.99998Z" stroke="black" stroke-width="0.5"/>
</svg>
