<svg width="261" height="267" viewBox="0 0 261 267" fill="none" xmlns="http://www.w3.org/2000/svg">
<path d="M32.8368 19.0986H42.0259V6.68129C42.0259 2.99061 45.2881 0 49.3062 0H86.1434C90.165 0 93.4237 2.99061 93.4237 6.68129V19.0986H167.576V6.68129C167.576 2.99061 170.835 0 174.857 0H211.694C215.712 0 218.974 2.99061 218.974 6.68129V19.0986H228.163C246.239 19.0986 261 32.6451 261 49.2338V236.865C261 253.454 246.239 267 228.163 267H32.8368C14.7609 267 0 253.454 0 236.865V49.2338C0 32.6451 14.7609 19.0986 32.8368 19.0986ZM56.5864 34.4969H78.8632V13.3626H56.5864V34.4969ZM182.137 34.4969H204.414V13.3626H182.137V34.4969ZM65.4697 104.93H92.9105V130.113H65.4697V104.93ZM65.4697 179.443H92.9105V204.626H65.4697V179.443ZM168.09 179.443H195.53V204.626H168.09V179.443ZM116.78 179.443H144.22V204.626H116.78V179.443ZM65.4697 142.188H92.9105V167.371H65.4697V142.188ZM168.09 142.188H195.53V167.371H168.09V142.188ZM116.78 142.188H144.22V167.371H116.78V142.188ZM168.09 104.93H195.53V130.113H168.09V104.93ZM116.78 104.93H144.22V130.113H116.78V104.93ZM40.5952 71.6424H220.405C224.423 71.6424 227.685 74.633 227.685 78.3237V231.235C227.685 234.923 224.423 237.917 220.405 237.917H40.5952C36.5771 237.917 33.3149 234.923 33.3149 231.235V78.3237C33.3149 74.633 36.5771 71.6424 40.5952 71.6424ZM213.125 85.005H47.8754V224.554H213.125V85.005ZM42.0259 32.4612H32.8368C22.8005 32.4612 14.5605 40.0232 14.5605 49.2338V236.865C14.5605 246.075 22.8005 253.637 32.8368 253.637H228.163C238.2 253.637 246.439 246.075 246.439 236.865V49.2338C246.439 40.0232 238.2 32.4612 228.163 32.4612H218.974V41.1782C218.974 44.8689 215.712 47.8595 211.694 47.8595H174.857C170.835 47.8595 167.576 44.8689 167.576 41.1782V32.4612H93.4237V41.1782C93.4237 44.8689 90.165 47.8595 86.1434 47.8595H49.3062C45.2881 47.8595 42.0259 44.8689 42.0259 41.1782V32.4612Z" fill="black"/>
</svg>
