<svg width="27" height="26" viewBox="0 0 27 26" fill="none" xmlns="http://www.w3.org/2000/svg">
<path d="M17.9283 16.1965L17.9299 16.1956C18.1698 16.0498 18.4848 15.9659 18.8859 15.9659C19.7707 15.9659 20.96 16.4086 22.1079 17.026C23.2425 17.6363 24.2472 18.368 24.7502 18.8549C25.3161 19.4056 25.7015 19.9259 25.7818 20.5064C25.8587 21.0625 25.6705 21.8114 24.753 22.8561C23.8675 23.8625 23.1494 24.3263 22.4921 24.5531C21.8219 24.7844 21.1688 24.7886 20.3328 24.7886C18.7108 24.7886 16.2784 23.8247 13.6634 22.0419C11.3053 20.4339 10.271 19.7064 7.91204 17.4269C5.4092 15.0049 3.84178 13.0023 2.10495 10.0051L2.10479 10.0048C1.10768 8.28659 0.700981 7.05204 0.581577 6.11612C0.463767 5.19269 0.620616 4.52443 0.81997 3.9144C1.05499 3.19744 1.70623 2.43273 2.6705 1.85619C2.70212 1.83798 2.73073 1.81908 2.74647 1.80867C2.74754 1.80797 2.74855 1.8073 2.7495 1.80667L2.7705 1.79295C2.77451 1.7904 2.77625 1.78938 2.77636 1.78931L2.7831 1.7855L2.78986 1.78139C3.25952 1.49573 4.02161 1.03857 4.91667 1.03857C5.69432 1.03857 6.41384 1.37748 7.06709 2.13158L7.06707 2.13159L7.07038 2.13534L7.14365 2.21823C8.00195 3.20485 8.91887 4.26819 9.4748 5.36236C10.1537 6.71412 10.0824 7.75966 9.43082 8.59008L9.42997 8.59116C9.0944 9.02128 8.84496 9.37136 8.68101 9.65968C8.52661 9.93121 8.39958 10.2282 8.4233 10.5272C8.44767 10.8378 8.6411 11.1145 8.80713 11.3235C8.98211 11.5438 9.2207 11.7982 9.48407 12.0791L9.51737 12.1147L9.51906 12.1165L9.56958 12.1709L9.57119 12.1726C10.7326 13.4122 11.0858 13.7559 11.5363 14.1942L11.5712 14.2282L11.5712 14.2282L11.577 14.2336C11.6123 14.2669 11.6482 14.3022 11.6905 14.3439L11.6942 14.3476C11.7356 14.3883 11.7821 14.434 11.833 14.482L11.9625 14.611L11.9625 14.611L11.9648 14.6132L11.9746 14.6228C12.509 15.1479 12.8158 15.4493 14.1794 16.5664L14.2572 16.6331L14.2571 16.6332L14.2668 16.6412C14.506 16.8359 14.7073 16.9989 14.8773 17.1103C15.0469 17.2214 15.2557 17.33 15.5074 17.33C15.6908 17.33 15.8773 17.2771 16.0395 17.2172C16.2097 17.1543 16.3954 17.0674 16.589 16.9675C16.9752 16.7679 17.435 16.4937 17.9283 16.1965Z" stroke="black"/>
</svg>
