<svg width="110" height="110" viewBox="0 0 110 110" fill="none" xmlns="http://www.w3.org/2000/svg">
<path fill-rule="evenodd" clip-rule="evenodd" d="M73.4404 106.548L58.1383 97.4281C56.5518 96.5007 53.4812 96.5007 51.9458 97.4281L36.5926 106.548C27.5341 111.957 22.2117 109.793 19.8063 108.042C17.4522 106.29 13.7674 101.807 16.1727 91.5031L19.8063 75.6858C20.2157 74.0371 19.3969 71.2034 18.1686 69.9669L5.4766 57.1894C-0.869416 50.8007 -0.35764 45.3394 0.512379 42.6602C1.3824 39.9811 4.14599 35.241 12.9485 33.7469L29.2742 31.0162C30.8095 30.7586 33.0101 29.1099 33.6755 27.7188L42.7339 9.53157C46.8281 1.23653 52.2017 0 55.0165 0C57.8313 0 63.2049 1.23653 67.2991 9.53157L76.3064 27.6673C77.0229 29.0584 79.2235 30.7071 80.7588 30.9647L97.0845 33.6954C105.938 35.1895 108.702 39.9296 109.521 42.6087C110.339 45.2878 110.851 50.7492 104.556 57.1379L91.8644 69.9669C90.6361 71.2034 89.8684 73.9856 90.2267 75.6858L93.8603 91.5031C96.2145 101.807 92.5808 106.29 90.2267 108.042C88.9472 108.969 86.9001 109.999 83.983 109.999C81.2706 109.999 77.7905 109.124 73.4404 106.548ZM62.0278 90.7818L77.3299 99.9012C81.7824 102.58 84.5971 102.58 85.6719 101.807C86.7466 101.035 87.5143 98.304 86.3884 93.2548L82.7548 77.4376C81.7824 73.1612 83.3689 67.6484 86.4395 64.5055L99.1316 51.7281C101.639 49.2035 102.765 46.7305 102.253 45.0302C101.69 43.33 99.3363 41.9389 95.8562 41.3722L79.5306 38.6415C75.5899 37.9717 71.291 34.7773 69.4998 31.1708L60.4925 13.0351C58.8548 9.73766 56.8077 7.77982 55.0165 7.77982C53.2253 7.77982 51.1782 9.73766 49.5917 13.0351L40.5332 31.1708C38.742 34.7773 34.4431 37.9717 30.5024 38.6415L14.228 41.3722C10.7479 41.9389 8.39373 43.33 7.83077 45.0302C7.26782 46.7305 8.4449 49.255 10.9526 51.7281L23.6446 64.5055C26.7153 67.5969 28.3018 73.1612 27.3294 77.4376L23.6958 93.2548C22.5187 98.3555 23.3376 101.035 24.4123 101.807C25.487 102.58 28.2506 102.529 32.7543 99.9012L48.0564 90.7818C50.0011 89.5968 52.5088 88.9785 55.0165 88.9785C57.5242 88.9785 60.0319 89.5968 62.0278 90.7818Z" fill="black"/>
<path d="M33.0605 45.5455L40.6173 66.973H40.9156L48.4724 45.5455H51.704L42.3574 71H39.1756L29.829 45.5455H33.0605ZM58.7512 45.5455V71H55.6688V45.5455H58.7512ZM64.9315 71V45.5455H73.5324C75.5293 45.5455 77.1616 45.9059 78.4294 46.6268C79.7054 47.3394 80.65 48.3047 81.2632 49.5227C81.8763 50.7408 82.1829 52.0997 82.1829 53.5994C82.1829 55.0992 81.8763 56.4622 81.2632 57.6886C80.6583 58.9149 79.722 59.8926 78.4542 60.6218C77.1865 61.3427 75.5624 61.7031 73.5821 61.7031H67.4173V58.9688H73.4826C74.8498 58.9688 75.9477 58.7326 76.7763 58.2603C77.6049 57.788 78.2057 57.15 78.5785 56.3462C78.9597 55.5342 79.1503 54.6186 79.1503 53.5994C79.1503 52.5803 78.9597 51.6688 78.5785 50.8651C78.2057 50.0613 77.6008 49.4316 76.7639 48.9759C75.927 48.5118 74.8167 48.2798 73.4329 48.2798H68.0139V71H64.9315Z" fill="black"/>
</svg>
