<svg width="15" height="20" viewBox="0 0 15 20" fill="none" xmlns="http://www.w3.org/2000/svg">
<path d="M13.4316 10.4951H11.5534L11.044 1.88697C11.0187 1.46079 10.6646 1.12695 10.2377 1.12695H4.25981C3.83543 1.12695 3.4814 1.45872 3.45382 1.88218L2.89331 10.4951H1.30622C1.05297 10.4951 0.846924 10.7011 0.846924 10.9544V12.597C0.846924 12.8503 1.05297 13.0563 1.30622 13.0563H1.91706V13.6469C1.91706 13.9936 2.1992 14.2757 2.5459 14.2757H2.88329V18.8969C2.88329 19.0844 3.03581 19.2369 3.22327 19.2369H3.66329C3.85076 19.2369 4.00323 19.0844 4.00323 18.8969V14.2757H10.4424V18.897C10.4424 19.0844 10.5949 19.237 10.7824 19.237H11.2224C11.4099 19.237 11.5624 19.0844 11.5624 18.897V14.2757H12.192C12.5387 14.2757 12.8208 13.9936 12.8208 13.6469V13.0563H13.4316C13.6849 13.0563 13.8909 12.8503 13.8909 12.597V10.9544C13.8909 10.7011 13.6849 10.4951 13.4316 10.4951ZM3.76939 1.90273C3.78612 1.645 4.0016 1.44318 4.25981 1.44318H10.2377C10.4975 1.44318 10.713 1.64632 10.7283 1.90568L11.2366 10.4951H3.2101L3.76939 1.90273ZM3.68705 18.897C3.68705 18.9101 3.67642 18.9208 3.66329 18.9208H3.22327C3.21014 18.9208 3.19947 18.9101 3.19947 18.897V14.2757H3.68705V18.897ZM11.2462 18.897C11.2462 18.9101 11.2356 18.9208 11.2224 18.9208H10.7824C10.7693 18.9208 10.7587 18.9101 10.7587 18.897V14.2757H11.2462V18.897ZM12.5046 13.6469C12.5046 13.8193 12.3643 13.9596 12.192 13.9596H11.5624H10.4424H4.00323H2.88329H2.5459C2.37354 13.9596 2.23324 13.8193 2.23324 13.6469V13.0563H12.5046V13.6469ZM13.5747 12.597C13.5747 12.6759 13.5105 12.7401 13.4316 12.7401H12.8208H1.91706H1.30622C1.22735 12.7401 1.1631 12.6759 1.1631 12.597V10.9544C1.1631 10.8754 1.22735 10.8113 1.30622 10.8113H2.87275H11.572H13.4316C13.5105 10.8113 13.5748 10.8754 13.5748 10.9544V12.597H13.5747Z" stroke="black" stroke-width="0.4"/>
</svg>
