<svg width="18" height="16" viewBox="0 0 18 16" fill="none" xmlns="http://www.w3.org/2000/svg">
<path fill-rule="evenodd" clip-rule="evenodd" d="M12.842 14.2878L9.75092 12.6555C9.42717 12.6486 9.10341 12.6281 8.79508 12.5869C8.58696 12.5595 8.40966 12.436 8.33258 12.2577C8.25549 12.0794 8.29404 11.8873 8.43279 11.7433C8.94154 11.2152 9.20362 10.5843 9.20362 9.91216C9.20362 8.25244 7.56175 6.90134 5.54217 6.90134C4.78675 6.90134 4.06217 7.08654 3.45321 7.44317C3.28363 7.53919 3.0755 7.5529 2.8905 7.47746C2.71321 7.40201 2.58218 7.25111 2.55905 7.0728C2.53593 6.88076 2.52051 6.68875 2.52051 6.48985C2.52051 3.08812 5.83509 0.324219 9.90508 0.324219C13.9751 0.324219 17.2897 3.08812 17.2897 6.48985C17.2897 8.35532 16.3184 10.0699 14.6072 11.2427L14.8692 13.1082C14.9309 13.5745 14.6997 14.0135 14.2603 14.2672C14.0444 14.3907 13.7901 14.4592 13.5357 14.4592C13.2967 14.4592 13.0578 14.4044 12.842 14.2878ZM10.2057 11.6953L13.4355 13.4031C13.5203 13.4511 13.5897 13.4305 13.6359 13.4031C13.6744 13.3825 13.7361 13.3276 13.7207 13.2316L13.4201 11.0644C13.3969 10.8723 13.4894 10.6872 13.659 10.5774C15.2315 9.59669 16.1334 8.10155 16.1334 6.47612C16.1334 3.64363 13.343 1.33924 9.90508 1.33924C6.59821 1.33924 3.88488 3.47907 3.68446 6.16753C4.26258 5.96864 4.88697 5.8589 5.53446 5.8589C8.19384 5.8589 10.3522 7.66947 10.3522 9.89843C10.3599 10.502 10.198 11.0849 9.89737 11.6199C10.0053 11.613 10.1132 11.6405 10.2057 11.6953Z" fill="black"/>
<path fill-rule="evenodd" clip-rule="evenodd" d="M2.72068 14.9133C2.37381 14.7144 2.18882 14.3715 2.23507 14.008L2.38923 12.9518C1.34861 12.1974 0.731934 11.0795 0.731934 9.90671C0.731934 8.56934 1.51819 7.32113 2.83631 6.57357C3.63027 6.11407 4.57068 5.86719 5.54964 5.86719C8.20901 5.86719 10.3673 7.67776 10.3673 9.90671C10.3673 10.812 9.99734 11.7036 9.319 12.41C8.44796 13.3496 7.14526 13.8983 5.71152 13.9394L3.83068 14.9339C3.6611 15.023 3.4761 15.0642 3.2911 15.0642C3.09069 15.0642 2.89797 15.0162 2.72068 14.9133ZM3.45297 7.43773C2.46631 8.00011 1.88048 8.91911 1.88048 9.90671C1.88048 10.86 2.40465 11.7311 3.32965 12.2934C3.50694 12.4032 3.59943 12.5883 3.57631 12.7804L3.40672 13.9531L5.24901 12.9793C5.34151 12.9313 5.44172 12.9038 5.54193 12.9038C6.67505 12.9038 7.74652 12.4718 8.42485 11.7379C8.9336 11.203 9.20338 10.572 9.20338 9.89985C9.20338 8.24699 7.56151 6.89594 5.54193 6.89594C4.78652 6.89594 4.06193 7.0811 3.45297 7.43773Z" fill="black"/>
</svg>
