<svg width="18" height="19" viewBox="0 0 18 19" fill="none" xmlns="http://www.w3.org/2000/svg">
<path fill-rule="evenodd" clip-rule="evenodd" d="M9.27132 0.13245C11.2901 0.13245 13.3088 0.123413 15.3275 0.135463C16.7623 0.144099 17.5458 0.922137 17.5494 2.36434C17.5603 6.48127 17.5584 10.5984 17.5502 14.7153C17.5474 16.1071 16.9692 16.786 15.5766 16.9856C15.2259 17.0358 15.0942 17.2001 14.9099 17.4584C14.1186 18.5666 12.885 18.579 12.1217 17.4598C11.878 17.1027 11.6517 16.9874 11.2559 16.9956C10.2636 17.0165 9.27032 17.0043 8.27743 17.0014C7.50517 16.9992 6.80717 16.9016 6.25115 17.7895C5.74378 18.5997 4.45442 18.4171 3.86226 17.5817C3.59319 17.2017 3.36522 17.0045 2.86361 16.9812C1.33834 16.9105 0.336116 15.1989 0.895509 13.7292C0.960841 13.5575 1.06053 13.4322 1.23667 13.4185C1.46841 13.4003 1.5945 13.5495 1.64732 13.7646C1.66321 13.8284 1.65686 13.8975 1.66599 13.9636C1.97954 16.1991 1.97974 16.1987 4.24849 16.1987C7.85585 16.1987 11.4632 16.2009 15.0706 16.1983C16.3957 16.1973 16.7575 15.8242 16.7581 14.4629C16.7603 10.513 16.7611 6.56341 16.7577 2.61378C16.7565 1.32441 16.3786 0.938404 15.1153 0.937199C11.1771 0.933584 7.23868 0.932982 3.30028 0.9374C2.03594 0.938806 1.68148 1.31357 1.66698 2.62261C1.6648 2.82325 1.6652 3.02408 1.66162 3.22492C1.65705 3.4848 1.56472 3.70271 1.28115 3.71335C0.993209 3.724 0.904246 3.5085 0.876048 3.24982C0.658804 1.24649 1.42114 0.03384 3.41347 0.115179C5.36351 0.194509 7.3185 0.13225 9.27132 0.13245Z" fill="black"/>
<path fill-rule="evenodd" clip-rule="evenodd" d="M13.7494 8.59187C13.7323 10.7388 12.1038 12.5146 9.94364 12.7417C7.88995 12.9578 5.97268 11.4405 5.54515 9.26105C5.15593 7.27659 6.41253 5.17947 8.38103 4.5858C8.82863 4.45083 9.31217 4.45525 9.23929 3.77301C9.22003 3.59447 9.4049 3.4824 9.5723 3.46855C9.78955 3.45047 10.006 3.57338 9.98137 3.7945C9.90095 4.5143 10.4411 4.45565 10.8625 4.5872C12.5559 5.116 13.7637 6.80162 13.7494 8.59187Z" fill="black"/>
<path fill-rule="evenodd" clip-rule="evenodd" d="M1.88389 6.96053C0.126282 6.96154 -0.0796435 6.72194 0.0734598 5.03994C0.124296 4.48061 0.374106 4.17113 0.934095 4.15225C1.29789 4.14 1.66228 4.14823 2.02627 4.14803C3.55294 4.14743 4.12286 4.91542 3.61489 6.36465C3.28506 7.30637 2.43534 6.84023 1.88389 6.96053Z" fill="black"/>
<path fill-rule="evenodd" clip-rule="evenodd" d="M1.82919 12.9856C0.15736 12.987 0.0789218 12.9247 0.0781275 11.5934C0.0775317 10.2841 0.183771 10.1785 1.50511 10.1745C1.67052 10.1741 1.83653 10.1837 2.00135 10.1725C3.81059 10.0481 3.6986 10.5422 3.63207 12.2696C3.6142 12.7325 3.28019 12.9689 2.82188 12.983C2.49124 12.9928 2.16021 12.985 1.82919 12.9856Z" fill="black"/>
<path fill-rule="evenodd" clip-rule="evenodd" d="M1.66766 8.57822C1.66746 8.71157 1.67243 8.84513 1.66627 8.97808C1.65138 9.29882 1.73657 9.74066 1.25859 9.7282C0.789153 9.71615 0.884073 9.27452 0.873548 8.95539C0.864612 8.68908 0.864612 8.42177 0.87335 8.15546C0.884073 7.83533 0.799479 7.39289 1.27924 7.40554C1.74789 7.41779 1.65158 7.85903 1.66687 8.17815C1.67322 8.31131 1.66786 8.44486 1.66766 8.57822Z" fill="black"/>
<path fill-rule="evenodd" clip-rule="evenodd" d="M5.83602 17.0654C5.40313 17.6149 4.9871 17.5446 4.39197 17.0654C4.96208 17.0654 5.37453 17.0654 5.83602 17.0654Z" fill="#F5F5F6"/>
<path fill-rule="evenodd" clip-rule="evenodd" d="M12.7432 17.0605C13.318 16.9872 13.7265 16.953 14.1787 17.0737C13.7388 17.6061 13.3238 17.5547 12.7432 17.0605Z" fill="#F6F6F7"/>
<path fill-rule="evenodd" clip-rule="evenodd" d="M9.63557 5.3597C11.5322 5.3358 12.9012 6.62537 12.9548 8.48571C13.0074 10.3103 11.5105 11.8955 9.68363 11.9499C7.8861 12.0035 6.3088 10.4732 6.26571 8.63433C6.22103 6.71775 7.59181 5.38541 9.63557 5.3597Z" fill="#FCFDFD"/>
<path fill-rule="evenodd" clip-rule="evenodd" d="M1.86418 6.17014C1.4706 6.05465 0.844084 6.47561 0.85163 5.55016C0.859375 4.62952 1.47834 4.97737 1.87073 4.97295C2.26689 4.96833 2.88109 4.64238 2.87851 5.5602C2.87573 6.49027 2.24028 6.0404 1.86418 6.17014Z" fill="#FDFDFD"/>
<path fill-rule="evenodd" clip-rule="evenodd" d="M1.93541 12.2104C1.53806 12.0429 0.829928 12.5654 0.851176 11.5502C0.868849 10.7063 1.42308 10.9776 1.79561 10.9979C2.21223 11.0202 2.89037 10.6113 2.87865 11.6107C2.86872 12.4682 2.29047 12.0732 1.93541 12.2104Z" fill="#FDFDFD"/>
<path fill-rule="evenodd" clip-rule="evenodd" d="M8.18177 10.361C7.84975 10.2359 7.69526 10.0106 7.96572 9.69545C8.35434 9.24256 8.46891 8.95135 7.69029 8.95858C7.42737 8.96099 7.23138 8.819 7.25938 8.5306C7.28698 8.24421 7.51515 8.16628 7.76635 8.16809C8.35692 8.17231 8.41172 7.94998 8.03562 7.53526C7.8708 7.3535 7.73477 7.15909 7.94129 6.92371C8.14007 6.69717 8.35116 6.7514 8.54298 6.93496C8.96496 7.33944 9.22252 7.35712 9.21874 6.66544C9.21716 6.40656 9.32101 6.19086 9.60994 6.18946C9.90066 6.18825 10.0023 6.40576 10.0003 6.66423C9.99538 7.34748 10.2452 7.34888 10.6733 6.93757C10.863 6.75541 11.0735 6.69396 11.276 6.91909C11.4384 7.09965 11.4041 7.29144 11.2502 7.45332C10.8 7.92629 10.8205 8.18818 11.5433 8.17673C11.7633 8.17311 11.9381 8.29442 11.9607 8.51975C11.9891 8.80615 11.8026 8.95918 11.5387 8.95718C10.7905 8.95195 10.827 9.23192 11.2554 9.68782C11.4099 9.8521 11.4335 10.0433 11.2695 10.2212C11.0613 10.4468 10.8532 10.3725 10.6666 10.1921C10.2118 9.75329 9.99598 9.83824 9.99935 10.4827C10.0007 10.7422 9.88775 10.9416 9.59823 10.9501C9.41097 10.9553 9.24396 10.8213 9.24674 10.6605C9.26382 9.74827 8.95126 9.74867 8.39306 10.3138C8.35453 10.353 8.26815 10.3435 8.18177 10.361Z" fill="black"/>
<path fill-rule="evenodd" clip-rule="evenodd" d="M9.65281 8.17027C9.85555 8.23152 10.017 8.34801 9.99456 8.58299C9.96815 8.85673 9.78704 9.00796 9.52214 8.94831C9.31959 8.90272 9.17582 8.7292 9.22467 8.50185C9.26915 8.29419 9.41729 8.16224 9.65281 8.17027Z" fill="#FCFCFC"/>
</svg>
