<svg width="18" height="18" viewBox="0 0 18 18" fill="none" xmlns="http://www.w3.org/2000/svg">
<path d="M10.0104 12.825H9.58542V13.25V13.9583V14.3833H10.0104H11.4271C11.5836 14.3833 11.7104 14.5102 11.7104 14.6667C11.7104 14.8232 11.5836 14.95 11.4271 14.95H7.17708C7.0206 14.95 6.89375 14.8232 6.89375 14.6667C6.89375 14.5102 7.0206 14.3833 7.17708 14.3833H8.59375H9.01875V13.9583V13.25V12.825H8.59375H4.34375C3.40486 12.825 2.64375 12.0639 2.64375 11.125V4.75C2.64375 3.81112 3.40487 3.05 4.34375 3.05H14.2604C15.1993 3.05 15.9604 3.81111 15.9604 4.75V11.125C15.9604 12.0639 15.1993 12.825 14.2604 12.825H10.0104Z" stroke="black" stroke-width="0.85"/>
</svg>
