<svg width="13" height="11" viewBox="0 0 13 11" fill="none" xmlns="http://www.w3.org/2000/svg">
<path d="M0.541667 10.0833V10.4583H0.916667H11.9167H12.2917V10.0833V2.75V2.375H11.9167H9.625C9.60213 2.375 9.58163 2.36613 9.56683 2.35125L9.56612 2.35054L7.86708 0.651502L7.75725 0.541667H7.60192H5.23142H5.07609L4.96625 0.651502L3.26721 2.35054L3.2665 2.35125C3.25185 2.36599 3.23094 2.375 3.20833 2.375H0.458333C0.41244 2.375 0.375 2.33756 0.375 2.29167C0.375 2.24577 0.41244 2.20833 0.458333 2.20833H3.01858H3.17391L3.28375 2.0985L4.98279 0.399458L4.9835 0.398749C4.99815 0.384013 5.01906 0.375 5.04167 0.375H7.79167C7.81453 0.375 7.83504 0.383872 7.84984 0.39875L7.85054 0.399457L9.54958 2.0985L9.65942 2.20833H9.81475H12.375C12.4211 2.20833 12.4583 2.24553 12.4583 2.29167V10.5417C12.4583 10.588 12.4214 10.625 12.375 10.625H0.458333C0.412196 10.625 0.375 10.5878 0.375 10.5417V4.125C0.375 4.07911 0.41244 4.04167 0.458333 4.04167C0.504227 4.04167 0.541667 4.07911 0.541667 4.125V10.0833Z" stroke="white" stroke-width="0.75"/>
<path d="M6.41626 8.7915C5.10674 8.7915 4.04126 7.72602 4.04126 6.4165C4.04126 5.10699 5.10674 4.0415 6.41626 4.0415C7.72578 4.0415 8.79126 5.10699 8.79126 6.4165C8.79126 7.72602 7.72578 8.7915 6.41626 8.7915ZM6.41626 4.20817C5.19807 4.20817 4.20793 5.19831 4.20793 6.4165C4.20793 7.63469 5.19807 8.62484 6.41626 8.62484C7.63445 8.62484 8.62459 7.63469 8.62459 6.4165C8.62459 5.19831 7.63445 4.20817 6.41626 4.20817Z" stroke="white" stroke-width="0.75"/>
</svg>
