<svg width="14" height="16" viewBox="0 0 14 16" fill="none" xmlns="http://www.w3.org/2000/svg">
<path d="M9.20524 15.3644H4.73339C3.99213 15.3644 3.28123 15.0699 2.75709 14.5458C2.23294 14.0216 1.93848 13.3108 1.93848 12.5695V5.86172C1.93848 5.71346 1.99737 5.57129 2.1022 5.46646C2.20703 5.36163 2.34921 5.30273 2.49746 5.30273C2.64571 5.30273 2.78789 5.36163 2.89272 5.46646C2.99755 5.57129 3.05644 5.71346 3.05644 5.86172V12.5695C3.05644 13.0143 3.23312 13.4408 3.54761 13.7553C3.86209 14.0698 4.28863 14.2464 4.73339 14.2464H9.20524C9.64999 14.2464 10.0765 14.0698 10.391 13.7553C10.7055 13.4408 10.8822 13.0143 10.8822 12.5695V5.86172C10.8822 5.71346 10.9411 5.57129 11.0459 5.46646C11.1507 5.36163 11.2929 5.30273 11.4412 5.30273C11.5894 5.30273 11.7316 5.36163 11.8364 5.46646C11.9413 5.57129 12.0001 5.71346 12.0001 5.86172V12.5695C12.0001 13.3108 11.7057 14.0216 11.1815 14.5458C10.6574 15.0699 9.9465 15.3644 9.20524 15.3644Z" fill="black"/>
<path d="M12.5589 4.18632H1.37929C1.23104 4.18632 1.08886 4.12743 0.984035 4.0226C0.879205 3.91777 0.820312 3.77559 0.820312 3.62734C0.820312 3.47909 0.879205 3.33691 0.984035 3.23208C1.08886 3.12725 1.23104 3.06836 1.37929 3.06836H12.5589C12.7072 3.06836 12.8494 3.12725 12.9542 3.23208C13.059 3.33691 13.1179 3.47909 13.1179 3.62734C13.1179 3.77559 13.059 3.91777 12.9542 4.0226C12.8494 4.12743 12.7072 4.18632 12.5589 4.18632Z" fill="black"/>
<path d="M9.20466 4.18592H4.73281C4.58456 4.18592 4.44238 4.12703 4.33755 4.0222C4.23272 3.91737 4.17383 3.77519 4.17383 3.62694V2.50898C4.17383 2.06422 4.35051 1.63769 4.66499 1.3232C4.97948 1.00871 5.40602 0.832031 5.85077 0.832031H8.0867C8.53145 0.832031 8.95799 1.00871 9.27248 1.3232C9.58697 1.63769 9.76365 2.06422 9.76365 2.50898V3.62694C9.76365 3.77519 9.70475 3.91737 9.59992 4.0222C9.49509 4.12703 9.35292 4.18592 9.20466 4.18592ZM5.29179 3.06796H8.64568V2.50898C8.64568 2.36073 8.58679 2.21855 8.48196 2.11372C8.37713 2.00889 8.23495 1.94999 8.0867 1.94999H5.85077C5.70252 1.94999 5.56034 2.00889 5.45551 2.11372C5.35068 2.21855 5.29179 2.36073 5.29179 2.50898V3.06796Z" fill="black"/>
<path d="M5.85097 12.0133C5.70272 12.0133 5.56054 11.9544 5.45571 11.8495C5.35088 11.7447 5.29199 11.6025 5.29199 11.4543V7.5414C5.29199 7.39315 5.35088 7.25097 5.45571 7.14614C5.56054 7.04131 5.70272 6.98242 5.85097 6.98242C5.99923 6.98242 6.1414 7.04131 6.24623 7.14614C6.35106 7.25097 6.40996 7.39315 6.40996 7.5414V11.4543C6.40996 11.6025 6.35106 11.7447 6.24623 11.8495C6.1414 11.9544 5.99923 12.0133 5.85097 12.0133Z" fill="black"/>
<path d="M8.0873 12.0133C7.93905 12.0133 7.79687 11.9544 7.69204 11.8495C7.58721 11.7447 7.52832 11.6025 7.52832 11.4543V7.5414C7.52832 7.39315 7.58721 7.25097 7.69204 7.14614C7.79687 7.04131 7.93905 6.98242 8.0873 6.98242C8.23555 6.98242 8.37773 7.04131 8.48256 7.14614C8.58739 7.25097 8.64628 7.39315 8.64628 7.5414V11.4543C8.64628 11.6025 8.58739 11.7447 8.48256 11.8495C8.37773 11.9544 8.23555 12.0133 8.0873 12.0133Z" fill="black"/>
</svg>
