<svg width="27" height="19" viewBox="0 0 27 19" fill="none" xmlns="http://www.w3.org/2000/svg">
<path fill-rule="evenodd" clip-rule="evenodd" d="M7.33822 18.5201C3.57097 18.5201 0.504883 15.9401 0.504883 12.7701V3.19008C0.504883 1.89008 1.21793 1.44008 1.64575 1.29008C2.07358 1.14008 2.953 1.03008 4.04633 1.95008L7.1243 4.54008C7.24314 4.64008 7.43329 4.64008 7.54025 4.54008L11.8066 0.950078C12.591 0.290078 13.9695 0.290078 14.742 0.950078L19.0084 4.54008C19.1272 4.64008 19.3173 4.64008 19.4243 4.54008L22.5023 1.95008C23.5956 1.03008 24.475 1.15008 24.9029 1.29008C25.3307 1.44008 26.0437 1.88008 26.0437 3.19008V12.7801C26.0556 16.2101 23.3104 18.5201 19.2223 18.5201H7.33822ZM2.28749 3.19008V12.7801C2.28749 15.1201 4.55735 17.0301 7.33822 17.0301H19.2223C22.2884 17.0301 24.273 15.3601 24.273 12.7801V3.19008C24.273 2.95008 24.2373 2.81008 24.2017 2.73008C24.1066 2.77008 23.964 2.85008 23.762 3.02008L20.684 5.61008C19.8997 6.27008 18.5211 6.27008 17.7487 5.61008L13.4823 2.02008C13.3634 1.92008 13.1733 1.92008 13.0663 2.02008L8.81184 5.60008C8.02749 6.26008 6.64894 6.26008 5.87648 5.60008L2.79851 3.01008C2.59648 2.84008 2.44198 2.76008 2.3588 2.72008C2.32314 2.80008 2.28749 2.95008 2.28749 3.19008Z" fill="#292D32"/>
</svg>
