<svg width="21" height="19" viewBox="0 0 21 19" fill="none" xmlns="http://www.w3.org/2000/svg">
<path d="M4.03675 17.7281L6.62535 11.8775L6.63025 11.8664L6.63448 11.8551C7.34682 9.93904 7.26396 7.85925 6.43614 6.00061L6.10768 5.26316L5.71991 5.97122L2.46516 11.9143C2.46513 11.9144 2.4651 11.9144 2.46508 11.9145C2.44645 11.9483 2.40802 11.9835 2.3511 12.0007C2.29244 12.0185 2.22729 12.0136 2.17389 11.9893C2.17368 11.9892 2.17346 11.9891 2.17325 11.989L0.965112 11.4289L0.964812 11.4288C0.911815 11.4043 0.882385 11.3674 0.869582 11.3354C0.857361 11.3048 0.858058 11.2752 0.871872 11.2462C0.871905 11.2462 0.871939 11.2461 0.871973 11.246L5.31566 2.00486C5.49374 1.63555 5.81255 1.34736 6.23473 1.20833L6.23524 1.20816C6.65931 1.06788 7.08951 1.09324 7.49371 1.28024L8.00329 1.53315C8.01082 2.37629 8.20171 3.16934 8.51922 3.7687C8.83154 4.35826 9.33272 4.86966 9.98966 4.86966C10.6467 4.86966 11.1479 4.35794 11.4601 3.76838C11.7579 3.20619 11.9443 2.4737 11.9725 1.68959L12.0007 1.67838C12.0112 1.67414 12.0243 1.66878 12.0379 1.66288L13.0209 1.29415L13.0354 1.28874L13.0493 1.28224C13.4537 1.09392 13.9266 1.06703 14.3524 1.2081L14.3531 1.20833C14.7824 1.34973 15.1178 1.64216 15.2927 2.0048C15.2927 2.00482 15.2927 2.00484 15.2927 2.00486L19.7467 11.246C19.7468 11.2461 19.7468 11.2462 19.7469 11.2463C19.762 11.2781 19.762 11.3085 19.7507 11.3375C19.739 11.3675 19.7114 11.4035 19.6585 11.4284C19.6583 11.4286 19.658 11.4287 19.6578 11.4288L18.4559 11.9851C18.4555 11.9853 18.4551 11.9854 18.4548 11.9856C18.4078 12.0065 18.3431 12.0123 18.2766 11.9924C18.2351 11.98 18.1904 11.9444 18.1648 11.8979C18.1648 11.8979 18.1647 11.8978 18.1647 11.8977L14.9102 5.936L14.5228 5.22636L14.1937 5.96485C13.3659 7.82258 13.2829 9.86675 13.9962 11.783L14.0001 11.7935L14.0046 11.8038L16.596 17.7278C15.2363 17.9489 13.1298 18.0588 10.3213 18.0588H10.3212H10.3212H10.3212H10.3212H10.3212H10.3211H10.3211H10.3211H10.3211H10.3211H10.3211H10.321H10.321H10.321H10.321H10.321H10.3209H10.3209H10.3209H10.3209H10.3209H10.3208H10.3208H10.3208H10.3208H10.3208H10.3207H10.3207H10.3207H10.3207H10.3207H10.3206H10.3206H10.3206H10.3206H10.3205H10.3205H10.3205H10.3205H10.3205H10.3204H10.3204H10.3204H10.3204H10.3204H10.3203H10.3203H10.3203H10.3203H10.3203H10.3202H10.3202H10.3202H10.3202H10.3201H10.3201H10.3201H10.3201H10.3201H10.32H10.32H10.32H10.32H10.3199H10.3199H10.3199H10.3199H10.3199H10.3198H10.3198H10.3198H10.3198H10.3197H10.3197H10.3197H10.3197H10.3197H10.3196H10.3196H10.3196H10.3196H10.3195H10.3195H10.3195H10.3195H10.3195H10.3194H10.3194H10.3194H10.3194H10.3193H10.3193H10.3193H10.3193H10.3192H10.3192H10.3192H10.3192H10.3192H10.3191H10.3191H10.3191H10.3191H10.319H10.319H10.319H10.319H10.3189H10.3189H10.3189H10.3189H10.3189H10.3188H10.3188H10.3188H10.3188H10.3187H10.3187H10.3187H10.3187H10.3186H10.3186H10.3186H10.3186H10.3186H10.3185H10.3185H10.3185H10.3185H10.3184H10.3184H10.3184H10.3184H10.3183H10.3183H10.3183H10.3183H10.3183H10.3182H10.3182H10.3182H10.3182H10.3181H10.3181H10.3181H10.3181H10.318H10.318H10.318H10.318H10.3179H10.3179H10.3179H10.3179H10.3179H10.3178H10.3178H10.3178H10.3178H10.3177H10.3177H10.3177H10.3177H10.3177H10.3176H10.3176H10.3176H10.3176H10.3175H10.3175H10.3175H10.3175H10.3174H10.3174H10.3174H10.3174H10.3174H10.3173H10.3173H10.3173H10.3173H10.3172H10.3172H10.3172H10.3172H10.3172H10.3171H10.3171H10.3171H10.3171H10.317H10.317H10.317H10.317H10.317H10.3169H10.3169H10.3169H10.3169H10.3168H10.3168H10.3168H10.3168H10.3168H10.3167H10.3167H10.3167H10.3167H10.3167H10.3166H10.3166H10.3166H10.3166H10.3165H10.3165H10.3165H10.3165H10.3165H10.3164H10.3164H10.3164H10.3164H10.3164H10.3163H10.3163H10.3163H10.3163H10.3163H10.3162H10.3162H10.3162H10.3162H10.3162H10.3161H10.3161H10.3161H10.3161H10.3161H10.316H10.316H10.316H10.316H10.316H10.3159H10.3159H10.3159H10.3159H10.3159H10.3158H10.3158H10.3158H10.3158H10.3158H10.3157H10.3157H10.3157H10.3157H10.3157H10.3156H10.3156H10.3156H10.3156H10.3156H10.3156H10.3155H10.3155H10.3155H10.3155H10.3155H10.3154H10.3154H10.3154H10.3154H10.3154H10.3153H10.3153H10.3153H10.3153H10.3153H10.3152H10.3152H10.3152H10.3152H10.3152H10.3151H10.3151H10.3151H10.3151H10.3151H10.315H10.315H10.315H10.315H10.315H10.3149H10.3149H10.3149H10.3149H10.3148H10.3148H10.3148H10.3148H10.3148H10.3147H10.3147H10.3147H10.3147H10.3147H10.3146H10.3146H10.3146H10.3146H10.3145H10.3145H10.3145H10.3145H10.3145H10.3144H10.3144H10.3144H10.3144H10.3143H10.3143H10.3143H10.3143H10.3143H10.3142H10.3142H10.3142H10.3142H10.3141H10.3141H10.3141H10.3141H10.3141H10.314H10.314H10.314H10.314H10.3139H10.3139H10.3139H10.3139H10.3139H10.3138H10.3138H10.3138H10.3138H10.3137H10.3137H10.3137H10.3137H10.3136H10.3136H10.3136H10.3136H10.3136H10.3135H10.3135H10.3135H10.3135H10.3134H10.3134H10.3134H10.3134H10.3133H10.3133H10.3133H10.3133H10.3133H10.3132H10.3132H10.3132H10.3132H10.3131H10.3131H10.3131H10.3131H10.313H10.313H10.313H10.313H10.313H10.3129H10.3129H10.3129H10.3129H10.3128H10.3128H10.3128H10.3128H10.3127H10.3127H10.3127H10.3127H10.3127H10.3126H10.3126H10.3126H10.3126H10.3125H10.3125H10.3125H10.3125H10.3124H10.3124H10.3124H10.3124H10.3124H10.3123H10.3123H10.3123H10.3123H10.3122H10.3122H10.3122H10.3122H10.3121H10.3121H10.3121H10.3121H10.3121H10.312H10.312H10.312H10.312H10.3119H10.3119H10.3119H10.3119H10.3118H10.3118H10.3118H10.3118H10.3118H10.3117H10.3117H10.3117H10.3117H10.3116H10.3116H10.3116H10.3116H10.3116H10.3115H10.3115H10.3115H10.3115H10.3114H10.3114H10.3114H10.3114H10.3114H10.3113H10.3113H10.3113H10.3113H10.3112H10.3112H10.3112H10.3112H10.3112H10.3111H10.3111H10.3111H10.3111H10.3111H10.311H10.311H10.311H10.311H10.3109H10.3109H10.3109H10.3109H10.3109H10.3108H10.3108H10.3108H10.3108H10.3108H10.3107H10.3107H10.3107H10.3107H10.3107H10.3106H10.3106H10.3106H10.3106H10.3106H10.3105H10.3105H10.3105H10.3105H10.3105H10.3104H10.3104H10.3104H10.3104H10.3104H10.3103H10.3103H10.3103H10.3103H10.3103H10.3102H10.3102H10.3102H10.3102H10.3102H10.3102C7.50303 18.0588 5.39715 17.949 4.03675 17.7281ZM11.9763 1.4797C11.9763 1.48023 11.9763 1.48076 11.9763 1.48129V1.4797Z" stroke="black" stroke-width="0.8"/>
</svg>
