<svg width="23" height="23" viewBox="0 0 23 23" fill="none" xmlns="http://www.w3.org/2000/svg">
<path fill-rule="evenodd" clip-rule="evenodd" d="M14.9712 21.4551L11.9812 19.6851C11.6712 19.5051 11.0712 19.5051 10.7712 19.6851L7.77121 21.4551C6.00121 22.5051 4.96121 22.0851 4.49121 21.7451C4.03121 21.4051 3.31121 20.5351 3.78121 18.5351L4.49121 15.4651C4.57121 15.1451 4.41121 14.5951 4.17121 14.3551L1.69121 11.8751C0.451211 10.6351 0.551212 9.57515 0.721212 9.05515C0.891212 8.53515 1.43121 7.61515 3.15121 7.32515L6.34121 6.79515C6.64121 6.74515 7.07121 6.42515 7.20121 6.15515L8.97121 2.62515C9.77121 1.01515 10.8212 0.775146 11.3712 0.775146C11.9212 0.775146 12.9712 1.01515 13.7712 2.62515L15.5312 6.14515C15.6712 6.41515 16.1012 6.73515 16.4012 6.78515L19.5912 7.31515C21.3212 7.60515 21.8612 8.52515 22.0212 9.04515C22.1812 9.56515 22.2812 10.6251 21.0512 11.8651L18.5712 14.3551C18.3312 14.5951 18.1812 15.1351 18.2512 15.4651L18.9612 18.5351C19.4212 20.5351 18.7112 21.4051 18.2512 21.7451C18.0012 21.9251 17.6012 22.1251 17.0312 22.1251C16.5012 22.1251 15.8212 21.9551 14.9712 21.4551Z" fill="white"/>
</svg>
