<svg width="26" height="21" viewBox="0 0 26 21" fill="none" xmlns="http://www.w3.org/2000/svg">
<path d="M1.07947 20.6455H25.4545C25.627 20.6455 25.767 20.5055 25.767 20.333C25.767 20.1605 25.627 20.0205 25.4545 20.0205H23.5795V5.33301C23.5795 4.81613 23.1588 4.39551 22.642 4.39551H18.892C18.3751 4.39551 17.9545 4.81613 17.9545 5.33301V20.0205H16.0795V1.58301C16.0795 1.06613 15.6588 0.645508 15.142 0.645508H11.392C10.8751 0.645508 10.4545 1.06613 10.4545 1.58301V20.0205H8.57947V10.333C8.57947 9.81613 8.15884 9.39551 7.64197 9.39551H3.89197C3.37509 9.39551 2.95447 9.81613 2.95447 10.333V20.0205H1.07947C0.906968 20.0205 0.766968 20.1605 0.766968 20.333C0.766968 20.5055 0.906968 20.6455 1.07947 20.6455ZM18.5795 5.33301C18.5795 5.16051 18.7201 5.02051 18.892 5.02051H22.642C22.8138 5.02051 22.9545 5.16051 22.9545 5.33301V20.0205H18.5795V5.33301ZM11.0795 1.58301C11.0795 1.41051 11.2201 1.27051 11.392 1.27051H15.142C15.3138 1.27051 15.4545 1.41051 15.4545 1.58301V20.0205H11.0795V1.58301ZM3.57947 10.333C3.57947 10.1605 3.72009 10.0205 3.89197 10.0205H7.64197C7.81384 10.0205 7.95447 10.1605 7.95447 10.333V20.0205H3.57947V10.333Z" fill="black"/>
</svg>
