<svg width="17" height="16" viewBox="0 0 17 16" fill="none" xmlns="http://www.w3.org/2000/svg">
<path d="M7.61874 1.36626C7.67889 1.06107 7.46993 0.766852 7.15201 0.709119C6.83406 0.651393 6.52758 0.852001 6.46745 1.1572L5.6714 5.19711L1.96542 5.19878C1.64186 5.19892 1.37969 5.45083 1.37984 5.76145C1.37998 6.07206 1.64241 6.32374 1.96597 6.3236L5.44974 6.32203L4.71098 10.0712L1.18428 10.0728C0.86072 10.0729 0.598545 10.3249 0.598694 10.6355C0.598842 10.9461 0.861267 11.1978 1.18482 11.1976L4.48931 11.1961L3.73343 15.0322C3.67329 15.3374 3.88227 15.6316 4.20019 15.6893C4.51811 15.7471 4.82459 15.5465 4.88473 15.2413L5.68191 11.1956L9.95787 11.1937L9.20149 15.0322C9.14134 15.3374 9.3503 15.6316 9.66822 15.6893C9.98615 15.7471 10.2927 15.5465 10.3527 15.2413L11.1504 11.1932L14.8548 11.1915C15.1784 11.1913 15.4405 10.9394 15.4404 10.6288C15.4402 10.3182 15.1778 10.0666 14.8542 10.0666L11.3721 10.0682L12.1109 6.31904L15.6359 6.31746C15.9595 6.31731 16.2217 6.0654 16.2215 5.75479C16.2214 5.44417 15.959 5.19249 15.6354 5.19264L12.3325 5.19412L13.0868 1.36626C13.147 1.06107 12.9379 0.766852 12.62 0.709119C12.3021 0.651393 11.9956 0.852001 11.9355 1.1572L11.1399 5.19466L6.864 5.19658L7.61874 1.36626ZM6.64233 6.3215L10.9183 6.31958L10.1795 10.0687L5.90357 10.0707L6.64233 6.3215Z" fill="#212121"/>
</svg>
