<svg width="206" height="49" viewBox="0 0 206 49" fill="none" xmlns="http://www.w3.org/2000/svg">
<path d="M30.1272 1.76837L24.2962 4.08959L29.2697 6.34152L25.531 9.11315L37.9474 10.7414L46.9339 7.93515L46.1107 12.7509L42.0977 15.7304L36.0267 18.1209L28.4122 18.3634L19.0141 16.3193L14.4523 12.8548L13.4233 17.0122L16.6475 21.5161L14.4523 24.842L13.8692 30.4891L7.11225 34.0576L4.88279 40.1204L0.972656 47.4652L3.64801 48.1581L6.63206 46.4605L10.5079 38.7693L18.0538 37.9724L21.8267 35.478L24.6736 31.5631L32.6996 32.3946L42.4407 33.4339L59.7276 31.5631L65.2498 29.7269L67.9594 31.9442H70.7377L72.7271 30.0387L67.6508 25.9852L60.8594 26.7127L55.0286 25.7774L55.2687 22.7632L54.857 18.3634L61.9914 14.9335L63.1918 12.1966L60.8594 8.76668L56.2976 5.64862L51.53 5.12894L45.3904 1.76837L37.9474 0.763672L30.1272 1.76837ZM30.1272 1.76837L36.0267 4.08959L30.1272 1.76837Z" fill="white"/>
<path d="M30.1272 1.76837L24.2962 4.08959L29.2697 6.34152L25.531 9.11315L37.9474 10.7414L46.9339 7.93515L46.1107 12.7509L42.0977 15.7304L36.0267 18.1209L28.4122 18.3634L19.0141 16.3193L14.4523 12.8548L13.4233 17.0122L16.6475 21.5161L14.4523 24.842L13.8692 30.4891L7.11225 34.0576L4.88279 40.1204L0.972656 47.4652L3.64801 48.1581L6.63206 46.4605L10.5079 38.7693L18.0538 37.9724L21.8267 35.478L24.6736 31.5631L32.6996 32.3946L42.4407 33.4339L59.7276 31.5631L65.2498 29.7269L67.9594 31.9442H70.7377L72.7271 30.0387L67.6508 25.9852L60.8594 26.7127L55.0286 25.7774L55.2687 22.7632L54.857 18.3634L61.9914 14.9335L63.1918 12.1966L60.8594 8.76668L56.2976 5.64862L51.53 5.12894L45.3904 1.76837L37.9474 0.763672L30.1272 1.76837ZM30.1272 1.76837L36.0267 4.08959" stroke="black" stroke-width="0.615926"/>
<path d="M6.59714 46.3566L4.23047 41.6449L10.5073 38.9425L7.42032 34.2655L15.9952 33.0875L13.7314 30.2812" stroke="black" stroke-width="0.615926"/>
<path d="M16.2012 33.2598L18.019 37.8676" stroke="black" stroke-width="0.615926"/>
<path d="M19.0826 16.5273L20.1116 25.8468L16.6816 21.5855" stroke="black" stroke-width="0.615926"/>
<path d="M20.2148 25.9512L24.5023 31.4252" stroke="black" stroke-width="0.615926"/>
<path d="M20.2148 25.9512L16.3047 33.3653" stroke="black" stroke-width="0.615926"/>
<path d="M20.1113 25.8477L21.7234 35.479" stroke="black" stroke-width="0.615926"/>
<path d="M20.1797 25.8815L28.5144 18.7793V25.8815L24.7415 31.2861" stroke="black" stroke-width="0.615926"/>
<path d="M28.7207 25.7775L46.2477 24.1492L54.6853 18.6406" stroke="black" stroke-width="0.615926"/>
<path d="M46.3848 24.0449L54.9253 25.8811" stroke="black" stroke-width="0.615926"/>
<path d="M42.166 15.6621L46.4877 24.0462" stroke="black" stroke-width="0.615926"/>
<path d="M36.0259 18.0859L37.3636 24.4953L28.6172 18.7442" stroke="black" stroke-width="0.615926"/>
<path d="M37.8444 24.7383L33.1797 32.4295" stroke="black" stroke-width="0.615926"/>
<path d="M46.4886 24.1484L42.75 33.4679" stroke="black" stroke-width="0.615926"/>
<path d="M46.5898 24.1484L54.3072 31.6664L55.0276 25.8807" stroke="black" stroke-width="0.615926"/>
<path d="M61.1689 26.7129L59.7969 31.4246" stroke="black" stroke-width="0.615926"/>
<path d="M67.6853 25.8809L65.4902 29.7957" stroke="black" stroke-width="0.615926"/>
<path d="M47.0371 8.00353L51.5304 5.19727" stroke="black" stroke-width="0.615926"/>
<path d="M29.373 6.30649L35.9242 3.7774L43.1271 3.11914H45.7682L51.1189 5.05927" stroke="black" stroke-width="0.615926"/>
<path d="M47.2078 7.93642L35.8203 4.16016L37.9469 10.6388" stroke="black" stroke-width="0.615926"/>
<path d="M45.9395 12.752L51.3587 14.3109L54.823 18.2604" stroke="black" stroke-width="0.615926"/>
<path d="M46.8652 7.96941L53.828 8.29829M53.828 8.29829L56.4004 8.4198M53.828 8.29829L53.3136 9.80557M56.4004 8.4198L55.543 10.3946M56.4004 8.4198L56.6062 6.0293M55.543 10.3946L53.3136 9.80557M55.543 10.3946L57.3951 12.6465M53.3136 9.80557L51.5643 14.0323L57.3951 12.6465M57.3951 12.6465L62.0255 14.6559M57.3951 12.6465L61.0995 9.11273" stroke="black" stroke-width="0.615926"/>
<path d="M83.2109 35.7527V18.0212H86.7019V20.1873H86.8599C87.015 19.8403 87.2394 19.4876 87.5331 19.1294C87.8323 18.7656 88.2202 18.4634 88.6968 18.2227C89.1789 17.9764 89.7773 17.8533 90.4921 17.8533C91.4231 17.8533 92.2821 18.0996 93.0689 18.5921C93.8557 19.079 94.4849 19.8151 94.9558 20.8001C95.4266 21.7796 95.6624 23.0082 95.6624 24.4858C95.6624 25.9242 95.432 27.1388 94.972 28.1295C94.5173 29.1145 93.8971 29.8617 93.1103 30.3711C92.3289 30.8748 91.4535 31.1267 90.4838 31.1267C89.7967 31.1267 89.2121 31.0119 88.73 30.7825C88.2534 30.553 87.8628 30.2647 87.558 29.9177C87.2533 29.5651 87.0206 29.2097 86.8599 28.8515H86.7517V35.7527H83.2109ZM86.6769 24.469C86.6769 25.2358 86.7823 25.9046 86.9928 26.4756C87.2034 27.0464 87.5081 27.4914 87.9071 27.8104C88.3061 28.1239 88.791 28.2806 89.3617 28.2806C89.9379 28.2806 90.4256 28.121 90.8246 27.8021C91.2236 27.4774 91.5255 27.0296 91.7306 26.4587C91.9411 25.8822 92.0464 25.219 92.0464 24.469C92.0464 23.7245 91.9439 23.0698 91.7389 22.5044C91.5339 21.9391 91.2318 21.4969 90.8329 21.1779C90.4339 20.8589 89.9435 20.6994 89.3617 20.6994C88.7854 20.6994 88.2978 20.8533 87.8988 21.1611C87.5054 21.4689 87.2034 21.9056 86.9928 22.4708C86.7823 23.0361 86.6769 23.7022 86.6769 24.469ZM100.363 30.9168V18.0212H103.796V20.2712H103.929C104.162 19.4708 104.552 18.8663 105.101 18.4578C105.65 18.0436 106.282 17.8365 106.996 17.8365C107.174 17.8365 107.365 17.8477 107.57 17.8701C107.774 17.8924 107.954 17.9233 108.11 17.9625V21.1359C107.943 21.0856 107.714 21.0408 107.42 21.0016C107.126 20.9624 106.858 20.9428 106.614 20.9428C106.093 20.9428 105.627 21.0576 105.218 21.2871C104.812 21.5109 104.491 21.8244 104.253 22.2274C104.02 22.6304 103.904 23.0949 103.904 23.6211V30.9168H100.363ZM117.505 31.1687C116.192 31.1687 115.062 30.9 114.114 30.3627C113.172 29.8198 112.446 29.053 111.936 28.0623C111.426 27.0661 111.172 25.8879 111.172 24.5277C111.172 23.2012 111.426 22.0371 111.936 21.0352C112.446 20.0333 113.164 19.2525 114.089 18.6928C115.02 18.1331 116.111 17.8533 117.363 17.8533C118.206 17.8533 118.99 17.9904 119.716 18.2646C120.448 18.5333 121.085 18.9391 121.628 19.482C122.176 20.025 122.603 20.7077 122.908 21.5306C123.212 22.3477 123.365 23.3048 123.365 24.4018V25.3841H112.584V23.1677H120.032C120.032 22.6528 119.921 22.1966 119.7 21.7992C119.478 21.4018 119.17 21.0912 118.777 20.8673C118.389 20.6378 117.937 20.5231 117.422 20.5231C116.885 20.5231 116.408 20.649 115.992 20.9009C115.582 21.1471 115.261 21.4802 115.028 21.8999C114.795 22.3141 114.676 22.7759 114.671 23.2852V25.3925C114.671 26.0305 114.787 26.5819 115.02 27.0464C115.258 27.511 115.594 27.8692 116.026 28.121C116.458 28.3729 116.97 28.4989 117.563 28.4989C117.957 28.4989 118.317 28.4429 118.644 28.3309C118.97 28.219 119.25 28.0511 119.484 27.8272C119.716 27.6034 119.893 27.3291 120.016 27.0044L123.29 27.2227C123.124 28.0176 122.783 28.7115 122.268 29.3049C121.758 29.8925 121.099 30.3515 120.289 30.6817C119.486 31.0064 118.558 31.1687 117.505 31.1687ZM138.639 21.6984L135.397 21.8999C135.342 21.6201 135.222 21.3683 135.04 21.1443C134.857 20.9149 134.616 20.7329 134.317 20.5986C134.023 20.4587 133.671 20.3888 133.261 20.3888C132.712 20.3888 132.25 20.5062 131.873 20.7414C131.496 20.9708 131.308 21.2787 131.308 21.6649C131.308 21.9727 131.43 22.2329 131.674 22.4456C131.918 22.6584 132.335 22.8291 132.929 22.9578L135.239 23.4279C136.481 23.6854 137.405 24.0995 138.016 24.6705C138.625 25.2414 138.93 25.9914 138.93 26.9205C138.93 27.7657 138.683 28.5072 138.19 29.1453C137.702 29.7834 137.032 30.2815 136.178 30.6397C135.33 30.9924 134.353 31.1687 133.245 31.1687C131.554 31.1687 130.208 30.8132 129.205 30.1024C128.208 29.386 127.623 28.4121 127.451 27.1807L130.934 26.996C131.039 27.5166 131.294 27.914 131.699 28.1882C132.103 28.4568 132.621 28.5912 133.253 28.5912C133.873 28.5912 134.372 28.4708 134.749 28.2302C135.131 27.9839 135.325 27.6677 135.33 27.2815C135.325 26.9569 135.189 26.691 134.923 26.4839C134.657 26.2712 134.247 26.1089 133.693 25.997L131.482 25.552C130.236 25.3002 129.307 24.8635 128.697 24.2423C128.093 23.6211 127.792 22.8291 127.792 21.8664C127.792 21.038 128.013 20.3244 128.457 19.7255C128.905 19.1266 129.535 18.6648 130.344 18.3402C131.158 18.0156 132.111 17.8533 133.203 17.8533C134.815 17.8533 136.084 18.1975 137.009 18.886C137.94 19.5744 138.484 20.5119 138.639 21.6984ZM154.123 21.6984L150.881 21.8999C150.825 21.6201 150.706 21.3683 150.524 21.1443C150.341 20.9149 150.1 20.7329 149.8 20.5986C149.506 20.4587 149.154 20.3888 148.745 20.3888C148.197 20.3888 147.734 20.5062 147.357 20.7414C146.979 20.9708 146.791 21.2787 146.791 21.6649C146.791 21.9727 146.914 22.2329 147.157 22.4456C147.401 22.6584 147.819 22.8291 148.413 22.9578L150.723 23.4279C151.964 23.6854 152.889 24.0995 153.499 24.6705C154.108 25.2414 154.414 25.9914 154.414 26.9205C154.414 27.7657 154.167 28.5072 153.674 29.1453C153.186 29.7834 152.516 30.2815 151.662 30.6397C150.814 30.9924 149.837 31.1687 148.728 31.1687C147.038 31.1687 145.691 30.8132 144.688 30.1024C143.691 29.386 143.107 28.4121 142.935 27.1807L146.418 26.996C146.523 27.5166 146.778 27.914 147.182 28.1882C147.586 28.4568 148.105 28.5912 148.737 28.5912C149.357 28.5912 149.856 28.4708 150.233 28.2302C150.615 27.9839 150.809 27.6677 150.814 27.2815C150.809 26.9569 150.673 26.691 150.407 26.4839C150.141 26.2712 149.731 26.1089 149.177 25.997L146.966 25.552C145.719 25.3002 144.791 24.8635 144.181 24.2423C143.577 23.6211 143.276 22.8291 143.276 21.8664C143.276 21.038 143.497 20.3244 143.94 19.7255C144.389 19.1266 145.018 18.6648 145.827 18.3402C146.642 18.0156 147.595 17.8533 148.686 17.8533C150.299 17.8533 151.568 18.1975 152.493 18.886C153.424 19.5744 153.967 20.5119 154.123 21.6984ZM162.525 23.4615V30.9168H158.984V13.7227H162.425V20.2964H162.574C162.862 19.5352 163.328 18.9391 163.97 18.5081C164.613 18.0716 165.42 17.8533 166.389 17.8533C167.276 17.8533 168.049 18.0492 168.708 18.4409C169.374 18.8271 169.889 19.3841 170.254 20.1117C170.626 20.8337 170.809 21.6984 170.803 22.7059V30.9168H167.263V23.344C167.268 22.5492 167.068 21.9308 166.664 21.4886C166.265 21.0464 165.705 20.8253 164.985 20.8253C164.502 20.8253 164.076 20.9289 163.705 21.1359C163.339 21.3431 163.051 21.6452 162.841 22.0427C162.635 22.4344 162.53 22.9074 162.525 23.4615ZM181.699 31.1687C180.408 31.1687 179.291 30.8916 178.349 30.3375C177.413 29.7778 176.689 28.9998 176.179 28.0036C175.67 27.0017 175.415 25.8402 175.415 24.5194C175.415 23.1872 175.67 22.0231 176.179 21.0268C176.689 20.0249 177.413 19.2469 178.349 18.6928C179.291 18.1331 180.408 17.8533 181.699 17.8533C182.99 17.8533 184.103 18.1331 185.04 18.6928C185.982 19.2469 186.708 20.0249 187.217 21.0268C187.728 22.0231 187.982 23.1872 187.982 24.5194C187.982 25.8402 187.728 27.0017 187.217 28.0036C186.708 28.9998 185.982 29.7778 185.04 30.3375C184.103 30.8916 182.99 31.1687 181.699 31.1687ZM181.715 28.3981C182.303 28.3981 182.793 28.2302 183.187 27.8943C183.58 27.553 183.876 27.0884 184.075 26.5007C184.281 25.9131 184.383 25.2442 184.383 24.4942C184.383 23.7442 184.281 23.0753 184.075 22.4876C183.876 21.8999 183.58 21.4354 183.187 21.0939C182.793 20.7526 182.303 20.5818 181.715 20.5818C181.123 20.5818 180.624 20.7526 180.219 21.0939C179.82 21.4354 179.518 21.8999 179.313 22.4876C179.113 23.0753 179.014 23.7442 179.014 24.4942C179.014 25.2442 179.113 25.9131 179.313 26.5007C179.518 27.0884 179.82 27.553 180.219 27.8943C180.624 28.2302 181.123 28.3981 181.715 28.3981ZM192.625 35.7527V18.0212H196.116V20.1873H196.274C196.429 19.8403 196.653 19.4876 196.948 19.1294C197.247 18.7656 197.635 18.4634 198.111 18.2227C198.593 17.9764 199.191 17.8533 199.907 17.8533C200.838 17.8533 201.697 18.0996 202.483 18.5921C203.27 19.079 203.899 19.8151 204.37 20.8001C204.841 21.7796 205.076 23.0082 205.076 24.4858C205.076 25.9242 204.846 27.1388 204.386 28.1295C203.932 29.1145 203.312 29.8617 202.525 30.3711C201.743 30.8748 200.867 31.1267 199.898 31.1267C199.211 31.1267 198.627 31.0119 198.144 30.7825C197.668 30.553 197.277 30.2647 196.972 29.9177C196.668 29.5651 196.435 29.2097 196.274 28.8515H196.166V35.7527H192.625ZM196.092 24.469C196.092 25.2358 196.197 25.9046 196.407 26.4756C196.617 27.0464 196.923 27.4914 197.321 27.8104C197.72 28.1239 198.205 28.2806 198.776 28.2806C199.352 28.2806 199.84 28.121 200.239 27.8021C200.638 27.4774 200.939 27.0296 201.145 26.4587C201.355 25.8822 201.461 25.219 201.461 24.469C201.461 23.7245 201.358 23.0698 201.153 22.5044C200.948 21.9391 200.646 21.4969 200.247 21.1779C199.848 20.8589 199.358 20.6994 198.776 20.6994C198.2 20.6994 197.712 20.8533 197.313 21.1611C196.92 21.4689 196.617 21.9056 196.407 22.4708C196.197 23.0361 196.092 23.7022 196.092 24.469Z" fill="white"/>
</svg>
