<svg width="22" height="21" viewBox="0 0 22 21" fill="none" xmlns="http://www.w3.org/2000/svg">
<g clip-path="url(#clip0_3662_52599)">
<path d="M4.30841 19.8127C4.36394 19.8675 4.43767 19.9001 4.51562 19.9042C4.5938 19.9083 4.67147 19.883 4.73254 19.834L15.3341 11.3671L15.4396 11.2829L15.5745 11.2797C16.9934 11.2469 18.3412 10.6518 19.3213 9.62527C20.3015 8.59873 20.8337 7.22488 20.8009 5.80594C20.7681 4.387 20.1729 3.03922 19.1464 2.05908C18.1198 1.07894 16.746 0.546744 15.327 0.579557L15.3174 0.579663C13.9403 0.57819 12.6157 1.10775 11.6192 2.05817C10.6227 3.00858 10.0311 4.30664 9.96735 5.68222L9.96135 5.8119L9.88034 5.91334L1.4129 16.5156C1.3639 16.5767 1.3391 16.6536 1.34321 16.7318C1.34732 16.8098 1.38034 16.8839 1.43522 16.9395M4.30841 19.8127C4.30824 19.8125 4.30858 19.8129 4.30841 19.8127ZM4.30841 19.8127L1.43522 16.9395M1.43522 16.9395C1.43507 16.9394 1.43537 16.9396 1.43522 16.9395ZM15.3153 10.525L15.4448 10.6545L15.6274 10.6411C16.4935 10.5775 17.3253 10.2758 18.0308 9.76928L18.4134 9.49457L18.0803 9.16151L12.0716 3.15276L11.7362 2.81739L11.4622 3.20452C10.9586 3.91617 10.6622 4.75358 10.6061 5.62361L10.5945 5.80422L10.7224 5.93219L15.3153 10.525ZM4.304 18.9056L4.55711 19.1587L4.83666 18.9352L14.4895 11.2158L14.8386 10.9366L14.5225 10.6205L10.6269 6.72494L10.3108 6.40888L10.0316 6.75797L2.31226 16.4108L2.0887 16.6903L2.34181 16.9434L4.304 18.9056ZM18.5496 8.70657L18.8859 9.0428L19.1596 8.65397C19.7985 7.74635 20.0965 6.64235 20.0011 5.53652C19.9057 4.4307 19.4231 3.39402 18.6383 2.60918C17.8534 1.82434 16.8168 1.34171 15.7109 1.24635C14.6051 1.15098 13.5011 1.449 12.5935 2.08788L12.2047 2.36158L12.5409 2.69782L18.5496 8.70657Z" stroke="#111111" stroke-width="1.2"/>
<path d="M9.05666 12.1901C9.19133 12.324 9.3735 12.3991 9.56338 12.3991C9.75327 12.3991 9.93543 12.324 10.0701 12.1901L11.5076 10.7526C11.6254 10.6151 11.6869 10.4383 11.6799 10.2574C11.6729 10.0765 11.5979 9.90493 11.4699 9.77692C11.3419 9.64891 11.1703 9.57393 10.9894 9.56694C10.8085 9.55995 10.6317 9.62148 10.4942 9.73923L9.05666 11.1767C8.9228 11.3114 8.84766 11.4935 8.84766 11.6834C8.84766 11.8733 8.9228 12.0555 9.05666 12.1901Z" fill="#111111"/>
</g>
<defs>
<clipPath id="clip0_3662_52599">
<rect width="22" height="21" fill="white"/>
</clipPath>
</defs>
</svg>
