<svg width="108" height="108" viewBox="0 0 108 108" fill="none" xmlns="http://www.w3.org/2000/svg">
<path d="M19.2854 15.4299H80.9993V46.2869H88.7133V7.71484H11.5703V100.287H53.9993V92.5718H19.2854V15.4299Z" fill="black"/>
<path d="M75.214 50.7852L54 61.3932V70.6998C54 82.3319 60.5718 92.9653 70.9752 98.167L75.214 100.286L79.4528 98.167C89.8562 92.9653 96.428 82.3319 96.428 70.6998V61.3932L75.214 50.7852ZM88.714 70.6987C88.714 79.4653 83.8434 87.3459 76.0029 91.2662L75.214 91.6606L74.4251 91.2662C66.5845 87.3459 61.714 79.4642 61.714 70.6987V66.1604L75.214 59.4104L88.714 66.1604V70.6987Z" fill="black"/>
<path d="M69.3847 72.0573L65.553 76.3931L75.388 85.0869L87.4041 71.261L83.0387 67.4641L74.8501 76.8867L69.3847 72.0573ZM27 27H73.286V34.714H27V27ZM27 46.286H57.857V54H27V46.286ZM27 65.571H42.429V73.285H27V65.571Z" fill="black"/>
</svg>
