<svg width="22" height="20" viewBox="0 0 22 20" fill="none" xmlns="http://www.w3.org/2000/svg">
<path d="M19.5556 1.25H2.44444C1.09427 1.25 0 2.36914 0 3.75V16.25C0 17.6309 1.09427 18.75 2.44444 18.75H19.5556C20.9057 18.75 22 17.6309 22 16.25V3.75C22 2.36914 20.9038 1.25 19.5556 1.25ZM20.1667 16.25C20.1667 16.5946 19.8925 16.875 19.5556 16.875H2.44444C2.10749 16.875 1.83333 16.5946 1.83333 16.25V3.75C1.83333 3.40539 2.10749 3.125 2.44444 3.125H19.5556C19.8925 3.125 20.1667 3.40539 20.1667 3.75V16.25ZM4.88889 5C4.21285 5 3.66667 5.55859 3.66667 6.25C3.66667 6.94023 4.21399 7.5 4.88889 7.5C5.56378 7.5 6.11111 6.94023 6.11111 6.25C6.11111 5.55859 5.56493 5 4.88889 5ZM4.88889 8.75C4.21285 8.75 3.66667 9.30859 3.66667 10C3.66667 10.6902 4.21399 11.25 4.88889 11.25C5.56378 11.25 6.11111 10.6902 6.11111 10C6.11111 9.30859 5.56493 8.75 4.88889 8.75ZM4.88889 12.5C4.21399 12.5 3.66667 13.0598 3.66667 13.75C3.66667 14.4402 4.21399 15 4.88889 15C5.56378 15 6.11111 14.4402 6.11111 13.75C6.11111 13.0586 5.56493 12.5 4.88889 12.5ZM17.4167 5.3125H8.21562C7.74201 5.3125 7.33333 5.73438 7.33333 6.25C7.33333 6.76562 7.74201 7.1875 8.21562 7.1875H17.4167C17.9227 7.1875 18.3333 6.76758 18.3333 6.25C18.3333 5.73242 17.9247 5.3125 17.4167 5.3125ZM17.4167 9.0625H8.21562C7.74201 9.0625 7.33333 9.48438 7.33333 10C7.33333 10.5176 7.74392 10.9375 8.21562 10.9375H17.4167C17.9227 10.9375 18.3333 10.5176 18.3333 10C18.3333 9.48047 17.9247 9.0625 17.4167 9.0625ZM17.4167 12.8125H8.21562C7.74201 12.8125 7.33333 13.2344 7.33333 13.75C7.33333 14.2656 7.74392 14.6875 8.21562 14.6875H17.4167C17.9227 14.6875 18.3333 14.2676 18.3333 13.75C18.3333 13.2324 17.9247 12.8125 17.4167 12.8125Z" fill="black"/>
</svg>
