<svg width="22" height="19" viewBox="0 0 22 19" fill="none" xmlns="http://www.w3.org/2000/svg">
<path d="M19.5556 0.75293H2.44444C1.09427 0.75293 0 1.87207 0 3.25293V15.7529C0 17.1338 1.09427 18.2529 2.44444 18.2529H19.5556C20.9057 18.2529 22 17.1338 22 15.7529V3.25293C22 1.87207 20.9038 0.75293 19.5556 0.75293ZM20.1667 15.7529C20.1667 16.0975 19.8925 16.3779 19.5556 16.3779H2.44444C2.10749 16.3779 1.83333 16.0975 1.83333 15.7529V3.25293C1.83333 2.90832 2.10749 2.62793 2.44444 2.62793H19.5556C19.8925 2.62793 20.1667 2.90832 20.1667 3.25293V15.7529ZM4.88889 4.50293C4.21285 4.50293 3.66667 5.06152 3.66667 5.75293C3.66667 6.44316 4.21399 7.00293 4.88889 7.00293C5.56378 7.00293 6.11111 6.44316 6.11111 5.75293C6.11111 5.06152 5.56493 4.50293 4.88889 4.50293ZM4.88889 8.25293C4.21285 8.25293 3.66667 8.81152 3.66667 9.50293C3.66667 10.1932 4.21399 10.7529 4.88889 10.7529C5.56378 10.7529 6.11111 10.1932 6.11111 9.50293C6.11111 8.81152 5.56493 8.25293 4.88889 8.25293ZM4.88889 12.0029C4.21399 12.0029 3.66667 12.5627 3.66667 13.2529C3.66667 13.9432 4.21399 14.5029 4.88889 14.5029C5.56378 14.5029 6.11111 13.9432 6.11111 13.2529C6.11111 12.5615 5.56493 12.0029 4.88889 12.0029ZM17.4167 4.81543H8.21562C7.74201 4.81543 7.33333 5.2373 7.33333 5.75293C7.33333 6.26855 7.74201 6.69043 8.21562 6.69043H17.4167C17.9227 6.69043 18.3333 6.27051 18.3333 5.75293C18.3333 5.23535 17.9247 4.81543 17.4167 4.81543ZM17.4167 8.56543H8.21562C7.74201 8.56543 7.33333 8.9873 7.33333 9.50293C7.33333 10.0205 7.74392 10.4404 8.21562 10.4404H17.4167C17.9227 10.4404 18.3333 10.0205 18.3333 9.50293C18.3333 8.9834 17.9247 8.56543 17.4167 8.56543ZM17.4167 12.3154H8.21562C7.74201 12.3154 7.33333 12.7373 7.33333 13.2529C7.33333 13.7686 7.74392 14.1904 8.21562 14.1904H17.4167C17.9227 14.1904 18.3333 13.7705 18.3333 13.2529C18.3333 12.7354 17.9247 12.3154 17.4167 12.3154Z" fill="black"/>
</svg>
