<svg width="18" height="13" viewBox="0 0 18 13" fill="none" xmlns="http://www.w3.org/2000/svg">
<path d="M3.99165 0.499463C4.23573 0.743546 4.23573 1.13927 3.99165 1.38335C1.22544 4.14956 1.22544 8.6345 3.99165 11.4007C4.23573 11.6448 4.23573 12.0405 3.99165 12.2846C3.74758 12.5287 3.35185 12.5287 3.10777 12.2846C-0.146599 9.03017 -0.146599 3.75384 3.10777 0.499463C3.35185 0.255387 3.74758 0.255387 3.99165 0.499463ZM14.8929 0.499463C18.1472 3.75384 18.1472 9.03017 14.8929 12.2846C14.6488 12.5287 14.2531 12.5287 14.009 12.2846C13.7649 12.0405 13.7649 11.6448 14.009 11.4007C16.7752 8.6345 16.7752 4.14956 14.009 1.38335C13.7649 1.13927 13.7649 0.743546 14.009 0.499463C14.2531 0.255387 14.6488 0.255387 14.8929 0.499463ZM6.34867 2.85649C6.59275 3.10056 6.59275 3.4963 6.34867 3.74037C4.88421 5.20484 4.88421 7.57917 6.34867 9.04367C6.59275 9.28775 6.59275 9.6835 6.34867 9.92759C6.1046 10.1717 5.70887 10.1717 5.46479 9.92759C3.51217 7.97492 3.51217 4.80909 5.46479 2.85649C5.70887 2.61241 6.1046 2.61241 6.34867 2.85649ZM12.5358 2.85649C14.4885 4.80909 14.4885 7.97492 12.5358 9.92759C12.2917 10.1717 11.8961 10.1717 11.652 9.92759C11.4079 9.6835 11.4079 9.28775 11.652 9.04367C13.1164 7.57917 13.1164 5.20484 11.652 3.74037C11.4079 3.4963 11.4079 3.10056 11.652 2.85649C11.8961 2.61241 12.2917 2.61241 12.5358 2.85649ZM9.00032 5.142C9.69066 5.142 10.2503 5.70167 10.2503 6.392C10.2503 7.08234 9.69066 7.642 9.00032 7.642C8.30999 7.642 7.75032 7.08234 7.75032 6.392C7.75032 5.70167 8.30999 5.142 9.00032 5.142Z" fill="black"/>
</svg>
