<svg width="17" height="17" viewBox="0 0 17 17" fill="none" xmlns="http://www.w3.org/2000/svg">
<path fill-rule="evenodd" clip-rule="evenodd" d="M5.16723 7.55762C5.16723 5.98739 6.59464 4.72534 8.34199 4.72534C10.0893 4.72534 11.5167 5.99473 11.5167 7.56495C11.5167 9.13518 10.0893 10.3972 8.34199 10.3972C6.59464 10.3972 5.16723 9.12784 5.16723 7.55762ZM6.39776 7.56495C6.39776 8.52617 7.26733 9.30394 8.34199 9.30394C9.41665 9.30394 10.2862 8.52617 10.2862 7.56495C10.2862 6.60374 9.40845 5.82597 8.34199 5.82597C7.27553 5.82597 6.39776 6.60374 6.39776 7.56495Z" fill="black"/>
<path fill-rule="evenodd" clip-rule="evenodd" d="M4.95298 15.4748C2.53294 13.391 -0.141405 10.0671 0.867627 6.11219C1.77822 2.52415 5.28112 0.917236 8.34103 0.917236C8.34103 0.917236 8.34103 0.917236 8.34923 0.917236C11.4091 0.917236 14.912 2.52415 15.8226 6.11952C16.8235 10.0744 14.1491 13.391 11.7291 15.4748C10.7775 16.2893 9.55515 16.7002 8.34103 16.7002C7.12691 16.7002 5.90459 16.2893 4.95298 15.4748ZM2.07354 6.35432C1.18756 9.81029 3.6158 12.7893 5.81435 14.675C7.23355 15.9004 9.45671 15.9004 10.8759 14.675C13.0663 12.7893 15.4945 9.81029 14.6249 6.35432C13.8046 3.15517 10.7283 2.01786 8.34103 2.01786C5.95381 2.01786 2.88569 3.15517 2.07354 6.35432Z" fill="black"/>
</svg>
