<svg width="2273" height="539" viewBox="0 0 2273 539" fill="none" xmlns="http://www.w3.org/2000/svg">
<path d="M66.1681 493.661L41.6948 445.424L106.602 417.758L74.6805 369.876L163.352 357.816L139.942 329.087" stroke="black" stroke-width="10"/>
<path d="M165.48 359.59L184.278 406.763" stroke="black" stroke-width="10"/>
<path d="M195.273 188.277L205.914 283.687L170.445 240.061" stroke="black" stroke-width="10"/>
<path d="M206.978 284.751L251.314 340.792" stroke="black" stroke-width="10"/>
<path d="M206.978 284.751L166.544 360.654" stroke="black" stroke-width="10"/>
<path d="M205.914 283.687L222.584 382.29" stroke="black" stroke-width="10"/>
<path d="M206.624 284.042L292.812 211.332V284.042L253.797 339.373" stroke="black" stroke-width="10"/>
<path d="M294.94 282.978L476.184 266.308L563.436 209.913" stroke="black" stroke-width="10"/>
<path d="M477.603 265.244L565.919 284.042" stroke="black" stroke-width="10"/>
<path d="M433.976 179.41L478.666 265.244" stroke="black" stroke-width="10"/>
<path d="M370.487 204.238L384.32 269.855L293.875 210.977" stroke="black" stroke-width="10"/>
<path d="M389.286 272.337L341.049 351.077" stroke="black" stroke-width="10"/>
<path d="M478.666 266.308L440.006 361.718" stroke="black" stroke-width="10"/>
<path d="M479.73 266.308L559.534 343.274L566.983 284.042" stroke="black" stroke-width="10"/>
<path d="M630.472 292.555L616.284 340.792" stroke="black" stroke-width="10"/>
<path d="M697.861 284.042L675.162 324.121" stroke="black" stroke-width="10"/>
<path d="M484.341 101.025L530.805 72.2954" stroke="black" stroke-width="10"/>
<path d="M301.679 83.6453L369.423 57.7533L443.907 51.0143H471.218L526.549 70.8767" stroke="black" stroke-width="10"/>
<path d="M309.482 37.1817L249.185 60.9455L300.615 84L261.954 112.375L390.35 129.045L483.277 100.316L474.765 149.617L433.267 180.12L370.488 204.593L291.748 207.076L194.564 186.149L147.391 150.681L136.75 193.243L170.091 239.352L147.391 273.402L141.361 331.215L71.4885 367.748L48.434 429.817L8 505.011L35.6654 512.104L66.5229 494.725L106.602 415.985L184.633 407.827L223.648 382.29L253.087 342.21L336.083 350.723L436.814 361.363L615.575 342.21L672.679 323.412L700.699 346.112H729.428L750 326.604L697.507 285.106L627.279 292.555L566.983 282.978L569.466 252.12L565.209 207.076L638.984 171.962L651.398 143.942L627.279 108.828L580.106 76.9063L530.805 71.5861L467.316 37.1817L390.35 26.8958L309.482 37.1817ZM309.482 37.1817L370.488 60.9455" stroke="black" stroke-width="10"/>
<path d="M486.115 100.316L368.359 61.6549L390.35 127.981" stroke="black" stroke-width="10"/>
<path d="M472.991 149.617L529.031 165.577L564.854 206.012" stroke="black" stroke-width="10"/>
<path d="M482.568 100.67L554.569 104.037M581.17 105.281L572.303 125.498M581.17 105.281L554.569 104.037M581.17 105.281L583.298 80.8079M572.303 125.498L549.249 119.468M572.303 125.498L591.456 148.553M549.249 119.468L554.569 104.037M549.249 119.468L531.16 162.74L591.456 148.553M591.456 148.553L639.338 169.124M591.456 148.553L629.762 112.375" stroke="black" stroke-width="10"/>
<path d="M899.696 305.182V110.182H938.474V134.003H940.229C941.952 130.187 944.445 126.309 947.707 122.369C951.031 118.368 955.34 115.045 960.634 112.398C965.989 109.689 972.636 108.335 980.577 108.335C990.918 108.335 1000.46 111.044 1009.2 116.46C1017.94 121.815 1024.93 129.91 1030.16 140.743C1035.39 151.515 1038.01 165.026 1038.01 181.276C1038.01 197.095 1035.45 210.452 1030.34 221.347C1025.29 232.18 1018.4 240.397 1009.66 245.999C1000.98 251.538 991.256 254.308 980.484 254.308C972.852 254.308 966.358 253.046 961.003 250.523C955.709 247.999 951.37 244.829 947.984 241.013C944.599 237.135 942.014 233.226 940.229 229.287H939.028V305.182H899.696ZM938.197 181.091C938.197 189.524 939.367 196.879 941.706 203.158C944.045 209.436 947.43 214.33 951.862 217.838C956.294 221.285 961.68 223.009 968.02 223.009C974.421 223.009 979.838 221.254 984.27 217.746C988.702 214.176 992.056 209.251 994.334 202.973C996.673 196.633 997.842 189.339 997.842 181.091C997.842 172.904 996.704 165.703 994.426 159.486C992.149 153.269 988.794 148.406 984.362 144.898C979.93 141.389 974.483 139.635 968.02 139.635C961.618 139.635 956.202 141.328 951.77 144.713C947.4 148.098 944.045 152.9 941.706 159.116C939.367 165.333 938.197 172.658 938.197 181.091ZM1090.23 252V110.182H1128.36V134.926H1129.84C1132.42 126.124 1136.76 119.476 1142.86 114.983C1148.95 110.428 1155.97 108.151 1163.91 108.151C1165.88 108.151 1168 108.274 1170.28 108.52C1172.55 108.766 1174.55 109.105 1176.28 109.536V144.436C1174.43 143.882 1171.88 143.39 1168.62 142.959C1165.35 142.528 1162.37 142.312 1159.66 142.312C1153.87 142.312 1148.7 143.574 1144.15 146.098C1139.65 148.56 1136.08 152.007 1133.44 156.439C1130.85 160.871 1129.56 165.98 1129.56 171.766V252H1090.23ZM1280.64 254.77C1266.06 254.77 1253.5 251.815 1242.97 245.906C1232.51 239.936 1224.45 231.503 1218.78 220.608C1213.12 209.652 1210.29 196.695 1210.29 181.737C1210.29 167.149 1213.12 154.346 1218.78 143.328C1224.45 132.31 1232.42 123.723 1242.7 117.568C1253.04 111.413 1265.16 108.335 1279.07 108.335C1288.43 108.335 1297.14 109.843 1305.2 112.859C1313.33 115.814 1320.41 120.277 1326.44 126.247C1332.53 132.218 1337.27 139.727 1340.66 148.776C1344.04 157.762 1345.74 168.288 1345.74 180.352V191.155H1225.98V166.78H1308.71C1308.71 161.117 1307.48 156.1 1305.02 151.73C1302.56 147.36 1299.14 143.944 1294.77 141.482C1290.46 138.958 1285.44 137.696 1279.72 137.696C1273.75 137.696 1268.46 139.081 1263.84 141.851C1259.28 144.559 1255.71 148.222 1253.13 152.838C1250.54 157.393 1249.22 162.471 1249.16 168.072V191.247C1249.16 198.264 1250.45 204.327 1253.04 209.436C1255.68 214.545 1259.41 218.484 1264.21 221.254C1269.01 224.024 1274.7 225.409 1281.29 225.409C1285.66 225.409 1289.66 224.794 1293.29 223.562C1296.92 222.331 1300.03 220.485 1302.62 218.023C1305.2 215.561 1307.17 212.545 1308.53 208.974L1344.9 211.375C1343.06 220.116 1339.27 227.748 1333.55 234.273C1327.89 240.736 1320.56 245.783 1311.57 249.415C1302.65 252.985 1292.34 254.77 1280.64 254.77ZM1515.4 150.622L1479.39 152.838C1478.78 149.76 1477.45 146.991 1475.42 144.528C1473.39 142.005 1470.71 140.004 1467.39 138.527C1464.13 136.988 1460.22 136.219 1455.66 136.219C1449.57 136.219 1444.43 137.511 1440.24 140.097C1436.06 142.62 1433.97 146.006 1433.97 150.253C1433.97 153.638 1435.32 156.5 1438.03 158.839C1440.74 161.179 1445.38 163.056 1451.97 164.472L1477.64 169.642C1491.43 172.473 1501.7 177.028 1508.48 183.307C1515.25 189.585 1518.63 197.833 1518.63 208.051C1518.63 217.346 1515.89 225.501 1510.41 232.518C1505 239.536 1497.55 245.014 1488.07 248.953C1478.65 252.831 1467.79 254.77 1455.48 254.77C1436.7 254.77 1421.75 250.861 1410.61 243.044C1399.53 235.165 1393.03 224.455 1391.12 210.913L1429.81 208.882C1430.98 214.607 1433.81 218.977 1438.31 221.993C1442.8 224.947 1448.55 226.425 1455.57 226.425C1462.46 226.425 1468 225.101 1472.19 222.455C1476.44 219.746 1478.59 216.268 1478.65 212.021C1478.59 208.451 1477.08 205.527 1474.13 203.25C1471.17 200.911 1466.62 199.126 1460.46 197.895L1435.9 193.001C1422.06 190.232 1411.74 185.43 1404.97 178.598C1398.26 171.766 1394.91 163.056 1394.91 152.469C1394.91 143.359 1397.37 135.511 1402.3 128.925C1407.28 122.339 1414.27 117.26 1423.26 113.69C1432.3 110.12 1442.89 108.335 1455.02 108.335C1472.93 108.335 1487.02 112.121 1497.3 119.692C1507.64 127.263 1513.68 137.573 1515.4 150.622ZM1687.4 150.622L1651.39 152.838C1650.77 149.76 1649.45 146.991 1647.42 144.528C1645.39 142.005 1642.71 140.004 1639.38 138.527C1636.12 136.988 1632.21 136.219 1627.66 136.219C1621.57 136.219 1616.43 137.511 1612.24 140.097C1608.05 142.62 1605.96 146.006 1605.96 150.253C1605.96 153.638 1607.32 156.5 1610.02 158.839C1612.73 161.179 1617.38 163.056 1623.97 164.472L1649.63 169.642C1663.42 172.473 1673.7 177.028 1680.47 183.307C1687.24 189.585 1690.63 197.833 1690.63 208.051C1690.63 217.346 1687.89 225.501 1682.41 232.518C1676.99 239.536 1669.55 245.014 1660.07 248.953C1650.65 252.831 1639.79 254.77 1627.47 254.77C1608.7 254.77 1593.74 250.861 1582.6 243.044C1571.52 235.165 1565.03 224.455 1563.12 210.913L1601.81 208.882C1602.98 214.607 1605.81 218.977 1610.3 221.993C1614.79 224.947 1620.55 226.425 1627.57 226.425C1634.46 226.425 1640 225.101 1644.19 222.455C1648.43 219.746 1650.59 216.268 1650.65 212.021C1650.59 208.451 1649.08 205.527 1646.12 203.25C1643.17 200.911 1638.62 199.126 1632.46 197.895L1607.9 193.001C1594.05 190.232 1583.74 185.43 1576.97 178.598C1570.26 171.766 1566.91 163.056 1566.91 152.469C1566.91 143.359 1569.37 135.511 1574.29 128.925C1579.28 122.339 1586.26 117.26 1595.25 113.69C1604.3 110.12 1614.89 108.335 1627.01 108.335C1644.92 108.335 1659.02 112.121 1669.3 119.692C1679.64 127.263 1685.67 137.573 1687.4 150.622ZM1780.73 170.011V252H1741.4V62.9091H1779.62V135.203H1781.28C1784.48 126.832 1789.65 120.277 1796.79 115.537C1803.93 110.736 1812.89 108.335 1823.66 108.335C1833.51 108.335 1842.1 110.49 1849.42 114.798C1856.81 119.045 1862.53 125.17 1866.59 133.172C1870.72 141.112 1872.75 150.622 1872.69 161.702V252H1833.36V168.719C1833.42 159.978 1831.2 153.177 1826.71 148.314C1822.28 143.451 1816.06 141.02 1808.06 141.02C1802.7 141.02 1797.96 142.159 1793.84 144.436C1789.78 146.714 1786.58 150.037 1784.24 154.408C1781.96 158.716 1780.79 163.918 1780.73 170.011ZM1993.72 254.77C1979.38 254.77 1966.97 251.723 1956.51 245.629C1946.11 239.474 1938.07 230.918 1932.41 219.962C1926.75 208.944 1923.92 196.171 1923.92 181.645C1923.92 166.995 1926.75 154.192 1932.41 143.236C1938.07 132.218 1946.11 123.662 1956.51 117.568C1966.97 111.413 1979.38 108.335 1993.72 108.335C2008.06 108.335 2020.43 111.413 2030.83 117.568C2041.3 123.662 2049.36 132.218 2055.02 143.236C2060.69 154.192 2063.52 166.995 2063.52 181.645C2063.52 196.171 2060.69 208.944 2055.02 219.962C2049.36 230.918 2041.3 239.474 2030.83 245.629C2020.43 251.723 2008.06 254.77 1993.72 254.77ZM1993.9 224.301C2000.43 224.301 2005.87 222.455 2010.25 218.761C2014.62 215.007 2017.91 209.898 2020.12 203.435C2022.4 196.972 2023.54 189.616 2023.54 181.368C2023.54 173.12 2022.4 165.764 2020.12 159.301C2017.91 152.838 2014.62 147.729 2010.25 143.974C2005.87 140.22 2000.43 138.342 1993.9 138.342C1987.32 138.342 1981.78 140.22 1977.28 143.974C1972.85 147.729 1969.5 152.838 1967.22 159.301C1965 165.764 1963.9 173.12 1963.9 181.368C1963.9 189.616 1965 196.972 1967.22 203.435C1969.5 209.898 1972.85 215.007 1977.28 218.761C1981.78 222.455 1987.32 224.301 1993.9 224.301ZM2115.09 305.182V110.182H2153.87V134.003H2155.63C2157.35 130.187 2159.84 126.309 2163.11 122.369C2166.43 118.368 2170.74 115.045 2176.03 112.398C2181.39 109.689 2188.03 108.335 2195.98 108.335C2206.32 108.335 2215.86 111.044 2224.6 116.46C2233.34 121.815 2240.32 129.91 2245.56 140.743C2250.79 151.515 2253.4 165.026 2253.4 181.276C2253.4 197.095 2250.85 210.452 2245.74 221.347C2240.69 232.18 2233.8 240.397 2225.06 245.999C2216.38 251.538 2206.65 254.308 2195.88 254.308C2188.25 254.308 2181.76 253.046 2176.4 250.523C2171.11 247.999 2166.77 244.829 2163.38 241.013C2160 237.135 2157.41 233.226 2155.63 229.287H2154.43V305.182H2115.09ZM2153.6 181.091C2153.6 189.524 2154.77 196.879 2157.1 203.158C2159.44 209.436 2162.83 214.33 2167.26 217.838C2171.69 221.285 2177.08 223.009 2183.42 223.009C2189.82 223.009 2195.24 221.254 2199.67 217.746C2204.1 214.176 2207.45 209.251 2209.73 202.973C2212.07 196.633 2213.24 189.339 2213.24 181.091C2213.24 172.904 2212.1 165.703 2209.82 159.486C2207.55 153.269 2204.19 148.406 2199.76 144.898C2195.33 141.389 2189.88 139.635 2183.42 139.635C2177.02 139.635 2171.6 141.328 2167.17 144.713C2162.8 148.098 2159.44 152.9 2157.1 159.116C2154.77 165.333 2153.6 172.658 2153.6 181.091Z" fill="black"/>
<path d="M899.775 441.264C897.549 441.264 895.938 441 894.941 440.473C893.945 439.887 893.447 439.008 893.447 437.836V382.992C893.447 376.195 893.125 371.303 892.48 368.314C891.836 365.268 891.514 363.598 891.514 363.305C891.514 362.016 892.48 361.107 894.414 360.58C896.406 359.994 898.281 359.701 900.039 359.701C901.504 359.701 902.588 360.492 903.291 362.074C903.994 363.656 904.492 365.268 904.785 366.908C905.137 368.549 905.371 369.604 905.488 370.072C908.77 366.381 912.549 363.51 916.826 361.459C921.162 359.408 925.527 358.383 929.922 358.383C937.891 358.383 944.102 360.639 948.555 365.15C953.066 369.604 955.322 375.756 955.322 383.607V437.836C955.322 439.008 954.824 439.887 953.828 440.473C952.832 441 951.25 441.264 949.082 441.264H948.379C946.27 441.264 944.717 441 943.721 440.473C942.725 439.887 942.227 439.008 942.227 437.836V384.926C942.227 380.121 940.82 376.4 938.008 373.764C935.254 371.068 931.357 369.721 926.318 369.721C922.803 369.721 919.258 370.717 915.684 372.709C912.168 374.643 909.121 377.309 906.543 380.707V437.836C906.543 439.008 906.045 439.887 905.049 440.473C904.053 441 902.5 441.264 900.391 441.264H899.775ZM1040.95 441.879C1028 441.879 1018.36 438.51 1012.03 431.771C1005.76 424.975 1002.62 414.604 1002.62 400.658C1002.62 386.83 1005.7 376.342 1011.85 369.193C1018.01 361.986 1027.06 358.383 1039.01 358.383C1049.68 358.383 1057.7 361.84 1063.09 368.754C1068.54 375.668 1071.27 385.805 1071.27 399.164C1071.27 399.75 1070.95 400.57 1070.3 401.625C1069.71 402.621 1068.98 403.529 1068.1 404.35C1067.28 405.111 1066.58 405.492 1065.99 405.492H1016.69C1017.33 414.223 1019.56 420.609 1023.37 424.652C1027.23 428.637 1033.04 430.629 1040.77 430.629C1045.11 430.629 1048.83 430.102 1051.93 429.047C1055.1 427.992 1058.14 426.703 1061.07 425.18C1061.37 425.062 1061.8 424.857 1062.39 424.564C1062.98 424.271 1063.39 424.125 1063.62 424.125C1064.27 424.125 1065 424.652 1065.82 425.707C1066.7 426.703 1067.43 427.846 1068.02 429.135C1068.66 430.365 1068.98 431.273 1068.98 431.859C1068.98 433.148 1067.69 434.584 1065.12 436.166C1062.54 437.748 1059.08 439.096 1054.74 440.209C1050.47 441.322 1045.87 441.879 1040.95 441.879ZM1057.29 394.242C1057.29 377.836 1051.05 369.633 1038.57 369.633C1025.15 369.633 1017.86 377.836 1016.69 394.242H1057.29ZM1137.73 441.264C1133.92 441.264 1131.84 440.443 1131.49 438.803L1110.92 364.711C1110.34 363.07 1110.04 362.045 1110.04 361.635C1110.04 359.877 1112.45 358.998 1117.25 358.998C1121 358.998 1123.08 359.818 1123.49 361.459L1136.68 411.469C1136.91 412.289 1137.67 415.629 1138.96 421.488C1139.25 423.07 1139.81 425.678 1140.63 429.311C1141.8 422.104 1143.09 416.098 1144.5 411.293L1157.42 361.635C1157.83 359.877 1159.88 358.998 1163.57 358.998H1164.62C1168.2 358.998 1170.25 359.877 1170.78 361.635L1183.79 411.293C1185.19 416.449 1186.36 421.518 1187.3 426.498C1187.36 426.85 1187.51 427.729 1187.74 429.135C1189.38 420.463 1190.58 414.633 1191.34 411.645L1204.53 361.459C1204.94 359.818 1207.05 358.998 1210.86 358.998C1215.02 358.998 1217.1 359.877 1217.1 361.635C1217.1 362.279 1216.95 362.982 1216.66 363.744L1195.65 438.803C1195.3 440.443 1193.25 441.264 1189.5 441.264H1184.75C1181.06 441.264 1179.04 440.443 1178.69 438.803L1166.12 389.232C1165.36 386.01 1164.6 381.967 1163.83 377.104C1163.07 382.201 1162.28 386.215 1161.46 389.145L1148.72 438.803C1148.37 440.443 1146.26 441.264 1142.39 441.264H1137.73ZM1279.43 442.494C1275.03 442.494 1270.93 441.938 1267.12 440.824C1263.31 439.711 1260.27 438.363 1257.98 436.781C1255.76 435.141 1254.64 433.705 1254.64 432.475C1254.64 431.889 1254.94 430.951 1255.52 429.662C1256.17 428.373 1256.9 427.23 1257.72 426.234C1258.6 425.18 1259.39 424.652 1260.09 424.652C1260.27 424.652 1260.79 424.945 1261.67 425.531C1264.02 427.055 1266.48 428.344 1269.06 429.398C1271.69 430.453 1274.83 430.98 1278.46 430.98C1288.66 430.98 1293.75 426.762 1293.75 418.324C1293.75 415.922 1293.26 413.9 1292.26 412.26C1291.32 410.619 1289.71 409.184 1287.43 407.953C1285.2 406.664 1282.12 405.434 1278.2 404.262C1272.57 402.621 1268.18 400.746 1265.01 398.637C1261.91 396.527 1259.71 394.066 1258.42 391.254C1257.13 388.383 1256.49 384.926 1256.49 380.883C1256.49 376.547 1257.57 372.65 1259.74 369.193C1261.97 365.736 1265.04 363.041 1268.97 361.107C1272.95 359.174 1277.44 358.207 1282.42 358.207C1285.87 358.207 1289.18 358.529 1292.35 359.174C1295.57 359.818 1298.15 360.668 1300.08 361.723C1302.07 362.719 1303.07 363.773 1303.07 364.887C1303.07 365.707 1302.78 366.82 1302.19 368.227C1301.66 369.574 1300.99 370.775 1300.17 371.83C1299.35 372.826 1298.62 373.324 1297.97 373.324C1297.86 373.324 1297.12 372.973 1295.78 372.27C1294.43 371.508 1292.7 370.834 1290.59 370.248C1288.54 369.604 1286.25 369.281 1283.73 369.281C1279.75 369.281 1276.44 370.189 1273.8 372.006C1271.22 373.764 1269.94 376.137 1269.94 379.125C1269.94 382.641 1270.87 385.453 1272.75 387.562C1274.62 389.672 1277.73 391.4 1282.06 392.748C1288.74 394.799 1293.84 396.85 1297.36 398.9C1300.87 400.951 1303.36 403.471 1304.83 406.459C1306.35 409.389 1307.11 413.256 1307.11 418.061C1307.11 422.631 1305.88 426.791 1303.42 430.541C1300.96 434.232 1297.62 437.162 1293.4 439.33C1289.18 441.439 1284.53 442.494 1279.43 442.494ZM1443.64 441.879C1437.55 441.879 1432.22 440.121 1427.65 436.605C1423.08 433.031 1419.53 428.08 1417.01 421.752C1414.55 415.424 1413.32 408.246 1413.32 400.219C1413.32 391.371 1414.64 383.812 1417.28 377.543C1419.97 371.215 1423.72 366.439 1428.53 363.217C1433.33 359.994 1438.87 358.383 1445.14 358.383C1449.65 358.383 1453.63 359.057 1457.09 360.404C1460.61 361.752 1464.06 363.715 1467.46 366.293V326.918C1467.46 324.633 1469.51 323.49 1473.61 323.49H1474.32C1478.48 323.49 1480.56 324.633 1480.56 326.918V417.885C1480.56 424.682 1480.88 429.604 1481.52 432.65C1482.17 435.639 1482.49 437.279 1482.49 437.572C1482.49 438.861 1481.49 439.799 1479.5 440.385C1477.57 440.912 1475.75 441.176 1474.05 441.176C1472.88 441.176 1471.94 440.619 1471.24 439.506C1470.54 438.393 1470.04 437.279 1469.75 436.166C1469.51 434.994 1469.1 433.002 1468.52 430.189C1461.07 437.982 1452.78 441.879 1443.64 441.879ZM1446.37 430.541C1449.82 430.541 1453.4 429.604 1457.09 427.729C1460.84 425.854 1464.3 423.188 1467.46 419.73V376.928C1461.84 372.24 1455.42 369.896 1448.21 369.896C1441.24 370.072 1435.97 372.621 1432.39 377.543C1428.88 382.465 1427.12 389.613 1427.12 398.988C1427.12 409.066 1428.76 416.859 1432.04 422.367C1435.38 427.816 1440.16 430.541 1446.37 430.541ZM1567.59 441.879C1554.64 441.879 1545 438.51 1538.67 431.771C1532.4 424.975 1529.27 414.604 1529.27 400.658C1529.27 386.83 1532.34 376.342 1538.49 369.193C1544.65 361.986 1553.7 358.383 1565.65 358.383C1576.32 358.383 1584.34 361.84 1589.73 368.754C1595.18 375.668 1597.91 385.805 1597.91 399.164C1597.91 399.75 1597.59 400.57 1596.94 401.625C1596.36 402.621 1595.62 403.529 1594.74 404.35C1593.92 405.111 1593.22 405.492 1592.63 405.492H1543.33C1543.97 414.223 1546.2 420.609 1550.01 424.652C1553.88 428.637 1559.68 430.629 1567.41 430.629C1571.75 430.629 1575.47 430.102 1578.57 429.047C1581.74 427.992 1584.78 426.703 1587.71 425.18C1588.01 425.062 1588.45 424.857 1589.03 424.564C1589.62 424.271 1590.03 424.125 1590.26 424.125C1590.91 424.125 1591.64 424.652 1592.46 425.707C1593.34 426.703 1594.07 427.846 1594.66 429.135C1595.3 430.365 1595.62 431.273 1595.62 431.859C1595.62 433.148 1594.33 434.584 1591.76 436.166C1589.18 437.748 1585.72 439.096 1581.38 440.209C1577.11 441.322 1572.51 441.879 1567.59 441.879ZM1583.93 394.242C1583.93 377.836 1577.69 369.633 1565.21 369.633C1551.79 369.633 1544.5 377.836 1543.33 394.242H1583.93ZM1664.99 441.879C1659.77 441.879 1655.11 440.297 1651.01 437.133C1646.91 433.969 1644.86 428.373 1644.86 420.346V326.918C1644.86 324.633 1646.94 323.49 1651.1 323.49H1651.8C1655.9 323.49 1657.96 324.633 1657.96 326.918V419.115C1657.96 423.393 1658.72 426.381 1660.24 428.08C1661.76 429.779 1663.81 430.629 1666.39 430.629C1668.33 430.629 1669.85 430.512 1670.96 430.277C1672.08 430.043 1672.81 429.926 1673.16 429.926C1674.1 429.926 1674.86 430.863 1675.45 432.738C1676.09 434.613 1676.41 436.107 1676.41 437.221C1676.41 440.326 1672.6 441.879 1664.99 441.879ZM1725.47 339.574C1721.31 339.574 1719.23 338.432 1719.23 336.146V326.918C1719.23 324.633 1721.31 323.49 1725.47 323.49H1727.32C1731.54 323.49 1733.65 324.633 1733.65 326.918V336.146C1733.65 338.432 1731.54 339.574 1727.32 339.574H1725.47ZM1726.09 441.264C1721.93 441.264 1719.85 440.121 1719.85 437.836V362.426C1719.85 360.141 1721.93 358.998 1726.09 358.998H1726.7C1730.92 358.998 1733.03 360.141 1733.03 362.426V437.836C1733.03 440.121 1730.92 441.264 1726.7 441.264H1726.09ZM1809.34 441.264C1805.65 441.264 1803.54 440.443 1803.01 438.803L1777.87 363.656C1777.52 362.602 1777.35 361.928 1777.35 361.635C1777.35 360.814 1777.9 360.17 1779.02 359.701C1780.13 359.232 1781.83 358.998 1784.11 358.998H1784.9C1788.54 358.998 1790.62 359.818 1791.14 361.459L1807.05 411.293C1808.34 415.16 1809.84 420.434 1811.54 427.113L1812.5 430.805H1813.21L1814.26 426.146C1815.55 419.994 1816.75 415.16 1817.86 411.645L1833.95 361.459C1834.47 359.818 1836.61 358.998 1840.36 358.998H1840.8C1844.73 358.998 1846.69 359.877 1846.69 361.635C1846.69 362.221 1846.49 362.924 1846.08 363.744L1821.03 438.803C1820.5 440.443 1818.39 441.264 1814.7 441.264H1809.34ZM1923.79 441.879C1910.84 441.879 1901.2 438.51 1894.87 431.771C1888.6 424.975 1885.47 414.604 1885.47 400.658C1885.47 386.83 1888.54 376.342 1894.7 369.193C1900.85 361.986 1909.9 358.383 1921.86 358.383C1932.52 358.383 1940.55 361.84 1945.94 368.754C1951.39 375.668 1954.11 385.805 1954.11 399.164C1954.11 399.75 1953.79 400.57 1953.14 401.625C1952.56 402.621 1951.83 403.529 1950.95 404.35C1950.13 405.111 1949.42 405.492 1948.84 405.492H1899.53C1900.18 414.223 1902.4 420.609 1906.21 424.652C1910.08 428.637 1915.88 430.629 1923.61 430.629C1927.95 430.629 1931.67 430.102 1934.78 429.047C1937.94 427.992 1940.99 426.703 1943.92 425.18C1944.21 425.062 1944.65 424.857 1945.23 424.564C1945.82 424.271 1946.23 424.125 1946.46 424.125C1947.11 424.125 1947.84 424.652 1948.66 425.707C1949.54 426.703 1950.27 427.846 1950.86 429.135C1951.5 430.365 1951.83 431.273 1951.83 431.859C1951.83 433.148 1950.54 434.584 1947.96 436.166C1945.38 437.748 1941.92 439.096 1937.59 440.209C1933.31 441.322 1928.71 441.879 1923.79 441.879ZM1940.14 394.242C1940.14 377.836 1933.9 369.633 1921.42 369.633C1908 369.633 1900.7 377.836 1899.53 394.242H1940.14ZM2008.62 441.264C2006.39 441.264 2004.78 441 2003.79 440.473C2002.79 439.887 2002.29 439.008 2002.29 437.836V382.992C2002.29 376.195 2001.97 371.303 2001.33 368.314C2000.68 365.268 2000.36 363.598 2000.36 363.305C2000.36 362.016 2001.33 361.107 2003.26 360.58C2005.25 359.994 2007.13 359.701 2008.88 359.701C2010.29 359.701 2011.35 360.463 2012.05 361.986C2012.75 363.451 2013.37 365.531 2013.89 368.227L2014.33 370.072C2019.9 362.279 2025.94 358.383 2032.44 358.383C2035.43 358.383 2037.68 358.939 2039.21 360.053C2040.73 361.107 2041.49 362.543 2041.49 364.359C2041.49 366.117 2041.17 367.992 2040.53 369.984C2039.94 371.918 2039.24 372.885 2038.42 372.885C2038.01 372.885 2037.27 372.709 2036.22 372.357C2035.28 371.947 2034.34 371.654 2033.41 371.479C2032.47 371.244 2031.27 371.127 2029.8 371.127C2027.4 371.127 2025.12 371.83 2022.95 373.236C2020.84 374.643 2019.05 376.195 2017.59 377.895C2016.12 379.594 2015.39 380.531 2015.39 380.707V437.836C2015.39 439.008 2014.89 439.887 2013.89 440.473C2012.9 441 2011.35 441.264 2009.24 441.264H2008.62ZM2119.29 441.879C2106.34 441.879 2096.71 438.51 2090.38 431.771C2084.11 424.975 2080.97 414.604 2080.97 400.658C2080.97 386.83 2084.05 376.342 2090.2 369.193C2096.35 361.986 2105.41 358.383 2117.36 358.383C2128.02 358.383 2136.05 361.84 2141.44 368.754C2146.89 375.668 2149.62 385.805 2149.62 399.164C2149.62 399.75 2149.29 400.57 2148.65 401.625C2148.06 402.621 2147.33 403.529 2146.45 404.35C2145.63 405.111 2144.93 405.492 2144.34 405.492H2095.04C2095.68 414.223 2097.91 420.609 2101.71 424.652C2105.58 428.637 2111.38 430.629 2119.12 430.629C2123.45 430.629 2127.17 430.102 2130.28 429.047C2133.44 427.992 2136.49 426.703 2139.42 425.18C2139.71 425.062 2140.15 424.857 2140.74 424.564C2141.32 424.271 2141.73 424.125 2141.97 424.125C2142.61 424.125 2143.35 424.652 2144.17 425.707C2145.04 426.703 2145.78 427.846 2146.36 429.135C2147.01 430.365 2147.33 431.273 2147.33 431.859C2147.33 433.148 2146.04 434.584 2143.46 436.166C2140.88 437.748 2137.43 439.096 2133.09 440.209C2128.81 441.322 2124.21 441.879 2119.29 441.879ZM2135.64 394.242C2135.64 377.836 2129.4 369.633 2116.92 369.633C2103.5 369.633 2096.21 377.836 2095.04 394.242H2135.64ZM2222.14 441.879C2216.05 441.879 2210.72 440.121 2206.15 436.605C2201.58 433.031 2198.03 428.08 2195.51 421.752C2193.05 415.424 2191.82 408.246 2191.82 400.219C2191.82 391.371 2193.14 383.812 2195.78 377.543C2198.47 371.215 2202.22 366.439 2207.03 363.217C2211.83 359.994 2217.37 358.383 2223.64 358.383C2228.15 358.383 2232.13 359.057 2235.59 360.404C2239.11 361.752 2242.56 363.715 2245.96 366.293V326.918C2245.96 324.633 2248.01 323.49 2252.11 323.49H2252.82C2256.98 323.49 2259.06 324.633 2259.06 326.918V417.885C2259.06 424.682 2259.38 429.604 2260.02 432.65C2260.67 435.639 2260.99 437.279 2260.99 437.572C2260.99 438.861 2259.99 439.799 2258 440.385C2256.07 440.912 2254.25 441.176 2252.55 441.176C2251.38 441.176 2250.44 440.619 2249.74 439.506C2249.04 438.393 2248.54 437.279 2248.25 436.166C2248.01 434.994 2247.6 433.002 2247.02 430.189C2239.57 437.982 2231.28 441.879 2222.14 441.879ZM2224.87 430.541C2228.32 430.541 2231.9 429.604 2235.59 427.729C2239.34 425.854 2242.8 423.188 2245.96 419.73V376.928C2240.34 372.24 2233.92 369.896 2226.71 369.896C2219.74 370.072 2214.47 372.621 2210.89 377.543C2207.38 382.465 2205.62 389.613 2205.62 398.988C2205.62 409.066 2207.26 416.859 2210.54 422.367C2213.88 427.816 2218.66 430.541 2224.87 430.541Z" fill="black"/>
</svg>
