<svg width="20" height="14" viewBox="0 0 20 14" fill="none" xmlns="http://www.w3.org/2000/svg">
<path d="M17.9609 0.152344H1.33594C1.02099 0.152344 0.718948 0.277455 0.496248 0.500154C0.273549 0.722854 0.148438 1.0249 0.148438 1.33984L0.148438 12.4232C0.148438 12.7381 0.273549 13.0402 0.496248 13.2629C0.718948 13.4856 1.02099 13.6107 1.33594 13.6107H17.9609C18.2759 13.6107 18.5779 13.4856 18.8006 13.2629C19.0233 13.0402 19.1484 12.7381 19.1484 12.4232V1.33984C19.1484 1.0249 19.0233 0.722854 18.8006 0.500154C18.5779 0.277455 18.2759 0.152344 17.9609 0.152344ZM17.7076 0.94401L9.64844 7.17443L1.58927 0.94401H17.7076ZM0.940104 12.2609V1.44276L7.0399 6.15714L0.940104 12.2609ZM1.49823 12.819L7.66927 6.64797L9.40302 7.98984C9.47224 8.04313 9.55713 8.07202 9.64448 8.07202C9.73183 8.07202 9.81672 8.04313 9.88594 7.98984L11.6276 6.64797L17.7986 12.819H1.49823ZM18.3568 12.2609L12.257 6.15714L18.3568 1.44276V12.2609Z" fill="black"/>
</svg>
