<svg width="31" height="31" viewBox="0 0 31 31" fill="none" xmlns="http://www.w3.org/2000/svg">
<path fill-rule="evenodd" clip-rule="evenodd" d="M21.8876 27.135L16.8752 24.16C16.3502 24.1475 15.8251 24.1101 15.3251 24.0351C14.9876 23.9851 14.7001 23.76 14.5751 23.435C14.4501 23.11 14.5126 22.76 14.7376 22.4975C15.5626 21.535 15.9876 20.385 15.9876 19.16C15.9876 16.135 13.3251 13.6725 10.0501 13.6725C8.82514 13.6725 7.65014 14.0101 6.66264 14.6601C6.38764 14.8351 6.05014 14.86 5.75014 14.7225C5.46264 14.585 5.25015 14.31 5.21265 13.985C5.17515 13.635 5.15015 13.285 5.15015 12.9225C5.15015 6.72255 10.5251 1.68506 17.1251 1.68506C23.7251 1.68506 29.1002 6.72255 29.1002 12.9225C29.1002 16.3225 27.5251 19.4475 24.7501 21.585L25.1752 24.9851C25.2752 25.8351 24.9001 26.6351 24.1876 27.0976C23.8376 27.3226 23.4251 27.4475 23.0126 27.4475C22.6251 27.4475 22.2376 27.3475 21.8876 27.135ZM17.6126 22.4101L22.8502 25.5226C22.9877 25.6101 23.1001 25.5726 23.1751 25.5226C23.2376 25.4851 23.3376 25.3851 23.3126 25.2101L22.8251 21.26C22.7876 20.91 22.9376 20.5726 23.2126 20.3726C25.7626 18.5851 27.2252 15.86 27.2252 12.8975C27.2252 7.73502 22.7001 3.53503 17.1251 3.53503C11.7626 3.53503 7.36264 7.43508 7.03764 12.3351C7.97514 11.9726 8.98765 11.7726 10.0377 11.7726C14.3502 11.7726 17.8502 15.0725 17.8502 19.135C17.8627 20.235 17.6001 21.2975 17.1126 22.2725C17.2876 22.26 17.4626 22.3101 17.6126 22.4101Z" fill="white"/>
<path fill-rule="evenodd" clip-rule="evenodd" d="M5.47476 28.2727C4.91226 27.9102 4.61227 27.2852 4.68727 26.6227L4.93727 24.6976C3.24977 23.3226 2.24976 21.2851 2.24976 19.1476C2.24976 16.7101 3.52477 14.4351 5.66227 13.0726C6.94977 12.2351 8.47476 11.7852 10.0623 11.7852C14.3748 11.7852 17.8748 15.0851 17.8748 19.1476C17.8748 20.7976 17.2748 22.4226 16.1748 23.7101C14.7623 25.4226 12.6498 26.4226 10.3248 26.4976L7.27476 28.3101C6.99976 28.4726 6.69977 28.5476 6.39977 28.5476C6.07477 28.5476 5.76226 28.4602 5.47476 28.2727ZM6.66225 14.6476C5.06225 15.6726 4.11226 17.3476 4.11226 19.1476C4.11226 20.8851 4.96227 22.4727 6.46227 23.4977C6.74977 23.6977 6.89976 24.0351 6.86226 24.3851L6.58726 26.5226L9.57476 24.7477C9.72476 24.6602 9.88726 24.6101 10.0498 24.6101C11.8873 24.6101 13.6248 23.8227 14.7248 22.4852C15.5498 21.5102 15.9873 20.3601 15.9873 19.1351C15.9873 16.1226 13.3248 13.6602 10.0498 13.6602C8.82476 13.6602 7.64975 13.9976 6.66225 14.6476Z" fill="white"/>
</svg>
