<svg width="16" height="21" viewBox="0 0 16 21" fill="none" xmlns="http://www.w3.org/2000/svg">
<path d="M1.88372 20.0001C1.39591 20.0001 1 19.6042 1 19.1164V9.39544C1 8.90763 1.39591 8.51172 1.88372 8.51172H14.2558C14.7436 8.51172 15.1395 8.90763 15.1395 9.39544V19.1164C15.1395 19.6042 14.7436 20.0001 14.2558 20.0001H1.88372Z" stroke="#131515" stroke-miterlimit="10" stroke-linecap="round"/>
<path d="M12.4876 8.51163C12.4876 8.04988 12.4876 5.88035 12.4876 5.4186C12.4876 2.97821 10.5094 1 8.06899 1C5.6286 1 3.65039 2.97821 3.65039 5.4186C3.65039 5.88035 3.65039 8.04988 3.65039 8.51163" stroke="#131515" stroke-miterlimit="10" stroke-linecap="round"/>
<path d="M7.68555 14.1318L7.52051 13.9824C7.34894 13.8276 7.24414 13.6111 7.24414 13.3721C7.24435 12.9164 7.61362 12.5471 8.06934 12.5469C8.52523 12.5469 8.8953 12.9162 8.89551 13.3721C8.89551 13.611 8.79064 13.8276 8.61914 13.9824L8.45312 14.1318V15.582C8.45298 15.7936 8.28092 15.9658 8.06934 15.9658C7.85793 15.9656 7.68569 15.7934 7.68555 15.582V14.1318Z" fill="#7D8D8B" stroke="#131515"/>
</svg>
