<svg width="17" height="18" viewBox="0 0 17 18" fill="none" xmlns="http://www.w3.org/2000/svg">
<path d="M8.50025 0.976562C3.81325 0.976562 0.000244141 4.78984 0.000244141 9.47683C0.000244141 14.1638 3.81325 17.9766 8.50025 17.9766C13.1875 17.9766 17.0005 14.1638 17.0005 9.47683C17.0005 4.78984 13.1875 0.976562 8.50025 0.976562ZM8.50025 16.6358C4.5528 16.6358 1.34124 13.4242 1.34124 9.47679C1.34124 5.5288 4.55275 2.31728 8.50025 2.31728C12.448 2.31728 15.6598 5.52885 15.6598 9.47679C15.6598 13.4242 12.448 16.6358 8.50025 16.6358Z" fill="black"/>
<path d="M9.63055 5.79371C10.2994 5.79371 10.4828 6.27884 10.6663 6.8563L11.296 6.0564C11.0861 5.21675 10.509 4.71875 9.35499 4.71875C7.37433 4.71875 7.13848 6.1612 7.13848 7.41989V8.78437H6.16768L5.90554 9.88621H7.07261C6.92837 11.3684 6.54805 12.7582 5.5249 13.9782H11.1783V12.6141H7.99046C8.39712 11.6826 8.55504 10.8698 8.62055 9.88612H10.8105L11.073 8.78428H8.67272V7.68244C8.67272 6.65965 8.7254 5.79371 9.63055 5.79371Z" fill="black"/>
</svg>
