<svg width="25" height="17" viewBox="0 0 25 17" fill="none" xmlns="http://www.w3.org/2000/svg">
<path fill-rule="evenodd" clip-rule="evenodd" d="M16.9952 16.0883C19.5424 16.0899 19.5424 16.0899 19.0386 13.7801C18.8866 13.0843 20.0392 11.8214 20.8962 11.7445C23.249 11.5327 24.3739 9.99182 23.9301 7.62757C23.7726 6.78844 23.2001 6.4417 22.4664 6.21929C21.5562 5.94359 21.2116 4.53846 21.8749 3.8505C21.9661 3.75597 22.0636 3.66677 22.1508 3.56869C23.2589 2.32282 23.0712 1.55631 21.494 1.07932C20.8712 0.890851 20.1909 0.668241 19.5697 0.741063C17.9994 0.924993 16.5437 0.422936 15.035 0.229138C11.5748 -0.214898 8.44487 0.56483 5.89985 3.10492C5.69205 3.31253 5.51976 3.55724 5.34076 3.79189C5.16473 4.02239 5.08421 4.27599 5.36958 4.47196C5.62041 4.64444 5.79842 4.45439 5.95294 4.27816C9.04837 0.745997 12.87 0.211574 17.1415 1.58493C17.4858 1.69564 17.7813 1.61887 18.1028 1.56796C19.2626 1.38442 20.3922 1.52987 21.5011 1.89576C22.0644 2.08146 22.15 2.38242 21.7456 2.81915C21.7233 2.84323 21.7089 2.87875 21.6823 2.89375C20.0909 3.79702 20.6928 5.06243 21.0855 6.32112C21.2229 6.7616 21.5078 6.86758 21.8794 6.90488C22.9041 7.00829 23.2698 7.57172 23.1831 8.579C23.061 9.99893 22.5905 10.948 21.6584 10.8623C20.1473 10.7236 19.3816 11.7822 18.3688 12.4832C17.7852 12.8869 18.1353 13.3639 18.2385 13.8125C18.5807 15.2984 18.5877 15.297 17.0911 15.2972C16.7296 15.2972 16.3631 15.2587 16.0077 15.3051C15.4439 15.3789 15.152 15.1555 15.0371 14.6118C14.9189 14.0533 14.6174 13.7722 13.9841 13.8885C13.4327 13.9897 12.874 13.8816 12.3226 13.7657C11.7041 13.6359 11.3966 13.8849 11.64 14.5125C11.9192 15.232 11.5827 15.2206 10.9895 15.326C9.15711 15.6518 8.11273 14.8391 7.24834 13.3039C6.22765 11.4915 5.21801 9.70685 4.91843 7.61297C4.8762 7.31833 4.85844 6.94395 4.43256 7.05092C4.07319 7.14091 4.10871 7.49831 4.14838 7.7967C4.30408 8.97744 4.68635 10.0939 5.17815 11.1692C5.90518 12.7593 6.90495 14.1849 7.91045 15.6064C8.13602 15.9251 8.37876 16.1053 8.79596 16.0956C9.8802 16.0704 10.9656 16.0814 12.0503 16.0895C12.5395 16.0933 12.8029 15.9421 12.6877 15.3864C12.6395 15.1551 12.2796 14.7298 12.7899 14.7067C13.274 14.6848 14.1214 14.4371 14.2333 14.8952C14.6764 16.7104 16.0667 15.9003 16.9952 16.0883Z" fill="black"/>
<path fill-rule="evenodd" clip-rule="evenodd" d="M3.73961 5.14557C3.98294 4.84481 4.26318 4.56832 4.45757 4.24111C4.74373 3.75859 4.76346 3.24272 4.40764 2.76928C4.17852 2.46398 3.86986 2.27709 3.47595 2.36254C2.92278 2.48253 2.74714 2.94512 2.5344 3.40139C2.38066 3.73097 2.67116 4.39307 2.20443 4.36406C1.60468 4.32696 1.64593 3.6686 1.64968 3.17326C1.65225 2.83125 1.80302 2.33985 1.26623 2.35504C0.774436 2.36866 0.873505 2.87585 0.858506 3.21292C0.803841 4.44004 1.18887 4.98769 2.35303 5.23595C2.67965 5.30581 2.85825 5.50297 3.08402 5.67802C3.74198 6.18856 4.51026 6.29355 5.31032 6.2746C5.52385 6.26947 5.72238 6.18145 5.75554 5.96615C5.79797 5.69045 5.59746 5.54619 5.349 5.51283C4.80688 5.44001 4.23752 5.49784 3.73961 5.14557Z" fill="black"/>
<path fill-rule="evenodd" clip-rule="evenodd" d="M13.2308 2.06996C11.8344 2.05713 10.682 2.2385 9.65148 2.88995C9.3963 3.05118 8.99114 3.22663 9.28559 3.63771C9.52912 3.97833 9.806 3.72336 10.0513 3.57337C11.292 2.81515 12.6563 2.80252 14.0401 2.91324C14.3551 2.9385 14.7822 3.10763 14.8583 2.66162C14.9489 2.12976 14.4285 2.18304 14.1064 2.12621C13.7554 2.06404 13.3905 2.07845 13.2308 2.06996Z" fill="black"/>
<path fill-rule="evenodd" clip-rule="evenodd" d="M17.8606 6.13838C17.9311 6.63531 18.2154 6.93903 18.7021 6.90903C19.1256 6.88278 19.4473 6.61103 19.4289 6.14509C19.4094 5.64994 19.1057 5.3703 18.6018 5.38747C18.1351 5.40345 17.9259 5.71072 17.8606 6.13838Z" fill="black"/>
<path fill-rule="evenodd" clip-rule="evenodd" d="M3.26194 4.28099C3.75788 4.09213 3.88675 3.79452 3.84156 3.40693C3.82419 3.25833 3.66967 3.16083 3.56981 3.23366C3.24813 3.46811 3.24063 3.82077 3.26194 4.28099Z" fill="#EEF0F1"/>
</svg>
