<svg width="13" height="13" viewBox="0 0 13 13" fill="none" xmlns="http://www.w3.org/2000/svg">
<circle cx="11.5779" cy="5.99121" r="0.663062" transform="rotate(135 11.5779 5.99121)" fill="black"/>
<circle cx="9.93924" cy="4.35449" r="0.663062" transform="rotate(135 9.93924 4.35449)" fill="black"/>
<circle cx="8.30252" cy="2.71582" r="0.663062" transform="rotate(135 8.30252 2.71582)" fill="black"/>
<circle cx="6.5369" cy="0.949219" r="0.663062" transform="rotate(135 6.5369 0.949219)" fill="black"/>
<circle cx="5.54471" cy="3.59961" r="0.663062" transform="rotate(135 5.54471 3.59961)" fill="black"/>
<circle cx="5.54471" cy="3.59961" r="0.663062" transform="rotate(135 5.54471 3.59961)" fill="black"/>
<circle cx="7.18143" cy="5.23633" r="0.663062" transform="rotate(135 7.18143 5.23633)" fill="black"/>
<circle cx="8.8201" cy="6.87305" r="0.663062" transform="rotate(135 8.8201 6.87305)" fill="black"/>
<circle cx="6.29862" cy="7.99512" r="0.663062" transform="rotate(135 6.29862 7.99512)" fill="black"/>
<circle cx="4.6619" cy="6.35645" r="0.663062" transform="rotate(135 4.6619 6.35645)" fill="black"/>
<circle cx="3.5408" cy="8.87695" r="0.663062" transform="rotate(135 3.5408 8.87695)" fill="black"/>
</svg>
