<svg width="17" height="17" viewBox="0 0 17 17" fill="none" xmlns="http://www.w3.org/2000/svg">
<g clip-path="url(#clip0_1231_39842)">
<rect x="3.31738" y="6.92139" width="11.7736" height="4.93082" fill="white"/>
<path d="M8.15573 7.94098C8.05851 7.86445 7.9417 7.82617 7.8052 7.82617H7.39551V8.7137H7.80516C7.94166 8.7137 8.05848 8.67555 8.1557 8.59883C8.25288 8.52242 8.30163 8.41173 8.30163 8.26683C8.30163 8.12627 8.25288 8.01755 8.15573 7.94098Z" fill="#EC4E54"/>
<path d="M11.7833 7.81982C11.473 7.81982 11.203 7.93467 10.9734 8.16426C10.7437 8.39382 10.6289 8.68657 10.6289 9.04242C10.6289 9.40245 10.7438 9.69723 10.9734 9.92685C11.203 10.1565 11.473 10.2713 11.7833 10.2713C12.0937 10.2713 12.3646 10.1565 12.5964 9.92685C12.8281 9.69723 12.9439 9.40245 12.9439 9.04242C12.9439 8.68657 12.8281 8.39382 12.5964 8.16426C12.3646 7.93467 12.0937 7.81982 11.7833 7.81982Z" fill="#EC4E54"/>
<path d="M14.6404 4.33509L9.19149 1.18915C8.71859 0.916117 7.94474 0.916117 7.47184 1.18915L2.0229 4.33509C1.55002 4.60812 1.16309 5.2783 1.16309 5.82437V12.1162C1.16309 12.6623 1.55002 13.3325 2.0229 13.6055L7.47184 16.7514C7.94474 17.0245 8.71859 17.0245 9.19149 16.7514L14.6404 13.6055C15.1133 13.3325 15.5002 12.6623 15.5002 12.1162V5.82434C15.5002 5.27827 15.1133 4.60809 14.6404 4.33509ZM5.65777 9.13871C5.40959 9.36012 5.10743 9.47074 4.75152 9.47074H4.22409V11.0286H3.29924V7.0689H4.75155C5.10746 7.0689 5.40959 7.17852 5.6578 7.3978C5.90602 7.61721 6.03012 7.90677 6.03012 8.26671C6.03012 8.62665 5.90599 8.91743 5.65777 9.13871ZM8.80434 11.0286L7.73684 9.47074H7.39552V11.0286H6.47068V7.0689H7.94784C8.29949 7.0689 8.60049 7.17852 8.8509 7.3978C9.10121 7.61721 9.2264 7.90677 9.2264 8.26671C9.2264 8.49012 9.1684 8.6909 9.05262 8.86877C8.93668 9.04674 8.79187 9.17702 8.61812 9.2598L9.87809 11.0286H8.80434ZM13.2823 10.5446C12.8582 10.9292 12.3586 11.1218 11.7834 11.1218C11.2125 11.1218 10.7149 10.9292 10.2909 10.5446C9.86658 10.1597 9.65462 9.65905 9.65462 9.04252C9.65462 8.43433 9.86658 7.93774 10.2909 7.55296C10.7149 7.16821 11.2124 6.9758 11.7834 6.9758C12.1517 6.9758 12.4972 7.05852 12.82 7.22405C13.1427 7.38955 13.4064 7.63268 13.6113 7.95327C13.8161 8.27396 13.9185 8.63708 13.9185 9.04249C13.9185 9.65905 13.7064 10.1597 13.2823 10.5446Z" fill="#EC4E54"/>
<path d="M4.96529 7.94098C4.86807 7.86445 4.7511 7.82617 4.61457 7.82617H4.22363V8.7137H4.61457C4.7511 8.7137 4.86807 8.67555 4.96529 8.59883C5.06238 8.52242 5.11113 8.41173 5.11113 8.26683C5.11113 8.12627 5.06238 8.01755 4.96529 7.94098Z" fill="#EC4E54"/>
</g>
<defs>
<clipPath id="clip0_1231_39842">
<rect width="16" height="16" fill="white" transform="translate(0.5 0.984375)"/>
</clipPath>
</defs>
</svg>
