<svg width="31" height="31" viewBox="0 0 31 31" fill="none" xmlns="http://www.w3.org/2000/svg">
<path fill-rule="evenodd" clip-rule="evenodd" d="M11.5257 14.6354C11.4632 14.6229 11.3757 14.6229 11.3007 14.6354C7.67573 14.5229 4.93823 11.6729 4.93823 8.16035C4.93823 4.58535 7.85073 1.67285 11.4257 1.67285C15.0007 1.67285 17.9132 4.58535 17.9132 8.16035C17.9007 11.6729 15.1507 14.5229 11.6632 14.6354C11.6507 14.6354 11.6382 14.6354 11.6257 14.6354C11.5882 14.6354 11.5632 14.6354 11.5257 14.6354ZM6.81323 8.16035C6.81323 10.6604 8.76323 12.6729 11.2507 12.7604C11.3257 12.7479 11.4882 12.7479 11.6507 12.7604C14.1007 12.6479 16.0257 10.6354 16.0382 8.16035C16.0382 5.62285 13.9632 3.54785 11.4257 3.54785C8.88823 3.54785 6.81323 5.62285 6.81323 8.16035Z" fill="white"/>
<path d="M20.738 14.7854C20.2255 14.8354 19.7005 14.4729 19.6505 13.9604C19.6005 13.4479 19.913 12.9854 20.4255 12.9229C20.5755 12.9104 20.738 12.9104 20.8755 12.9104C22.7005 12.8104 24.1255 11.3104 24.1255 9.47285C24.1255 7.57285 22.588 6.03535 20.688 6.03535C20.1755 6.04785 19.7505 5.62285 19.7505 5.11035C19.7505 4.59785 20.1755 4.17285 20.688 4.17285C23.613 4.17285 26.0005 6.56035 26.0005 9.48535C26.0005 12.3604 23.7505 14.6854 20.888 14.7979C20.8755 14.7979 20.863 14.7979 20.8505 14.7979C20.813 14.7979 20.7755 14.7979 20.738 14.7854Z" fill="white"/>
<path fill-rule="evenodd" clip-rule="evenodd" d="M4.86206 26.4229C3.12456 25.2729 2.17456 23.6979 2.17456 21.9854C2.17456 20.2729 3.12456 18.6854 4.86206 17.5229C8.61206 15.0354 14.6871 15.0354 18.4121 17.5229C20.1371 18.6729 21.0996 20.2479 21.0996 21.9604C21.0996 23.6729 20.1496 25.2604 18.4121 26.4229C16.5371 27.6729 14.0871 28.2979 11.6371 28.2979C9.18706 28.2979 6.72456 27.6729 4.86206 26.4229ZM4.04956 21.9979C4.04956 23.0604 4.71206 24.0854 5.89956 24.8729C9.01206 26.9604 14.2621 26.9604 17.3746 24.8729C18.5746 24.0729 19.2246 23.0479 19.2246 21.9729C19.2246 20.9104 18.5621 19.8854 17.3746 19.0979C14.2621 17.0229 9.01206 17.0229 5.89956 19.0979C4.69956 19.8979 4.04956 20.9229 4.04956 21.9979Z" fill="white"/>
<path d="M22.1878 25.2979C22.0878 24.7854 22.4128 24.2979 22.9128 24.1854C23.7003 24.0229 24.4253 23.7104 24.9878 23.2729C25.7003 22.7354 26.0878 22.0604 26.0878 21.3479C26.0878 20.6354 25.7003 19.9604 25.0003 19.4354C24.4503 19.0104 23.7628 18.7104 22.9503 18.5229C22.4503 18.4104 22.1253 17.9104 22.2378 17.3979C22.3503 16.8979 22.8503 16.5729 23.3628 16.6854C24.4378 16.9229 25.3753 17.3479 26.1378 17.9354C27.3003 18.8104 27.9628 20.0479 27.9628 21.3479C27.9628 22.6479 27.2878 23.8854 26.1253 24.7729C25.3503 25.3729 24.3753 25.8104 23.3003 26.0229C23.2253 26.0479 23.1628 26.0479 23.1003 26.0479C22.6628 26.0479 22.2753 25.7479 22.1878 25.2979Z" fill="white"/>
</svg>
