<svg width="15" height="18" viewBox="0 0 15 18" fill="none" xmlns="http://www.w3.org/2000/svg">
<path d="M8.10195 8.0547H5.64609C5.5574 8.0547 5.47234 8.01949 5.40963 7.95683C5.34691 7.89417 5.31168 7.80918 5.31168 7.72056C5.31168 7.63194 5.34691 7.54696 5.40963 7.48429C5.47234 7.42163 5.5574 7.38643 5.64609 7.38643H8.10195C8.27544 7.38643 8.44182 7.31757 8.5645 7.195C8.68717 7.07243 8.75609 6.90619 8.75609 6.73284C8.75609 6.5595 8.68717 6.39326 8.5645 6.27069C8.44182 6.14812 8.27544 6.07926 8.10195 6.07926H6.63465C6.46071 6.07957 6.28843 6.04561 6.12765 5.97931C5.96686 5.91302 5.82074 5.81571 5.69765 5.69293C5.57455 5.57015 5.47689 5.42433 5.41026 5.2638C5.34362 5.10327 5.30933 4.93119 5.30933 4.7574C5.30933 4.58362 5.34362 4.41154 5.41026 4.25101C5.47689 4.09048 5.57455 3.94466 5.69765 3.82188C5.82074 3.6991 5.96686 3.60179 6.12765 3.53549C6.28843 3.4692 6.46071 3.43524 6.63465 3.43555H9.09067C9.17936 3.43555 9.26442 3.47075 9.32714 3.53341C9.38985 3.59608 9.42509 3.68107 9.42509 3.76968C9.42509 3.8583 9.38985 3.94329 9.32714 4.00595C9.26442 4.06861 9.17936 4.10382 9.09067 4.10382H6.63465C6.5486 4.1036 6.46337 4.12035 6.38381 4.15309C6.30426 4.18584 6.23195 4.23395 6.17103 4.29466C6.11011 4.35538 6.06178 4.4275 6.02881 4.50691C5.99583 4.58631 5.97886 4.67143 5.97886 4.7574C5.97886 4.84337 5.99583 4.9285 6.02881 5.0079C6.06178 5.08731 6.11011 5.15943 6.17103 5.22014C6.23195 5.28086 6.30426 5.32897 6.38381 5.36171C6.46337 5.39446 6.5486 5.41121 6.63465 5.41099H8.10195C8.45283 5.41099 8.78933 5.55026 9.03743 5.79815C9.28554 6.04605 9.42492 6.38227 9.42492 6.73284C9.42492 7.08342 9.28554 7.41964 9.03743 7.66754C8.78933 7.91543 8.45283 8.0547 8.10195 8.0547Z" fill="black"/>
<path d="M7.36829 8.91756C7.32437 8.91757 7.28088 8.90893 7.2403 8.89214C7.19972 8.87536 7.16285 8.85074 7.1318 8.81971C7.10074 8.78869 7.07611 8.75185 7.05931 8.7113C7.04251 8.67076 7.03386 8.6273 7.03387 8.58342V2.90835C7.03387 2.81974 7.06911 2.73475 7.13182 2.67208C7.19454 2.60942 7.2796 2.57422 7.36829 2.57422C7.45698 2.57422 7.54204 2.60942 7.60476 2.67208C7.66747 2.73475 7.7027 2.81974 7.7027 2.90835V8.58342C7.70272 8.6273 7.69407 8.67076 7.67727 8.7113C7.66047 8.75185 7.63584 8.78869 7.60478 8.81972C7.57373 8.85075 7.53686 8.87536 7.49628 8.89215C7.4557 8.90893 7.41221 8.91757 7.36829 8.91756Z" fill="black"/>
<path d="M13.9531 17.6367C13.9092 17.6367 13.8657 17.6281 13.8251 17.6113C13.7846 17.5945 13.7477 17.5699 13.7167 17.5388L12.6362 16.4594L11.5557 17.5388C11.5246 17.5699 11.4878 17.5945 11.4472 17.6113C11.4066 17.6281 11.3632 17.6367 11.3193 17.6367C11.2753 17.6367 11.2319 17.6281 11.1913 17.6113C11.1507 17.5945 11.1139 17.5699 11.0828 17.5388L10.0023 16.4594L8.92185 17.5388C8.8908 17.5699 8.85394 17.5945 8.81338 17.6113C8.77281 17.6281 8.72932 17.6367 8.68541 17.6367C8.64149 17.6367 8.59801 17.6281 8.55744 17.6113C8.51687 17.5945 8.48001 17.5699 8.44896 17.5388L7.36848 16.4594L6.28781 17.5388C6.25677 17.5699 6.21991 17.5945 6.17934 17.6113C6.13877 17.6281 6.09529 17.6367 6.05137 17.6367C6.00746 17.6367 5.96397 17.6281 5.9234 17.6113C5.88283 17.5945 5.84597 17.5699 5.81493 17.5388L4.73446 16.4594L3.65398 17.5388C3.62293 17.5699 3.58607 17.5945 3.5455 17.6113C3.50493 17.6281 3.46145 17.6367 3.41753 17.6367C3.37362 17.6367 3.33014 17.6281 3.28957 17.6113C3.249 17.5945 3.21214 17.5699 3.18109 17.5388L2.10062 16.4594L1.02014 17.5388C0.973376 17.5856 0.913793 17.6174 0.848924 17.6303C0.784056 17.6432 0.716816 17.6366 0.65571 17.6113C0.594604 17.586 0.542376 17.5432 0.505631 17.4882C0.468886 17.4333 0.449276 17.3687 0.44928 17.3026V0.595853C0.449268 0.551971 0.45791 0.508516 0.474712 0.467972C0.491514 0.427428 0.516146 0.390588 0.547202 0.359559C0.578258 0.328529 0.615128 0.303918 0.655706 0.28713C0.696285 0.270342 0.739776 0.261707 0.783695 0.261719H13.9531C13.997 0.261707 14.0405 0.270342 14.0811 0.28713C14.1217 0.303918 14.1585 0.328529 14.1896 0.359559C14.2206 0.390588 14.2453 0.427428 14.2621 0.467972C14.2789 0.508516 14.2875 0.551971 14.2875 0.595853V17.3026C14.2875 17.3912 14.2523 17.4762 14.1896 17.5389C14.1268 17.6015 14.0418 17.6367 13.9531 17.6367ZM4.73446 15.6528C4.77839 15.6527 4.82189 15.6614 4.86246 15.6782C4.90304 15.695 4.9399 15.7196 4.97091 15.7507L6.05139 16.8301L7.13203 15.7507C7.16308 15.7196 7.19994 15.695 7.24051 15.6782C7.28108 15.6614 7.32456 15.6528 7.36848 15.6528C7.41239 15.6528 7.45587 15.6614 7.49644 15.6782C7.53701 15.695 7.57387 15.7196 7.60492 15.7507L8.6854 16.8301L9.76588 15.7507C9.79692 15.7196 9.83378 15.695 9.87435 15.6782C9.91492 15.6614 9.95841 15.6528 10.0023 15.6528C10.0462 15.6528 10.0897 15.6614 10.1303 15.6782C10.1709 15.695 10.2077 15.7196 10.2388 15.7507L11.3192 16.8301L12.3997 15.7507C12.4308 15.7196 12.4676 15.695 12.5082 15.6782C12.5488 15.6614 12.5923 15.6528 12.6362 15.6528C12.6801 15.6528 12.7236 15.6614 12.7641 15.6782C12.8047 15.695 12.8416 15.7196 12.8726 15.7507L13.6187 16.496V0.929984H1.11811V16.496L1.86418 15.7507C1.89522 15.7196 1.93208 15.695 1.97265 15.6782C2.01322 15.6614 2.05671 15.6528 2.10062 15.6528C2.14453 15.6528 2.18802 15.6614 2.22859 15.6782C2.26916 15.695 2.30602 15.7196 2.33706 15.7507L3.41754 16.8301L4.49802 15.7507C4.52904 15.7196 4.56589 15.695 4.60646 15.6782C4.64704 15.6614 4.69054 15.6527 4.73446 15.6528Z" fill="black"/>
<path d="M11.2778 11.4964H3.45905C3.37036 11.4964 3.2853 11.4612 3.22258 11.3985C3.15987 11.3359 3.12463 11.2509 3.12463 11.1623C3.12463 11.0736 3.15987 10.9887 3.22258 10.926C3.2853 10.8633 3.37036 10.8281 3.45905 10.8281H11.2778C11.3665 10.8281 11.4516 10.8633 11.5143 10.926C11.577 10.9887 11.6122 11.0736 11.6122 11.1623C11.6122 11.2509 11.577 11.3359 11.5143 11.3985C11.4516 11.4612 11.3665 11.4964 11.2778 11.4964Z" fill="black"/>
<path d="M11.2778 13.6819H3.45905C3.37036 13.6819 3.2853 13.6467 3.22258 13.5841C3.15987 13.5214 3.12463 13.4364 3.12463 13.3478C3.12463 13.2592 3.15987 13.1742 3.22258 13.1115C3.2853 13.0489 3.37036 13.0137 3.45905 13.0137H11.2778C11.3665 13.0137 11.4516 13.0489 11.5143 13.1115C11.577 13.1742 11.6122 13.2592 11.6122 13.3478C11.6122 13.4364 11.577 13.5214 11.5143 13.5841C11.4516 13.6467 11.3665 13.6819 11.2778 13.6819Z" fill="black"/>
</svg>
