<svg width="12" height="20" viewBox="0 0 12 20" fill="none" xmlns="http://www.w3.org/2000/svg">
<path d="M6.00508 12.8473C4.48359 12.8473 3.24414 11.6078 3.24414 10.0863V3.50312C3.24414 1.98164 4.48359 0.742188 6.00508 0.742188C7.52656 0.742188 8.76602 1.98164 8.76602 3.50312V10.0863C8.76602 11.6078 7.52656 12.8473 6.00508 12.8473ZM6.00508 1.5252C4.91406 1.5252 4.02715 2.41211 4.02715 3.50312V10.0863C4.02715 11.1773 4.91406 12.0643 6.00508 12.0643C7.09609 12.0643 7.98301 11.1773 7.98301 10.0863V3.50312C7.98301 2.41211 7.09609 1.5252 6.00508 1.5252Z" fill="#292D32"/>
<path d="M6.00469 15.2149C3.07676 15.2149 0.694336 12.8325 0.694336 9.90454C0.694336 9.68931 0.86875 9.51489 1.08398 9.51489C1.29922 9.51489 1.47363 9.68931 1.47363 9.90454C1.47363 12.402 3.50352 14.4319 6.00098 14.4319C8.49844 14.4319 10.5283 12.402 10.5283 9.90454C10.5283 9.68931 10.7027 9.51489 10.918 9.51489C11.1332 9.51489 11.3076 9.68931 11.3076 9.90454C11.315 12.8325 8.93262 15.2149 6.00469 15.2149Z" fill="#292D32"/>
<path d="M6.00488 19.7422C5.78965 19.7422 5.61523 19.5678 5.61523 19.3525V14.8252C5.61523 14.61 5.78965 14.4355 6.00488 14.4355C6.22012 14.4355 6.39453 14.61 6.39453 14.8252V19.3525C6.39453 19.5678 6.22012 19.7422 6.00488 19.7422Z" fill="#292D32"/>
<path d="M8.63613 19.7422H3.37402C3.15879 19.7422 2.98438 19.5678 2.98438 19.3525C2.98438 19.1373 3.15879 18.9629 3.37402 18.9629H8.63242C8.84766 18.9629 9.02207 19.1373 9.02207 19.3525C9.02578 19.5678 8.85137 19.7422 8.63613 19.7422Z" fill="#292D32"/>
</svg>
