<svg width="14" height="15" viewBox="0 0 14 15" fill="none" xmlns="http://www.w3.org/2000/svg">
<path d="M11.7908 7.75009C11.6408 6.33759 10.8783 5.05634 9.70334 4.24384C9.49084 4.09384 9.44084 3.80634 9.58459 3.59384C9.73459 3.38134 10.0283 3.33134 10.2346 3.47509C11.6346 4.44384 12.5346 5.96884 12.7158 7.65009C12.7408 7.90634 12.5596 8.13759 12.2971 8.16884C12.2908 8.16884 12.2721 8.16884 12.2596 8.16884C12.0221 8.16884 11.8221 7.98759 11.7908 7.75009Z" fill="black"/>
<path d="M1.50399 8.20004C1.24774 8.16879 1.06024 7.93754 1.08524 7.68129C1.25399 6.00004 2.14774 4.48129 3.52899 3.50004C3.74149 3.35004 4.03524 3.40004 4.18524 3.61254C4.33524 3.82504 4.28524 4.11879 4.07274 4.26879C2.91024 5.08754 2.16024 6.36879 2.01649 7.78129C1.99774 8.01879 1.79149 8.20004 1.55399 8.20004C1.53524 8.20004 1.52274 8.20004 1.50399 8.20004Z" fill="black"/>
<path d="M4.27928 13.5062C4.04803 13.3875 3.95428 13.1062 4.07303 12.875C4.19178 12.6437 4.47302 12.55 4.70427 12.6687C6.05427 13.35 7.67928 13.3625 9.04178 12.7062C9.27303 12.5937 9.55427 12.6937 9.66677 12.925C9.77927 13.1562 9.67928 13.4375 9.44803 13.55C8.64803 13.9375 7.79802 14.1312 6.91053 14.1312C5.98553 14.1312 5.10428 13.9187 4.27928 13.5062Z" fill="black"/>
<path fill-rule="evenodd" clip-rule="evenodd" d="M4.70312 3.06868C4.70312 1.84993 5.69063 0.862427 6.90938 0.862427C8.12813 0.862427 9.11563 1.84993 9.11563 3.06868C9.11563 4.28743 8.12188 5.27493 6.90938 5.27493C5.69063 5.27493 4.70312 4.28743 4.70312 3.06868ZM5.64062 3.07493C5.64062 3.77493 6.20938 4.34368 6.90938 4.34368C7.60938 4.34368 8.17813 3.77493 8.17813 3.07493C8.17813 2.37493 7.60313 1.80618 6.90938 1.80618C6.20938 1.80618 5.64062 2.37493 5.64062 3.07493Z" fill="black"/>
<path fill-rule="evenodd" clip-rule="evenodd" d="M0.185547 10.7126C0.185547 9.5001 1.17305 8.50635 2.3918 8.50635C3.61055 8.50635 4.59805 9.49385 4.59805 10.7126C4.59805 11.9251 3.61055 12.9188 2.3918 12.9188C1.17305 12.9188 0.185547 11.9313 0.185547 10.7126ZM1.12305 10.7126C1.12305 11.4126 1.6918 11.9813 2.3918 11.9813C3.0918 11.9813 3.66055 11.4126 3.66055 10.7126C3.66055 10.0126 3.0918 9.44385 2.3918 9.44385C1.6918 9.44385 1.12305 10.0126 1.12305 10.7126Z" fill="black"/>
<path fill-rule="evenodd" clip-rule="evenodd" d="M9.14844 10.7126C9.14844 9.5001 10.1359 8.50635 11.3547 8.50635C12.5734 8.50635 13.5609 9.49385 13.5609 10.7126C13.5547 11.9251 12.5672 12.9188 11.3547 12.9188C10.1359 12.9188 9.14844 11.9313 9.14844 10.7126ZM10.0859 10.7126C10.0859 11.4126 10.6547 11.9813 11.3547 11.9813C12.0547 11.9813 12.6234 11.4126 12.6234 10.7126C12.6172 10.0126 12.0547 9.44385 11.3547 9.44385C10.6547 9.44385 10.0859 10.0126 10.0859 10.7126Z" fill="black"/>
</svg>
