<svg width="18" height="19" viewBox="0 0 18 19" fill="none" xmlns="http://www.w3.org/2000/svg">
<path fill-rule="evenodd" clip-rule="evenodd" d="M9.33075 0.952531C11.3273 0.952531 13.3239 0.943592 15.3204 0.95551C16.7394 0.964051 17.5144 1.73354 17.5179 3.15989C17.5287 7.23158 17.5267 11.3035 17.5187 15.3752C17.5159 16.7517 16.944 17.423 15.5667 17.6205C15.2199 17.6701 15.0897 17.8326 14.9074 18.088C14.1248 19.1841 12.9048 19.1964 12.1498 18.0894C11.9088 17.7363 11.6849 17.6223 11.2935 17.6304C10.3121 17.6511 9.32977 17.6389 8.34779 17.6362C7.58401 17.634 6.89368 17.5374 6.34377 18.4156C5.84198 19.2168 4.56678 19.0363 3.98113 18.21C3.71502 17.8342 3.48955 17.6391 2.99346 17.6161C1.48495 17.5462 0.493737 15.8535 1.04698 14.3999C1.1116 14.2301 1.21019 14.1061 1.38439 14.0926C1.61358 14.0745 1.7383 14.2221 1.79054 14.4349C1.80625 14.498 1.79996 14.5663 1.809 14.6317C2.11911 16.8426 2.1193 16.8422 4.36312 16.8422C7.93084 16.8422 11.4986 16.8444 15.0663 16.8418C16.3768 16.8408 16.7347 16.4718 16.7353 15.1255C16.7374 11.2191 16.7382 7.31282 16.7349 3.40659C16.7337 2.13139 16.3599 1.74963 15.1105 1.74844C11.2156 1.74486 7.32044 1.74427 3.42533 1.74863C2.17488 1.75003 1.82432 2.12067 1.80998 3.41533C1.80782 3.61376 1.80821 3.81239 1.80468 4.01102C1.80016 4.26804 1.70884 4.48355 1.42838 4.49408C1.14361 4.50461 1.05562 4.29148 1.02774 4.03565C0.81288 2.05432 1.56684 0.855004 3.53728 0.935449C5.46588 1.01391 7.39939 0.952332 9.33075 0.952531Z" fill="black"/>
<path fill-rule="evenodd" clip-rule="evenodd" d="M13.7596 9.31875C13.7428 11.4421 12.1321 13.1984 9.99573 13.423C7.96461 13.6367 6.06841 12.1361 5.64557 9.98058C5.26063 8.01793 6.50342 5.94385 8.45029 5.3567C8.89297 5.22322 9.37119 5.22759 9.29911 4.55285C9.28006 4.37627 9.46291 4.26544 9.62847 4.25173C9.84332 4.23385 10.0574 4.35541 10.033 4.5741C9.9535 5.28599 10.4877 5.22799 10.9044 5.35809C12.5793 5.88108 13.7738 7.54817 13.7596 9.31875Z" fill="black"/>
<path fill-rule="evenodd" clip-rule="evenodd" d="M2.02456 7.70401C0.28626 7.70501 0.0825979 7.46804 0.234019 5.80453C0.284296 5.25135 0.531361 4.94526 1.0852 4.92659C1.44499 4.91447 1.80538 4.92262 2.16537 4.92242C3.67526 4.92182 4.23891 5.68138 3.73654 7.11468C3.41032 8.04605 2.56995 7.58504 2.02456 7.70401Z" fill="black"/>
<path fill-rule="evenodd" clip-rule="evenodd" d="M1.97034 13.6634C0.31689 13.6648 0.239313 13.6033 0.238528 12.2865C0.237939 10.9917 0.34301 10.8872 1.64983 10.8832C1.81342 10.8828 1.97761 10.8924 2.14062 10.8812C3.92998 10.7583 3.81921 11.2469 3.75342 12.9553C3.73574 13.4132 3.40541 13.647 2.95212 13.6609C2.62513 13.6706 2.29773 13.6628 1.97034 13.6634Z" fill="black"/>
<path fill-rule="evenodd" clip-rule="evenodd" d="M1.81059 9.30459C1.8104 9.43648 1.81531 9.56856 1.80922 9.70006C1.79449 10.0173 1.87874 10.4542 1.40602 10.4419C0.941739 10.43 1.03562 9.99323 1.02521 9.67761C1.01637 9.41423 1.01637 9.14985 1.02501 8.88647C1.03562 8.56986 0.951952 8.13228 1.42644 8.14479C1.88994 8.15691 1.79469 8.5933 1.80981 8.90892C1.81609 9.04061 1.81079 9.1727 1.81059 9.30459Z" fill="black"/>
<path fill-rule="evenodd" clip-rule="evenodd" d="M5.93331 17.6992C5.50517 18.2427 5.09372 18.1731 4.50513 17.6992C5.06898 17.6992 5.47689 17.6992 5.93331 17.6992Z" fill="#F5F5F6"/>
<path fill-rule="evenodd" clip-rule="evenodd" d="M12.7644 17.6945C13.333 17.622 13.737 17.5882 14.1841 17.7076C13.7491 18.2342 13.3387 18.1833 12.7644 17.6945Z" fill="#F6F6F7"/>
<path fill-rule="evenodd" clip-rule="evenodd" d="M9.69106 6.12142C11.5668 6.09778 12.9208 7.37318 12.9738 9.21307C13.0259 11.0176 11.5454 12.5854 9.73859 12.6392C7.96081 12.6923 6.40084 11.1787 6.35823 9.36006C6.31404 7.46454 7.66976 6.14684 9.69106 6.12142Z" fill="#FCFDFD"/>
<path fill-rule="evenodd" clip-rule="evenodd" d="M2.00515 6.92389C1.61589 6.80968 0.996266 7.226 1.00373 6.31072C1.01139 5.40021 1.62355 5.74423 2.01163 5.73986C2.40344 5.73529 3.01089 5.41292 3.00834 6.32065C3.00559 7.2405 2.37712 6.79557 2.00515 6.92389Z" fill="#FDFDFD"/>
<path fill-rule="evenodd" clip-rule="evenodd" d="M2.07547 12.8975C1.68248 12.7318 0.982134 13.2487 1.00315 12.2446C1.02063 11.41 1.56877 11.6783 1.9372 11.6984C2.34924 11.7204 3.01993 11.316 3.00835 12.3044C2.99853 13.1525 2.42662 12.7618 2.07547 12.8975Z" fill="#FDFDFD"/>
<path fill-rule="evenodd" clip-rule="evenodd" d="M8.25327 11.0691C7.9249 10.9453 7.7721 10.7225 8.03959 10.4108C8.42394 9.96292 8.53726 9.67491 7.76719 9.68206C7.50716 9.68444 7.31332 9.54401 7.34101 9.25878C7.36831 8.97554 7.59397 8.89847 7.84241 8.90025C8.42649 8.90443 8.4807 8.68454 8.10872 8.27438C7.94572 8.09462 7.81118 7.90234 8.01544 7.66955C8.21203 7.4455 8.4208 7.49913 8.61051 7.68067C9.02785 8.08071 9.28258 8.09819 9.27885 7.41411C9.27728 7.15808 9.37999 6.94475 9.66575 6.94336C9.95327 6.94217 10.0538 7.15729 10.0519 7.41292C10.047 8.08866 10.294 8.09005 10.7174 7.68326C10.905 7.5031 11.1132 7.44232 11.3135 7.66498C11.4742 7.84355 11.4402 8.03324 11.288 8.19333C10.8427 8.66111 10.863 8.92012 11.5779 8.9088C11.7955 8.90522 11.9683 9.02519 11.9907 9.24805C12.0188 9.5313 11.8343 9.68265 11.5733 9.68067C10.8333 9.6755 10.8695 9.95239 11.2931 10.4033C11.4459 10.5658 11.4692 10.7549 11.307 10.9308C11.1012 11.1539 10.8954 11.0804 10.7108 10.902C10.261 10.468 10.0475 10.5521 10.0509 11.1895C10.0523 11.4461 9.9405 11.6433 9.65416 11.6517C9.46896 11.6568 9.30379 11.5243 9.30654 11.3652C9.32343 10.4631 9.0143 10.4635 8.46224 11.0224C8.42414 11.0611 8.3387 11.0518 8.25327 11.0691Z" fill="black"/>
<path fill-rule="evenodd" clip-rule="evenodd" d="M9.70806 8.90269C9.90858 8.96327 10.0682 9.07847 10.0461 9.31087C10.0199 9.5816 9.84082 9.73117 9.57883 9.67217C9.3785 9.62709 9.23631 9.45547 9.28463 9.23062C9.32862 9.02524 9.47513 8.89474 9.70806 8.90269Z" fill="#FCFCFC"/>
</svg>
