<svg width="23" height="23" viewBox="0 0 23 23" fill="none" xmlns="http://www.w3.org/2000/svg">
<path fill-rule="evenodd" clip-rule="evenodd" d="M15.2273 21.5013L12.2373 19.7313C11.9273 19.5513 11.3273 19.5513 11.0273 19.7313L8.02731 21.5013C6.25731 22.5513 5.21731 22.1313 4.74731 21.7913C4.28731 21.4513 3.56731 20.5813 4.03731 18.5813L4.74731 15.5113C4.82731 15.1913 4.66732 14.6413 4.42732 14.4013L1.94731 11.9213C0.707315 10.6813 0.807315 9.62129 0.977315 9.10129C1.14732 8.58129 1.68731 7.66129 3.40732 7.37129L6.59731 6.84129C6.89732 6.79129 7.32731 6.47129 7.45731 6.20129L9.22732 2.67129C10.0273 1.06129 11.0773 0.821289 11.6273 0.821289C12.1773 0.821289 13.2273 1.06129 14.0273 2.67129L15.7873 6.19129C15.9273 6.46129 16.3573 6.78129 16.6573 6.83129L19.8473 7.36129C21.5773 7.65129 22.1173 8.57129 22.2773 9.09129C22.4373 9.61129 22.5373 10.6713 21.3073 11.9113L18.8273 14.4013C18.5873 14.6413 18.4373 15.1813 18.5073 15.5113L19.2173 18.5813C19.6773 20.5813 18.9673 21.4513 18.5073 21.7913C18.2573 21.9713 17.8573 22.1713 17.2873 22.1713C16.7573 22.1713 16.0773 22.0013 15.2273 21.5013ZM12.9973 18.4413L15.9873 20.2113C16.8573 20.7313 17.4073 20.7313 17.6173 20.5813C17.8273 20.4313 17.9773 19.9013 17.7573 18.9213L17.0473 15.8513C16.8573 15.0213 17.1673 13.9513 17.7673 13.3413L20.2473 10.8613C20.7373 10.3713 20.9573 9.89129 20.8573 9.56129C20.7473 9.23129 20.2873 8.96129 19.6073 8.85129L16.4173 8.32129C15.6473 8.19129 14.8073 7.57129 14.4573 6.87129L12.6973 3.35129C12.3773 2.71129 11.9773 2.33129 11.6273 2.33129C11.2773 2.33129 10.8773 2.71129 10.5673 3.35129L8.79732 6.87129C8.44732 7.57129 7.60732 8.19129 6.83732 8.32129L3.65732 8.85129C2.97732 8.96129 2.51732 9.23129 2.40732 9.56129C2.29732 9.89129 2.52732 10.3813 3.01732 10.8613L5.49731 13.3413C6.09731 13.9413 6.40732 15.0213 6.21732 15.8513L5.50732 18.9213C5.27732 19.9113 5.43731 20.4313 5.64732 20.5813C5.85732 20.7313 6.39732 20.7213 7.27732 20.2113L10.2673 18.4413C10.6473 18.2113 11.1373 18.0913 11.6273 18.0913C12.1173 18.0913 12.6073 18.2113 12.9973 18.4413Z" fill="white"/>
</svg>
