<svg width="18" height="17" viewBox="0 0 18 17" fill="none" xmlns="http://www.w3.org/2000/svg">
<path d="M8.09312 10.7729C7.94312 10.7729 7.80062 10.7129 7.69562 10.6079L5.88065 8.79295C5.66315 8.57545 5.66315 8.21545 5.88065 7.99795C6.09815 7.78045 6.45815 7.78045 6.67565 7.99795L8.09312 9.41545L11.3181 6.19047C11.5356 5.97297 11.8956 5.97297 12.1131 6.19047C12.3306 6.40797 12.3306 6.76797 12.1131 6.98545L8.49062 10.6079C8.38562 10.7129 8.24312 10.7729 8.09312 10.7729Z" fill="black"/>
<path d="M9.00092 16.457C8.52842 16.457 8.05592 16.2995 7.68842 15.9845L6.50339 14.9645C6.38339 14.8595 6.08339 14.7545 5.92589 14.7545H4.63589C3.52589 14.7545 2.62589 13.8545 2.62589 12.7445V11.462C2.62589 11.3045 2.52089 11.012 2.41589 10.892L1.40339 9.69953C0.788389 8.97203 0.788389 7.82453 1.40339 7.09703L2.41589 5.90453C2.52089 5.78453 2.62589 5.49203 2.62589 5.33453V4.04453C2.62589 2.93453 3.52589 2.03453 4.63589 2.03453H5.93339C6.09089 2.03453 6.39089 1.92203 6.51089 1.82453L7.69592 0.804531C8.43092 0.174531 9.57842 0.174531 10.3134 0.804531L11.4984 1.82453C11.6184 1.92953 11.9184 2.03453 12.0759 2.03453H13.3509C14.4609 2.03453 15.3609 2.93453 15.3609 4.04453V5.31953C15.3609 5.47703 15.4734 5.77703 15.5784 5.89703L16.5984 7.08203C17.2284 7.81703 17.2284 8.96453 16.5984 9.69953L15.5784 10.8845C15.4734 11.0045 15.3609 11.3045 15.3609 11.462V12.737C15.3609 13.847 14.4609 14.747 13.3509 14.747H12.0759C11.9184 14.747 11.6184 14.8595 11.4984 14.957L10.3134 15.977C9.94592 16.2995 9.47342 16.457 9.00092 16.457ZM4.63589 3.15953C4.14839 3.15953 3.75089 3.55703 3.75089 4.04453V5.32703C3.75089 5.75453 3.54839 6.30203 3.27089 6.62453L2.25839 7.81703C1.99589 8.12453 1.99589 8.65703 2.25839 8.96453L3.27089 10.157C3.54839 10.487 3.75089 11.027 3.75089 11.4545V12.737C3.75089 13.2245 4.14839 13.622 4.63589 13.622H5.93339C6.36839 13.622 6.91589 13.8245 7.24589 14.1095L8.43092 15.1295C8.73842 15.392 9.27842 15.392 9.58592 15.1295L10.7709 14.1095C11.1009 13.832 11.6484 13.622 12.0834 13.622H13.3584C13.8459 13.622 14.2434 13.2245 14.2434 12.737V11.462C14.2434 11.027 14.4459 10.4795 14.7309 10.1495L15.7509 8.96453C16.0134 8.65703 16.0134 8.11703 15.7509 7.80953L14.7309 6.62453C14.4459 6.29453 14.2434 5.74703 14.2434 5.31203V4.04453C14.2434 3.55703 13.8459 3.15953 13.3584 3.15953H12.0834C11.6484 3.15953 11.1009 2.95703 10.7709 2.67203L9.58592 1.65203C9.27842 1.38953 8.73842 1.38953 8.43092 1.65203L7.24589 2.67953C6.91589 2.95703 6.36089 3.15953 5.93339 3.15953H4.63589Z" fill="black"/>
</svg>
