<svg width="16" height="17" viewBox="0 0 16 17" fill="none" xmlns="http://www.w3.org/2000/svg">
<path d="M8.71291 0.959307L13.4565 3.0668C14.8233 3.67009 14.8233 4.66753 13.4565 5.27082L8.71291 7.37832C8.17422 7.61963 7.28982 7.61963 6.75114 7.37832L2.00753 5.27082C0.640721 4.66753 0.640721 3.67009 2.00753 3.0668L6.75114 0.959307C7.28982 0.717991 8.17422 0.717991 8.71291 0.959307Z" stroke="black" stroke-width="0.8" stroke-linecap="round" stroke-linejoin="round"/>
<path d="M0.664062 7.45898C0.664062 8.13467 1.17058 8.91492 1.78967 9.18842L7.24884 11.6177C7.66692 11.8027 8.14129 11.8027 8.55133 11.6177L14.0105 9.18842C14.6296 8.91492 15.1361 8.13467 15.1361 7.45898" stroke="black" stroke-width="0.8" stroke-linecap="round" stroke-linejoin="round"/>
<path d="M0.664062 11.4814C0.664062 12.2295 1.10626 12.9052 1.78967 13.2109L7.24884 15.6401C7.66692 15.8251 8.14129 15.8251 8.55133 15.6401L14.0105 13.2109C14.6939 12.9052 15.1361 12.2295 15.1361 11.4814" stroke="black" stroke-width="0.8" stroke-linecap="round" stroke-linejoin="round"/>
</svg>
