<svg width="14" height="21" viewBox="0 0 14 21" fill="none" xmlns="http://www.w3.org/2000/svg">
<path d="M13.1432 4.88526L13.1432 4.88572C13.1435 5.34831 13.055 5.80609 12.8832 6.23277C12.7114 6.6592 12.4599 7.04574 12.1437 7.37073C12.1435 7.3709 12.1434 7.37108 12.1432 7.37126L9.72429 9.84355L9.31375 10.2632L9.72429 10.6828L12.1423 13.1542C12.7772 13.8154 13.1379 14.708 13.1432 15.6426V19.9263H1.34317V15.6427C1.3484 14.7081 1.70914 13.8154 2.34395 13.1542L4.76203 10.6828L5.17258 10.2632L4.76203 9.84355L2.34314 7.37126C2.34299 7.37111 2.34285 7.37096 2.3427 7.37081C2.0265 7.04581 1.77495 6.65924 1.60316 6.23277C1.43128 5.80609 1.34281 5.34831 1.34317 4.88572V4.88526V0.6H13.1432V4.88526Z" stroke="#292D32" stroke-width="1.2"/>
</svg>
