<svg width="13" height="11" viewBox="0 0 13 11" fill="none" xmlns="http://www.w3.org/2000/svg">
<path d="M3.35004 10.4752C3.38033 10.5039 3.42055 10.5209 3.46307 10.5231C3.50571 10.5252 3.54808 10.512 3.58139 10.4863L9.36405 6.05128L9.4216 6.00718L9.49518 6.0055C10.2691 5.98832 11.0043 5.6766 11.5389 5.13888C12.0735 4.60117 12.3638 3.88154 12.3459 3.13828C12.3281 2.39503 12.0034 1.68905 11.4435 1.17564C10.8835 0.662236 10.1342 0.383465 9.36018 0.400652L9.35494 0.400708C8.6038 0.399936 7.88129 0.677327 7.33774 1.17517C6.7942 1.673 6.47151 2.35294 6.43674 3.07348L6.43347 3.14141L6.38928 3.19454L1.77067 8.74812C1.74395 8.78012 1.73042 8.8204 1.73266 8.86136C1.7349 8.90222 1.75291 8.94104 1.78285 8.97016M3.35004 10.4752C3.34995 10.4751 3.35014 10.4753 3.35004 10.4752ZM3.35004 10.4752L1.78285 8.97016M1.78285 8.97016C1.78277 8.97011 1.78293 8.97021 1.78285 8.97016ZM9.3538 5.61018L9.42443 5.67802L9.52403 5.671C9.99645 5.63768 10.4502 5.47965 10.835 5.21432L11.0437 5.07042L10.862 4.89596L7.58451 1.74852L7.40156 1.57285L7.25211 1.77564C6.97741 2.1484 6.81574 2.58705 6.78514 3.04278L6.77881 3.13738L6.84858 3.20441L9.3538 5.61018ZM3.34764 10L3.4857 10.1326L3.63818 10.0155L8.90336 5.97203L9.09378 5.82578L8.92136 5.66021L6.79649 3.61966L6.62407 3.45411L6.47178 3.63697L2.26123 8.69322L2.13929 8.83963L2.27735 8.9722L3.34764 10ZM11.118 4.65766L11.3014 4.83378L11.4507 4.63011C11.7992 4.15469 11.9617 3.5764 11.9097 2.99716C11.8577 2.41792 11.5944 1.8749 11.1663 1.46379C10.7382 1.05268 10.1728 0.799878 9.56958 0.749927C8.96641 0.699971 8.36423 0.856077 7.86918 1.19073L7.65711 1.3341L7.84049 1.51022L11.118 4.65766Z" stroke="white" stroke-width="0.6"/>
<path d="M5.94017 6.38508C6.01363 6.45522 6.11299 6.49456 6.21656 6.49456C6.32014 6.49456 6.4195 6.45522 6.49296 6.38508L7.27705 5.6321C7.3413 5.56008 7.37485 5.46747 7.37103 5.37271C7.36721 5.27796 7.3263 5.18807 7.25648 5.12101C7.18667 5.05396 7.09307 5.01468 6.99439 5.01102C6.89572 5.00736 6.79928 5.03959 6.72428 5.10127L5.94017 5.85425C5.86716 5.92481 5.82617 6.02019 5.82617 6.11967C5.82617 6.21914 5.86716 6.31458 5.94017 6.38508Z" fill="white"/>
</svg>
