<svg width="21" height="18" viewBox="0 0 21 18" fill="none" xmlns="http://www.w3.org/2000/svg">
<path d="M1.125 16.5V16.875H1.5H19.5H19.875V16.5V4.5V4.125H19.5H15.75C15.6496 4.125 15.555 4.0855 15.4856 4.01579L15.4849 4.01508L12.7047 1.23484L12.5948 1.125H12.4395H8.5605H8.40517L8.29533 1.23483L5.51508 4.01508L5.51438 4.01579C5.44518 4.08536 5.3499 4.125 5.25 4.125H0.75C0.543107 4.125 0.375 3.95689 0.375 3.75C0.375 3.54311 0.543107 3.375 0.75 3.375H4.9395H5.09483L5.20467 3.26517L7.98492 0.484916L7.98562 0.484207C8.05482 0.414638 8.1501 0.375 8.25 0.375H12.75C12.8504 0.375 12.945 0.414497 13.0144 0.484208L13.0151 0.484915L15.7953 3.26517L15.9052 3.375H16.0605H20.25C20.4574 3.375 20.625 3.54286 20.625 3.75V17.25C20.625 17.4576 20.4576 17.625 20.25 17.625H0.75C0.542863 17.625 0.375 17.4574 0.375 17.25V6.75C0.375 6.54311 0.543107 6.375 0.75 6.375C0.956893 6.375 1.125 6.54311 1.125 6.75V16.5Z" stroke="#292D32" stroke-width="0.75"/>
<path d="M10.4995 14.6233C8.22487 14.6233 6.37451 12.7729 6.37451 10.4983C6.37451 8.22365 8.22487 6.37329 10.4995 6.37329C12.7742 6.37329 14.6245 8.22365 14.6245 10.4983C14.6245 12.7729 12.7742 14.6233 10.4995 14.6233ZM10.4995 7.12329C8.6379 7.12329 7.12451 8.63668 7.12451 10.4983C7.12451 12.3599 8.6379 13.8733 10.4995 13.8733C12.3611 13.8733 13.8745 12.3599 13.8745 10.4983C13.8745 8.63668 12.3611 7.12329 10.4995 7.12329Z" stroke="#292D32" stroke-width="0.75"/>
</svg>
