<svg width="15" height="18" viewBox="0 0 15 18" fill="none" xmlns="http://www.w3.org/2000/svg">
<path fill-rule="evenodd" clip-rule="evenodd" d="M10.8024 3.99609C10.8024 5.79102 9.34729 7.24609 7.55237 7.24609C5.75744 7.24609 4.30237 5.79102 4.30237 3.99609C4.30237 2.20117 5.75744 0.746094 7.55237 0.746094C9.34729 0.746094 10.8024 2.20117 10.8024 3.99609Z" stroke="black" stroke-linecap="round" stroke-linejoin="round"/>
<path d="M1.55215 13.4426C1.54396 13.1666 1.31356 12.9495 1.03754 12.9577C0.761517 12.9659 0.544397 13.1963 0.552588 13.4723L1.55215 13.4426ZM5.05282 17.2322V16.7322C5.04809 16.7322 5.04336 16.7323 5.03863 16.7324L5.05282 17.2322ZM10.0519 17.2322L10.0661 16.7324C10.0614 16.7323 10.0566 16.7322 10.0519 16.7322V17.2322ZM14.5521 13.4723C14.5603 13.1963 14.3432 12.9659 14.0672 12.9577C13.7912 12.9495 13.5608 13.1666 13.5526 13.4426L14.5521 13.4723ZM13.5526 13.3009C13.5608 13.5769 13.7912 13.7941 14.0672 13.7859C14.3432 13.7777 14.5603 13.5473 14.5521 13.2713L13.5526 13.3009ZM10.0519 9.51136V10.0114C10.0566 10.0114 10.0614 10.0113 10.0661 10.0112L10.0519 9.51136ZM5.05282 9.51136L5.03863 10.0112C5.04336 10.0113 5.04809 10.0114 5.05282 10.0114V9.51136ZM0.552588 13.2713C0.544397 13.5473 0.761517 13.7777 1.03754 13.7859C1.31356 13.7941 1.54396 13.5769 1.55215 13.3009L0.552588 13.2713ZM0.552588 13.4723C0.624465 15.8945 2.6447 17.8008 5.06701 17.732L5.03863 16.7324C3.16789 16.7855 1.60766 15.3133 1.55215 13.4426L0.552588 13.4723ZM5.05282 17.7322H10.0519V16.7322H5.05282V17.7322ZM10.0377 17.732C12.46 17.8008 14.4803 15.8945 14.5521 13.4723L13.5526 13.4426C13.4971 15.3133 11.9368 16.7855 10.0661 16.7324L10.0377 17.732ZM14.5521 13.2713C14.4803 10.849 12.46 8.9428 10.0377 9.01157L10.0661 10.0112C11.9368 9.95805 13.4971 11.4302 13.5526 13.3009L14.5521 13.2713ZM10.0519 9.01136H5.05282V10.0114H10.0519V9.01136ZM5.06701 9.01157C2.6447 8.9428 0.624465 10.849 0.552588 13.2713L1.55215 13.3009C1.60766 11.4302 3.16789 9.95805 5.03863 10.0112L5.06701 9.01157Z" fill="black"/>
</svg>
