<svg width="20" height="20" viewBox="0 0 20 20" fill="none" xmlns="http://www.w3.org/2000/svg">
<path fill-rule="evenodd" clip-rule="evenodd" d="M3.015 11.5372C1.22674 9.7489 0.797351 7.11635 1.72683 4.92264L5.67817 8.87399L7.8004 8.45778C8.13276 8.3926 8.3926 8.13276 8.45778 7.8004L8.87399 5.67817L4.92264 1.72683C7.11635 0.797351 9.7489 1.22674 11.5372 3.015C13.4072 4.88506 13.7912 7.67842 12.6892 9.92769L18.1898 15.4578C18.1932 15.4613 18.1967 15.4648 18.2001 15.4683C18.9441 16.2278 18.9316 17.4466 18.172 18.1906C17.405 18.942 16.1755 18.934 15.4183 18.1728L9.95214 12.6772C7.69869 13.794 4.89184 13.414 3.015 11.5372Z" stroke="black" stroke-linecap="round" stroke-linejoin="round"/>
</svg>
