<svg width="21" height="20" viewBox="0 0 21 20" fill="none" xmlns="http://www.w3.org/2000/svg">
<path d="M12.8344 12.9514C12.7193 13.1667 12.5618 13.3458 12.3625 13.4929C12.1625 13.6393 11.9225 13.7482 11.6438 13.8208C11.5219 13.8516 11.3952 13.8725 11.2654 13.8904V14.7013H10.2969V13.9063C10.0218 13.8829 9.75784 13.8399 9.5099 13.7716C9.13087 13.6682 8.63492 13.2492 8.63492 13.2492C8.59184 13.2246 8.56352 13.1809 8.55738 13.1322C8.55124 13.0836 8.56844 13.035 8.6029 13L9.08775 12.5145C9.14067 12.4628 9.22188 12.4529 9.28465 12.4911C9.28465 12.4911 9.64769 12.8068 9.92213 12.8818C10.1978 12.9569 10.471 12.9944 10.743 12.9944C11.0863 12.9944 11.3706 12.9335 11.5958 12.8123C11.821 12.6899 11.9342 12.5015 11.9342 12.2431C11.9342 12.0573 11.8788 11.9108 11.7668 11.8032C11.6561 11.6967 11.469 11.629 11.2045 11.6001L10.3356 11.5251C9.8212 11.4746 9.42374 11.3312 9.14501 11.0962C8.86505 10.8599 8.72596 10.5024 8.72596 10.0237C8.72596 9.75853 8.78011 9.52284 8.88778 9.31551C8.99544 9.10817 9.1413 8.9334 9.3271 8.79065C9.51352 8.64727 9.73011 8.54023 9.97624 8.46884C10.0796 8.43867 10.1873 8.41898 10.2968 8.40114V7.70215H11.2653V8.38638C11.4911 8.40914 11.7065 8.44544 11.9059 8.50081C12.2468 8.59312 12.603 8.87185 12.603 8.87185C12.648 8.89524 12.6781 8.93891 12.6855 8.98814C12.6935 9.03859 12.6775 9.08844 12.6418 9.12475L12.1865 9.58683C12.1379 9.63606 12.0634 9.64838 12.0013 9.61637C12.0013 9.61637 11.7324 9.42439 11.4992 9.3641C11.2666 9.30381 11.0223 9.27242 10.7645 9.27242C10.4286 9.27242 10.18 9.33705 10.0194 9.46625C9.85814 9.59487 9.77816 9.76282 9.77816 9.96957C9.77816 10.1554 9.83479 10.2987 9.95044 10.3978C10.0637 10.4988 10.2569 10.564 10.5289 10.591L11.2906 10.6562C11.8543 10.7067 12.2825 10.8562 12.5717 11.1067C12.8615 11.3565 13.0061 11.722 13.0061 12.2001C13.0061 12.4868 12.9488 12.7366 12.8344 12.9514Z" fill="black"/>
<path d="M18.1837 4.61426H3.37925C1.90006 4.61426 0.700195 5.8135 0.700195 7.29332V15.1669C0.700195 16.6461 1.89884 17.8453 3.37803 17.8459V18.5283C3.37803 18.9633 3.7306 19.3159 4.16563 19.3159C4.60066 19.3159 4.95323 18.9633 4.95323 18.5283V17.8459H16.6097V18.5283C16.6097 18.9633 16.9623 19.3159 17.3973 19.3159C17.8323 19.3159 18.1849 18.9633 18.1849 18.5283V17.8459C19.6641 17.8453 20.8627 16.6461 20.8627 15.1669V7.29332C20.8627 5.8135 19.6629 4.61426 18.1837 4.61426ZM19.2875 15.1669C19.2875 15.7754 18.7922 16.2707 18.1837 16.2707H3.37925C2.77071 16.2707 2.27539 15.7754 2.27539 15.1669V7.29332C2.27539 6.68478 2.77071 6.18946 3.37925 6.18946H18.1837C18.7922 6.18946 19.2875 6.68478 19.2875 7.29332V15.1669Z" fill="black"/>
<path d="M7.86274 2.72341C7.86337 2.38254 7.99872 2.07979 8.22208 1.85583C8.44607 1.63247 8.74879 1.49649 9.08966 1.49649H12.6493C12.8203 1.49649 12.9606 1.52973 13.0824 1.5851C13.2633 1.66878 13.4098 1.80476 13.5205 1.99736C13.6313 2.18934 13.699 2.43917 13.699 2.72345V3.38614H14.9591V2.72341C14.9591 2.07794 14.7536 1.46388 14.35 0.997468C14.1481 0.76489 13.8959 0.571653 13.6067 0.439375C13.3169 0.306468 12.9907 0.235702 12.6492 0.236332H9.08962C7.71561 0.236332 6.60313 1.35004 6.60254 2.72341V3.3861H7.8627V2.72341H7.86274Z" fill="black"/>
</svg>
