<svg width="20" height="20" viewBox="0 0 20 20" fill="none" xmlns="http://www.w3.org/2000/svg">
<path d="M2.75043 1.39556H3.42118V0.48821C3.42118 0.218527 3.65931 0 3.95261 0H6.64153C6.93508 0 7.17295 0.218527 7.17295 0.48821V1.39556H12.5857V0.48821C12.5857 0.218527 12.8236 0 13.1171 0H15.806C16.0993 0 16.3375 0.218527 16.3375 0.48821V1.39556H17.0082C18.3277 1.39556 19.4051 2.38541 19.4051 3.59757V17.308C19.4051 18.5201 18.3277 19.51 17.0082 19.51H2.75043C1.43098 19.51 0.353516 18.5201 0.353516 17.308V3.59757C0.353516 2.38541 1.43098 1.39556 2.75043 1.39556ZM4.48403 2.52073H6.11011V0.976419H4.48403V2.52073ZM13.6485 2.52073H15.2746V0.976419H13.6485V2.52073ZM5.13246 7.66732H7.13549V9.50748H5.13246V7.66732ZM5.13246 13.1121H7.13549V14.9523H5.13246V13.1121ZM12.6232 13.1121H14.6262V14.9523H12.6232V13.1121ZM8.87781 13.1121H10.8808V14.9523H8.87781V13.1121ZM5.13246 10.3898H7.13549V12.23H5.13246V10.3898ZM12.6232 10.3898H14.6262V12.23H12.6232V10.3898ZM8.87781 10.3898H10.8808V12.23H8.87781V10.3898ZM12.6232 7.66732H14.6262V9.50748H12.6232V7.66732ZM8.87781 7.66732H10.8808V9.50748H8.87781V7.66732ZM3.31675 5.23499H16.4419C16.7352 5.23499 16.9733 5.45352 16.9733 5.7232V16.8966C16.9733 17.1661 16.7352 17.3848 16.4419 17.3848H3.31675C3.02345 17.3848 2.78533 17.1661 2.78533 16.8966V5.7232C2.78533 5.45352 3.02345 5.23499 3.31675 5.23499ZM15.9105 6.21141H3.84817V16.4084H15.9105V6.21141ZM3.42118 2.37198H2.75043C2.01783 2.37198 1.41636 2.92454 1.41636 3.59757V17.308C1.41636 17.981 2.01783 18.5336 2.75043 18.5336H17.0082C17.7408 18.5336 18.3423 17.981 18.3423 17.308V3.59757C18.3423 2.92454 17.7408 2.37198 17.0082 2.37198H16.3375V3.00894C16.3375 3.27862 16.0993 3.49715 15.806 3.49715H13.1171C12.8236 3.49715 12.5857 3.27862 12.5857 3.00894V2.37198H7.17295V3.00894C7.17295 3.27862 6.93508 3.49715 6.64153 3.49715H3.95261C3.65931 3.49715 3.42118 3.27862 3.42118 3.00894V2.37198Z" fill="black"/>
</svg>
