<svg width="107" height="92" viewBox="0 0 107 92" fill="none" xmlns="http://www.w3.org/2000/svg">
<path d="M7.32589 84.034V84.409H7.70089H99.3616H99.7366V84.034V22.9269V22.5519H99.3616H80.2656C79.3488 22.5519 78.4746 22.1901 77.8313 21.5434L77.8306 21.5427L63.6729 7.38495L63.563 7.27511H63.4077H43.6548H43.4995L43.3896 7.38495L29.2319 21.5427L29.2312 21.5434C28.588 22.19 27.7101 22.5519 26.7969 22.5519H3.8817C1.98061 22.5519 0.4375 21.0088 0.4375 19.1077C0.4375 17.2066 1.98061 15.6635 3.8817 15.6635H25.2157H25.3711L25.4809 15.5537L39.6387 1.39591L39.6394 1.3952C40.2825 0.748623 41.1604 0.386719 42.0737 0.386719H64.9888C65.9057 0.386719 66.7799 0.748483 67.4231 1.3952L67.4239 1.39591L81.5816 15.5537L81.6914 15.6635H81.8468H103.181C105.085 15.6635 106.625 17.2064 106.625 19.1077V87.8532C106.625 89.7581 105.086 91.2974 103.181 91.2974H3.8817C1.98036 91.2974 0.4375 89.7579 0.4375 87.8532V34.3845C0.4375 32.4834 1.98061 30.9403 3.8817 30.9403C5.78279 30.9403 7.32589 32.4834 7.32589 34.3845V84.034Z" fill="black" stroke="black" stroke-width="0.75"/>
<path d="M53.5363 76.0061C41.1057 76.0061 30.9961 65.8966 30.9961 53.466C30.9961 41.0353 41.1057 30.9258 53.5363 30.9258C65.9669 30.9258 76.0765 41.0353 76.0765 53.466C76.0765 65.8966 65.9669 76.0061 53.5363 76.0061ZM53.5363 37.8142C44.904 37.8142 37.8845 44.8337 37.8845 53.466C37.8845 62.0982 44.904 69.1177 53.5363 69.1177C62.1685 69.1177 69.1881 62.0982 69.1881 53.466C69.1881 44.8337 62.1685 37.8142 53.5363 37.8142Z" fill="black" stroke="black" stroke-width="0.75"/>
</svg>
