<svg width="17" height="17" viewBox="0 0 17 17" fill="none" xmlns="http://www.w3.org/2000/svg">
<g clip-path="url(#clip0_2540_63854)">
<path d="M5.79569 7.31209H1.68947C1.27371 7.31171 0.875086 7.14641 0.581057 6.85247C0.287027 6.55854 0.121608 6.15996 0.121094 5.74421V1.68898C0.121608 1.27322 0.287027 0.874651 0.581057 0.580713C0.875086 0.286775 1.27371 0.121479 1.68947 0.121094H5.79569C6.21136 0.121608 6.60986 0.28696 6.90379 0.580885C7.19771 0.874809 7.36307 1.27331 7.36358 1.68898V5.74421C7.36307 6.15988 7.19771 6.55838 6.90379 6.8523C6.60986 7.14623 6.21136 7.31158 5.79569 7.31209ZM1.68947 1.33538C1.59568 1.33551 1.50576 1.37279 1.4394 1.43906C1.37304 1.50533 1.33564 1.59519 1.33538 1.68898V5.74421C1.33564 5.83799 1.37304 5.92786 1.4394 5.99413C1.50576 6.0604 1.59568 6.09768 1.68947 6.09781H5.79569C5.88943 6.09768 5.9793 6.06038 6.04558 5.9941C6.11187 5.92781 6.14917 5.83795 6.14929 5.74421V1.68898C6.14917 1.59524 6.11187 1.50537 6.04558 1.43909C5.9793 1.3728 5.88943 1.33551 5.79569 1.33538H1.68947Z" fill="black"/>
<path d="M5.81522 16.8785H1.709C1.2932 16.878 0.894574 16.7126 0.600558 16.4186C0.306543 16.1246 0.141139 15.7259 0.140625 15.3101V11.2554C0.141139 10.8396 0.306559 10.4411 0.600588 10.1471C0.894617 9.85318 1.29324 9.68789 1.709 9.6875H5.81522C6.23073 9.68827 6.62898 9.85374 6.92269 10.1476C7.21641 10.4415 7.38163 10.8399 7.38214 11.2554V15.3101C7.38175 15.7257 7.21659 16.1242 6.92286 16.4182C6.62914 16.7122 6.23081 16.8777 5.81522 16.8785ZM1.709 10.9018C1.61521 10.9019 1.5253 10.9392 1.45893 11.0055C1.39257 11.0717 1.35517 11.1616 1.35491 11.2554V15.3101C1.35504 15.404 1.39239 15.494 1.45876 15.5604C1.52514 15.6267 1.61513 15.6641 1.709 15.6642H5.81522C5.90901 15.664 5.99887 15.6266 6.06515 15.5602C6.13142 15.4938 6.1687 15.4039 6.16882 15.3101V11.2554C6.1687 11.1616 6.1314 11.0718 6.06512 11.0055C5.99883 10.9392 5.90897 10.9019 5.81522 10.9018H1.709Z" fill="black"/>
<path d="M15.3113 16.8785H11.2051C10.7893 16.878 10.3907 16.7126 10.0967 16.4186C9.80264 16.1246 9.63723 15.7259 9.63672 15.3101V11.2554C9.63723 10.8396 9.80265 10.4411 10.0967 10.1471C10.3907 9.85318 10.7893 9.68789 11.2051 9.6875H15.3113C15.727 9.68801 16.1255 9.85337 16.4194 10.1473C16.7133 10.4412 16.8787 10.8397 16.8792 11.2554V15.3101C16.8788 15.7259 16.7135 16.1245 16.4196 16.4185C16.1256 16.7126 15.7271 16.878 15.3113 16.8785ZM11.2051 10.9042C11.1113 10.9043 11.0214 10.9416 10.955 11.0079C10.8887 11.0742 10.8513 11.164 10.851 11.2578V15.3126C10.8511 15.4064 10.8885 15.4964 10.9549 15.5628C11.0212 15.6292 11.1112 15.6665 11.2051 15.6666H15.3113C15.4051 15.6664 15.495 15.629 15.5612 15.5626C15.6275 15.4963 15.6648 15.4063 15.6649 15.3126V11.2554C15.6648 11.1616 15.6275 11.0718 15.5612 11.0055C15.4949 10.9392 15.4051 10.9019 15.3113 10.9018L11.2051 10.9042Z" fill="black"/>
<path d="M13.2609 7.31347C12.5512 7.3082 11.8589 7.09292 11.2714 6.69478C10.6838 6.29665 10.2273 5.73347 9.95935 5.07625C9.6914 4.41903 9.62402 3.6972 9.76571 3.00175C9.9074 2.30629 10.2518 1.66835 10.7555 1.16835C11.2592 0.66835 11.8997 0.328671 12.5962 0.192136C13.2927 0.0556012 14.014 0.128323 14.6692 0.401133C15.3244 0.673944 15.8842 1.13463 16.278 1.72511C16.6718 2.3156 16.8819 3.00945 16.8819 3.71919C16.8772 4.67562 16.4933 5.59112 15.8145 6.26492C15.1357 6.93872 14.2174 7.3158 13.2609 7.31347ZM13.2609 1.33919C12.7914 1.34446 12.3339 1.48851 11.946 1.75321C11.5582 2.01791 11.2573 2.39143 11.0812 2.82676C10.9052 3.26209 10.8619 3.73976 10.9567 4.19966C11.0515 4.65956 11.2803 5.08114 11.6142 5.41132C11.948 5.7415 12.3721 5.96554 12.8331 6.05522C13.294 6.14491 13.7712 6.09625 14.2045 5.91535C14.6378 5.73446 15.008 5.42942 15.2683 5.03863C15.5287 4.64784 15.6676 4.18876 15.6676 3.71919C15.6638 3.08431 15.4082 2.47689 14.957 2.03023C14.5058 1.58358 13.8958 1.33417 13.2609 1.33676V1.33919Z" fill="black"/>
</g>
<defs>
<clipPath id="clip0_2540_63854">
<rect width="17" height="17" fill="white"/>
</clipPath>
</defs>
</svg>
