<svg width="15" height="16" viewBox="0 0 15 16" fill="none" xmlns="http://www.w3.org/2000/svg">
<path d="M0.321086 15.6571C0.535143 15.8857 0.7492 16 1.07029 16C1.39137 16 1.60543 15.8857 1.81948 15.6571L7.492 9.6L13.1645 15.6571C13.3786 15.8857 13.6997 16 13.9137 16C14.1278 16 14.4489 15.8857 14.6629 15.6571C15.091 15.2 15.091 14.5143 14.6629 14.0571L8.9904 8L14.6629 1.94286C15.091 1.48571 15.091 0.8 14.6629 0.342857C14.2348 -0.114286 13.5926 -0.114286 13.1645 0.342857L7.492 6.4L1.81948 0.342857C1.39137 -0.114286 0.7492 -0.114286 0.321086 0.342857C-0.107029 0.8 -0.107029 1.48571 0.321086 1.94286L5.9936 8L0.321086 14.0571C-0.107029 14.5143 -0.107029 15.2 0.321086 15.6571Z" fill="black"/>
</svg>
