<svg width="21" height="22" viewBox="0 0 21 22" fill="none" xmlns="http://www.w3.org/2000/svg">
<path d="M2.89591 18.4759C2.80595 18.4759 2.71802 18.4491 2.64327 18.3991C2.56852 18.349 2.51032 18.2779 2.47604 18.1947C1.61628 16.0208 1.63439 13.5979 2.52655 11.4371C3.41871 9.27632 5.11518 7.54644 7.25819 6.61232C7.3672 6.57565 7.48606 6.58169 7.59079 6.62922C7.69552 6.67675 7.77832 6.76223 7.8225 6.86842C7.86667 6.97461 7.86893 7.0936 7.82881 7.20139C7.78869 7.30917 7.70919 7.39773 7.60633 7.4492C5.68257 8.28847 4.15998 9.8421 3.3597 11.7824C2.55942 13.7227 2.54402 15.898 3.31674 17.8494C3.33956 17.9046 3.35125 17.9638 3.35114 18.0235C3.35103 18.0832 3.33912 18.1423 3.31611 18.1974C3.29309 18.2525 3.25941 18.3025 3.21701 18.3446C3.17461 18.3866 3.12432 18.4199 3.06902 18.4424C3.01432 18.4645 2.95491 18.4759 2.89591 18.4759ZM16.8062 15.9433C18.26 15.3971 18.8817 14.0208 18.4704 12.2581C17.8143 9.44336 14.2994 5.62815 9.65692 6.09202C9.5953 6.09488 9.53491 6.11025 9.47942 6.13721C9.42394 6.16416 9.37453 6.20213 9.33419 6.24881C9.29386 6.29548 9.26346 6.34988 9.24484 6.40868C9.22622 6.46749 9.21976 6.52947 9.22587 6.59086C9.23199 6.65224 9.25054 6.71173 9.28039 6.76571C9.31024 6.81969 9.35078 6.86702 9.39952 6.90483C9.44826 6.94263 9.50419 6.97011 9.5639 6.9856C9.62361 7.00108 9.68585 7.00425 9.74682 6.99489C11.48 6.88462 13.1994 7.36571 14.6237 8.35948C16.048 9.35326 17.0929 10.8009 17.5876 12.4657C17.7806 12.9608 17.7738 13.5114 17.5686 14.0016C17.3634 14.4918 16.9759 14.8831 16.4877 15.093C15.6719 15.399 14.7509 14.7238 13.628 13.8085C13.5819 13.7709 13.5287 13.7427 13.4717 13.7256C13.4147 13.7085 13.3548 13.7029 13.2956 13.7089C13.2363 13.7149 13.1789 13.7326 13.1265 13.7608C13.074 13.7891 13.0277 13.8274 12.9901 13.8735C12.9525 13.9197 12.9243 13.9728 12.9072 14.0299C12.8901 14.0869 12.8844 14.1467 12.8905 14.206C12.8965 14.2652 12.9142 14.3227 12.9424 14.3751C12.9707 14.4275 13.009 14.4739 13.0551 14.5115C13.9264 15.2221 14.9728 16.0762 16.0755 16.0762C16.3252 16.0762 16.5728 16.0318 16.8062 15.9433ZM13.1861 20.646C13.2353 20.5364 13.2391 20.4118 13.1966 20.2994C13.1541 20.187 13.0689 20.096 12.9595 20.0463C10.0758 18.7446 8.11993 15.9605 8.10272 14.1786C8.0747 13.9143 8.12891 13.6477 8.25797 13.4152C8.38703 13.1828 8.58464 12.9958 8.82387 12.8798C9.23148 12.7044 9.67887 12.6422 10.1189 12.6998C10.5589 12.7573 10.9752 12.9325 11.324 13.2069C11.4268 13.2694 11.5503 13.2885 11.6673 13.26C11.7842 13.2315 11.885 13.1577 11.9476 13.0548C12.0101 12.952 12.0292 12.8285 12.0007 12.7115C11.9722 12.5946 11.8984 12.4938 11.7955 12.4312C11.3178 12.0784 10.7554 11.8581 10.1651 11.7928C9.57489 11.7275 8.97787 11.8194 8.4346 12.0592C8.0382 12.2484 7.70797 12.5526 7.48689 12.9322C7.2658 13.3118 7.16412 13.7491 7.19507 14.1873C7.21419 16.2407 9.28104 19.3816 12.5855 20.8727C12.6952 20.9222 12.8201 20.9261 12.9327 20.8836C13.0453 20.8411 13.1365 20.7557 13.1861 20.646ZM17.03 18.957C17.0593 18.8403 17.0411 18.7168 16.9794 18.6135C16.9177 18.5102 16.8176 18.4356 16.701 18.4061C14.2114 17.7767 11.5975 16.0016 10.621 14.2762C10.5929 14.222 10.5541 14.1741 10.507 14.1352C10.4599 14.0963 10.4055 14.0674 10.3469 14.05C10.2884 14.0327 10.227 14.0273 10.1663 14.0342C10.1056 14.0411 10.047 14.0602 9.99387 14.0903C9.94075 14.1204 9.89424 14.1609 9.85713 14.2094C9.82001 14.2579 9.79304 14.3133 9.77784 14.3725C9.76263 14.4316 9.7595 14.4932 9.76863 14.5535C9.77777 14.6139 9.79897 14.6718 9.83099 14.7238C11.081 16.9322 14.1215 18.6901 16.4782 19.286C16.5148 19.295 16.5524 19.2995 16.5901 19.2994C16.691 19.2993 16.7891 19.2656 16.8688 19.2036C16.9484 19.1416 17.0052 19.0548 17.03 18.957ZM7.49443 21.0802C7.5954 21.0148 7.66631 20.912 7.69159 20.7944C7.71687 20.6768 7.69446 20.554 7.62929 20.4528C4.41664 15.465 5.47349 12.0946 7.35479 10.724C9.2007 9.37832 12.4583 9.53135 14.8609 12.458C14.8983 12.5051 14.9446 12.5443 14.9973 12.5732C15.05 12.6022 15.1079 12.6204 15.1677 12.6268C15.2275 12.6332 15.2879 12.6276 15.3456 12.6104C15.4032 12.5932 15.4568 12.5647 15.5033 12.5266C15.5498 12.4885 15.5882 12.4415 15.6164 12.3884C15.6445 12.3353 15.6618 12.2771 15.6673 12.2172C15.6728 12.1573 15.6663 12.0969 15.6482 12.0396C15.6301 11.9823 15.6008 11.9291 15.5619 11.8832C12.8074 8.52423 9.00272 8.4018 6.82014 9.99139C4.62035 11.5934 3.31196 15.4239 6.86701 20.9444C6.93209 21.0455 7.03464 21.1166 7.15212 21.142C7.2696 21.1675 7.39238 21.1453 7.49347 21.0802H7.49443ZM3.55585 3.38437C4.82121 2.20413 11.5631 -0.984607 16.6369 3.06875C16.6832 3.10782 16.7368 3.13723 16.7946 3.15525C16.8524 3.17326 16.9133 3.17951 16.9735 3.17363C17.0338 3.16774 17.0923 3.14985 17.1455 3.12099C17.1988 3.09214 17.2457 3.05291 17.2835 3.00563C17.3213 2.95834 17.3493 2.90396 17.3658 2.84569C17.3822 2.78742 17.3869 2.72644 17.3794 2.66635C17.3719 2.60626 17.3524 2.54829 17.3222 2.49584C17.2919 2.44339 17.2514 2.39754 17.2032 2.36099C11.9485 -1.83774 4.86807 0.916777 2.93704 2.72156C2.89352 2.76219 2.85843 2.811 2.83377 2.86519C2.80911 2.91939 2.79537 2.97791 2.79332 3.03741C2.79128 3.09691 2.80098 3.15624 2.82186 3.212C2.84275 3.26775 2.87441 3.31885 2.91504 3.36237C2.95567 3.40589 3.00448 3.44098 3.05867 3.46564C3.11286 3.4903 3.17138 3.50404 3.23089 3.50608C3.29039 3.50813 3.34972 3.49843 3.40547 3.47755C3.46123 3.45666 3.51233 3.425 3.55585 3.38437ZM20.147 11.6766C20.2654 11.6541 20.3699 11.5856 20.4377 11.486C20.5055 11.3865 20.531 11.2641 20.5086 11.1458C20.0658 9.02804 18.9525 7.10928 17.3336 5.6739C15.7148 4.23852 13.6765 3.3629 11.521 3.17682C9.30512 2.91208 7.06409 3.39133 5.15028 4.53919C3.23648 5.68706 1.75846 7.43844 0.948619 9.51796C0.905501 9.62739 0.906506 9.74928 0.951423 9.85799C0.996339 9.96669 1.08167 10.0537 1.18945 10.1008C1.29724 10.1479 1.41909 10.1513 1.52936 10.1104C1.63963 10.0695 1.72973 9.9874 1.78071 9.8814C3.57115 5.76875 7.17498 3.59765 11.4196 4.07874C13.382 4.24378 15.239 5.03668 16.7154 6.33993C18.1917 7.64317 19.2089 9.38741 19.6162 11.3141C19.6358 11.4181 19.6911 11.5119 19.7724 11.5795C19.8538 11.647 19.9562 11.6841 20.0619 11.6843C20.0905 11.684 20.119 11.6811 20.147 11.6757V11.6766Z" fill="black"/>
</svg>
