<svg width="19" height="20" viewBox="0 0 19 20" fill="none" xmlns="http://www.w3.org/2000/svg">
<path d="M13.7648 18.7515H1.92633C1.25031 18.7515 0.70166 18.1755 0.70166 17.4658V3.75153C0.70166 3.04182 1.25031 2.46582 1.92633 2.46582H16.6224C17.2984 2.46582 17.8471 3.04182 17.8471 3.75153V14.4658" stroke="black" stroke-linecap="round" stroke-linejoin="round"/>
<path d="M5.19216 5.03781C5.41762 5.03781 5.60038 4.84593 5.60038 4.60924C5.60038 4.37254 5.41762 4.18066 5.19216 4.18066C4.9667 4.18066 4.78394 4.37254 4.78394 4.60924C4.78394 4.84593 4.9667 5.03781 5.19216 5.03781Z" stroke="black" stroke-linecap="round" stroke-linejoin="round"/>
<path d="M13.3565 5.03781C13.5819 5.03781 13.7647 4.84593 13.7647 4.60924C13.7647 4.37254 13.5819 4.18066 13.3565 4.18066C13.131 4.18066 12.9482 4.37254 12.9482 4.60924C12.9482 4.84593 13.131 5.03781 13.3565 5.03781Z" stroke="black" stroke-linecap="round" stroke-linejoin="round"/>
<path d="M5.60034 4.6091V0.751953" stroke="black" stroke-linecap="round" stroke-linejoin="round"/>
<path d="M13.7649 4.6091V0.751953" stroke="black" stroke-linecap="round" stroke-linejoin="round"/>
<path d="M0.70166 6.75195H17.8471" stroke="black" stroke-linecap="round" stroke-linejoin="round"/>
<path d="M9.82891 17.1807V11.1907L8.18891 12.1107L7.85891 11.4507L9.97891 10.2807H10.6489V17.1807H9.82891Z" fill="black"/>
<path d="M17.8471 14.4658H14.9896C14.3135 14.4658 13.7649 15.0418 13.7649 15.7515V18.7515L17.8471 14.4658Z" stroke="black" stroke-linecap="round" stroke-linejoin="round"/>
</svg>
