<svg width="21" height="21" viewBox="0 0 21 21" fill="none" xmlns="http://www.w3.org/2000/svg">
<path d="M2.57092 1.46503H3.27506V0.512513C3.27506 0.229406 3.52504 0 3.83294 0H6.65572C6.96388 0 7.21359 0.229406 7.21359 0.512513V1.46503H12.8958V0.512513C12.8958 0.229406 13.1455 0 13.4537 0H16.2764C16.5843 0 16.8343 0.229406 16.8343 0.512513V1.46503H17.5385C18.9236 1.46503 20.0547 2.50416 20.0547 3.77666V18.1696C20.0547 19.4421 18.9236 20.4812 17.5385 20.4812H2.57092C1.18579 20.4812 0.0546875 19.4421 0.0546875 18.1696V3.77666C0.0546875 2.50416 1.18579 1.46503 2.57092 1.46503ZM4.39081 2.64621H6.09784V1.02503H4.39081V2.64621ZM14.0115 2.64621H15.7186V1.02503H14.0115V2.64621ZM5.07152 8.049H7.17426V9.98075H5.07152V8.049ZM5.07152 13.7648H7.17426V15.6966H5.07152V13.7648ZM12.9351 13.7648H15.0379V15.6966H12.9351V13.7648ZM9.00332 13.7648H11.1061V15.6966H9.00332V13.7648ZM5.07152 10.907H7.17426V12.8388H5.07152V10.907ZM12.9351 10.907H15.0379V12.8388H12.9351V10.907ZM9.00332 10.907H11.1061V12.8388H9.00332V10.907ZM12.9351 8.049H15.0379V9.98075H12.9351V8.049ZM9.00332 8.049H11.1061V9.98075H9.00332V8.049ZM3.16543 5.49559H16.9439C17.2518 5.49559 17.5018 5.72499 17.5018 6.0081V17.7377C17.5018 18.0206 17.2518 18.2502 16.9439 18.2502H3.16543C2.85753 18.2502 2.60755 18.0206 2.60755 17.7377V6.0081C2.60755 5.72499 2.85753 5.49559 3.16543 5.49559ZM16.3861 6.52061H3.7233V17.2252H16.3861V6.52061ZM3.27506 2.49005H2.57092C1.80185 2.49005 1.17044 3.07013 1.17044 3.77666V18.1696C1.17044 18.8761 1.80185 19.4562 2.57092 19.4562H17.5385C18.3075 19.4562 18.9389 18.8761 18.9389 18.1696V3.77666C18.9389 3.07013 18.3075 2.49005 17.5385 2.49005H16.8343V3.15872C16.8343 3.44183 16.5843 3.67123 16.2764 3.67123H13.4537C13.1455 3.67123 12.8958 3.44183 12.8958 3.15872V2.49005H7.21359V3.15872C7.21359 3.44183 6.96388 3.67123 6.65572 3.67123H3.83294C3.52504 3.67123 3.27506 3.44183 3.27506 3.15872V2.49005Z" fill="black"/>
</svg>
