<svg width="19" height="20" viewBox="0 0 19 20" fill="none" xmlns="http://www.w3.org/2000/svg">
<path d="M14.0646 18.6539H2.22614C1.55012 18.6539 1.00146 18.0779 1.00146 17.3682V3.65388C1.00146 2.94416 1.55012 2.36816 2.22614 2.36816H16.9222C17.5982 2.36816 18.1469 2.94416 18.1469 3.65388V14.3682" stroke="black" stroke-linecap="round" stroke-linejoin="round"/>
<path d="M5.49196 4.94015C5.71742 4.94015 5.90019 4.74827 5.90019 4.51158C5.90019 4.27489 5.71742 4.08301 5.49196 4.08301C5.26651 4.08301 5.08374 4.27489 5.08374 4.51158C5.08374 4.74827 5.26651 4.94015 5.49196 4.94015Z" stroke="black" stroke-linecap="round" stroke-linejoin="round"/>
<path d="M13.6564 4.94015C13.8818 4.94015 14.0646 4.74827 14.0646 4.51158C14.0646 4.27489 13.8818 4.08301 13.6564 4.08301C13.4309 4.08301 13.2482 4.27489 13.2482 4.51158C13.2482 4.74827 13.4309 4.94015 13.6564 4.94015Z" stroke="black" stroke-linecap="round" stroke-linejoin="round"/>
<path d="M5.90015 4.51144V0.654297" stroke="black" stroke-linecap="round" stroke-linejoin="round"/>
<path d="M14.0646 4.51144V0.654297" stroke="black" stroke-linecap="round" stroke-linejoin="round"/>
<path d="M1.00146 6.6543H18.1469" stroke="black" stroke-linecap="round" stroke-linejoin="round"/>
<path d="M10.1286 17.083V11.093L8.48859 12.013L8.15859 11.353L10.2786 10.183H10.9486V17.083H10.1286Z" fill="black"/>
<path d="M18.1468 14.3682H15.2892C14.6132 14.3682 14.0646 14.9442 14.0646 15.6539V18.6539L18.1468 14.3682Z" stroke="black" stroke-linecap="round" stroke-linejoin="round"/>
</svg>
