<svg width="20" height="27" viewBox="0 0 20 27" fill="none" xmlns="http://www.w3.org/2000/svg">
<path d="M5.455 22.4011H14.365C17.3308 22.4011 18.82 20.9118 18.82 17.9461V9.03605C18.82 6.0703 17.3308 4.58105 14.365 4.58105H5.455C2.48924 4.58105 1 6.0703 1 9.03605V17.9461C1 20.9118 2.48924 22.4011 5.455 22.4011Z" stroke="black" stroke-miterlimit="10" stroke-linecap="round" stroke-linejoin="round"/>
<path d="M15.0015 0.762695H4.8186" stroke="black" stroke-miterlimit="10" stroke-linecap="round" stroke-linejoin="round"/>
<path d="M15.0015 26.2197H4.8186" stroke="black" stroke-miterlimit="10" stroke-linecap="round" stroke-linejoin="round"/>
<path d="M9.53567 18.1109V18.1043M9.53567 16.1309C9.53567 13.161 12.3076 13.8209 12.3076 11.511C12.3076 10.053 11.0665 8.87109 9.53567 8.87109C8.29449 8.87109 7.24384 9.648 6.89062 10.7191" stroke="black" stroke-linecap="round" stroke-linejoin="round"/>
</svg>
