<svg width="20" height="19" viewBox="0 0 20 19" fill="none" xmlns="http://www.w3.org/2000/svg">
<path d="M14.0545 0.961034L14.0552 0.96126C14.4846 1.10266 14.82 1.39509 14.9949 1.75773C14.9949 1.75775 14.9949 1.75777 14.9949 1.75779L19.4489 10.999C19.4489 10.999 19.449 10.9991 19.449 10.9992C19.4642 11.0309 19.4642 11.0614 19.4528 11.0904C19.4411 11.1205 19.4135 11.1565 19.3606 11.1814C19.3604 11.1815 19.3602 11.1816 19.36 11.1817L18.158 11.738C18.1577 11.7382 18.1573 11.7384 18.157 11.7385C18.11 11.7594 18.0453 11.7652 17.9788 11.7453C17.9372 11.7329 17.8925 11.6972 17.8669 11.6508C17.8669 11.6507 17.8668 11.6507 17.8668 11.6506L14.6123 5.68893L14.2249 4.97929L13.8959 5.71778C13.0681 7.57551 12.9851 9.61968 13.6983 11.536L13.7023 11.5465L13.7067 11.5567L16.2982 17.4808C14.9384 17.7018 12.8319 17.8117 10.0234 17.8117H10.0234H10.0234H10.0234H10.0233H10.0233H10.0233H10.0233H10.0233H10.0232H10.0232H10.0232H10.0232H10.0232H10.0231H10.0231H10.0231H10.0231H10.0231H10.023H10.023H10.023H10.023H10.023H10.0229H10.0229H10.0229H10.0229H10.0229H10.0228H10.0228H10.0228H10.0228H10.0228H10.0227H10.0227H10.0227H10.0227H10.0227H10.0226H10.0226H10.0226H10.0226H10.0225H10.0225H10.0225H10.0225H10.0225H10.0224H10.0224H10.0224H10.0224H10.0224H10.0223H10.0223H10.0223H10.0223H10.0222H10.0222H10.0222H10.0222H10.0222H10.0221H10.0221H10.0221H10.0221H10.022H10.022H10.022H10.022H10.022H10.0219H10.0219H10.0219H10.0219H10.0218H10.0218H10.0218H10.0218H10.0218H10.0217H10.0217H10.0217H10.0217H10.0216H10.0216H10.0216H10.0216H10.0216H10.0215H10.0215H10.0215H10.0215H10.0214H10.0214H10.0214H10.0214H10.0213H10.0213H10.0213H10.0213H10.0213H10.0212H10.0212H10.0212H10.0212H10.0211H10.0211H10.0211H10.0211H10.021H10.021H10.021H10.021H10.021H10.0209H10.0209H10.0209H10.0209H10.0208H10.0208H10.0208H10.0208H10.0207H10.0207H10.0207H10.0207H10.0207H10.0206H10.0206H10.0206H10.0206H10.0205H10.0205H10.0205H10.0205H10.0204H10.0204H10.0204H10.0204H10.0204H10.0203H10.0203H10.0203H10.0203H10.0202H10.0202H10.0202H10.0202H10.0201H10.0201H10.0201H10.0201H10.0201H10.02H10.02H10.02H10.02H10.0199H10.0199H10.0199H10.0199H10.0198H10.0198H10.0198H10.0198H10.0198H10.0197H10.0197H10.0197H10.0197H10.0196H10.0196H10.0196H10.0196H10.0195H10.0195H10.0195H10.0195H10.0195H10.0194H10.0194H10.0194H10.0194H10.0193H10.0193H10.0193H10.0193H10.0193H10.0192H10.0192H10.0192H10.0192H10.0191H10.0191H10.0191H10.0191H10.0191H10.019H10.019H10.019H10.019H10.0189H10.0189H10.0189H10.0189H10.0189H10.0188H10.0188H10.0188H10.0188H10.0188H10.0187H10.0187H10.0187H10.0187H10.0187H10.0186H10.0186H10.0186H10.0186H10.0185H10.0185H10.0185H10.0185H10.0185H10.0184H10.0184H10.0184H10.0184H10.0184H10.0183H10.0183H10.0183H10.0183H10.0183H10.0182H10.0182H10.0182H10.0182H10.0182H10.0181H10.0181H10.0181H10.0181H10.0181H10.018H10.018H10.018H10.018H10.018H10.0179H10.0179H10.0179H10.0179H10.0179H10.0179H10.0178H10.0178H10.0178H10.0178H10.0178H10.0177H10.0177H10.0177H10.0177H10.0177H10.0176H10.0176H10.0176H10.0176H10.0176H10.0175H10.0175H10.0175H10.0175H10.0175H10.0174H10.0174H10.0174H10.0174H10.0174H10.0173H10.0173H10.0173H10.0173H10.0173H10.0172H10.0172H10.0172H10.0172H10.0172H10.0171H10.0171H10.0171H10.0171H10.0171H10.017H10.017H10.017H10.017H10.017H10.0169H10.0169H10.0169H10.0169H10.0168H10.0168H10.0168H10.0168H10.0168H10.0167H10.0167H10.0167H10.0167H10.0167H10.0166H10.0166H10.0166H10.0166H10.0165H10.0165H10.0165H10.0165H10.0165H10.0164H10.0164H10.0164H10.0164H10.0163H10.0163H10.0163H10.0163H10.0163H10.0162H10.0162H10.0162H10.0162H10.0161H10.0161H10.0161H10.0161H10.016H10.016H10.016H10.016H10.016H10.0159H10.0159H10.0159H10.0159H10.0158H10.0158H10.0158H10.0158H10.0157H10.0157H10.0157H10.0157H10.0157H10.0156H10.0156H10.0156H10.0156H10.0155H10.0155H10.0155H10.0155H10.0154H10.0154H10.0154H10.0154H10.0154H10.0153H10.0153H10.0153H10.0153H10.0152H10.0152H10.0152H10.0152H10.0151H10.0151H10.0151H10.0151H10.0151H10.015H10.015H10.015H10.015H10.0149H10.0149H10.0149H10.0149H10.0148H10.0148H10.0148H10.0148H10.0148H10.0147H10.0147H10.0147H10.0147H10.0146H10.0146H10.0146H10.0146H10.0145H10.0145H10.0145H10.0145H10.0145H10.0144H10.0144H10.0144H10.0144H10.0143H10.0143H10.0143H10.0143H10.0142H10.0142H10.0142H10.0142H10.0142H10.0141H10.0141H10.0141H10.0141H10.014H10.014H10.014H10.014H10.014H10.0139H10.0139H10.0139H10.0139H10.0138H10.0138H10.0138H10.0138H10.0137H10.0137H10.0137H10.0137H10.0137H10.0136H10.0136H10.0136H10.0136H10.0135H10.0135H10.0135H10.0135H10.0135H10.0134H10.0134H10.0134H10.0134H10.0134H10.0133H10.0133H10.0133H10.0133H10.0132H10.0132H10.0132H10.0132H10.0132H10.0131H10.0131H10.0131H10.0131H10.0131H10.013H10.013H10.013H10.013H10.013H10.0129H10.0129H10.0129H10.0129H10.0128H10.0128H10.0128H10.0128H10.0128H10.0127H10.0127H10.0127H10.0127H10.0127H10.0126H10.0126H10.0126H10.0126H10.0126H10.0125H10.0125H10.0125H10.0125H10.0125H10.0125H10.0124H10.0124H10.0124H10.0124H10.0124H10.0123H10.0123H10.0123C7.20518 17.8117 5.09929 17.7019 3.7389 17.4811L6.32749 11.6305L6.3324 11.6194L6.33663 11.608C7.04896 9.69197 6.96611 7.61218 6.13829 5.75354L5.80983 5.01609L5.42206 5.72415L2.16731 11.6673C2.16727 11.6673 2.16723 11.6674 2.16718 11.6675C2.14854 11.7013 2.11012 11.7365 2.05325 11.7537L2.16602 12.127L2.05325 11.7537C1.99458 11.7714 1.92942 11.7665 1.87601 11.7423C1.87581 11.7422 1.8756 11.7421 1.8754 11.742L0.66726 11.1819L0.666961 11.1817C0.613963 11.1572 0.584534 11.1203 0.571731 11.0883C0.559498 11.0577 0.560207 11.0281 0.574056 10.9991C0.574078 10.999 0.574099 10.999 0.574121 10.999L5.01781 1.75779C5.19588 1.38848 5.5147 1.10029 5.93688 0.96126L5.93739 0.96109C6.36146 0.820808 6.79166 0.846166 7.19586 1.03318L7.70543 1.28608C7.71297 2.12922 7.90386 2.92227 8.22137 3.52163C8.53369 4.11119 9.03486 4.62259 9.69181 4.62259C10.3488 4.62259 10.85 4.11087 11.1623 3.52131C11.46 2.95912 11.6464 2.22663 11.6747 1.44252L11.7028 1.43131C11.7133 1.42707 11.7265 1.42171 11.7401 1.4158L12.7231 1.04708L12.7375 1.04167L12.7515 1.03517C13.1558 0.846854 13.6287 0.81996 14.0545 0.961034ZM11.6784 1.23422V1.23263C11.6784 1.23316 11.6784 1.23369 11.6784 1.23422Z" stroke="black" stroke-width="0.8"/>
</svg>
