<svg width="20" height="20" viewBox="0 0 20 20" fill="none" xmlns="http://www.w3.org/2000/svg">
<path d="M16.0278 15.1027C17.3464 15.1027 18.4153 14.034 18.4153 12.7152C18.4153 11.3902 17.34 10.3277 16.0278 10.3277C14.7092 10.3277 13.6403 11.3966 13.6403 12.7152C13.6403 14.0407 14.716 15.1027 16.0278 15.1027ZM6.33062 17.8729C5.68645 17.8729 5.68645 16.8935 6.33062 16.8935H7.46922V15.497H3.31336C1.60381 15.497 0.207031 14.1002 0.207031 12.3909V5.23523C0.207031 3.52569 1.60381 2.12891 3.31336 2.12891H15.1679C16.8775 2.12891 18.274 3.52569 18.274 5.23523V10.2072C18.9891 10.8479 19.3949 11.7543 19.3949 12.7152C19.3949 13.611 19.0451 14.425 18.4746 15.0283L19.6831 16.5593C20.0802 17.0619 19.3148 17.6664 18.9177 17.1637L17.7095 15.633C17.2146 15.9189 16.6403 16.0823 16.0278 16.0823C15.3241 16.0823 14.6707 15.8662 14.1304 15.497H11.0118V16.8935H12.1507C12.7948 16.8935 12.7948 17.8729 12.1507 17.8729C10.2106 17.8729 8.27072 17.8729 6.33062 17.8729ZM8.44883 15.497V16.8935H10.0325V15.497H8.44883ZM17.2946 9.59471V5.23523C17.2946 4.06664 16.3365 3.10852 15.1679 3.10852H3.31336C2.14476 3.10852 1.18665 4.06664 1.18665 5.23523V12.3909C1.18665 13.5595 2.14476 14.5176 3.31336 14.5176C6.60322 14.5176 9.89333 14.5176 13.1834 14.5176C12.8525 13.9965 12.6609 13.3783 12.6609 12.7152C12.6609 10.8559 14.1682 9.34833 16.0278 9.34833C16.4759 9.34833 16.9035 9.43597 17.2946 9.59471ZM10.3615 5.67153C9.71734 5.67153 9.71734 4.69192 10.3615 4.69192H14.313C14.9572 4.69192 14.9572 5.67153 14.313 5.67153H10.3615ZM10.3615 7.64706C9.71734 7.64706 9.71734 6.66768 10.3615 6.66768H14.313C14.9572 6.66768 14.9572 7.64706 14.313 7.64706H10.3615ZM7.73615 8.14147C8.32552 8.66801 8.66804 9.41896 8.66804 10.2115V12.0838C8.66804 12.3543 8.44859 12.5735 8.17812 12.5735H3.60131C3.33084 12.5735 3.11162 12.3543 3.11162 12.0838V10.2115C3.11162 9.41896 3.45391 8.66801 4.04328 8.14147C3.88383 7.84596 3.7936 7.50792 3.7936 7.14863C3.7936 5.9909 4.73211 5.05239 5.88983 5.05239C7.04732 5.05239 7.98583 5.9909 7.98583 7.14863C7.98583 7.50792 7.89536 7.84596 7.73615 8.14147ZM4.69337 8.86998C4.30974 9.21298 4.091 9.69534 4.091 10.2115V11.5941H7.68843V10.2115C7.68843 9.69534 7.46969 9.21298 7.08606 8.86998C6.74685 9.1062 6.3344 9.24487 5.88983 9.24487C5.44503 9.24487 5.03258 9.1062 4.69337 8.86998ZM5.88983 6.03201C5.27306 6.03201 4.77297 6.53185 4.77297 7.14863C4.77297 7.76541 5.27306 8.26525 5.88983 8.26525C6.50637 8.26525 7.00622 7.76541 7.00622 7.14863C7.00622 6.53185 6.50637 6.03201 5.88983 6.03201Z" fill="black"/>
</svg>
