<svg width="31" height="30" viewBox="0 0 31 30" fill="none" xmlns="http://www.w3.org/2000/svg">
<path fill-rule="evenodd" clip-rule="evenodd" d="M21.8879 27.0247L16.8754 24.0497C16.3504 24.0372 15.8254 23.9997 15.3254 23.9247C14.9879 23.8747 14.7004 23.6497 14.5754 23.3247C14.4504 22.9997 14.5129 22.6497 14.7379 22.3872C15.5629 21.4247 15.9879 20.2747 15.9879 19.0497C15.9879 16.0247 13.3254 13.5622 10.0504 13.5622C8.82539 13.5622 7.65038 13.8997 6.66288 14.5497C6.38788 14.7247 6.05039 14.7497 5.75039 14.6122C5.46289 14.4747 5.25039 14.1997 5.21289 13.8747C5.17539 13.5247 5.15039 13.1747 5.15039 12.8122C5.15039 6.6122 10.5254 1.57471 17.1254 1.57471C23.7254 1.57471 29.1004 6.6122 29.1004 12.8122C29.1004 16.2122 27.5254 19.3372 24.7504 21.4747L25.1754 24.8747C25.2754 25.7247 24.9004 26.5247 24.1879 26.9872C23.8379 27.2122 23.4254 27.3372 23.0129 27.3372C22.6254 27.3372 22.2379 27.2372 21.8879 27.0247ZM17.6129 22.2997L22.8504 25.4122C22.9879 25.4997 23.1004 25.4622 23.1754 25.4122C23.2379 25.3747 23.3379 25.2747 23.3129 25.0997L22.8254 21.1497C22.7879 20.7997 22.9379 20.4622 23.2129 20.2622C25.7629 18.4747 27.2254 15.7497 27.2254 12.7872C27.2254 7.62467 22.7004 3.42468 17.1254 3.42468C11.7629 3.42468 7.36288 7.32473 7.03788 12.2247C7.97538 11.8622 8.9879 11.6622 10.0379 11.6622C14.3504 11.6622 17.8504 14.9622 17.8504 19.0247C17.8629 20.1247 17.6004 21.1872 17.1129 22.1622C17.2879 22.1497 17.4629 22.1997 17.6129 22.2997Z" fill="white"/>
<path fill-rule="evenodd" clip-rule="evenodd" d="M5.475 28.1623C4.9125 27.7998 4.61252 27.1748 4.68752 26.5123L4.93751 24.5872C3.25001 23.2122 2.25 21.1747 2.25 19.0372C2.25 16.5997 3.52501 14.3248 5.66251 12.9623C6.95001 12.1248 8.475 11.6748 10.0625 11.6748C14.375 11.6748 17.875 14.9747 17.875 19.0372C17.875 20.6872 17.275 22.3123 16.175 23.5998C14.7625 25.3123 12.65 26.3123 10.325 26.3873L7.27501 28.1998C7.00001 28.3623 6.70001 28.4373 6.40001 28.4373C6.07501 28.4373 5.7625 28.3498 5.475 28.1623ZM6.6625 14.5373C5.0625 15.5623 4.11251 17.2372 4.11251 19.0372C4.11251 20.7747 4.96251 22.3623 6.46251 23.3873C6.75001 23.5873 6.9 23.9247 6.8625 24.2747L6.5875 26.4123L9.575 24.6373C9.725 24.5498 9.88751 24.4997 10.05 24.4997C11.8875 24.4997 13.625 23.7123 14.725 22.3748C15.55 21.3998 15.9875 20.2497 15.9875 19.0247C15.9875 16.0122 13.325 13.5498 10.05 13.5498C8.82501 13.5498 7.65 13.8873 6.6625 14.5373Z" fill="white"/>
</svg>
