<svg width="21" height="21" viewBox="0 0 21 21" fill="none" xmlns="http://www.w3.org/2000/svg">
<path fill-rule="evenodd" clip-rule="evenodd" d="M14.1257 20.2836L11.2758 18.5966C10.9803 18.425 10.4084 18.425 10.1225 18.5966L7.26297 20.2836C5.57588 21.2845 4.58459 20.8841 4.1366 20.5601C3.69815 20.236 3.01187 19.4067 3.45986 17.5004L4.1366 14.5742C4.21285 14.2692 4.06035 13.745 3.83159 13.5162L1.46775 11.1524C0.285829 9.97044 0.381145 8.96009 0.543182 8.46444C0.70522 7.9688 1.21993 7.09189 2.85936 6.81547L5.89995 6.3103C6.1859 6.26264 6.59576 5.95763 6.71967 5.70027L8.40677 2.33561C9.1693 0.801024 10.1701 0.572266 10.6944 0.572266C11.2186 0.572266 12.2194 0.801024 12.9819 2.33561L14.6595 5.69074C14.7929 5.9481 15.2028 6.25311 15.4888 6.30077L18.5293 6.80594C20.1783 7.08236 20.693 7.95927 20.8455 8.45491C20.998 8.95056 21.0933 9.96091 19.921 11.1428L17.5571 13.5162C17.3284 13.745 17.1854 14.2597 17.2521 14.5742L17.9289 17.5004C18.3673 19.4067 17.6906 20.236 17.2521 20.5601C17.0138 20.7316 16.6326 20.9223 16.0892 20.9223C15.5841 20.9223 14.9359 20.7602 14.1257 20.2836ZM12.0002 17.367L14.8501 19.0541C15.6794 19.5497 16.2036 19.5497 16.4038 19.4067C16.604 19.2638 16.7469 18.7586 16.5372 17.8245L15.8605 14.8983C15.6794 14.1072 15.9749 13.0873 16.5468 12.5058L18.9106 10.142C19.3777 9.67496 19.5874 9.21744 19.492 8.9029C19.3872 8.58836 18.9487 8.331 18.3006 8.22615L15.26 7.72098C14.5261 7.59707 13.7254 7.00611 13.3918 6.33889L11.7142 2.98376C11.4092 2.37374 11.028 2.01154 10.6944 2.01154C10.3607 2.01154 9.97948 2.37374 9.684 2.98376L7.99691 6.33889C7.6633 7.00611 6.86264 7.59707 6.12871 7.72098L3.09766 8.22615C2.44951 8.331 2.01105 8.58836 1.9062 8.9029C1.80136 9.21744 2.02058 9.68449 2.48763 10.142L4.85147 12.5058C5.42337 13.0777 5.71885 14.1072 5.53775 14.8983L4.861 17.8245C4.64178 18.7681 4.79428 19.2638 4.99445 19.4067C5.19461 19.5497 5.70932 19.5402 6.5481 19.0541L9.39805 17.367C9.76026 17.1477 10.2273 17.0334 10.6944 17.0334C11.1614 17.0334 11.6285 17.1477 12.0002 17.367Z" fill="black"/>
</svg>
