<svg width="17" height="19" viewBox="0 0 17 19" fill="none" xmlns="http://www.w3.org/2000/svg">
<path d="M5.42426 0.484798C5.18995 0.250484 4.81005 0.250484 4.57574 0.484798L0.75736 4.30318C0.523045 4.53749 0.523045 4.91739 0.75736 5.1517C0.991675 5.38602 1.37157 5.38602 1.60589 5.1517L5 1.75759L8.39411 5.1517C8.62843 5.38602 9.00833 5.38602 9.24264 5.1517C9.47696 4.91739 9.47696 4.53749 9.24264 4.30318L5.42426 0.484798ZM5.6 18.4141L5.6 0.909063L4.4 0.909063L4.4 18.4141L5.6 18.4141Z" fill="black"/>
<line x1="7.91797" y1="8.0875" x2="10.8355" y2="8.0875" stroke="black" stroke-width="1.2"/>
<line x1="7.91797" y1="11.9781" x2="13.753" y2="11.9781" stroke="black" stroke-width="1.2"/>
<line x1="7.91797" y1="15.8687" x2="16.6705" y2="15.8687" stroke="black" stroke-width="1.2"/>
</svg>
