<svg width="20" height="20" viewBox="0 0 20 20" fill="none" xmlns="http://www.w3.org/2000/svg">
<path d="M10.4243 4.57574C10.1899 4.34142 9.81005 4.34142 9.57574 4.57574L5.75736 8.39411C5.52304 8.62843 5.52304 9.00833 5.75736 9.24264C5.99167 9.47696 6.37157 9.47696 6.60589 9.24264L10 5.84853L13.3941 9.24264C13.6284 9.47696 14.0083 9.47696 14.2426 9.24264C14.477 9.00833 14.477 8.62843 14.2426 8.39411L10.4243 4.57574ZM10.6 15L10.6 5L9.4 5L9.4 15L10.6 15Z" fill="black"/>
<path d="M9.63415 0.03125C4.32178 0.03125 0 4.41258 0 9.79778C0 15.183 4.32178 19.5637 9.63415 19.5637C14.9468 19.5637 19.2686 15.183 19.2686 9.79778C19.2686 4.41258 14.9468 0.03125 9.63415 0.03125ZM9.63415 18.0232C5.16 18.0232 1.51992 14.3332 1.51992 9.79773C1.51992 5.26162 5.15995 1.57169 9.63415 1.57169C14.1086 1.57169 17.749 5.26167 17.749 9.79773C17.749 14.3332 14.1086 18.0232 9.63415 18.0232Z" fill="black"/>
</svg>
