<svg width="31" height="30" viewBox="0 0 31 30" fill="none" xmlns="http://www.w3.org/2000/svg">
<path fill-rule="evenodd" clip-rule="evenodd" d="M11.525 14.525C11.4625 14.5125 11.375 14.5125 11.3 14.525C7.675 14.4125 4.9375 11.5625 4.9375 8.05C4.9375 4.475 7.85 1.5625 11.425 1.5625C15 1.5625 17.9125 4.475 17.9125 8.05C17.9 11.5625 15.15 14.4125 11.6625 14.525C11.65 14.525 11.6375 14.525 11.625 14.525C11.5875 14.525 11.5625 14.525 11.525 14.525ZM6.8125 8.05C6.8125 10.55 8.7625 12.5625 11.25 12.65C11.325 12.6375 11.4875 12.6375 11.65 12.65C14.1 12.5375 16.025 10.525 16.0375 8.05C16.0375 5.5125 13.9625 3.4375 11.425 3.4375C8.8875 3.4375 6.8125 5.5125 6.8125 8.05Z" fill="white"/>
<path d="M20.7373 14.675C20.2248 14.725 19.6998 14.3625 19.6498 13.85C19.5998 13.3375 19.9123 12.875 20.4248 12.8125C20.5748 12.8 20.7373 12.8 20.8748 12.8C22.6998 12.7 24.1248 11.2 24.1248 9.3625C24.1248 7.4625 22.5873 5.925 20.6873 5.925C20.1748 5.9375 19.7498 5.5125 19.7498 5C19.7498 4.4875 20.1748 4.0625 20.6873 4.0625C23.6123 4.0625 25.9998 6.45 25.9998 9.375C25.9998 12.25 23.7498 14.575 20.8873 14.6875C20.8748 14.6875 20.8623 14.6875 20.8498 14.6875C20.8123 14.6875 20.7748 14.6875 20.7373 14.675Z" fill="white"/>
<path fill-rule="evenodd" clip-rule="evenodd" d="M4.86133 26.3125C3.12383 25.1625 2.17383 23.5875 2.17383 21.875C2.17383 20.1625 3.12383 18.575 4.86133 17.4125C8.61133 14.925 14.6863 14.925 18.4113 17.4125C20.1363 18.5625 21.0988 20.1375 21.0988 21.85C21.0988 23.5625 20.1488 25.15 18.4113 26.3125C16.5363 27.5625 14.0863 28.1875 11.6363 28.1875C9.18633 28.1875 6.72383 27.5625 4.86133 26.3125ZM4.04883 21.8875C4.04883 22.95 4.71133 23.975 5.89883 24.7625C9.01133 26.85 14.2613 26.85 17.3738 24.7625C18.5738 23.9625 19.2238 22.9375 19.2238 21.8625C19.2238 20.8 18.5613 19.775 17.3738 18.9875C14.2613 16.9125 9.01133 16.9125 5.89883 18.9875C4.69883 19.7875 4.04883 20.8125 4.04883 21.8875Z" fill="white"/>
<path d="M22.188 25.1875C22.088 24.675 22.413 24.1875 22.913 24.075C23.7005 23.9125 24.4255 23.6 24.988 23.1625C25.7005 22.625 26.088 21.95 26.088 21.2375C26.088 20.525 25.7005 19.85 25.0005 19.325C24.4505 18.9 23.763 18.6 22.9505 18.4125C22.4505 18.3 22.1255 17.8 22.238 17.2875C22.3505 16.7875 22.8505 16.4625 23.363 16.575C24.438 16.8125 25.3755 17.2375 26.138 17.825C27.3005 18.7 27.963 19.9375 27.963 21.2375C27.963 22.5375 27.288 23.775 26.1255 24.6625C25.3505 25.2625 24.3755 25.7 23.3005 25.9125C23.2255 25.9375 23.163 25.9375 23.1005 25.9375C22.663 25.9375 22.2755 25.6375 22.188 25.1875Z" fill="white"/>
</svg>
