<svg width="17" height="19" viewBox="0 0 17 19" fill="none" xmlns="http://www.w3.org/2000/svg">
<path d="M1.75015 2.00015H13.7501V8.00012H15.25V0.5H0.25V18.5001H8.50009V17H1.75015V2.00015Z" fill="black"/>
<path d="M12.6249 8.875L8.5 10.9377V12.7473C8.5 15.0091 9.77784 17.0767 11.8007 18.0881L12.6249 18.5001L13.4492 18.0881C15.472 17.0767 16.7499 15.0091 16.7499 12.7473V10.9377L12.6249 8.875ZM15.2499 12.7471C15.2499 14.4517 14.3029 15.984 12.7783 16.7463L12.6249 16.823L12.4715 16.7463C10.947 15.984 9.99994 14.4515 9.99994 12.7471V11.8646L12.6249 10.5521L15.2499 11.8646V12.7471Z" fill="black"/>
<path d="M11.4915 13.0111L10.7464 13.8542L12.6588 15.5447L14.9952 12.8563L14.1464 12.118L12.5542 13.9502L11.4915 13.0111ZM3.25 4.25H12.2501V5.74994H3.25V4.25ZM3.25 8.00006H9.24997V9.5H3.25V8.00006ZM3.25 11.7499H6.25009V13.2499H3.25V11.7499Z" fill="black"/>
</svg>
