<svg width="20" height="21" viewBox="0 0 20 21" fill="none" xmlns="http://www.w3.org/2000/svg">
<path d="M0.915195 8.68414C0.915195 8.68414 0.915039 8.68363 0.914922 8.68313L0.888672 8.61426L0.915195 8.68414Z" fill="black"/>
<path d="M1.07422 7.13531L1.51086 6.85016C1.51109 6.85016 1.51133 6.84988 1.5116 6.84961L1.07422 7.13531Z" fill="black"/>
<path d="M19.1648 10.9264C19.1434 10.8703 19.1327 10.8111 19.1327 10.752C19.1327 10.6925 19.1434 10.6331 19.1649 10.5765L19.8239 8.84699L19.8858 8.68403C19.9538 8.50574 19.9867 8.31981 19.9867 8.13692C19.9869 7.62965 19.7344 7.1402 19.29 6.84969L19.0713 6.70688L17.5932 5.74172C17.4928 5.67594 17.4195 5.57469 17.3881 5.45863L16.8589 3.50367C16.6763 2.83063 16.0667 2.36793 15.3754 2.36793C15.3492 2.36793 15.3232 2.36844 15.2971 2.36996L13.2821 2.4707V2.47047L13.2518 2.47125C13.1387 2.47125 13.0297 2.43297 12.942 2.36235L11.4667 1.17406L11.3652 1.09246C11.0845 0.865705 10.7414 0.75172 10.4007 0.751955C10.06 0.751447 9.71691 0.865705 9.43594 1.09246L9.43633 1.09219L8.02207 2.23125L7.85961 2.36211C7.77149 2.43301 7.66207 2.47129 7.54945 2.47129L7.52316 2.4707L5.5093 2.37024L5.50801 2.36996C5.47676 2.36817 5.44934 2.36793 5.4259 2.36793C4.73445 2.36793 4.125 2.83059 3.94238 3.50367L3.41313 5.45863C3.38164 5.57516 3.30793 5.67668 3.20695 5.74274L3.06117 5.83789L1.51063 6.8502C1.06645 7.14098 0.814219 7.63012 0.814453 8.13715C0.814453 8.31977 0.847227 8.50492 0.914961 8.68297L1.63625 10.5764L1.63637 10.5767C1.65777 10.6328 1.66863 10.6925 1.66863 10.7519C1.66863 10.8114 1.65793 10.8708 1.63637 10.9269L0.915235 12.8199L0.915352 12.8197C0.847383 12.9979 0.814453 13.1836 0.814453 13.3665C0.814219 13.8738 1.06645 14.3635 1.51125 14.6542L2.76977 15.476L3.2073 15.7617C3.3082 15.8275 3.38164 15.9285 3.41313 16.0453L3.94238 18C4.12484 18.673 4.73457 19.1357 5.4259 19.136C5.44934 19.1357 5.47488 19.1355 5.50215 19.1339L5.44426 19.137L7.53172 19.0327H7.5307L7.55024 19.0324C7.66219 19.0324 7.77125 19.0707 7.85922 19.1416L9.43621 20.412H9.43633C9.71699 20.6382 10.0599 20.7522 10.4007 20.752C10.7413 20.7523 11.0843 20.6382 11.3652 20.4118L13.0777 19.0322L12.9423 19.1413C13.0303 19.0704 13.1391 19.0324 13.2511 19.0324L13.2746 19.0329L15.3132 19.1347L15.303 19.1342C15.3252 19.1352 15.3493 19.1357 15.3754 19.136C16.0665 19.1357 16.6764 18.6733 16.8589 18L17.3882 16.0453C17.4196 15.9285 17.493 15.8277 17.5937 15.7619L19.291 14.6537C19.7349 14.3629 19.987 13.8738 19.9868 13.3667C19.9868 13.1838 19.9539 12.9979 19.8857 12.8194L19.1648 10.9264ZM18.1889 10.2046C18.1217 10.3809 18.088 10.5665 18.088 10.752C18.088 10.9377 18.1217 11.1233 18.1889 11.2996L18.9095 13.1918L18.9097 13.192C18.9317 13.2499 18.942 13.3086 18.942 13.3668C18.9418 13.5295 18.8614 13.6866 18.7188 13.7797L17.023 14.8869H17.0232C16.7073 15.0929 16.4782 15.4082 16.3797 15.7724L15.8504 17.7271C15.7924 17.9429 15.596 18.0913 15.3754 18.0911L15.3461 18.0903L15.3387 18.09L13.328 17.9898H13.3294C13.3046 17.9883 13.2785 17.9878 13.2511 17.9875C12.9008 17.9875 12.5603 18.1074 12.2865 18.328L12.151 18.4374L10.7097 19.5984C10.6189 19.6716 10.511 19.7073 10.4007 19.7073C10.2905 19.7073 10.1825 19.6716 10.0916 19.5984L8.51473 18.328C8.24106 18.1077 7.9007 17.9878 7.55027 17.9878C7.5268 17.9878 7.49938 17.988 7.46801 17.9898V17.9901L5.45082 18.0908L5.45145 18.0906L5.42598 18.0911C5.20559 18.0913 5.00895 17.9429 4.95094 17.7271L4.42172 15.7725C4.32313 15.4082 4.0941 15.093 3.7782 14.8869L2.51992 14.0654L2.08266 13.7797C1.94008 13.6869 1.85949 13.5295 1.85922 13.3665C1.85934 13.3081 1.86957 13.2495 1.89148 13.1921L2.61262 11.2993L2.6125 11.2996C2.67969 11.1231 2.71336 10.9377 2.71336 10.752C2.71336 10.5663 2.67984 10.3807 2.6125 10.2044L1.91809 8.38203L1.89156 8.31266C1.86949 8.25449 1.8593 8.19559 1.85914 8.13719C1.85941 7.97422 1.93988 7.81735 2.08242 7.72453L3.77828 6.61738L3.77856 6.61711C4.09426 6.41055 4.32309 6.09555 4.42168 5.73156L4.9509 3.7766C5.00879 3.5611 5.2057 3.41238 5.42594 3.41266L5.44559 3.41289L7.47332 3.51414L7.47551 3.51442C7.50012 3.51543 7.52488 3.51598 7.54949 3.51621C7.89981 3.51621 8.24043 3.39656 8.51438 3.17621L10.092 1.90555C10.1826 1.83235 10.2904 1.79688 10.4007 1.79664C10.5109 1.79664 10.6188 1.83235 10.7096 1.90555L10.6079 1.82367L12.2868 3.17594C12.5611 3.3968 12.9021 3.51594 13.2519 3.51594C13.2779 3.51594 13.3013 3.51516 13.3219 3.51465H13.3164L15.3506 3.41313H15.352L15.3755 3.41262C15.5958 3.41235 15.7926 3.56106 15.8505 3.77656L16.3797 5.73152C16.4783 6.09547 16.707 6.41047 17.0228 6.61707L18.9376 7.86731L18.7188 7.72449C18.8614 7.81735 18.9418 7.97418 18.942 8.13692C18.942 8.19535 18.9317 8.25402 18.9095 8.31238L18.0958 10.4484L18.1889 10.2046Z" fill="black"/>
<path d="M8.0625 9.59197L7.52406 9.69779C7.49574 9.70365 7.48019 9.72611 7.48582 9.75494L7.88637 11.793L7.86305 11.7979L6.31898 9.98447C6.29348 9.9549 6.26234 9.94596 6.22894 9.9526L5.65723 10.0651C5.62891 10.0707 5.61336 10.0931 5.61949 10.1219L6.23734 13.2644C6.24281 13.2933 6.26566 13.3088 6.29398 13.3032L6.83238 13.1973C6.8607 13.1915 6.87625 13.1688 6.87078 13.1399L6.4707 11.1067L6.49453 11.1021L8.04191 12.9099C8.06742 12.9395 8.09418 12.9489 8.13246 12.9418L8.69922 12.8301C8.7275 12.8244 8.74305 12.8017 8.73695 12.7729L8.11922 9.63018C8.11363 9.60143 8.09082 9.58639 8.0625 9.59197Z" fill="black"/>
<path d="M11.3719 11.676L9.9762 11.9504C9.95734 11.9545 9.94574 11.9469 9.94242 11.9277L9.81019 11.2562C9.8062 11.2373 9.81402 11.2261 9.83288 11.222L10.9953 10.9935C11.0236 10.9879 11.0391 10.9654 11.0337 10.9369L10.9342 10.4321C10.9286 10.4038 10.9058 10.3883 10.8775 10.3936L9.71519 10.6224C9.69628 10.626 9.68456 10.6181 9.68078 10.5992L9.55453 9.95647C9.5507 9.93732 9.55847 9.92584 9.57734 9.92229L10.9731 9.64783C11.0014 9.64221 11.0169 9.61951 11.0108 9.59096L10.9108 9.08166C10.9052 9.05283 10.8825 9.03752 10.8541 9.04314L8.77781 9.4515C8.74886 9.45713 8.73382 9.47982 8.73945 9.50861L9.3573 12.6513C9.36339 12.6799 9.38558 12.6952 9.41453 12.6896L11.4908 12.2813C11.5192 12.2756 11.5348 12.2529 11.5287 12.2244L11.4285 11.7148C11.4231 11.6862 11.4003 11.6704 11.3719 11.676Z" fill="black"/>
<path d="M15.1358 8.20066L14.5262 8.3205C14.4929 8.32691 14.4768 8.34527 14.4784 8.37968L14.4307 10.5004L14.4206 10.5022L13.45 8.58191C13.4345 8.5546 13.4116 8.53957 13.3833 8.54519L12.9689 8.62656C12.9361 8.6332 12.9205 8.65562 12.9166 8.68675L12.7638 10.8282L12.7544 10.8302L11.8876 8.88874C11.8776 8.8607 11.8548 8.84593 11.8215 8.85253L11.207 8.97292C11.1737 8.97956 11.1681 9.0005 11.1787 9.02828L12.6344 12.006C12.6499 12.0328 12.6727 12.0484 12.7011 12.0427L13.1773 11.9489C13.2105 11.9425 13.2261 11.9195 13.2299 11.8892L13.4005 9.76359L13.41 9.76183L14.3679 11.6653C14.3829 11.692 14.4057 11.7076 14.439 11.701L14.9152 11.6071C14.9485 11.601 14.9685 11.577 14.968 11.5471L15.183 8.2407C15.1818 8.21085 15.1691 8.19402 15.1358 8.20066Z" fill="black"/>
</svg>
