<svg width="20" height="20" viewBox="0 0 20 20" fill="none" xmlns="http://www.w3.org/2000/svg">
<g clip-path="url(#clip0_2540_63810)">
<path d="M5.05469 8.37454C5.05469 8.70007 5.31853 8.96391 5.64407 8.96391H14.195C14.5205 8.96391 14.7844 8.70007 14.7844 8.37454C14.7844 8.049 14.5205 7.78516 14.195 7.78516H5.64407C5.31853 7.78516 5.05469 8.049 5.05469 8.37454Z" fill="black"/>
<path d="M5.64407 11.0381H14.195C14.5205 11.0381 14.7844 10.7743 14.7844 10.4488C14.7844 10.1232 14.5205 9.85938 14.195 9.85938H5.64407C5.31853 9.85938 5.05469 10.1232 5.05469 10.4488C5.05469 10.7743 5.31853 11.0381 5.64407 11.0381Z" fill="black"/>
<path d="M5.64407 3.96391H8.54781C8.87334 3.96391 9.13719 3.70007 9.13719 3.37454C9.13719 3.049 8.87334 2.78516 8.54781 2.78516H5.64407C5.31853 2.78516 5.05469 3.049 5.05469 3.37454C5.05469 3.70007 5.31853 3.96391 5.64407 3.96391Z" fill="black"/>
<path d="M9.78943 15.8711H5.64407C5.31853 15.8711 5.05469 16.1349 5.05469 16.4605C5.05469 16.786 5.31853 17.0499 5.64407 17.0499H9.78943C10.115 17.0499 10.3788 16.786 10.3788 16.4605C10.3788 16.1349 10.115 15.8711 9.78943 15.8711Z" fill="black"/>
<path d="M9.78943 14.0469H5.64407C5.31853 14.0469 5.05469 14.3107 5.05469 14.6363C5.05469 14.9618 5.31853 15.2256 5.64407 15.2256H9.78943C10.115 15.2256 10.3788 14.9618 10.3788 14.6363C10.3788 14.3107 10.115 14.0469 9.78943 14.0469Z" fill="black"/>
<path d="M17.4891 4.6242L13.0376 0.172623C12.927 0.0620813 12.7771 0 12.6209 0H2.92727C2.60174 0 2.33789 0.263845 2.33789 0.589379V19.4106C2.33789 19.7362 2.60174 20 2.92727 20H17.0724C17.3979 20 17.6618 19.7362 17.6618 19.4106V5.04096C17.6618 4.88464 17.5997 4.73475 17.4891 4.6242ZM13.0793 1.8813L15.7805 4.58256H13.0793V1.8813ZM16.483 18.8212H3.51665V1.17876H11.9004V5.17193C11.9004 5.49747 12.1643 5.76131 12.4898 5.76131H16.483V18.8212Z" fill="black"/>
<path d="M13.095 13.6562C12.0421 13.6562 11.1855 14.5129 11.1855 15.5658C11.1855 16.6187 12.0421 17.4752 13.095 17.4752C14.1479 17.4752 15.0045 16.6187 15.0045 15.5658C15.0045 14.5129 14.1479 13.6562 13.095 13.6562ZM13.095 16.2965C12.6921 16.2965 12.3643 15.9687 12.3643 15.5658C12.3643 15.1628 12.6921 14.835 13.095 14.835C13.4979 14.835 13.8257 15.1628 13.8257 15.5658C13.8257 15.9687 13.4979 16.2965 13.095 16.2965Z" fill="black"/>
</g>
<defs>
<clipPath id="clip0_2540_63810">
<rect width="20" height="20" fill="white"/>
</clipPath>
</defs>
</svg>
