<svg width="19" height="21" viewBox="0 0 19 21" fill="none" xmlns="http://www.w3.org/2000/svg">
<path fill-rule="evenodd" clip-rule="evenodd" d="M5.92578 8.67182C5.92578 6.62099 7.59328 4.97266 9.63453 4.97266C11.6758 4.97266 13.3433 6.63057 13.3433 8.68141C13.3433 10.7322 11.6758 12.3806 9.63453 12.3806C7.59328 12.3806 5.92578 10.7227 5.92578 8.67182ZM7.36328 8.68141C7.36328 9.93682 8.37911 10.9527 9.63453 10.9527C10.8899 10.9527 11.9058 9.93682 11.9058 8.68141C11.9058 7.42599 10.8804 6.41016 9.63453 6.41016C8.3887 6.41016 7.36328 7.42599 7.36328 8.68141Z" fill="black"/>
<path fill-rule="evenodd" clip-rule="evenodd" d="M5.67647 19.0133C2.84938 16.2917 -0.274781 11.9504 0.903969 6.785C1.96772 2.09875 6.0598 0 9.63439 0C9.63439 0 9.63439 0 9.64397 0C13.2186 0 17.3106 2.09875 18.3744 6.79458C19.5436 11.96 16.4194 16.2917 13.5923 19.0133C12.4806 20.0771 11.0527 20.6138 9.63439 20.6138C8.21605 20.6138 6.78813 20.0771 5.67647 19.0133ZM2.31272 7.10125C1.27772 11.615 4.11438 15.5058 6.68272 17.9688C8.34063 19.5692 10.9377 19.5692 12.5956 17.9688C15.1544 15.5058 17.9911 11.615 16.9752 7.10125C16.0169 2.92292 12.4231 1.4375 9.63439 1.4375C6.84564 1.4375 3.26147 2.92292 2.31272 7.10125Z" fill="black"/>
</svg>
