<svg width="16" height="20" viewBox="0 0 16 20" fill="none" xmlns="http://www.w3.org/2000/svg">
<path d="M1.38665 19.5001C0.898837 19.5001 0.50293 19.1042 0.50293 18.6164V8.89544C0.50293 8.40763 0.898837 8.01172 1.38665 8.01172H13.7587C14.2466 8.01172 14.6425 8.40763 14.6425 8.89544V18.6164C14.6425 19.1042 14.2466 19.5001 13.7587 19.5001H1.38665Z" stroke="black" stroke-miterlimit="10" stroke-linecap="round"/>
<path d="M11.9914 8.01163C11.9914 7.54988 11.9914 5.38035 11.9914 4.9186C11.9914 2.47821 10.0132 0.5 7.57278 0.5C5.13238 0.5 3.15417 2.47821 3.15417 4.9186C3.15417 5.38035 3.15417 7.54988 3.15417 8.01163" stroke="black" stroke-miterlimit="10" stroke-linecap="round"/>
<path d="M8.89829 12.8725C8.89829 12.1403 8.30488 11.5469 7.57271 11.5469C6.84055 11.5469 6.24713 12.1403 6.24713 12.8725C6.24713 13.2635 6.4199 13.6117 6.68899 13.8543V15.0818C6.68899 15.5696 7.0849 15.9655 7.57271 15.9655C8.06053 15.9655 8.45643 15.5696 8.45643 15.0818V13.8543C8.72553 13.6117 8.89829 13.2635 8.89829 12.8725Z" fill="black"/>
</svg>
