<svg width="20" height="20" viewBox="0 0 20 20" fill="none" xmlns="http://www.w3.org/2000/svg">
<path d="M10.4243 15.4243C10.1899 15.6586 9.81005 15.6586 9.57574 15.4243L5.75736 11.6059C5.52304 11.3716 5.52304 10.9917 5.75736 10.7574C5.99167 10.523 6.37157 10.523 6.60589 10.7574L10 14.1515L13.3941 10.7574C13.6284 10.523 14.0083 10.523 14.2426 10.7574C14.477 10.9917 14.477 11.3716 14.2426 11.6059L10.4243 15.4243ZM10.6 5L10.6 15L9.4 15L9.4 5L10.6 5Z" fill="black"/>
<path d="M9.63415 0.03125C4.32178 0.03125 0 4.41258 0 9.79778C0 15.183 4.32178 19.5637 9.63415 19.5637C14.9468 19.5637 19.2686 15.183 19.2686 9.79778C19.2686 4.41258 14.9468 0.03125 9.63415 0.03125ZM9.63415 18.0232C5.16 18.0232 1.51992 14.3332 1.51992 9.79773C1.51992 5.26162 5.15995 1.57169 9.63415 1.57169C14.1086 1.57169 17.749 5.26167 17.749 9.79773C17.749 14.3332 14.1086 18.0232 9.63415 18.0232Z" fill="black"/>
</svg>
