<svg width="17" height="20" viewBox="0 0 17 20" fill="none" xmlns="http://www.w3.org/2000/svg">
<path d="M4.57574 18.8305C4.81005 19.0648 5.18995 19.0648 5.42426 18.8305L9.24264 15.0121C9.47696 14.7778 9.47696 14.3979 9.24264 14.1636C9.00833 13.9293 8.62843 13.9293 8.39411 14.1636L5 17.5577L1.60589 14.1636C1.37157 13.9293 0.991675 13.9293 0.75736 14.1636C0.523045 14.3979 0.523045 14.7778 0.75736 15.0121L4.57574 18.8305ZM4.4 0.90625L4.4 18.4063L5.6 18.4062L5.6 0.90625L4.4 0.90625Z" fill="black"/>
<line x1="7.91602" y1="3.22031" x2="10.8327" y2="3.22031" stroke="black" stroke-width="1.2"/>
<line x1="7.91602" y1="7.11094" x2="13.7493" y2="7.11094" stroke="black" stroke-width="1.2"/>
<line x1="7.91602" y1="11.0016" x2="16.666" y2="11.0016" stroke="black" stroke-width="1.2"/>
</svg>
