<svg width="24" height="16" viewBox="0 0 24 16" fill="none" xmlns="http://www.w3.org/2000/svg">
<path d="M21.7757 3.82136H21.3295V3.37519C21.3295 2.66131 20.7049 2.03666 19.991 2.03666H19.5448V1.59048C19.5448 0.8766 18.9202 0.251953 18.2063 0.251953H3.03628C2.3224 0.251953 1.69775 0.8766 1.69775 1.59048V10.514C1.69775 11.2279 2.3224 11.8525 3.03628 11.8525H3.48246V12.2987C3.48246 13.0126 4.10711 13.6372 4.82099 13.6372H5.26717V14.0834C5.26717 14.7973 5.89181 15.422 6.6057 15.422H21.7757C22.4896 15.422 23.1142 14.7973 23.1142 14.0834V5.15989C23.1142 4.44601 22.4896 3.82136 21.7757 3.82136ZM2.59011 10.514V1.59048C2.59011 1.32278 2.76858 1.14431 3.03628 1.14431H18.2063C18.474 1.14431 18.6525 1.32278 18.6525 1.59048V10.514C18.6525 10.7817 18.474 10.9602 18.2063 10.9602H3.03628C2.76858 10.9602 2.59011 10.7817 2.59011 10.514ZM4.37481 12.2987V11.8525H18.2063C18.9202 11.8525 19.5448 11.2279 19.5448 10.514V2.92901H19.991C20.2587 2.92901 20.4372 3.10748 20.4372 3.37519V12.2987C20.4372 12.5664 20.2587 12.7449 19.991 12.7449H4.82099C4.55328 12.7449 4.37481 12.5664 4.37481 12.2987ZM22.2219 14.0834C22.2219 14.3511 22.0434 14.5296 21.7757 14.5296H6.6057C6.33799 14.5296 6.15952 14.3511 6.15952 14.0834V13.6372H19.991C20.7049 13.6372 21.3295 13.0126 21.3295 12.2987V4.71372H21.7757C22.0434 4.71372 22.2219 4.89219 22.2219 5.15989V14.0834Z" fill="black"/>
<path d="M17.3144 3.82182C16.6005 3.82182 15.9759 3.19717 15.9759 2.48329C15.9759 2.21558 15.7974 2.03711 15.5297 2.03711H5.71379C5.44609 2.03711 5.26762 2.21558 5.26762 2.48329C5.26762 3.19717 4.64297 3.82182 3.92909 3.82182C3.66138 3.82182 3.48291 4.00029 3.48291 4.26799V7.8374C3.48291 8.10511 3.66138 8.28358 3.92909 8.28358C4.64297 8.28358 5.26762 8.90823 5.26762 9.62211C5.26762 9.88982 5.44609 10.0683 5.71379 10.0683H15.5297C15.7974 10.0683 15.9759 9.88982 15.9759 9.62211C15.9759 8.90823 16.6005 8.28358 17.3144 8.28358C17.5821 8.28358 17.7606 8.10511 17.7606 7.8374V4.26799C17.7606 4.00029 17.5821 3.82182 17.3144 3.82182ZM12.4064 6.0527C12.4064 7.74817 11.6033 9.17593 10.6217 9.17593C9.64015 9.17593 8.83703 7.74817 8.83703 6.0527C8.83703 4.35723 9.64015 2.92946 10.6217 2.92946C11.6033 2.92946 12.4064 4.35723 12.4064 6.0527ZM4.37526 7.48046V4.62493C5.26762 4.5357 5.9815 3.82182 6.07073 2.92946H8.92626C8.30162 3.64334 7.94467 4.8034 7.94467 6.0527C7.94467 7.30199 8.30162 8.46205 8.92626 9.17593H6.07073C5.9815 8.28358 5.26762 7.5697 4.37526 7.48046ZM16.8682 7.48046C15.9759 7.65893 15.262 8.37282 15.0835 9.17593H12.228C12.8526 8.46205 13.2096 7.30199 13.2096 6.0527C13.2096 4.8034 12.9419 3.64334 12.3172 2.92946H15.0835C15.262 3.82182 15.9759 4.5357 16.8682 4.62493V7.48046Z" fill="black"/>
</svg>
