<svg width="20" height="20" viewBox="0 0 20 20" fill="none" xmlns="http://www.w3.org/2000/svg">
<path d="M14.9145 19.0972H2.48591C1.7762 19.0972 1.2002 18.5212 1.2002 17.8115V4.09724C1.2002 3.38752 1.7762 2.81152 2.48591 2.81152H17.9145C18.6242 2.81152 19.2002 3.38752 19.2002 4.09724V14.8115" stroke="black" stroke-linecap="round" stroke-linejoin="round"/>
<path d="M5.91441 5.38351C6.1511 5.38351 6.34298 5.19163 6.34298 4.95494C6.34298 4.71825 6.1511 4.52637 5.91441 4.52637C5.67772 4.52637 5.48584 4.71825 5.48584 4.95494C5.48584 5.19163 5.67772 5.38351 5.91441 5.38351Z" stroke="black" stroke-linecap="round" stroke-linejoin="round"/>
<path d="M14.4859 5.38351C14.7226 5.38351 14.9145 5.19163 14.9145 4.95494C14.9145 4.71825 14.7226 4.52637 14.4859 4.52637C14.2493 4.52637 14.0574 4.71825 14.0574 4.95494C14.0574 5.19163 14.2493 5.38351 14.4859 5.38351Z" stroke="black" stroke-linecap="round" stroke-linejoin="round"/>
<path d="M6.34302 4.9548V1.09766" stroke="black" stroke-linecap="round" stroke-linejoin="round"/>
<path d="M14.9146 4.9548V1.09766" stroke="black" stroke-linecap="round" stroke-linejoin="round"/>
<path d="M1.2002 7.09766H19.2002" stroke="black" stroke-linecap="round" stroke-linejoin="round"/>
<path d="M5.34537 14.2544L5.96137 14.1104C6.18537 14.7344 6.61471 15.0464 7.24937 15.0464C7.58537 15.0464 7.87337 14.953 8.11337 14.7664C8.35871 14.5744 8.48137 14.3157 8.48137 13.9904C8.48137 13.649 8.36137 13.3904 8.12137 13.2144C7.88137 13.0384 7.58004 12.9504 7.21737 12.9504H6.61737V12.3504H7.19337C7.51871 12.3504 7.79337 12.2704 8.01737 12.1104C8.24671 11.945 8.36137 11.7024 8.36137 11.3824C8.36137 11.0997 8.25471 10.881 8.04137 10.7264C7.83337 10.5664 7.58004 10.4864 7.28137 10.4864C6.98804 10.4864 6.73471 10.5664 6.52137 10.7264C6.31337 10.881 6.16404 11.0997 6.07337 11.3824L5.46537 11.2384C5.57737 10.8117 5.79871 10.481 6.12937 10.2464C6.46537 10.0064 6.86004 9.88637 7.31337 9.88637C7.77737 9.88637 8.18004 10.017 8.52137 10.2784C8.86271 10.5344 9.03337 10.8917 9.03337 11.3504C9.03337 11.6437 8.95871 11.8997 8.80937 12.1184C8.66537 12.337 8.46004 12.505 8.19337 12.6224C8.49737 12.729 8.73204 12.905 8.89737 13.1504C9.06804 13.3957 9.15337 13.6784 9.15337 13.9984C9.15337 14.4837 8.96404 14.881 8.58537 15.1904C8.20671 15.4944 7.76671 15.6464 7.26537 15.6464C6.79604 15.6464 6.39071 15.5264 6.04937 15.2864C5.71337 15.0464 5.47871 14.7024 5.34537 14.2544ZM11.9732 15.6464C11.6799 15.6464 11.4132 15.5877 11.1732 15.4704C10.9385 15.353 10.7465 15.201 10.5972 15.0144C10.4479 14.8224 10.3225 14.5984 10.2212 14.3424C10.1252 14.081 10.0559 13.8224 10.0132 13.5664C9.97585 13.305 9.95719 13.0384 9.95719 12.7664C9.95719 12.4944 9.97585 12.2304 10.0132 11.9744C10.0559 11.713 10.1252 11.4544 10.2212 11.1984C10.3225 10.9424 10.4479 10.7184 10.5972 10.5264C10.7465 10.3344 10.9385 10.1797 11.1732 10.0624C11.4132 9.94503 11.6852 9.88637 11.9892 9.88637C12.3572 9.88637 12.6772 9.97437 12.9492 10.1504C13.2265 10.321 13.4372 10.553 13.5812 10.8464C13.7305 11.1344 13.8372 11.4384 13.9012 11.7584C13.9705 12.0784 14.0052 12.4144 14.0052 12.7664C14.0052 13.113 13.9705 13.4464 13.9012 13.7664C13.8319 14.081 13.7225 14.385 13.5732 14.6784C13.4292 14.9717 13.2185 15.2064 12.9412 15.3824C12.6692 15.5584 12.3465 15.6464 11.9732 15.6464ZM10.6292 12.7664C10.6292 13.017 10.6479 13.2624 10.6852 13.5024C10.7225 13.737 10.7865 13.9797 10.8772 14.2304C10.9679 14.4757 11.1065 14.673 11.2932 14.8224C11.4852 14.9717 11.7145 15.0464 11.9812 15.0464C12.2532 15.0464 12.4825 14.9717 12.6692 14.8224C12.8612 14.673 12.9999 14.4757 13.0852 14.2304C13.1759 13.985 13.2399 13.745 13.2772 13.5104C13.3145 13.2704 13.3332 13.0224 13.3332 12.7664C13.3332 12.505 13.3145 12.2597 13.2772 12.0304C13.2452 11.7957 13.1839 11.5557 13.0932 11.3104C13.0025 11.0597 12.8612 10.8597 12.6692 10.7104C12.4825 10.561 12.2532 10.4864 11.9812 10.4864C11.7145 10.4864 11.4852 10.561 11.2932 10.7104C11.1065 10.8597 10.9679 11.057 10.8772 11.3024C10.7865 11.5477 10.7225 11.7904 10.6852 12.0304C10.6479 12.265 10.6292 12.5104 10.6292 12.7664Z" fill="black"/>
<path d="M19.2003 14.8115H16.2003C15.4906 14.8115 14.9146 15.3875 14.9146 16.0972V19.0972L19.2003 14.8115Z" stroke="black" stroke-linecap="round" stroke-linejoin="round"/>
</svg>
