<svg width="19" height="20" viewBox="0 0 19 20" fill="none" xmlns="http://www.w3.org/2000/svg">
<path d="M14.2143 18.9996H1.78571C1.076 18.9996 0.5 18.4236 0.5 17.7139V3.99958C0.5 3.28987 1.076 2.71387 1.78571 2.71387H17.2143C17.924 2.71387 18.5 3.28987 18.5 3.99958V14.7139" stroke="black" stroke-linecap="round" stroke-linejoin="round"/>
<path d="M5.21434 5.28585C5.45103 5.28585 5.64291 5.09398 5.64291 4.85728C5.64291 4.62059 5.45103 4.42871 5.21434 4.42871C4.97764 4.42871 4.78577 4.62059 4.78577 4.85728C4.78577 5.09398 4.97764 5.28585 5.21434 5.28585Z" stroke="black" stroke-linecap="round" stroke-linejoin="round"/>
<path d="M13.7857 5.28585C14.0224 5.28585 14.2143 5.09398 14.2143 4.85728C14.2143 4.62059 14.0224 4.42871 13.7857 4.42871C13.5491 4.42871 13.3572 4.62059 13.3572 4.85728C13.3572 5.09398 13.5491 5.28585 13.7857 5.28585Z" stroke="black" stroke-linecap="round" stroke-linejoin="round"/>
<path d="M5.64282 4.85714V1" stroke="black" stroke-linecap="round" stroke-linejoin="round"/>
<path d="M14.2142 4.85714V1" stroke="black" stroke-linecap="round" stroke-linejoin="round"/>
<path d="M0.5 7H18.5" stroke="black" stroke-linecap="round" stroke-linejoin="round"/>
<path d="M4.64518 14.1567L5.26118 14.0127C5.48518 14.6367 5.91451 14.9487 6.54918 14.9487C6.88518 14.9487 7.17318 14.8554 7.41318 14.6687C7.65851 14.4767 7.78118 14.218 7.78118 13.8927C7.78118 13.5514 7.66118 13.2927 7.42118 13.1167C7.18118 12.9407 6.87984 12.8527 6.51718 12.8527H5.91718V12.2527H6.49318C6.81851 12.2527 7.09318 12.1727 7.31718 12.0127C7.54651 11.8474 7.66118 11.6047 7.66118 11.2847C7.66118 11.002 7.55451 10.7834 7.34118 10.6287C7.13318 10.4687 6.87984 10.3887 6.58118 10.3887C6.28784 10.3887 6.03451 10.4687 5.82118 10.6287C5.61318 10.7834 5.46384 11.002 5.37318 11.2847L4.76518 11.1407C4.87718 10.714 5.09851 10.3834 5.42918 10.1487C5.76518 9.90871 6.15984 9.78871 6.61318 9.78871C7.07718 9.78871 7.47984 9.91938 7.82118 10.1807C8.16251 10.4367 8.33318 10.794 8.33318 11.2527C8.33318 11.546 8.25851 11.802 8.10918 12.0207C7.96518 12.2394 7.75984 12.4074 7.49318 12.5247C7.79718 12.6314 8.03184 12.8074 8.19718 13.0527C8.36784 13.298 8.45318 13.5807 8.45318 13.9007C8.45318 14.386 8.26384 14.7834 7.88518 15.0927C7.50651 15.3967 7.06651 15.5487 6.56518 15.5487C6.09584 15.5487 5.69051 15.4287 5.34918 15.1887C5.01318 14.9487 4.77851 14.6047 4.64518 14.1567ZM11.273 15.5487C10.9797 15.5487 10.713 15.49 10.473 15.3727C10.2383 15.2554 10.0463 15.1034 9.89699 14.9167C9.74766 14.7247 9.62232 14.5007 9.52099 14.2447C9.42499 13.9834 9.35566 13.7247 9.31299 13.4687C9.27566 13.2074 9.25699 12.9407 9.25699 12.6687C9.25699 12.3967 9.27566 12.1327 9.31299 11.8767C9.35566 11.6154 9.42499 11.3567 9.52099 11.1007C9.62232 10.8447 9.74766 10.6207 9.89699 10.4287C10.0463 10.2367 10.2383 10.082 10.473 9.96471C10.713 9.84738 10.985 9.78871 11.289 9.78871C11.657 9.78871 11.977 9.87671 12.249 10.0527C12.5263 10.2234 12.737 10.4554 12.881 10.7487C13.0303 11.0367 13.137 11.3407 13.201 11.6607C13.2703 11.9807 13.305 12.3167 13.305 12.6687C13.305 13.0154 13.2703 13.3487 13.201 13.6687C13.1317 13.9834 13.0223 14.2874 12.873 14.5807C12.729 14.874 12.5183 15.1087 12.241 15.2847C11.969 15.4607 11.6463 15.5487 11.273 15.5487ZM9.92899 12.6687C9.92899 12.9194 9.94766 13.1647 9.98499 13.4047C10.0223 13.6394 10.0863 13.882 10.177 14.1327C10.2677 14.378 10.4063 14.5754 10.593 14.7247C10.785 14.874 11.0143 14.9487 11.281 14.9487C11.553 14.9487 11.7823 14.874 11.969 14.7247C12.161 14.5754 12.2997 14.378 12.385 14.1327C12.4757 13.8874 12.5397 13.6474 12.577 13.4127C12.6143 13.1727 12.633 12.9247 12.633 12.6687C12.633 12.4074 12.6143 12.162 12.577 11.9327C12.545 11.698 12.4837 11.458 12.393 11.2127C12.3023 10.962 12.161 10.762 11.969 10.6127C11.7823 10.4634 11.553 10.3887 11.281 10.3887C11.0143 10.3887 10.785 10.4634 10.593 10.6127C10.4063 10.762 10.2677 10.9594 10.177 11.2047C10.0863 11.45 10.0223 11.6927 9.98499 11.9327C9.94766 12.1674 9.92899 12.4127 9.92899 12.6687Z" fill="black"/>
<path d="M18.4999 14.7139H15.4999C14.7902 14.7139 14.2142 15.2899 14.2142 15.9996V18.9996L18.4999 14.7139Z" stroke="black" stroke-linecap="round" stroke-linejoin="round"/>
</svg>
