<svg width="20" height="13" viewBox="0 0 20 13" fill="none" xmlns="http://www.w3.org/2000/svg">
<path d="M19.032 6.60337C18.9561 6.10618 18.7798 5.66518 18.4969 5.28929C18.042 4.6858 17.3587 4.30231 16.5205 4.18079C16.417 4.16581 16.3092 4.1582 16.2 4.1582C15.6974 4.1582 15.1814 4.31543 14.7434 4.58292C14.306 4.31543 13.7897 4.1582 13.2874 4.1582C13.1782 4.1582 13.0701 4.16581 12.9666 4.18079C12.1287 4.30231 11.4453 4.68584 10.9904 5.28929C10.708 5.66413 10.5321 6.10354 10.4559 6.59915C10.1016 6.52065 9.73711 6.53407 9.73711 6.53407C9.73711 6.53407 9.37263 6.52065 9.01831 6.59915C8.94188 6.10358 8.76596 5.66413 8.48378 5.28929C8.02892 4.6858 7.34554 4.30231 6.50739 4.18079C6.40414 4.16581 6.29605 4.1582 6.18693 4.1582C5.68432 4.1582 5.16829 4.31543 4.7303 4.58292C4.29289 4.31543 3.77659 4.1582 3.27424 4.1582C3.16509 4.1582 3.057 4.16581 2.95348 4.18079C2.11559 4.30231 1.43226 4.68584 0.97736 5.28929C0.692553 5.66727 0.516064 6.11144 0.440958 6.6125C0.229582 6.68027 0 6.78236 0 6.90731C0 7.13909 0.0791424 8.14366 0.0791424 8.14366L0.557349 8.35655C1.18653 10.4969 3.80714 12.2066 4.7303 12.2066C5.69075 12.2066 8.48622 10.357 8.96819 8.09718C9.21975 7.80319 9.4547 7.68641 9.73715 7.68641C10.0196 7.68641 10.2545 7.80319 10.5056 8.09718C10.988 10.357 13.7835 12.2066 14.7434 12.2066C15.6647 12.2066 18.2759 10.504 18.9124 8.37019L19.4212 8.14363C19.4212 8.14363 19.5 7.13905 19.5 6.90727C19.5 6.77714 19.2503 6.67106 19.032 6.60337ZM7.71726 7.82134C7.45017 9.51708 5.17229 10.9555 4.73026 10.9555C4.28881 10.9555 2.01097 9.51704 1.74357 7.82134C1.49632 6.25081 2.30949 5.55917 3.26373 5.42058C3.73173 5.35285 4.39477 5.59383 4.73026 6.07342C5.06633 5.59383 5.7291 5.35285 6.19733 5.42058C7.15161 5.55913 7.96455 6.25081 7.71726 7.82134ZM17.7303 7.82134C17.4632 9.51708 15.1854 10.9555 14.7433 10.9555C14.3019 10.9555 12.0238 9.51704 11.7566 7.82134C11.5094 6.25081 12.3223 5.55917 13.2768 5.42058C13.7448 5.35285 14.4078 5.59383 14.7434 6.07342C15.0792 5.59383 15.7419 5.35285 16.2102 5.42058C17.1647 5.55913 17.9776 6.25081 17.7303 7.82134Z" fill="black"/>
<path d="M3.27424 3.62616C3.5867 3.62616 3.90746 3.67969 4.21831 3.78026L6.93574 1.40439L7.63442 1.82937C7.80794 1.93489 8.03433 1.89684 8.16172 1.74091L8.34678 1.51439C8.38864 1.46373 8.40688 1.39835 8.39747 1.33379C8.38833 1.26945 8.35238 1.21145 8.29822 1.17365L7.37133 0.529495C6.89525 0.302711 6.32343 0.405592 5.96108 0.783342L2.3291 3.78134C2.51123 3.72647 2.70002 3.68159 2.89795 3.65274C3.01967 3.63511 3.14631 3.62616 3.27424 3.62616Z" fill="black"/>
<path d="M11.3385 1.74094C11.4659 1.89686 11.6922 1.93492 11.8658 1.8294L12.5647 1.40442L15.2819 3.78029C15.5927 3.67972 15.9137 3.62619 16.2262 3.62619C16.3538 3.62619 16.4802 3.6351 16.6022 3.65273C16.8004 3.68158 16.989 3.7265 17.1711 3.78133L13.5391 0.783333C13.1767 0.40562 12.6049 0.302702 12.1289 0.529486L11.2022 1.17364C11.1478 1.21144 11.1118 1.26944 11.1027 1.33378C11.0933 1.39834 11.1118 1.46372 11.1534 1.51438L11.3385 1.74094Z" fill="black"/>
</svg>
