<svg width="21" height="21" viewBox="0 0 21 21" fill="none" xmlns="http://www.w3.org/2000/svg">
<g clip-path="url(#clip0_2540_63589)">
<path d="M1.21402 8.58551C1.21402 8.58551 1.21387 8.585 1.21375 8.58449L1.1875 8.51562L1.21402 8.58551Z" fill="black"/>
<path d="M1.37305 7.04352L1.80969 6.75836C1.80992 6.75836 1.81016 6.75809 1.81043 6.75781L1.37305 7.04352Z" fill="black"/>
<path d="M19.4636 10.8307C19.4422 10.7746 19.4315 10.7154 19.4315 10.6563C19.4315 10.5968 19.4422 10.5374 19.4638 10.4808L20.1227 8.75129L20.1847 8.58832C20.2526 8.41004 20.2855 8.2241 20.2855 8.04121C20.2857 7.53395 20.0332 7.04449 19.5888 6.75399L19.3701 6.61117L17.892 5.64602C17.7916 5.58024 17.7183 5.47899 17.6869 5.36293L17.1577 3.40797C16.9751 2.73492 16.3655 2.27223 15.6742 2.27223C15.648 2.27223 15.622 2.27274 15.5959 2.27426L13.5809 2.375V2.37477L13.5507 2.37555C13.4375 2.37555 13.3285 2.33727 13.2408 2.26664L11.7655 1.07836L11.6641 0.996759C11.3833 0.770002 11.0402 0.656017 10.6995 0.656252C10.3589 0.655744 10.0157 0.770002 9.73477 0.996759L9.73516 0.996486L8.3209 2.13555L8.15844 2.26641C8.07031 2.33731 7.9609 2.37559 7.84828 2.37559L7.82199 2.375L5.80813 2.27453L5.80684 2.27426C5.77559 2.27246 5.74816 2.27223 5.72473 2.27223C5.03328 2.27223 4.42383 2.73488 4.24121 3.40797L3.71195 5.36293C3.68047 5.47945 3.60676 5.58098 3.50578 5.64703L3.36 5.74219L1.80945 6.75449C1.36527 7.04528 1.11305 7.53442 1.11328 8.04145C1.11328 8.22406 1.14605 8.40922 1.21379 8.58727L1.93508 10.4807L1.9352 10.481C1.9566 10.5371 1.96746 10.5968 1.96746 10.6562C1.96746 10.7157 1.95676 10.7751 1.9352 10.8312L1.21406 12.7242L1.21418 12.7239C1.14621 12.9022 1.11328 13.0879 1.11328 13.2708C1.11305 13.7781 1.36527 14.2678 1.81008 14.5585L3.06859 15.3803L3.50613 15.666C3.60703 15.7318 3.68047 15.8328 3.71195 15.9496L4.24121 17.9043C4.42367 18.5773 5.0334 19.04 5.72473 19.0403C5.74816 19.04 5.77371 19.0398 5.80098 19.0382L5.74309 19.0413L7.83055 18.937H7.82953L7.84906 18.9367C7.96102 18.9367 8.07008 18.975 8.15805 19.0459L9.73504 20.3163H9.73516C10.0158 20.5425 10.3588 20.6565 10.6995 20.6563C11.0401 20.6566 11.3832 20.5425 11.664 20.3161L13.3765 18.9364L13.2411 19.0456C13.3291 18.9747 13.4379 18.9367 13.55 18.9367L13.5734 18.9372L15.612 19.039L15.6018 19.0385C15.624 19.0395 15.6481 19.04 15.6743 19.0403C16.3653 19.04 16.9753 18.5776 17.1578 17.9043L17.687 15.9496C17.7185 15.8328 17.7918 15.732 17.8925 15.6662L19.5898 14.558C20.0337 14.2672 20.2858 13.7781 20.2856 13.271C20.2856 13.0881 20.2527 12.9022 20.1846 12.7237L19.4636 10.8307ZM18.4877 10.1089C18.4205 10.2852 18.3868 10.4708 18.3868 10.6563C18.3868 10.842 18.4205 11.0276 18.4877 11.2039L19.2084 13.0961L19.2085 13.0963C19.2305 13.1542 19.2409 13.2129 19.2409 13.2711C19.2406 13.4338 19.1603 13.5909 19.0176 13.684L17.3219 14.7912H17.322C17.0061 14.9972 16.7771 15.3125 16.6785 15.6767L16.1493 17.6314C16.0913 17.8472 15.8948 17.9956 15.6743 17.9954L15.6449 17.9946L15.6375 17.9943L13.6268 17.8941H13.6282C13.6035 17.8926 13.5773 17.8921 13.55 17.8918C13.1996 17.8918 12.8591 18.0117 12.5854 18.2323L12.4498 18.3417L11.0085 19.5027C10.9177 19.5759 10.8098 19.6116 10.6995 19.6116C10.5894 19.6116 10.4813 19.5759 10.3904 19.5027L8.81356 18.2323C8.53988 18.012 8.19953 17.8921 7.8491 17.8921C7.82563 17.8921 7.7982 17.8923 7.76684 17.8941V17.8944L5.74965 17.9951L5.75027 17.9949L5.72481 17.9954C5.50441 17.9956 5.30777 17.8472 5.24977 17.6314L4.72055 15.6768C4.62195 15.3125 4.39293 14.9973 4.07703 14.7912L2.81875 13.9697L2.38148 13.684C2.23891 13.5912 2.15832 13.4338 2.15805 13.2708C2.15816 13.2124 2.1684 13.1538 2.19031 13.0964L2.91145 11.2036L2.91133 11.2039C2.97852 11.0274 3.01219 10.842 3.01219 10.6563C3.01219 10.4706 2.97867 10.285 2.91133 10.1087L2.21691 8.28633L2.19039 8.21696C2.16832 8.15879 2.15813 8.09988 2.15797 8.04149C2.15824 7.87852 2.23871 7.72164 2.38125 7.62883L4.07711 6.52168L4.07738 6.52141C4.39309 6.31485 4.62191 5.99985 4.72051 5.63586L5.24973 3.6809C5.30762 3.46539 5.50453 3.31668 5.72477 3.31695L5.74441 3.31719L7.77215 3.41844L7.77434 3.41871C7.79895 3.41973 7.82371 3.42028 7.84832 3.42051C8.19863 3.42051 8.53926 3.30086 8.8132 3.08051L10.3908 1.80985C10.4814 1.73664 10.5892 1.70117 10.6995 1.70094C10.8097 1.70094 10.9176 1.73664 11.0084 1.80985L10.9068 1.72797L12.5856 3.08024C12.8599 3.3011 13.2009 3.42024 13.5507 3.42024C13.5768 3.42024 13.6001 3.41945 13.6207 3.41895H13.6153L15.6495 3.31742H15.6508L15.6743 3.31692C15.8946 3.31664 16.0914 3.46535 16.1493 3.68086L16.6785 5.63582C16.7771 5.99977 17.0059 6.31477 17.3216 6.52137L19.2364 7.7716L19.0176 7.62879C19.1603 7.72164 19.2406 7.87848 19.2409 8.04121C19.2409 8.09965 19.2305 8.15832 19.2084 8.21668L18.3946 10.3527L18.4877 10.1089Z" fill="black"/>
<path d="M8.3623 9.49334L7.82387 9.59916C7.79555 9.60502 7.78 9.62748 7.78562 9.65631L8.18617 11.6944L8.16285 11.6992L6.61879 9.88584C6.59328 9.85627 6.56215 9.84732 6.52875 9.85396L5.95703 9.96646C5.92871 9.97209 5.91316 9.99451 5.9193 10.0233L6.53715 13.1658C6.54262 13.1946 6.56547 13.2102 6.59379 13.2046L7.13219 13.0987C7.16051 13.0928 7.17605 13.0701 7.17059 13.0413L6.77051 11.0081L6.79434 11.0035L8.34172 12.8113C8.36723 12.8408 8.39398 12.8503 8.43226 12.8431L8.99902 12.7314C9.0273 12.7258 9.04285 12.7031 9.03676 12.6743L8.41902 9.53154C8.41344 9.50279 8.39062 9.48775 8.3623 9.49334Z" fill="black"/>
<path d="M11.6708 11.5793L10.275 11.8537C10.2562 11.8578 10.2446 11.8502 10.2412 11.831L10.109 11.1595C10.105 11.1406 10.1128 11.1294 10.1317 11.1253L11.2941 10.8968C11.3224 10.8912 11.338 10.8687 11.3325 10.8402L11.233 10.3354C11.2274 10.3072 11.2046 10.2916 11.1763 10.2969L10.014 10.5257C9.99511 10.5293 9.98339 10.5214 9.9796 10.5025L9.85335 9.85979C9.84953 9.84064 9.8573 9.82916 9.87617 9.82561L11.2719 9.55115C11.3002 9.54553 11.3158 9.52283 11.3096 9.49428L11.2096 8.98498C11.204 8.95615 11.1813 8.94084 11.1529 8.94646L9.07663 9.35482C9.04769 9.36045 9.03265 9.38314 9.03828 9.41193L9.65613 12.5547C9.66222 12.5833 9.68441 12.5985 9.71335 12.5929L11.7896 12.1846C11.818 12.179 11.8336 12.1563 11.8275 12.1277L11.7274 11.6181C11.7219 11.5895 11.6991 11.5737 11.6708 11.5793Z" fill="black"/>
<path d="M15.4346 8.103L14.825 8.22285C14.7918 8.22925 14.7756 8.24761 14.7772 8.28203L14.7295 10.4028L14.7195 10.4046L13.7489 8.48425C13.7333 8.45695 13.7105 8.44191 13.6821 8.44753L13.2677 8.5289C13.2349 8.53554 13.2194 8.55796 13.2154 8.5891L13.0627 10.7305L13.0532 10.7325L12.1864 8.79109C12.1764 8.76304 12.1536 8.74828 12.1204 8.75488L11.5058 8.87527C11.4725 8.88191 11.4669 8.90285 11.4775 8.93062L12.9332 11.9084C12.9487 11.9351 12.9715 11.9507 12.9999 11.9451L13.4761 11.8512C13.5094 11.8448 13.5249 11.8219 13.5287 11.7915L13.6994 9.66593L13.7088 9.66417L14.6667 11.5676C14.6817 11.5944 14.7046 11.61 14.7379 11.6033L15.214 11.5094C15.2473 11.5033 15.2673 11.4794 15.2668 11.4495L15.4818 8.14304C15.4807 8.1132 15.4679 8.09636 15.4346 8.103Z" fill="black"/>
</g>
<defs>
<clipPath id="clip0_2540_63589">
<rect width="20" height="20" fill="white" transform="translate(0.699219 0.65625)"/>
</clipPath>
</defs>
</svg>
