<svg width="20" height="21" viewBox="0 0 20 21" fill="none" xmlns="http://www.w3.org/2000/svg">
<g clip-path="url(#clip0_2540_63600)">
<path d="M0.514805 8.58551C0.514805 8.58551 0.514648 8.585 0.514531 8.58449L0.488281 8.51562L0.514805 8.58551Z" fill="black"/>
<path d="M0.673828 7.04352L1.11047 6.75836C1.1107 6.75836 1.11094 6.75809 1.11121 6.75781L0.673828 7.04352Z" fill="black"/>
<path d="M18.7644 10.8307C18.743 10.7746 18.7323 10.7154 18.7323 10.6563C18.7323 10.5968 18.743 10.5374 18.7645 10.4808L19.4235 8.75129L19.4854 8.58832C19.5534 8.41004 19.5863 8.2241 19.5863 8.04121C19.5865 7.53395 19.334 7.04449 18.8896 6.75399L18.6709 6.61117L17.1928 5.64602C17.0924 5.58024 17.0191 5.47899 16.9877 5.36293L16.4585 3.40797C16.2759 2.73492 15.6663 2.27223 14.975 2.27223C14.9488 2.27223 14.9228 2.27274 14.8967 2.27426L12.8817 2.375V2.37477L12.8514 2.37555C12.7383 2.37555 12.6293 2.33727 12.5416 2.26664L11.0663 1.07836L10.9648 0.996759C10.6841 0.770002 10.341 0.656017 10.0003 0.656252C9.65965 0.655744 9.31652 0.770002 9.03555 0.996759L9.03594 0.996486L7.62168 2.13555L7.45922 2.26641C7.37109 2.33731 7.26168 2.37559 7.14906 2.37559L7.12277 2.375L5.10891 2.27453L5.10762 2.27426C5.07637 2.27246 5.04895 2.27223 5.02551 2.27223C4.33406 2.27223 3.72461 2.73488 3.54199 3.40797L3.01273 5.36293C2.98125 5.47945 2.90754 5.58098 2.80656 5.64703L2.66078 5.74219L1.11023 6.75449C0.666055 7.04528 0.413828 7.53442 0.414063 8.04145C0.414063 8.22406 0.446836 8.40922 0.51457 8.58727L1.23586 10.4807L1.23598 10.481C1.25738 10.5371 1.26824 10.5968 1.26824 10.6562C1.26824 10.7157 1.25754 10.7751 1.23598 10.8312L0.514844 12.7242L0.514961 12.7239C0.446992 12.9022 0.414063 13.0879 0.414063 13.2708C0.413828 13.7781 0.666055 14.2678 1.11086 14.5585L2.36938 15.3803L2.80691 15.666C2.90781 15.7318 2.98125 15.8328 3.01273 15.9496L3.54199 17.9043C3.72445 18.5773 4.33418 19.04 5.02551 19.0403C5.04895 19.04 5.07449 19.0398 5.10176 19.0382L5.04387 19.0413L7.13133 18.937H7.13031L7.14984 18.9367C7.2618 18.9367 7.37086 18.975 7.45883 19.0459L9.03582 20.3163H9.03594C9.3166 20.5425 9.65953 20.6565 10.0003 20.6563C10.3409 20.6566 10.6839 20.5425 10.9648 20.3161L12.6773 18.9364L12.5419 19.0456C12.6299 18.9747 12.7387 18.9367 12.8507 18.9367L12.8742 18.9372L14.9128 19.039L14.9026 19.0385C14.9248 19.0395 14.9489 19.04 14.975 19.0403C15.6661 19.04 16.2761 18.5776 16.4586 17.9043L16.9878 15.9496C17.0193 15.8328 17.0926 15.732 17.1933 15.6662L18.8906 14.558C19.3345 14.2672 19.5866 13.7781 19.5864 13.271C19.5864 13.0881 19.5535 12.9022 19.4854 12.7237L18.7644 10.8307ZM17.7885 10.1089C17.7213 10.2852 17.6876 10.4708 17.6876 10.6563C17.6876 10.842 17.7213 11.0276 17.7885 11.2039L18.5091 13.0961L18.5093 13.0963C18.5313 13.1542 18.5416 13.2129 18.5416 13.2711C18.5414 13.4338 18.4611 13.5909 18.3184 13.684L16.6227 14.7912H16.6228C16.3069 14.9972 16.0779 15.3125 15.9793 15.6767L15.45 17.6314C15.392 17.8472 15.1956 17.9956 14.975 17.9954L14.9457 17.9946L14.9383 17.9943L12.9276 17.8941H12.929C12.9043 17.8926 12.8781 17.8921 12.8507 17.8918C12.5004 17.8918 12.1599 18.0117 11.8861 18.2323L11.7506 18.3417L10.3093 19.5027C10.2185 19.5759 10.1106 19.6116 10.0003 19.6116C9.89016 19.6116 9.78211 19.5759 9.69121 19.5027L8.11434 18.2323C7.84066 18.012 7.50031 17.8921 7.14988 17.8921C7.12641 17.8921 7.09898 17.8923 7.06762 17.8941V17.8944L5.05043 17.9951L5.05106 17.9949L5.02559 17.9954C4.8052 17.9956 4.60856 17.8472 4.55055 17.6314L4.02133 15.6768C3.92273 15.3125 3.69371 14.9973 3.37781 14.7912L2.11953 13.9697L1.68227 13.684C1.53969 13.5912 1.4591 13.4338 1.45883 13.2708C1.45895 13.2124 1.46918 13.1538 1.49109 13.0964L2.21223 11.2036L2.21211 11.2039C2.2793 11.0274 2.31297 10.842 2.31297 10.6563C2.31297 10.4706 2.27945 10.285 2.21211 10.1087L1.5177 8.28633L1.49117 8.21696C1.4691 8.15879 1.45891 8.09988 1.45875 8.04149C1.45902 7.87852 1.53949 7.72164 1.68203 7.62883L3.37789 6.52168L3.37816 6.52141C3.69387 6.31485 3.9227 5.99985 4.02129 5.63586L4.55051 3.6809C4.6084 3.46539 4.80531 3.31668 5.02555 3.31695L5.0452 3.31719L7.07293 3.41844L7.07512 3.41871C7.09973 3.41973 7.12449 3.42028 7.1491 3.42051C7.49941 3.42051 7.84004 3.30086 8.11399 3.08051L9.69156 1.80985C9.78223 1.73664 9.89 1.70117 10.0003 1.70094C10.1105 1.70094 10.2184 1.73664 10.3092 1.80985L10.2075 1.72797L11.8864 3.08024C12.1607 3.3011 12.5017 3.42024 12.8515 3.42024C12.8775 3.42024 12.9009 3.41945 12.9215 3.41895H12.9161L14.9502 3.31742H14.9516L14.9751 3.31692C15.1954 3.31664 15.3922 3.46535 15.4501 3.68086L15.9793 5.63582C16.0779 5.99977 16.3066 6.31477 16.6224 6.52137L18.5372 7.7716L18.3184 7.62879C18.4611 7.72164 18.5414 7.87848 18.5416 8.04121C18.5416 8.09965 18.5313 8.15832 18.5091 8.21668L17.6954 10.3527L17.7885 10.1089Z" fill="black"/>
<path d="M5.46467 11.605C5.34712 11.0916 5.41025 10.6206 5.65408 10.1921C5.90116 9.76276 6.28301 9.48895 6.79964 9.37066C7.30977 9.25385 7.7671 9.33208 8.17164 9.60535C8.57867 9.87462 8.84209 10.2708 8.96187 10.794C9.07942 11.3073 9.01629 11.7783 8.77246 12.2069C8.52863 12.6354 8.1484 12.9089 7.63177 13.0272C7.12489 13.1432 6.66593 13.0654 6.2549 12.7936C5.84712 12.5211 5.58371 12.1249 5.46467 11.605ZM6.07766 11.4595C6.15801 11.8104 6.32956 12.0892 6.59229 12.2957C6.85753 12.4983 7.16236 12.5602 7.50678 12.4813C7.8512 12.4024 8.09749 12.2161 8.24565 11.9223C8.39631 11.6245 8.43072 11.2969 8.34888 10.9394C8.26778 10.5853 8.09624 10.3065 7.83425 10.1032C7.57551 9.89915 7.27068 9.83729 6.91976 9.91765C6.57534 9.99651 6.3278 10.1848 6.17714 10.4827C6.02898 10.7765 5.99582 11.1021 6.07766 11.4595ZM9.92244 12.4001L9.13008 8.93963L9.72469 8.80347L10.3954 11.7327L11.8624 11.3967L11.9841 11.928L9.92244 12.4001ZM11.7431 8.3413L13.0054 8.05225C13.5383 7.93024 14.0123 7.98414 14.4274 8.21395C14.8418 8.44051 15.1103 8.82186 15.2331 9.35798C15.3536 9.88436 15.2794 10.3442 15.0104 10.7375C14.7414 11.1308 14.3372 11.3892 13.7978 11.5127L12.5355 11.8017L11.7431 8.3413ZM13.0084 11.1343L13.6469 10.9881C14.0206 10.9026 14.297 10.7282 14.476 10.4649C14.6584 10.2009 14.7064 9.88038 14.6201 9.50347C14.5345 9.12981 14.3555 8.86305 14.0829 8.70318C13.8096 8.54007 13.4813 8.50241 13.0978 8.5902L12.4594 8.7364L13.0084 11.1343Z" fill="black"/>
</g>
<defs>
<clipPath id="clip0_2540_63600">
<rect width="20" height="20" fill="white" transform="translate(0 0.65625)"/>
</clipPath>
</defs>
</svg>
