<svg width="21" height="21" viewBox="0 0 21 21" fill="none" xmlns="http://www.w3.org/2000/svg">
<path d="M10.3477 20C15.5944 20 19.8477 15.7467 19.8477 10.5C19.8477 5.25329 15.5944 1 10.3477 1C5.10095 1 0.847656 5.25329 0.847656 10.5C0.847656 15.7467 5.10095 20 10.3477 20Z" stroke="black" stroke-linecap="round" stroke-linejoin="round"/>
<path d="M14.1233 7.59287C14.1233 7.2081 14.0468 6.82716 13.8984 6.47217C13.75 6.11718 13.5325 5.79521 13.2586 5.52495C12.9847 5.25468 12.6599 5.0415 12.303 4.89779C11.946 4.75407 11.5641 4.68268 11.1794 4.68775C9.58302 4.70921 8.31258 6.03738 8.31258 7.63629V14.1515C8.31258 14.4349 8.25675 14.7155 8.14828 14.9773C8.03981 15.2392 7.88082 15.4771 7.6804 15.6774C7.47998 15.8778 7.24205 16.0367 6.9802 16.1451C6.71834 16.2536 6.4377 16.3093 6.1543 16.3093H12.4176C12.87 16.3093 13.3039 16.1295 13.6237 15.8097C13.9436 15.4898 14.1233 15.0559 14.1233 14.6036V14.4151" stroke="black" stroke-linecap="round" stroke-linejoin="round"/>
<path d="M6.66602 11.043H10.957" stroke="black" stroke-linecap="round" stroke-linejoin="round"/>
</svg>
