<svg width="14" height="22" viewBox="0 0 14 22" fill="none" xmlns="http://www.w3.org/2000/svg">
<path d="M13.4004 5.63722V5.6376C13.4008 6.11297 13.3098 6.58346 13.1332 7.02209C12.9565 7.46056 12.6978 7.85821 12.3724 8.19264C12.3723 8.19275 12.3722 8.19285 12.3721 8.19296L9.953 10.6654L9.61088 11.0151L9.953 11.3648L12.3714 13.8366C13.0245 14.5167 13.3951 15.4342 13.4004 16.3944V20.7783H1.40039V16.3943C1.4057 15.4342 1.77628 14.5167 2.42934 13.8366L4.84778 11.3648L5.1899 11.0151L4.84778 10.6654L2.4287 8.19296C2.42856 8.19281 2.42841 8.19266 2.42827 8.19251C2.10291 7.8581 1.84424 7.46051 1.66763 7.02209C1.49094 6.58346 1.40003 6.11297 1.40039 5.6376V5.63722V1.25195H13.4004V5.63722Z" stroke="black"/>
</svg>
