<svg width="19" height="18" viewBox="0 0 19 18" fill="none" xmlns="http://www.w3.org/2000/svg">
<path d="M14.4471 17.7149C14.1213 17.7149 13.3441 17.7104 12.3468 17.7048C9.8825 17.6908 6.06706 17.6684 4.39228 17.688C2.53103 17.688 0.00737964 16.4264 0.000660348 14.0584C-0.0026993 12.8221 0.0073798 11.7532 0.0168988 10.724C0.0320172 9.0856 0.0465756 7.53793 0.00346012 5.56805C-0.0687723 2.27448 1.37868 0.297329 3.97456 0.143345C5.39345 0.0587941 8.03749 0 10.4044 0C12.7371 0 15.6857 0.0526348 16.4876 0.304608C17.9283 0.757041 18.748 2.31536 18.8998 3.57186C19.0734 5.00923 18.9793 9.93727 18.9289 12.5852C18.9149 13.33 18.9037 13.8888 18.9037 14.1268C18.9043 15.1363 18.4546 16.0546 17.6388 16.712C16.8246 17.3682 15.7204 17.7149 14.4471 17.7149ZM6.19137 16.5614C8.06997 16.5614 10.5662 16.5754 12.353 16.5855C13.3469 16.5911 14.1218 16.5955 14.4466 16.5955C15.4472 16.5955 16.3313 16.3273 16.9355 15.8407C17.4899 15.3939 17.7833 14.8015 17.7833 14.1279C17.7833 13.886 17.7945 13.3199 17.8085 12.5645C17.8549 10.131 17.9518 5.06691 17.7872 3.70681C17.6741 2.76723 17.0755 1.66414 16.1516 1.3741C15.7619 1.25147 14.0473 1.121 10.4038 1.121C8.05653 1.121 5.43937 1.17924 4.04007 1.26211C1.5545 1.40993 1.08135 3.67265 1.12278 5.54454C1.16646 7.53177 1.1519 9.08784 1.13622 10.7357C1.1267 11.761 1.11662 12.8249 1.11998 14.0562C1.12446 15.6744 3.03274 16.5698 4.34972 16.5698C4.84527 16.5636 5.47296 16.5614 6.19137 16.5614Z" fill="black"/>
<path d="M8.99741 11.1596V10.5716C8.99741 9.9972 9.12621 9.6964 9.42741 9.28L10.389 7.96C10.8906 7.2716 11.0626 6.9416 11.0626 6.4536C11.0626 5.636 10.489 5.1196 9.67101 5.1196C8.86781 5.1196 8.35141 5.6072 8.17941 6.4824C8.16501 6.5684 8.10781 6.6116 8.02141 6.5972L7.11781 6.4392C7.03141 6.4248 6.98861 6.3676 7.00261 6.2812C7.21821 4.904 8.20821 4 9.70021 4C11.249 4 12.2962 5.0184 12.2962 6.4388C12.2962 7.1276 12.053 7.6296 11.565 8.304L10.6038 9.624C10.317 10.0112 10.2306 10.212 10.2306 10.6996V11.1584C10.2306 11.2444 10.1734 11.3016 10.0874 11.3016H9.14061C9.05461 11.3032 8.99741 11.2456 8.99741 11.1596ZM8.92581 12.5372C8.92581 12.4512 8.98301 12.394 9.06941 12.394H10.1598C10.2458 12.394 10.303 12.4516 10.303 12.5372V13.7708C10.303 13.8572 10.2454 13.914 10.1598 13.914H9.06941C8.98261 13.914 8.92581 13.8568 8.92581 13.7708V12.5372Z" fill="black"/>
</svg>
