<svg width="21" height="21" viewBox="0 0 21 21" fill="none" xmlns="http://www.w3.org/2000/svg">
<path d="M10.6555 0.751953C5.30577 0.751953 0.953613 5.10411 0.953613 10.4539C0.953613 15.8036 5.30577 20.1558 10.6555 20.1558C16.0053 20.1558 20.3574 15.8036 20.3574 10.4539C20.3574 5.10411 16.0041 0.751953 10.6555 0.751953ZM2.12355 11.0246H5.47584C5.52606 12.1934 5.71668 13.3427 6.06138 14.4488H3.09031C2.5413 13.4146 2.20459 12.2538 2.12355 11.0246ZM5.47584 9.88316H2.12355C2.20459 8.65387 2.5413 7.49306 3.09031 6.45896H6.05796C5.71439 7.56497 5.52492 8.71436 5.47584 9.88316ZM7.2667 6.45896H13.9964C14.3731 7.56041 14.5922 8.7098 14.6459 9.88316H6.61724C6.66975 8.7098 6.89004 7.56041 7.2667 6.45896ZM6.61724 11.0246H14.647C14.5911 12.1979 14.3719 13.3473 13.9941 14.4488H7.27012C6.89232 13.3473 6.67203 12.1979 6.61724 11.0246ZM15.7884 11.0246H19.1875C19.1064 12.2538 18.7697 13.4146 18.2207 14.4488H15.2029C15.5476 13.3427 15.7382 12.1934 15.7884 11.0246ZM15.7884 9.88316C15.7393 8.71436 15.5498 7.56497 15.2063 6.45896H18.2207C18.7686 7.49306 19.1053 8.65387 19.1875 9.88316H15.7884ZM17.4879 5.31755H14.8011C14.3537 4.22752 13.7556 3.19683 13.0319 2.23577C14.833 2.75739 16.3853 3.85656 17.4879 5.31755ZM11.2924 1.92531C12.2329 2.94915 12.9863 4.09397 13.5433 5.31755H7.71984C8.2757 4.09512 9.02788 2.95143 9.96839 1.9276C10.1955 1.91047 10.4227 1.89335 10.6555 1.89335C10.8701 1.89335 11.0813 1.91047 11.2924 1.92531ZM8.22091 2.25061C7.50297 3.20711 6.90716 4.23322 6.46315 5.31755H3.82195C4.91199 3.8714 6.44375 2.77908 8.22091 2.25061ZM3.82195 15.5902H6.46658C6.91287 16.6756 7.51096 17.7029 8.23232 18.6594C6.4506 18.1332 4.91427 17.0397 3.82195 15.5902ZM9.98209 18.9801C9.03929 17.9563 8.28369 16.8126 7.7244 15.5902H13.5387C12.9794 16.8137 12.2238 17.9586 11.2799 18.9824C11.0733 18.9972 10.8655 19.0144 10.6555 19.0144C10.4272 19.0144 10.2047 18.9972 9.98209 18.9801ZM13.0194 18.6754C13.7453 17.7143 14.3479 16.6813 14.7965 15.5902H17.4879C16.3831 17.0546 14.8262 18.1549 13.0194 18.6754Z" fill="black"/>
</svg>
