<svg width="20" height="18" viewBox="0 0 20 18" fill="none" xmlns="http://www.w3.org/2000/svg">
<path d="M14.4842 17.8945C14.1584 17.8945 13.3812 17.8901 12.3839 17.8845C9.91961 17.8705 6.10417 17.8481 4.42939 17.8677C2.56814 17.8677 0.044489 16.6061 0.0377697 14.2381C0.0344101 13.0018 0.0444892 11.9328 0.0540082 10.9037C0.0691266 9.26529 0.0836849 7.71761 0.0405695 5.74774C-0.0316629 2.45417 1.41578 0.477016 4.01167 0.323033C5.43056 0.238482 8.0746 0.179688 10.4415 0.179688C12.7742 0.179688 15.7228 0.232322 16.5247 0.484296C17.9654 0.936728 18.7852 2.49504 18.9369 3.75155C19.1105 5.18892 19.0164 10.117 18.966 12.7649C18.952 13.5096 18.9408 14.0685 18.9408 14.3064C18.9414 15.316 18.4917 16.2343 17.6759 16.8917C16.8618 17.5479 15.7576 17.8945 14.4842 17.8945ZM6.22848 16.7411C8.10708 16.7411 10.6033 16.7551 12.3901 16.7651C13.384 16.7707 14.1589 16.7752 14.4837 16.7752C15.4843 16.7752 16.3684 16.507 16.9726 16.0204C17.527 15.5736 17.8204 14.9812 17.8204 14.3076C17.8204 14.0657 17.8316 13.4996 17.8456 12.7442C17.892 10.3107 17.9889 5.24659 17.8243 3.8865C17.7112 2.94692 17.1126 1.84383 16.1887 1.55378C15.799 1.43116 14.0844 1.30069 10.4409 1.30069C8.09364 1.30069 5.47648 1.35892 4.07718 1.44179C1.59161 1.58962 1.11846 3.85234 1.15989 5.72422C1.20357 7.71145 1.18901 9.26753 1.17333 10.9154C1.16381 11.9407 1.15373 13.0046 1.15709 14.2359C1.16157 15.8541 3.06985 16.7495 4.38683 16.7495C4.88238 16.7433 5.51007 16.7411 6.22848 16.7411Z" fill="black"/>
<path d="M8.2372 11.5503C7.3161 11.5503 6.65201 10.7384 6.04391 9.99424C5.92744 9.85146 5.80594 9.70307 5.67771 9.55189C5.47781 9.31615 5.50693 8.96283 5.74266 8.76293C5.97896 8.56303 6.33228 8.59215 6.53162 8.82789C6.66432 8.98411 6.78975 9.13809 6.9107 9.28536C7.91019 10.5077 8.15209 10.7418 9.03232 10.043C10.2244 9.0961 11.9888 7.29253 12.5683 6.69955C12.7845 6.47893 13.1395 6.47445 13.3601 6.69059C13.5807 6.90673 13.5852 7.26117 13.3691 7.48235C12.3421 8.5328 10.8471 10.0318 9.72888 10.9198C9.16054 11.3711 8.67059 11.5503 8.2372 11.5503Z" fill="black"/>
</svg>
