<svg width="19" height="19" viewBox="0 0 19 19" fill="none" xmlns="http://www.w3.org/2000/svg">
<path d="M2.3243 8.12926L2.32397 8.1296C1.9853 8.47517 1.71604 8.88621 1.53213 9.33949C1.34822 9.79279 1.25342 10.2791 1.25342 10.7705C1.25342 11.2618 1.34822 11.7481 1.53213 12.2014C1.71604 12.6547 1.9853 13.0657 2.32397 13.4113L2.3243 13.4116L5.50252 16.6607L5.50285 16.661C5.84087 17.0073 6.24175 17.2813 6.68225 17.4681C7.12273 17.6549 7.59452 17.7508 8.07071 17.7508C8.5469 17.7508 9.01869 17.6549 9.45917 17.4681C9.89967 17.2813 10.3006 17.0073 10.6386 16.661L10.6389 16.6607L16.6371 10.5288L16.6383 10.5276C16.977 10.1836 17.2463 9.77369 17.43 9.32137C17.6136 8.86904 17.7079 8.38359 17.707 7.8932V7.89231V3.69483C17.707 2.95225 17.4184 2.24226 16.908 1.72047C16.3979 1.19905 15.7085 0.908203 14.9921 0.908203H10.8871C9.92739 0.912091 9.00558 1.30229 8.322 1.99788C8.32191 1.99797 8.32182 1.99806 8.32173 1.99815L2.3243 8.12926ZM14.6617 6.68742C14.3527 6.89853 13.9881 7.01193 13.6142 7.01193C13.1126 7.01193 12.6338 6.80811 12.2825 6.44901C11.9316 6.09028 11.7364 5.60604 11.7364 5.10338C11.7364 4.72832 11.8451 4.36082 12.0501 4.04727C12.2551 3.73361 12.5476 3.48744 12.892 3.34162C13.2365 3.19575 13.6162 3.1574 13.9827 3.23192C14.349 3.30642 14.6841 3.49003 14.9459 3.75775C15.2077 4.02534 15.3848 4.36496 15.4564 4.73309C15.528 5.10116 15.4913 5.48279 15.3506 5.83017C15.2098 6.17764 14.9707 6.4764 14.6617 6.68742Z" stroke="black"/>
</svg>
