<svg width="20" height="21" viewBox="0 0 20 21" fill="none" xmlns="http://www.w3.org/2000/svg">
<g clip-path="url(#clip0_542_40626)">
<path d="M18.0938 12.4251C18.4031 12.4251 18.658 12.6579 18.6928 12.9579L18.6969 13.0282V15.478C18.6969 17.0789 17.4332 18.3847 15.8489 18.4523L15.7198 18.4551H3.57937C1.97889 18.4551 0.673473 17.1918 0.605875 15.6079L0.603125 15.4788V13.0304C0.603125 12.6974 0.873153 12.4273 1.20625 12.4273C1.51555 12.4273 1.77048 12.6602 1.80532 12.9601L1.80937 13.0304V15.4788C1.80937 16.4215 2.54624 17.192 3.47537 17.2458L3.57937 17.2488H15.7198C16.6629 17.2488 17.4338 16.5116 17.4876 15.582L17.4906 15.478V13.0282C17.4906 12.6951 17.7607 12.4251 18.0938 12.4251ZM18.6969 8.80508C19.03 8.80508 19.3 9.07511 19.3 9.4082C19.3 9.7413 19.03 10.0113 18.6969 10.0113H0.603125C0.270028 10.0113 0 9.7413 0 9.4082C0 9.07511 0.270028 8.80508 0.603125 8.80508H18.6969ZM15.7164 0.361328C17.3191 0.361328 18.6264 1.62643 18.6941 3.21253L18.6969 3.34182V5.79219C18.6969 6.12529 18.4268 6.39532 18.0938 6.39532C17.7844 6.39532 17.5295 6.16249 17.4947 5.86253L17.4906 5.79219V3.34182C17.4906 2.39693 16.752 1.62455 15.8206 1.57059L15.7164 1.56758H3.58198C2.63796 1.56758 1.8663 2.30553 1.81238 3.23603L1.80937 3.34019V5.78858C1.80937 6.12168 1.53935 6.39171 1.20625 6.39171C0.896946 6.39171 0.642022 6.15888 0.607183 5.85892L0.603125 5.78858V3.34019C0.603125 1.7383 1.86753 0.431738 3.45277 0.36408L3.58198 0.361328H15.7164Z" fill="black"/>
</g>
<defs>
<clipPath id="clip0_542_40626">
<rect width="19.3" height="19.3" fill="white" transform="translate(0 0.757812)"/>
</clipPath>
</defs>
</svg>
