<svg width="12" height="13" viewBox="0 0 12 13" fill="none" xmlns="http://www.w3.org/2000/svg">
<path fill-rule="evenodd" clip-rule="evenodd" d="M8.24299 7.89494H8.79906L11.7836 10.8918C12.0721 11.1802 12.0721 11.6515 11.7836 11.9399C11.495 12.2284 11.0234 12.2284 10.7348 11.9399L7.74323 8.95015V8.39441L7.55318 8.19743C6.56773 9.04161 5.2233 9.47776 3.79441 9.23858C1.83759 8.90794 0.274957 7.27588 0.0356348 5.30614C-0.330388 2.33043 2.17546 -0.173944 5.15291 0.191864C7.1238 0.431046 8.75683 1.99277 9.08766 3.94843C9.32698 5.37649 8.89057 6.72013 8.0459 7.705L8.24299 7.89494ZM1.40986 4.72815C1.40986 6.4798 2.82467 7.89379 4.57736 7.89379C6.33004 7.89379 7.74486 6.4798 7.74486 4.72815C7.74486 2.97649 6.33004 1.5625 4.57736 1.5625C2.82467 1.5625 1.40986 2.97649 1.40986 4.72815Z" fill="black"/>
</svg>
