<svg width="20" height="20" viewBox="0 0 20 20" fill="none" xmlns="http://www.w3.org/2000/svg">
<g clip-path="url(#clip0_2540_63663)">
<path d="M9.93268 0C8.0605 0 6.23037 0.58649 4.67372 1.6853C3.11706 2.78412 1.9038 4.3459 1.18735 6.17317C0.470898 8.00043 0.283442 10.0111 0.648685 11.9509C1.01393 13.8907 1.91547 15.6725 3.23929 17.0711C4.56312 18.4696 6.24978 19.422 8.08598 19.8079C9.92218 20.1937 11.8254 19.9957 13.5551 19.2388C15.2848 18.4819 16.7631 17.2002 17.8033 15.5557C18.8434 13.9112 19.3986 11.9778 19.3986 10C19.3958 7.34872 18.3976 4.80687 16.623 2.93213C14.8484 1.05739 12.4423 0.00289509 9.93268 0ZM9.93268 19.0625C8.23602 19.0625 6.57746 18.531 5.16675 17.5352C3.75603 16.5394 2.65651 15.124 2.00722 13.4681C1.35794 11.8121 1.18806 9.98995 1.51906 8.23199C1.85006 6.47404 2.66708 4.85926 3.8668 3.59184C5.06651 2.32443 6.59505 1.46131 8.2591 1.11163C9.92316 0.761955 11.648 0.941423 13.2155 1.62734C14.783 2.31326 16.1228 3.47482 17.0654 4.96514C18.008 6.45547 18.5111 8.20761 18.5111 10C18.5084 12.4026 17.6037 14.706 15.9955 16.405C14.3874 18.1039 12.207 19.0596 9.93268 19.0625Z" fill="black"/>
<path d="M13.468 6.62059L7.92451 12.38L6.40849 10.694C6.32674 10.6073 6.21614 10.5578 6.1003 10.5561C5.98447 10.5544 5.8726 10.6006 5.78859 10.6849C5.70458 10.7691 5.6551 10.8848 5.65071 11.0071C5.64632 11.1293 5.68738 11.2486 5.7651 11.3393L7.59172 13.3706C7.63227 13.4155 7.68087 13.4515 7.7347 13.4765C7.78853 13.5014 7.84651 13.5148 7.90528 13.5159H7.91267C8.02887 13.5158 8.14039 13.4676 8.22327 13.3815L14.0877 7.28778C14.1292 7.24458 14.1623 7.19317 14.1851 7.13646C14.2079 7.07975 14.2198 7.01886 14.2203 6.95727C14.2208 6.89568 14.2098 6.83459 14.1879 6.77749C14.166 6.72039 14.1337 6.66841 14.0929 6.6245C14.052 6.58058 14.0033 6.54561 13.9496 6.52157C13.8959 6.49753 13.8383 6.4849 13.78 6.48439C13.7217 6.48388 13.6639 6.49551 13.6098 6.51861C13.5558 6.54171 13.5066 6.57583 13.465 6.61903L13.468 6.62059Z" fill="black"/>
</g>
<defs>
<clipPath id="clip0_2540_63663">
<rect width="18.9318" height="20" fill="white" transform="translate(0.466797)"/>
</clipPath>
</defs>
</svg>
