<svg width="10" height="10" viewBox="0 0 10 10" fill="none" xmlns="http://www.w3.org/2000/svg">
<path fill-rule="evenodd" clip-rule="evenodd" d="M6.41562 8.96803L5.2565 8.28186C5.13632 8.21207 4.90372 8.21207 4.78742 8.28186L3.62441 8.96803C2.93824 9.37508 2.53506 9.21226 2.35286 9.08045C2.17453 8.94865 1.89541 8.61137 2.07762 7.83604L2.35286 6.6459C2.38387 6.52184 2.32185 6.30862 2.22881 6.21558L1.26739 5.25417C0.786681 4.77346 0.825448 4.36253 0.891352 4.16094C0.957255 3.95936 1.1666 3.6027 1.83339 3.49028L3.07005 3.28481C3.18635 3.26543 3.35304 3.14137 3.40344 3.0367L4.08961 1.66824C4.39975 1.04409 4.8068 0.95105 5.02002 0.95105C5.23324 0.95105 5.64029 1.04409 5.95042 1.66824L6.63272 3.03283C6.68699 3.1375 6.85369 3.26155 6.96999 3.28094L8.20665 3.4864C8.87732 3.59882 9.08666 3.95548 9.14868 4.15707C9.21071 4.35865 9.24948 4.76958 8.77265 5.25029L7.81123 6.21558C7.71819 6.30862 7.66004 6.51797 7.68717 6.6459L7.96242 7.83604C8.14075 8.61137 7.8655 8.94865 7.68717 9.08045C7.59026 9.15023 7.43519 9.22777 7.21422 9.22777C7.00876 9.22777 6.74514 9.16186 6.41562 8.96803Z" fill="white"/>
</svg>
