<svg width="20" height="27" viewBox="0 0 20 27" fill="none" xmlns="http://www.w3.org/2000/svg">
<path d="M5.455 22.4011H14.365C17.3308 22.4011 18.82 20.9118 18.82 17.9461V9.03605C18.82 6.0703 17.3308 4.58105 14.365 4.58105H5.455C2.48924 4.58105 1 6.0703 1 9.03605V17.9461C1 20.9118 2.48924 22.4011 5.455 22.4011Z" stroke="black" stroke-miterlimit="10" stroke-linecap="round" stroke-linejoin="round"/>
<path d="M15.0015 0.762695H4.8186" stroke="black" stroke-miterlimit="10" stroke-linecap="round" stroke-linejoin="round"/>
<path d="M15.0015 26.2197H4.8186" stroke="black" stroke-miterlimit="10" stroke-linecap="round" stroke-linejoin="round"/>
<path d="M7.74661 15.8872L8.02342 16.1525L8.30024 15.8872L14.2447 10.1881C14.4254 10.0149 14.7364 10.0149 14.917 10.1881C15.0882 10.3522 15.0882 10.6218 14.917 10.7859L8.35956 17.0726C8.27299 17.1556 8.15278 17.2053 8.02342 17.2053C7.89407 17.2053 7.77385 17.1556 7.68729 17.0726L4.41435 13.9348C4.2432 13.7707 4.2432 13.5011 4.41435 13.337C4.595 13.1638 4.90596 13.1638 5.08662 13.337L7.74661 15.8872Z" stroke="black" stroke-width="0.8"/>
</svg>
