<svg width="21" height="21" viewBox="0 0 21 21" fill="none" xmlns="http://www.w3.org/2000/svg">
<path d="M8.58268 14.8138L14.3327 10.5013L8.58268 6.1888V14.8138ZM10.4993 0.917969C5.20456 0.917969 0.916016 5.20651 0.916016 10.5013C0.916016 15.7961 5.20456 20.0846 10.4993 20.0846C15.7941 20.0846 20.0827 15.7961 20.0827 10.5013C20.0827 5.20651 15.7941 0.917969 10.4993 0.917969ZM10.4993 18.168C6.2731 18.168 2.83268 14.7276 2.83268 10.5013C2.83268 6.27505 6.2731 2.83464 10.4993 2.83464C14.7256 2.83464 18.166 6.27505 18.166 10.5013C18.166 14.7276 14.7256 18.168 10.4993 18.168Z" fill="black"/>
</svg>
