<svg width="21" height="21" viewBox="0 0 21 21" fill="none" xmlns="http://www.w3.org/2000/svg">
<path d="M1.28867 10.7523C1.28867 5.45906 5.5955 1.15195 10.8887 1.15195C16.1822 1.15195 20.489 5.45907 20.489 10.7523C20.489 16.0454 16.1822 20.352 10.8887 20.352C5.59546 20.352 1.28867 16.0455 1.28867 10.7523ZM2.06631 10.7522C2.06631 15.6172 6.0237 19.5746 10.8887 19.5746C15.7539 19.5746 19.7117 15.6172 19.7116 10.7522C19.7116 5.88666 15.754 1.92927 10.8887 1.92927C6.02363 1.92927 2.06631 5.88663 2.06631 10.7522Z" stroke="black" stroke-width="0.8"/>
<path d="M12.2184 6.42189C13.0052 6.42189 13.2211 6.99262 13.4369 7.67199L14.1777 6.73093C13.9308 5.74311 13.2518 5.15723 11.8942 5.15723C9.56398 5.15723 9.28651 6.85423 9.28651 8.33504V9.94031H8.1444L7.83599 11.2366H9.20902C9.03932 12.9804 8.59189 14.6153 7.38818 16.0507H14.0392V14.4459H10.2888C10.7673 13.35 10.9531 12.3937 11.0301 11.2365H13.6066L13.9154 9.9402H11.0915V8.64392C11.0915 7.44064 11.1535 6.42189 12.2184 6.42189Z" fill="black"/>
</svg>
