<svg width="21" height="22" viewBox="0 0 21 22" fill="none" xmlns="http://www.w3.org/2000/svg">
<path fill-rule="evenodd" clip-rule="evenodd" d="M15.4879 5.5125C15.4879 8.00468 13.4676 10.025 10.9754 10.025C8.48321 10.025 6.46289 8.00468 6.46289 5.5125C6.46289 3.02031 8.48321 1 10.9754 1C13.4676 1 15.4879 3.02031 15.4879 5.5125Z" stroke="black" stroke-linecap="round" stroke-linejoin="round"/>
<path d="M1.49965 16.5816C1.48926 16.3056 1.25714 16.0904 0.981192 16.1007C0.705245 16.1111 0.489967 16.3433 0.500354 16.6192L1.49965 16.5816ZM6.84682 20.9495V20.4494L6.83563 20.4497L6.84682 20.9495ZM14.1532 20.9495L14.1644 20.4495H14.1532V20.9495ZM20.4996 16.6192C20.51 16.3433 20.2948 16.1111 20.0188 16.1007C19.7429 16.0904 19.5107 16.3056 19.5004 16.5816L20.4996 16.6192ZM19.5004 16.4206C19.5107 16.6965 19.7429 16.9118 20.0188 16.9014C20.2948 16.891 20.51 16.6589 20.4996 16.383L19.5004 16.4206ZM14.1532 12.0526V12.5527L14.1644 12.5525L14.1532 12.0526ZM6.84682 12.0526L6.83563 12.5526H6.84682V12.0526ZM0.500354 16.383C0.489967 16.6589 0.705245 16.891 0.981192 16.9014C1.25714 16.9118 1.48926 16.6965 1.49965 16.4206L0.500354 16.383ZM0.500354 16.6192C0.607549 19.467 3.56217 21.5232 6.85801 21.4494L6.83563 20.4497C3.85701 20.5163 1.57863 18.68 1.49965 16.5816L0.500354 16.6192ZM6.84682 21.4495H14.1532V20.4495H6.84682V21.4495ZM14.142 21.4494C17.4378 21.5232 20.3925 19.467 20.4996 16.6192L19.5004 16.5816C19.4214 18.68 17.143 20.5163 14.1644 20.4497L14.142 21.4494ZM20.4996 16.383C20.3925 13.5352 17.4378 11.479 14.142 11.5527L14.1644 12.5525C17.143 12.4858 19.4214 14.3222 19.5004 16.4206L20.4996 16.383ZM14.1532 11.5526H6.84682V12.5526H14.1532V11.5526ZM6.85801 11.5527C3.56217 11.479 0.607549 13.5352 0.500354 16.383L1.49965 16.4206C1.57863 14.3222 3.85701 12.4858 6.83563 12.5525L6.85801 11.5527Z" fill="black"/>
</svg>
