<svg width="21" height="22" viewBox="0 0 21 22" fill="none" xmlns="http://www.w3.org/2000/svg">
<path fill-rule="evenodd" clip-rule="evenodd" d="M14.053 20.1242L11.2708 18.4662C10.9823 18.2975 10.424 18.2975 10.1449 18.4662L7.35339 20.1242C5.7064 21.1078 4.73868 20.7144 4.30135 20.3959C3.87332 20.0774 3.20335 19.2624 3.64069 17.3889L4.30135 14.513C4.37579 14.2132 4.22691 13.698 4.00359 13.4732L1.69594 11.15C0.54212 9.98844 0.63517 8.99547 0.793355 8.50836C0.95154 8.02124 1.45401 7.15942 3.05447 6.88775L6.02277 6.39127C6.30192 6.34443 6.70204 6.04467 6.823 5.79174L8.46999 2.48497C9.21439 0.976776 10.1914 0.751953 10.7032 0.751953C11.215 0.751953 12.192 0.976776 12.9364 2.48497L14.5741 5.78237C14.7044 6.0353 15.1045 6.33506 15.3836 6.3819L18.3519 6.87839C19.9617 7.15005 20.4642 8.01187 20.613 8.49899C20.7619 8.98611 20.855 9.97908 19.7105 11.1407L17.4028 13.4732C17.1795 13.698 17.0399 14.2039 17.105 14.513L17.7657 17.3889C18.1937 19.2624 17.5331 20.0774 17.105 20.3959C16.8724 20.5645 16.5002 20.7519 15.9698 20.7519C15.4767 20.7519 14.8439 20.5926 14.053 20.1242ZM11.978 17.2577L14.7602 18.9158C15.5697 19.4029 16.0815 19.4029 16.2769 19.2624C16.4723 19.1219 16.6119 18.6254 16.4072 17.7074L15.7465 14.8315C15.5697 14.054 15.8582 13.0517 16.4165 12.4802L18.7241 10.1571C19.1801 9.69805 19.3848 9.2484 19.2917 8.93927C19.1894 8.63014 18.7613 8.37721 18.1286 8.27417L15.1603 7.77768C14.4438 7.6559 13.6622 7.07511 13.3365 6.41937L11.6988 3.12196C11.4011 2.52244 11.0289 2.16647 10.7032 2.16647C10.3775 2.16647 10.0053 2.52244 9.71686 3.12196L8.06988 6.41937C7.7442 7.07511 6.96258 7.6559 6.24609 7.77768L3.2871 8.27417C2.65436 8.37721 2.22633 8.63014 2.12397 8.93927C2.02162 9.2484 2.23563 9.70741 2.69158 10.1571L4.99922 12.4802C5.55752 13.0423 5.84598 14.054 5.66918 14.8315L5.00853 17.7074C4.79451 18.6348 4.94339 19.1219 5.1388 19.2624C5.3342 19.4029 5.83667 19.3935 6.65551 18.9158L9.43771 17.2577C9.79131 17.0423 10.2473 16.9299 10.7032 16.9299C11.1591 16.9299 11.6151 17.0423 11.978 17.2577Z" fill="black"/>
<path d="M7.03836 9.96172H7.70336L8.73836 12.8217L9.76836 9.96172H10.4084L9.04836 13.5117H8.39836L7.03836 9.96172ZM10.8529 13.5117V9.96172H11.4629V13.5117H10.8529ZM12.1615 13.5117V9.96172H13.2365C13.6365 9.96172 13.9615 10.0584 14.2115 10.2517C14.4649 10.4451 14.5915 10.7384 14.5915 11.1317C14.5915 11.5051 14.4599 11.7917 14.1965 11.9917C13.9332 12.1917 13.6049 12.2917 13.2115 12.2917C13.0849 12.2917 12.9349 12.2801 12.7615 12.2567V13.5117H12.1615ZM12.7615 10.4917V11.7267C12.9249 11.7501 13.0665 11.7617 13.1865 11.7617C13.4199 11.7617 13.6082 11.7117 13.7515 11.6117C13.8982 11.5117 13.9715 11.3501 13.9715 11.1267C13.9715 10.9101 13.9032 10.7501 13.7665 10.6467C13.6299 10.5434 13.4499 10.4917 13.2265 10.4917H12.7615Z" fill="black"/>
</svg>
