<svg width="20" height="20" viewBox="0 0 20 20" fill="none" xmlns="http://www.w3.org/2000/svg">
<path d="M2.45062 1.49321H3.12138V0.585866C3.12138 0.316184 3.35951 0.0976562 3.6528 0.0976562H6.34173C6.63528 0.0976562 6.87315 0.316184 6.87315 0.585866V1.49321H12.2859V0.585866C12.2859 0.316184 12.5238 0.0976562 12.8173 0.0976562H15.5062C15.7995 0.0976562 16.0377 0.316184 16.0377 0.585866V1.49321H16.7084C18.0279 1.49321 19.1053 2.48307 19.1053 3.69523V17.4056C19.1053 18.6178 18.0279 19.6077 16.7084 19.6077H2.45062C1.13118 19.6077 0.0537109 18.6178 0.0537109 17.4056V3.69523C0.0537109 2.48307 1.13118 1.49321 2.45062 1.49321ZM4.18422 2.61838H5.8103V1.07408H4.18422V2.61838ZM13.3487 2.61838H14.9748V1.07408H13.3487V2.61838ZM4.83265 7.76498H6.83568V9.60513H4.83265V7.76498ZM4.83265 13.2098H6.83568V15.0499H4.83265V13.2098ZM12.3234 13.2098H14.3264V15.0499H12.3234V13.2098ZM8.57801 13.2098H10.581V15.0499H8.57801V13.2098ZM4.83265 10.4875H6.83568V12.3277H4.83265V10.4875ZM12.3234 10.4875H14.3264V12.3277H12.3234V10.4875ZM8.57801 10.4875H10.581V12.3277H8.57801V10.4875ZM12.3234 7.76498H14.3264V9.60513H12.3234V7.76498ZM8.57801 7.76498H10.581V9.60513H8.57801V7.76498ZM3.01694 5.33265H16.1421C16.4354 5.33265 16.6735 5.55118 16.6735 5.82086V16.9943C16.6735 17.2637 16.4354 17.4825 16.1421 17.4825H3.01694C2.72365 17.4825 2.48552 17.2637 2.48552 16.9943V5.82086C2.48552 5.55118 2.72365 5.33265 3.01694 5.33265ZM15.6107 6.30907H3.54836V16.5061H15.6107V6.30907ZM3.12138 2.46963H2.45062C1.71803 2.46963 1.11655 3.0222 1.11655 3.69523V17.4056C1.11655 18.0787 1.71803 18.6312 2.45062 18.6312H16.7084C17.441 18.6312 18.0425 18.0787 18.0425 17.4056V3.69523C18.0425 3.0222 17.441 2.46963 16.7084 2.46963H16.0377V3.10659C16.0377 3.37628 15.7995 3.5948 15.5062 3.5948H12.8173C12.5238 3.5948 12.2859 3.37628 12.2859 3.10659V2.46963H6.87315V3.10659C6.87315 3.37628 6.63528 3.5948 6.34173 3.5948H3.6528C3.35951 3.5948 3.12138 3.37628 3.12138 3.10659V2.46963Z" fill="black"/>
</svg>
