<svg width="73" height="49" viewBox="0 0 73 49" fill="none" xmlns="http://www.w3.org/2000/svg">
<path d="M29.9045 1.91486L24.0736 4.23608L29.0471 6.48801L25.3084 9.25963L37.7248 10.8879L46.7112 8.08163L45.8881 12.8974L41.875 15.8769L35.8041 18.2673L28.1896 18.5099L18.7915 16.4658L14.2297 13.0013L13.2006 17.1587L16.4249 21.6625L14.2297 24.9885L13.6465 30.6356L6.88959 34.2041L4.66013 40.2669L0.75 47.6117L3.42536 48.3045L6.4094 46.607L10.2852 38.9158L17.8311 38.1189L21.604 35.6245L24.4509 31.7096L32.477 32.5411L42.218 33.5804L59.505 31.7096L65.0271 29.8734L67.7368 32.0907H70.515L72.5044 30.1852L67.4281 26.1317L60.6368 26.8592L54.8059 25.9239L55.046 22.9097L54.6344 18.5099L61.7687 15.08L62.9692 12.343L60.6368 8.91317L56.075 5.7951L51.3074 5.27543L45.1677 1.91486L37.7248 0.910156L29.9045 1.91486ZM29.9045 1.91486L35.8041 4.23608L29.9045 1.91486Z" fill="white"/>
<path d="M29.9045 1.91486L24.0736 4.23608L29.0471 6.48801L25.3084 9.25963L37.7248 10.8879L46.7112 8.08163L45.8881 12.8974L41.875 15.8769L35.8041 18.2673L28.1896 18.5099L18.7915 16.4658L14.2297 13.0013L13.2006 17.1587L16.4249 21.6625L14.2297 24.9885L13.6465 30.6356L6.88959 34.2041L4.66013 40.2669L0.75 47.6117L3.42536 48.3045L6.4094 46.607L10.2852 38.9158L17.8311 38.1189L21.604 35.6245L24.4509 31.7096L32.477 32.5411L42.218 33.5804L59.505 31.7096L65.0271 29.8734L67.7368 32.0907H70.515L72.5044 30.1852L67.4281 26.1317L60.6368 26.8592L54.8059 25.9239L55.046 22.9097L54.6344 18.5099L61.7687 15.08L62.9692 12.343L60.6368 8.91317L56.075 5.7951L51.3074 5.27543L45.1677 1.91486L37.7248 0.910156L29.9045 1.91486ZM29.9045 1.91486L35.8041 4.23608" stroke="black" stroke-width="0.615926"/>
<path d="M6.37546 46.5031L4.00879 41.7914L10.2856 39.089L7.19864 34.4119L15.7735 33.2339L13.5097 30.4277" stroke="black" stroke-width="0.615926"/>
<path d="M15.9785 33.4062L17.7964 38.014" stroke="black" stroke-width="0.615926"/>
<path d="M18.86 16.6738L19.889 25.9933L16.459 21.732" stroke="black" stroke-width="0.615926"/>
<path d="M19.9922 26.0977L24.2797 31.5717" stroke="black" stroke-width="0.615926"/>
<path d="M19.9922 26.0977L16.082 33.5117" stroke="black" stroke-width="0.615926"/>
<path d="M19.8887 25.9941L21.5007 35.6255" stroke="black" stroke-width="0.615926"/>
<path d="M19.958 26.028L28.2927 18.9258V26.028L24.5198 31.4326" stroke="black" stroke-width="0.615926"/>
<path d="M28.498 25.924L46.0251 24.2957L54.4627 18.7871" stroke="black" stroke-width="0.615926"/>
<path d="M46.1621 24.1914L54.7026 26.0276" stroke="black" stroke-width="0.615926"/>
<path d="M41.9434 15.8086L46.2651 24.1927" stroke="black" stroke-width="0.615926"/>
<path d="M35.8042 18.2324L37.1419 24.6418L28.3955 18.8907" stroke="black" stroke-width="0.615926"/>
<path d="M37.6217 24.8848L32.957 32.576" stroke="black" stroke-width="0.615926"/>
<path d="M46.2649 24.2949L42.5264 33.6144" stroke="black" stroke-width="0.615926"/>
<path d="M46.3682 24.2949L54.0855 31.8128L54.8059 26.0271" stroke="black" stroke-width="0.615926"/>
<path d="M60.9453 26.8594L59.5732 31.5711" stroke="black" stroke-width="0.615926"/>
<path d="M67.4617 26.0273L65.2666 29.9422" stroke="black" stroke-width="0.615926"/>
<path d="M46.8145 8.15001L51.3077 5.34375" stroke="black" stroke-width="0.615926"/>
<path d="M29.1494 6.45297L35.7005 3.92388L42.9034 3.26562H45.5445L50.8953 5.20575" stroke="black" stroke-width="0.615926"/>
<path d="M46.9851 8.0829L35.5977 4.30664L37.7243 10.7853" stroke="black" stroke-width="0.615926"/>
<path d="M45.7168 12.8984L51.1361 14.4574L54.6003 18.4069" stroke="black" stroke-width="0.615926"/>
<path d="M46.6426 8.11589L53.6054 8.44477M53.6054 8.44477L56.1778 8.56629M53.6054 8.44477L53.0909 9.95205M56.1778 8.56629L55.3203 10.5411M56.1778 8.56629L56.3836 6.17578M55.3203 10.5411L53.0909 9.95205M55.3203 10.5411L57.1725 12.793M53.0909 9.95205L51.3416 14.1788L57.1725 12.793M57.1725 12.793L61.8029 14.8024M57.1725 12.793L60.8768 9.25922" stroke="black" stroke-width="0.615926"/>
</svg>
