<svg width="44" height="19" viewBox="0 0 44 19" fill="none" xmlns="http://www.w3.org/2000/svg">
<path d="M7.98667 3.18111C7.47718 3.78996 6.66417 4.26873 5.85117 4.20008C5.74999 3.37804 6.14746 2.50541 6.61359 1.96521C7.12307 1.3401 8.01196 0.897462 8.73102 0.861328C8.81594 1.7177 8.48531 2.556 7.98667 3.18111ZM8.72199 4.36268C7.54584 4.29403 6.5359 5.04019 5.97944 5.04019C5.41033 5.04019 4.55577 4.39701 3.62352 4.41508C2.41304 4.43314 1.28748 5.1251 0.669593 6.2308C-0.602313 8.43856 0.33897 11.7105 1.56571 13.5081C2.16733 14.3988 2.8882 15.3744 3.83671 15.3401C4.73283 15.3058 5.08874 14.7493 6.17275 14.7493C7.2658 14.7493 7.57836 15.3401 8.52867 15.3238C9.5097 15.3058 10.1276 14.4331 10.7292 13.5424C11.4158 12.5307 11.6958 11.5479 11.7121 11.4955C11.694 11.4774 9.81503 10.7511 9.79696 8.55961C9.7807 6.72583 11.2784 5.8532 11.3471 5.80261C10.5016 4.53432 9.17908 4.39701 8.72199 4.36268ZM15.5242 1.8803V15.2299H17.5747V10.6662H20.4112C23.002 10.6662 24.8232 8.86675 24.8232 6.26512C24.8232 3.66169 23.0364 1.8803 20.4799 1.8803H15.5223H15.5242ZM17.5747 3.62736H19.9379C21.7157 3.62736 22.731 4.58491 22.731 6.27235C22.731 7.95979 21.7157 8.92818 19.9289 8.92818H17.5729V3.62556L17.5747 3.62736ZM28.5666 15.3311C29.8548 15.3311 31.049 14.6734 31.591 13.6274H31.6326V15.2299H33.5296V8.58491C33.5296 6.65898 32.0047 5.41598 29.6597 5.41598C27.4826 5.41598 25.8747 6.67524 25.815 8.40424H27.6615C27.8132 7.5822 28.5666 7.0438 29.6 7.0438C30.8539 7.0438 31.5567 7.63459 31.5567 8.72221V9.45754L28.9984 9.61291C26.619 9.75744 25.3308 10.7421 25.3308 12.4548C25.3308 14.1838 26.6606 15.3311 28.5666 15.3311ZM29.1177 13.7484C28.0246 13.7484 27.329 13.2172 27.329 12.4042C27.329 11.5641 27.9993 11.0763 29.2784 10.9986L31.5549 10.8541V11.6075C31.5549 12.8577 30.5088 13.7484 29.1177 13.7484ZM36.0625 18.8613C38.0607 18.8613 39.0002 18.0899 39.8205 15.752L43.4194 5.54426H41.3363L38.9225 13.4304H38.881L36.4672 5.54426H34.3245L37.7952 15.2642L37.6091 15.855C37.2965 16.8559 36.7888 17.2407 35.8819 17.2407C35.7211 17.2407 35.4085 17.2227 35.2803 17.2064V18.8089C35.3995 18.8433 35.9072 18.8595 36.0607 18.8595L36.0625 18.8613Z" fill="black"/>
</svg>
