<svg width="48" height="19" viewBox="0 0 48 19" fill="none" xmlns="http://www.w3.org/2000/svg">
<path d="M22.5852 9.65554V14.9301H20.8672V1.9013H25.4212C26.5197 1.87852 27.5813 2.28483 28.3701 3.02912C29.1687 3.72974 29.6187 4.73224 29.6011 5.77842C29.6245 6.83219 29.1746 7.84229 28.3701 8.54481C27.5735 9.2853 26.5898 9.65554 25.4212 9.65364L22.5852 9.65554ZM22.5852 3.50569V8.05495H25.464C26.1029 8.07393 26.7184 7.829 27.1625 7.38091C28.0643 6.5265 28.0858 5.11958 27.2073 4.24048C27.1917 4.22529 27.1781 4.2101 27.1625 4.19681C26.7242 3.73923 26.1048 3.4886 25.464 3.50569H22.5852ZM33.5591 5.72526C34.8291 5.72526 35.8302 6.05563 36.5646 6.71637C37.2989 7.37712 37.6651 8.28469 37.6651 9.43529V14.9301H36.0231V13.6922H35.949C35.2381 14.7117 34.2915 15.2206 33.1111 15.2206C32.1041 15.2206 31.2607 14.9301 30.5828 14.3472C29.9245 13.8061 29.5505 13.0048 29.5661 12.1637C29.5661 11.2409 29.9245 10.5081 30.6393 9.96313C31.3542 9.4182 32.3086 9.14479 33.5045 9.14479C34.5233 9.14479 35.3647 9.32707 36.0231 9.68972V9.30618C36.027 8.73278 35.766 8.18975 35.3141 7.82521C34.8602 7.42648 34.2681 7.20813 33.6565 7.21573C32.6982 7.21573 31.9385 7.61065 31.3795 8.39861L29.868 7.47015C30.6978 6.30626 31.9288 5.72526 33.5591 5.72526ZM31.3366 12.2017C31.3347 12.6346 31.547 13.0409 31.9054 13.2934C32.2852 13.5839 32.7566 13.7396 33.2396 13.7301C33.9642 13.7282 34.6596 13.4472 35.1719 12.9479C35.7406 12.4257 36.025 11.8143 36.025 11.1099C35.4894 10.6941 34.7434 10.4853 33.785 10.4853C33.0877 10.4853 32.5053 10.6486 32.0398 10.977C31.5704 11.3112 31.3366 11.7156 31.3366 12.2017ZM47.0924 6.01576L41.36 18.8604H39.5875L41.7145 14.3662L37.9436 6.01576H39.8096L42.5346 12.42H42.5716L45.2225 6.01576H47.0924Z" fill="#5F6368"/>
<path d="M15.6449 8.51689C15.6449 8.00614 15.602 7.49729 15.5125 6.99414H8.27051V9.87635H12.4174C12.246 10.8067 11.6928 11.6288 10.8845 12.151V14.0231H13.3601C14.8093 12.7225 15.6449 10.7953 15.6449 8.51689Z" fill="#4285F4"/>
<path d="M8.27033 15.8323C10.3428 15.8323 12.088 15.1697 13.36 14.0248L10.8843 12.1527C10.1948 12.6083 9.30851 12.8685 8.27033 12.8685C6.26799 12.8685 4.56755 11.5527 3.95984 9.7793H1.41016V11.7084C2.71324 14.2374 5.3681 15.8323 8.27033 15.8323Z" fill="#34A853"/>
<path d="M3.96004 9.78052C3.63865 8.85206 3.63865 7.84385 3.96004 6.9154V4.98633H1.41036C0.319592 7.10147 0.319592 9.59444 1.41036 11.7096L3.96004 9.78052Z" fill="#FBBC04"/>
<path d="M8.27033 3.82564C9.365 3.80855 10.4227 4.21107 11.2154 4.94776L13.4086 2.81174C12.0179 1.53962 10.1772 0.840898 8.27033 0.861783C5.3681 0.861783 2.71324 2.45858 1.41016 4.98574L3.95983 6.9148C4.56755 5.14143 6.26798 3.82564 8.27033 3.82564Z" fill="#EA4335"/>
</svg>
