<svg width="57" height="16" viewBox="0 0 57 16" fill="none" xmlns="http://www.w3.org/2000/svg">
<path d="M44.5132 8.10089C44.5369 10.2666 44.5223 12.4301 44.5223 14.5913C44.5223 15.0984 44.4625 15.1558 43.9425 15.1558C43.3412 15.1592 42.7377 15.1592 42.1354 15.1558C41.665 15.1558 41.612 15.1052 41.612 14.6475C41.612 12.547 41.6187 10.4476 41.6052 8.34602C41.6052 7.99519 41.5567 7.64323 41.4924 7.2969C41.401 6.79651 41.0604 6.51202 40.5742 6.43218C39.6909 6.286 38.8968 6.56487 38.1568 7.01916C38.0587 7.07988 38.0203 7.29915 38.0203 7.44533C38.0102 9.21299 38.0136 10.9806 38.0136 12.7483C38.0136 13.414 38.0057 14.0774 38.017 14.7409C38.0226 15.0456 37.8884 15.1625 37.5906 15.1592C36.9239 15.1468 36.2572 15.1558 35.5906 15.1535C35.2048 15.1513 35.0988 15.0433 35.0988 14.6509C35.0976 11.3079 35.0976 7.96596 35.0988 4.62292C35.0988 4.27096 35.2048 4.16077 35.559 4.15852C36.1602 4.15289 36.7603 4.15402 37.3661 4.15739C37.7474 4.15964 37.8128 4.23048 37.8218 4.6083C37.8241 4.75336 37.8376 4.89617 37.8466 5.12668C38.044 5.00187 38.1591 4.93215 38.2742 4.85569C39.4484 4.06181 40.7524 3.86841 42.1207 4.11017C43.3739 4.32831 44.0564 5.16379 44.3102 6.3501C44.4377 6.9247 44.5065 7.51617 44.5132 8.10089ZM56.4579 3.40288L56.3191 3.77732C56.2864 3.87515 56.2571 3.95949 56.2379 4.0382C56.2142 3.95724 56.1894 3.87178 56.1578 3.77732L56.0258 3.40288H55.8984L55.8454 4.17651H55.9401L55.9627 3.84367C55.9694 3.72672 55.9751 3.59741 55.9773 3.50183H55.9796C56.0033 3.59291 56.0326 3.69299 56.0687 3.80206L56.1951 4.17201H56.2706L56.4071 3.79531C56.4466 3.68849 56.4771 3.59179 56.5041 3.50183H56.5064C56.5064 3.59628 56.5132 3.72897 56.521 3.83579L56.5391 4.17651H56.6406L56.5921 3.40288H56.4579ZM26.0678 7.36999C26.1321 9.81907 26.1197 12.2727 26.1344 14.7251C26.1355 15.0523 26.0159 15.1592 25.6786 15.1614C25.0977 15.1637 24.5179 15.1625 23.9381 15.1614C23.4463 15.1614 23.3854 15.1007 23.3606 14.6172C23.3583 14.5643 23.3482 14.5126 23.3346 14.4103C23.0041 14.5936 22.7232 14.769 22.4277 14.9118C21.3955 15.4099 20.3205 15.456 19.2354 15.1378C18.2585 14.8477 17.6607 14.1775 17.4215 13.1936C17.2489 12.4829 17.2343 11.7689 17.3775 11.0616C17.6009 9.96638 18.342 9.35804 19.373 9.04994C20.3713 8.74858 21.3989 8.71485 22.4299 8.72497C23.1677 8.73396 23.1688 8.72722 23.1665 7.9817C23.1665 7.78941 23.1801 7.59151 23.1451 7.40485C23.0346 6.80438 22.6307 6.42994 21.9652 6.42994C20.8507 6.42994 19.7351 6.47716 18.6217 6.54013C18.0758 6.57274 18.0036 6.54576 18.0036 5.99589C18.0036 5.6102 18.0103 5.22339 18.0013 4.83994C17.9968 4.62517 18.0814 4.47787 18.2867 4.43514C20.016 4.06744 21.7543 3.81331 23.5083 4.24735C25.0898 4.63529 26.0249 5.73164 26.0678 7.36999ZM23.2353 12.3424C23.2094 12.0871 23.2297 11.8285 23.2297 11.5699C23.2297 11.2381 23.2421 10.9053 23.2207 10.5747C23.215 10.4915 23.1011 10.3464 23.0413 10.3487C22.369 10.3723 21.6933 10.3903 21.0255 10.4724C20.6161 10.5241 20.316 10.8221 20.2337 11.2292C20.157 11.6103 20.1344 12.0129 20.166 12.4031C20.2021 12.8304 20.5112 13.08 20.9331 13.152C21.611 13.2689 22.2495 13.1374 22.8811 12.8934C23.153 12.7899 23.2692 12.6392 23.2353 12.3424ZM54.7794 7.97608C54.785 10.2048 54.7828 12.4346 54.7816 14.6633C54.7816 15.1052 54.7264 15.1558 54.2763 15.1558C53.7168 15.1592 53.1595 15.1592 52.6 15.1558C52.1195 15.1558 52.089 15.1277 52.0642 14.661C52.062 14.6059 52.0563 14.5531 52.0451 14.4991C52.0428 14.4789 52.0225 14.4665 51.9898 14.417C51.9198 14.4485 51.8555 14.4687 51.8048 14.5047C51.0558 15.0613 50.194 15.2783 49.2791 15.3492C47.4687 15.4954 46.0846 14.3079 45.9989 12.4998C45.9774 12.0545 45.9661 11.6002 46.0327 11.1628C46.1974 10.1081 46.8494 9.40752 47.8545 9.12528C48.6125 8.91388 49.4077 8.82392 50.1917 8.73171C50.6474 8.67662 51.1156 8.71597 51.5781 8.72272C51.7811 8.72947 51.8815 8.65975 51.8702 8.44835C51.8533 8.13013 51.8826 7.80291 51.8285 7.48806C51.7078 6.78527 51.3085 6.41982 50.5955 6.42206C49.4912 6.42881 48.3869 6.47829 47.2814 6.54013C46.7264 6.56937 46.6475 6.52552 46.6475 5.95654C46.6475 5.60346 46.6486 5.24925 46.6475 4.89617C46.6463 4.6218 46.7648 4.46887 47.0468 4.40365C48.3316 4.11466 49.6288 3.95836 50.9418 4.04045C51.4912 4.07531 52.0496 4.19562 52.573 4.36992C53.8217 4.78484 54.5109 5.70016 54.7117 6.98205C54.7625 7.31264 54.7783 7.64661 54.7794 7.97608ZM51.9379 12.4447C51.9244 12.1535 51.9356 11.8656 51.9334 11.5777C51.9334 11.2696 51.9277 10.957 51.9379 10.6467C51.9424 10.4353 51.8691 10.3285 51.6401 10.3386C51.2329 10.3476 50.8212 10.315 50.4162 10.3464C49.0592 10.4488 48.8133 10.9514 48.7963 12.0635C48.7873 12.7179 49.093 13.071 49.6153 13.1599C50.3406 13.2779 51.0186 13.1284 51.6784 12.8371C51.8578 12.7573 51.9458 12.6494 51.9379 12.4447ZM15.2817 0.363448C14.6579 0.363448 14.0352 0.363448 13.4114 0.363448C12.9433 0.364572 12.8993 0.410675 12.8993 0.88295C12.8993 3.16449 12.8993 5.44715 12.8993 7.72869C12.8993 10.053 12.8993 12.3772 12.8993 14.7037C12.8993 15.0894 12.9658 15.1535 13.3471 15.1558C13.9585 15.1592 14.571 15.1558 15.1846 15.1558C15.7611 15.1558 15.8141 15.1052 15.8141 14.5385C15.8141 10.6276 15.8141 6.71667 15.8141 2.80691C15.8141 2.16372 15.8152 1.52165 15.8141 0.878453C15.813 0.441036 15.7317 0.364572 15.2817 0.363448ZM55.2035 3.48721H55.4404V4.17651H55.5419V3.48721H55.7788V3.40288H55.2035V3.48721ZM33.471 4.02695C32.6318 4.06294 31.8737 4.32606 31.1947 4.8152C31.1022 4.88267 31.0097 4.94452 30.8709 5.04347C30.8597 4.88942 30.8472 4.79834 30.8472 4.70613C30.8382 4.2451 30.757 4.15964 30.3047 4.15964C29.7215 4.15739 29.1439 4.15852 28.563 4.15852C28.0317 4.15964 27.9437 4.2451 27.9437 4.77247C27.9437 6.25002 27.9437 7.72982 27.9437 9.20736C27.9437 10.9998 27.9426 12.7888 27.9437 14.5756C27.9437 15.0501 28.0486 15.1558 28.501 15.1558C29.1123 15.1592 29.7271 15.1592 30.3396 15.1558C30.8337 15.1558 30.9127 15.0816 30.9127 14.5733C30.9138 12.1973 30.9161 9.81795 30.9082 7.43633C30.9082 7.20132 30.977 7.06751 31.1935 6.96518C31.911 6.62897 32.6464 6.37709 33.453 6.4097C33.7485 6.42207 33.8918 6.31074 33.885 5.99926C33.8726 5.47301 33.8749 4.95014 33.8839 4.42501C33.885 4.13828 33.7564 4.01571 33.471 4.02695ZM3.02907 0.364572C2.45942 0.361198 1.88977 0.358951 1.31899 0.365698C0.721136 0.374693 0.390625 0.714281 0.390625 1.3125C0.390625 3.51982 0.390625 5.72827 0.390625 7.93559C0.390625 10.1767 0.390625 12.4143 0.390625 14.6554C0.390625 15.0478 0.443642 15.1007 0.83845 15.1007C1.41825 15.1052 1.99919 15.1052 2.57899 15.1007C3.18812 15.0962 3.49382 14.7937 3.49382 14.1899C3.49382 9.74261 3.49382 5.2931 3.49382 0.846968C3.49494 0.456779 3.4126 0.367945 3.02907 0.364572ZM9.43624 10.451C8.1909 9.15339 6.65905 8.43935 4.98845 8.27406C4.44925 8.26394 4.44474 8.26394 4.4594 8.66987C4.46504 8.81942 4.49437 8.96673 4.51693 9.11516C4.81586 11.0886 5.7837 12.6606 7.39452 13.8357C8.45035 14.6093 9.64493 15.0107 10.9455 15.1322C11.3324 15.1693 11.3979 15.1423 11.3595 14.7645C11.1937 13.1183 10.5925 11.6576 9.43624 10.451ZM10.9546 0.400556C10.8068 0.42417 10.6534 0.415173 10.5067 0.437663C8.81245 0.70641 7.37422 1.45418 6.2304 2.73494C5.18247 3.90664 4.60041 5.2886 4.46279 6.84936C4.42782 7.25642 4.45038 7.25754 4.88016 7.31264C5.47011 7.16758 6.08376 7.07875 6.64777 6.8651C9.46444 5.79911 11.0053 3.7301 11.3606 0.761508C11.4058 0.384813 11.3426 0.342084 10.9546 0.400556Z" fill="black"/>
</svg>
