<svg width="36" height="22" viewBox="0 0 36 22" fill="none" xmlns="http://www.w3.org/2000/svg">
<path d="M33.1845 0.136719H2.67175C1.66568 0.136719 0.850098 0.952302 0.850098 1.95837V19.7651C0.850098 20.7711 1.66568 21.5867 2.67175 21.5867H33.1845C34.1906 21.5867 35.0061 20.7711 35.0061 19.7651V1.95837C35.0061 0.952302 34.1906 0.136719 33.1845 0.136719Z" fill="black"/>
<path d="M10.9207 19.34V18.2083C10.9207 17.7743 10.6566 17.4915 10.223 17.4915C9.99533 17.4915 9.75169 17.5671 9.58182 17.8103C9.44975 17.6026 9.26303 17.4915 8.97839 17.4915C8.76343 17.4822 8.55816 17.5814 8.4319 17.7557V17.528H8.07349V19.3387H8.4319V18.3026C8.4319 17.9838 8.62044 17.8313 8.88458 17.8313C9.14872 17.8313 9.29946 18.0011 9.29946 18.3026V19.34H9.65787V18.3026C9.65787 17.9838 9.84641 17.8313 10.1106 17.8313C10.3747 17.8313 10.5254 18.0011 10.5254 18.3026V19.34H10.9207ZM16.8056 17.548H16.1452V17.0015H15.7877V17.548H15.4107V17.8668H15.7877V18.7175C15.7877 19.1324 15.9385 19.3778 16.3912 19.3778C16.5627 19.3743 16.7307 19.3289 16.8807 19.2458L16.7673 18.927C16.6656 18.9906 16.5476 19.0233 16.4276 19.0213C16.2391 19.0213 16.1448 18.9079 16.1448 18.7193V17.8522H16.8051V17.5503L16.8056 17.548ZM20.1629 17.4915C19.9643 17.4871 19.778 17.5874 19.6724 17.7557V17.528H19.314V19.3387H19.6724V18.3217C19.6724 18.0198 19.8232 17.8313 20.0686 17.8313C20.1515 17.8346 20.2337 17.8473 20.3137 17.8691L20.427 17.5293C20.3406 17.5075 20.252 17.4948 20.1629 17.4915ZM15.0891 17.6801C14.9006 17.548 14.6365 17.4915 14.3536 17.4915C13.901 17.4915 13.6182 17.6992 13.6182 18.0576C13.6182 18.3595 13.8258 18.529 14.2216 18.5859L14.4101 18.6046C14.6178 18.6424 14.7499 18.718 14.7499 18.8122C14.7499 18.9443 14.5991 19.0399 14.3158 19.0399C14.0996 19.0444 13.8877 18.9782 13.7124 18.8514L13.5239 19.1342C13.788 19.3227 14.1086 19.3619 14.2981 19.3619C14.8264 19.3619 15.1092 19.1169 15.1092 18.7772C15.1092 18.4584 14.8815 18.3058 14.4866 18.2489L14.2981 18.2302C14.1282 18.2115 13.9793 18.1546 13.9793 18.0417C13.9793 17.9096 14.13 17.814 14.3377 17.814C14.5654 17.814 14.7904 17.9082 14.9038 17.9647L15.0891 17.6801ZM20.5591 18.4347C20.5591 18.9812 20.9175 19.3778 21.5023 19.3778C21.7664 19.3778 21.955 19.3214 22.1435 19.1702L21.955 18.8874C21.8215 18.9955 21.6554 19.0553 21.4836 19.0572C21.1648 19.0572 20.9175 18.8122 20.9175 18.4538C20.9175 18.0954 21.1616 17.8522 21.4836 17.8522C21.6554 17.8541 21.8215 17.914 21.955 18.0221L22.1435 17.7393C21.955 17.5885 21.7664 17.5316 21.5023 17.5316C20.9362 17.4938 20.5591 17.89 20.5591 18.437V18.4347ZM18.0316 17.4915C17.5033 17.4915 17.1449 17.8686 17.1449 18.4347C17.1449 19.0008 17.522 19.3778 18.0689 19.3778C18.335 19.3835 18.5948 19.2969 18.8044 19.1328L18.6159 18.8687C18.4643 18.9861 18.2793 19.0522 18.0876 19.0572C17.8426 19.0572 17.5784 18.9065 17.5411 18.5859H18.8805V18.4351C18.8805 17.8691 18.5407 17.492 18.0316 17.492V17.4915ZM18.0129 17.8313C18.277 17.8313 18.4656 18.0011 18.4843 18.2839H17.5037C17.5602 18.0198 17.7315 17.8313 18.0129 17.8313ZM13.1277 18.4347V17.5293H12.7693V17.757C12.6372 17.5872 12.4505 17.4929 12.1845 17.4929C11.6754 17.4929 11.2978 17.8891 11.2978 18.4361C11.2978 18.983 11.6749 19.3792 12.1845 19.3792C12.4486 19.3792 12.6372 19.2849 12.7693 19.1151V19.3428H13.1277V18.4347ZM11.6754 18.4347C11.6754 18.0949 11.883 17.8313 12.2414 17.8313C12.5812 17.8313 12.7879 18.0954 12.7879 18.4347C12.7879 18.7931 12.5602 19.0381 12.2414 19.0381C11.883 19.0568 11.6754 18.774 11.6754 18.4347ZM25.6147 17.4915C25.4161 17.4871 25.2298 17.5874 25.1242 17.7557V17.528H24.7658V19.3387H25.1237V18.3217C25.1237 18.0198 25.2745 17.8313 25.5199 17.8313C25.6028 17.8346 25.685 17.8473 25.765 17.8691L25.8784 17.5293C25.7919 17.5075 25.7033 17.4948 25.6142 17.4915H25.6147ZM24.2188 18.4347V17.5293H23.8604V17.757C23.7283 17.5872 23.5416 17.4929 23.2757 17.4929C22.7665 17.4929 22.389 17.8891 22.389 18.4361C22.389 18.983 22.7661 19.3792 23.2757 19.3792C23.5398 19.3792 23.7283 19.2849 23.8604 19.1151V19.3428H24.2188V18.4347ZM22.7665 18.4347C22.7665 18.0949 22.9742 17.8313 23.3326 17.8313C23.6723 17.8313 23.8791 18.0954 23.8791 18.4347C23.8791 18.7931 23.6514 19.0381 23.3326 19.0381C22.9742 19.0568 22.7665 18.774 22.7665 18.4347ZM27.8594 18.4347V16.8125H27.501V17.7557C27.3689 17.5858 27.1822 17.4915 26.9162 17.4915C26.4071 17.4915 26.0296 17.8877 26.0296 18.4347C26.0296 18.9816 26.4066 19.3778 26.9162 19.3778C27.1804 19.3778 27.3689 19.2836 27.501 19.1137V19.3414H27.8594V18.4347ZM26.4071 18.4347C26.4071 18.0949 26.6148 17.8313 26.9732 17.8313C27.3129 17.8313 27.5197 18.0954 27.5197 18.4347C27.5197 18.7931 27.292 19.0381 26.9732 19.0381C26.6143 19.0572 26.4066 18.7744 26.4066 18.4347H26.4071Z" fill="white"/>
<path d="M21.2198 3.79688H14.6746V14.4727H21.2198V3.79688Z" fill="#FF5F00"/>
<path d="M15.3347 9.13408C15.3352 7.05341 16.287 5.08716 17.9188 3.79617C15.1349 1.60739 11.1364 1.92555 8.73366 4.52702C6.33097 7.12849 6.33097 11.1397 8.73366 13.7411C11.1364 16.3426 15.1349 16.6608 17.9188 14.472C16.287 13.181 15.3352 11.2148 15.3347 9.13408Z" fill="#EB001B"/>
<path d="M28.9154 9.13407C28.9173 11.7321 27.4352 14.1029 25.0989 15.2392C22.7625 16.3754 19.9824 16.0775 17.9399 14.472C19.5721 13.1813 20.524 11.2149 20.524 9.13407C20.524 7.05328 19.5721 5.08683 17.9399 3.79616C19.9824 2.19062 22.7625 1.89269 25.0989 3.02896C27.4352 4.16523 28.9173 6.53608 28.9154 9.13407Z" fill="#F79E1B"/>
</svg>
