<svg width="105" height="24" viewBox="0 0 105 24" fill="none" xmlns="http://www.w3.org/2000/svg">
<rect x="0.000976562" y="0.832031" width="104.45" height="22.77" rx="6" fill="black"/>
<path fill-rule="evenodd" clip-rule="evenodd" d="M52.9831 16.9924H51.8377L52.7242 14.8086L50.96 10.3676H52.1703L53.2789 13.3902L54.3962 10.3676H55.6065L52.9831 16.9924ZM48.5858 15.0853C48.1891 15.0853 47.7818 14.9382 47.4132 14.6519V14.975H46.2309V8.34933H47.4132V10.6811C47.7818 10.4044 48.1891 10.2573 48.5858 10.2573C49.8234 10.2573 50.673 11.2519 50.673 12.6713C50.673 14.0898 49.8234 15.0853 48.5858 15.0853ZM48.3365 11.2703C48.0135 11.2703 47.6897 11.4087 47.4132 11.6854V13.6572C47.6897 13.933 48.0135 14.0714 48.3365 14.0714C49.0018 14.0714 49.4635 13.5005 49.4635 12.6713C49.4635 11.8421 49.0018 11.2703 48.3365 11.2703ZM41.4448 14.6519C41.085 14.9382 40.6786 15.0853 40.2722 15.0853C39.0435 15.0853 38.1851 14.0898 38.1851 12.6713C38.1851 11.2519 39.0435 10.2573 40.2722 10.2573C40.6786 10.2573 41.085 10.4044 41.4448 10.6811V8.34933H42.6368V14.975H41.4448V14.6519ZM41.4448 11.6854C41.1771 11.4087 40.8542 11.2703 40.5312 11.2703C39.8562 11.2703 39.3945 11.8421 39.3945 12.6713C39.3945 13.5005 39.8562 14.0714 40.5312 14.0714C40.8542 14.0714 41.1771 13.933 41.4448 13.6572V11.6854ZM34.4066 12.9935C34.4803 13.694 35.035 14.1729 35.81 14.1729C36.2357 14.1729 36.7061 14.0162 37.1862 13.7395V14.7263C36.6605 14.9654 36.1339 15.0853 35.616 15.0853C34.2214 15.0853 33.2427 14.0714 33.2427 12.6345C33.2427 11.2432 34.2029 10.2573 35.5239 10.2573C36.7342 10.2573 37.5558 11.2064 37.5558 12.5601C37.5558 12.6897 37.5558 12.8368 37.5373 12.9935H34.4066ZM35.4782 11.1688C34.9051 11.1688 34.4619 11.5934 34.4066 12.2291H36.42C36.3832 11.6022 36.0049 11.1688 35.4782 11.1688ZM31.2934 11.8973V14.975H30.1111V10.3676H31.2934V10.8282C31.626 10.4595 32.0324 10.2573 32.4291 10.2573C32.559 10.2573 32.688 10.266 32.8171 10.3028V11.3535C32.688 11.3167 32.5406 11.2984 32.4019 11.2984C32.014 11.2984 31.5979 11.5102 31.2934 11.8973ZM26.0193 12.9935C26.093 13.694 26.6468 14.1729 27.4227 14.1729C27.8475 14.1729 28.3189 14.0162 28.799 13.7395V14.7263C28.2723 14.9654 27.7457 15.0853 27.2287 15.0853C25.8341 15.0853 24.8555 14.0714 24.8555 12.6345C24.8555 11.2432 25.8157 10.2573 27.1366 10.2573C28.3461 10.2573 29.1685 11.2064 29.1685 12.5601C29.1685 12.6897 29.1685 12.8368 29.15 12.9935H26.0193ZM27.0901 11.1688C26.5178 11.1688 26.0746 11.5934 26.0193 12.2291H28.0327C27.9959 11.6022 27.6167 11.1688 27.0901 11.1688ZM21.8897 14.975L20.9471 11.8421L20.0141 14.975H18.952L17.3634 10.3676H18.5457L19.4787 13.5005L20.4117 10.3676H21.4825L22.4154 13.5005L23.3484 10.3676H24.5307L22.9517 14.975H21.8897ZM14.6654 15.0853C13.2707 15.0853 12.2824 14.081 12.2824 12.6713C12.2824 11.2519 13.2707 10.2573 14.6654 10.2573C16.06 10.2573 17.0395 11.2519 17.0395 12.6713C17.0395 14.081 16.06 15.0853 14.6654 15.0853ZM14.6654 11.2432C13.9729 11.2432 13.4928 11.8237 13.4928 12.6713C13.4928 13.5189 13.9729 14.0994 14.6654 14.0994C15.3491 14.0994 15.8292 13.5189 15.8292 12.6713C15.8292 11.8237 15.3491 11.2432 14.6654 11.2432ZM9.47377 12.6984H8.41175V14.975H7.22949V8.63478H9.47377C10.7675 8.63478 11.6908 9.4736 11.6908 10.6714C11.6908 11.8692 10.7675 12.6984 9.47377 12.6984ZM9.30788 9.59356H8.41175V11.7405H9.30788C9.99161 11.7405 10.4717 11.3071 10.4717 10.6714C10.4717 10.027 9.99161 9.59356 9.30788 9.59356ZM97.2332 13.152H92.354C92.4655 14.3174 93.3213 14.6607 94.2929 14.6607C95.2821 14.6607 96.0614 14.4523 96.7408 14.1108V16.1133C96.0641 16.488 95.1697 16.7577 93.9787 16.7577C91.5509 16.7577 89.85 15.2412 89.85 12.2431C89.85 9.71089 91.2929 7.70052 93.6636 7.70052C96.0307 7.70052 97.2665 9.71002 97.2665 12.2563C97.2665 12.497 97.2446 13.018 97.2332 13.152ZM93.6478 9.72753C93.0246 9.72753 92.3321 10.1968 92.3321 11.3167H94.909C94.909 10.1977 94.2595 9.72753 93.6478 9.72753ZM85.8161 16.7577C84.9436 16.7577 84.4109 16.3908 84.0528 16.129L84.0475 18.9423L81.5557 19.4712L81.5548 7.866H83.7491L83.879 8.4798C84.223 8.15933 84.8541 7.70052 85.831 7.70052C87.5811 7.70052 89.2294 9.27309 89.2294 12.1678C89.2294 15.327 87.5987 16.7577 85.8161 16.7577ZM85.235 9.90265C84.6636 9.90265 84.3047 10.111 84.0449 10.3956L84.0598 14.0898C84.302 14.3516 84.6505 14.5617 85.235 14.5617C86.1566 14.5617 86.7745 13.5609 86.7745 12.2221C86.7745 10.9218 86.1469 9.90265 85.235 9.90265ZM77.9528 7.866H80.4542V16.58H77.9528V7.866ZM77.9528 5.08335L80.4542 4.55273V6.578L77.9528 7.10861V5.08335ZM75.2854 10.6723V16.58H72.7945V7.866H74.9493L75.1055 8.60063C75.6892 7.53065 76.8539 7.7478 77.1856 7.86688V10.1522C76.8688 10.0497 75.8744 9.9009 75.2854 10.6723ZM69.9437 13.5233C69.9437 14.9881 71.5166 14.5319 71.8352 14.405V16.4285C71.5034 16.6106 70.9013 16.7577 70.0868 16.7577C68.6079 16.7577 67.4976 15.6711 67.4976 14.1992L67.509 6.22338L69.942 5.70677L69.9437 7.866H71.8361V9.98583H69.9437V13.5233ZM66.8376 13.947C66.8376 15.7368 65.4096 16.7577 63.3373 16.7577C62.478 16.7577 61.5389 16.5914 60.612 16.1938V13.8201C61.4485 14.2736 62.514 14.6142 63.3399 14.6142C63.8955 14.6142 64.2957 14.4654 64.2957 14.0057C64.2957 12.8193 60.5076 13.2658 60.5076 10.5138C60.5076 8.75386 61.8549 7.70052 63.8762 7.70052C64.7021 7.70052 65.5272 7.8266 66.3531 8.15495V10.4972C65.5947 10.0883 64.6319 9.85712 63.8745 9.85712C63.3522 9.85712 63.0275 10.0077 63.0275 10.3956C63.0275 11.5146 66.8376 10.9823 66.8376 13.947Z" fill="white"/>
</svg>
