<svg width="29" height="28" viewBox="0 0 29 28" fill="none" xmlns="http://www.w3.org/2000/svg">
<g clip-path="url(#clip0_1679_20198)">
<path d="M9.37012 19.4265V20.7072C9.37012 21.2118 9.47234 21.7114 9.67093 22.1775C9.86953 22.6435 10.1606 23.0671 10.5276 23.4239C10.8946 23.7807 11.3302 24.0637 11.8095 24.2567C12.289 24.4498 12.8029 24.5492 13.3219 24.5492C13.8409 24.5492 14.3548 24.4498 14.8342 24.2567C15.3136 24.0637 15.7492 23.7807 16.1162 23.4239C16.4832 23.0671 16.7743 22.6435 16.9728 22.1775C17.1714 21.7114 17.2737 21.2118 17.2737 20.7072V19.4265" stroke="white" stroke-linecap="round" stroke-linejoin="round"/>
<path d="M23.8593 19.4265C23.8593 19.4265 21.2248 13.0232 21.2248 9.18119C21.2248 4.99597 17.6261 1.49719 13.3213 1.49719C9.01647 1.49719 5.41772 4.99597 5.41772 9.18119C5.41772 14.3039 2.7832 19.4265 2.7832 19.4265H23.8593Z" stroke="white" stroke-linecap="round" stroke-linejoin="round"/>
</g>
<defs>
<clipPath id="clip0_1679_20198">
<rect width="27.7714" height="27" fill="white" transform="translate(0.716797 0.515991)"/>
</clipPath>
</defs>
</svg>
