<svg width="28" height="28" viewBox="0 0 28 28" fill="none" xmlns="http://www.w3.org/2000/svg">
<g clip-path="url(#clip0_1679_20212)">
<path d="M11.5599 10.0099C12.2611 9.54138 13.0854 9.29132 13.9287 9.29132C15.0595 9.29132 16.144 9.74053 16.9436 10.5401C17.7432 11.3397 18.1924 12.4242 18.1924 13.555C18.1924 14.3983 17.9423 15.2226 17.4738 15.9238C17.0053 16.6249 16.3394 17.1714 15.5604 17.4941C14.7813 17.8168 13.924 17.9013 13.0969 17.7367C12.2698 17.5722 11.5101 17.1662 10.9138 16.5699C10.3176 15.9736 9.91148 15.2139 9.74697 14.3868C9.58245 13.5597 9.66689 12.7024 9.98959 11.9234C10.3123 11.1443 10.8588 10.4784 11.5599 10.0099ZM11.884 16.6151C12.4892 17.0195 13.2008 17.2354 13.9287 17.2354C14.9048 17.2354 15.8409 16.8476 16.5311 16.1574C17.2213 15.4672 17.6091 14.5311 17.6091 13.555C17.6091 12.8271 17.3933 12.1155 16.9888 11.5103C16.5844 10.905 16.0096 10.4333 15.3371 10.1548C14.6646 9.8762 13.9246 9.80331 13.2107 9.94532C12.4968 10.0873 11.841 10.4379 11.3263 10.9526C10.8116 11.4673 10.461 12.1231 10.319 12.837C10.177 13.5509 10.2499 14.2909 10.5285 14.9634C10.807 15.6359 11.2788 16.2107 11.884 16.6151Z" fill="white" stroke="white" stroke-width="0.5"/>
<mask id="path-2-inside-1_1679_20212" fill="white">
<path d="M24.2202 10.6663H22.6079C22.5704 10.666 22.5338 10.654 22.5034 10.632C22.473 10.61 22.4502 10.579 22.4382 10.5435C22.3333 10.2455 22.2127 9.95318 22.0771 9.66783C22.0602 9.63416 22.0542 9.59603 22.06 9.5588C22.0659 9.52156 22.0832 9.48708 22.1096 9.4602L23.2489 8.31914C23.3662 8.20178 23.4593 8.06245 23.5229 7.90911C23.5864 7.75577 23.6191 7.59141 23.6191 7.42543C23.6191 7.25945 23.5864 7.0951 23.5229 6.94176C23.4593 6.78841 23.3662 6.64909 23.2489 6.53173L20.9505 4.23517C20.8331 4.1178 20.6938 4.0247 20.5405 3.96117C20.3871 3.89765 20.2228 3.86496 20.0568 3.86496C19.8908 3.86496 19.7265 3.89765 19.5731 3.96117C19.4198 4.0247 19.2804 4.1178 19.1631 4.23517L18.0238 5.37442C17.9969 5.40083 17.9625 5.41817 17.9252 5.42399C17.888 5.42982 17.8499 5.42385 17.8162 5.40692C17.5309 5.27124 17.2386 5.15071 16.9405 5.04583C16.905 5.03381 16.874 5.01101 16.852 4.98059C16.83 4.95017 16.8181 4.91365 16.8178 4.87611V3.26383C16.8178 2.92864 16.6846 2.60718 16.4476 2.37017C16.2106 2.13315 15.8891 2 15.5539 2H12.3041C11.9689 2 11.6475 2.13315 11.4104 2.37017C11.1734 2.60718 11.0403 2.92864 11.0403 3.26383V4.87611C11.04 4.91365 11.028 4.95017 11.006 4.98059C10.984 5.01101 10.9531 5.03381 10.9175 5.04583C10.6195 5.15075 10.3272 5.27128 10.0418 5.40692C10.0082 5.42385 9.97005 5.42982 9.93282 5.42399C9.89558 5.41817 9.86111 5.40083 9.83422 5.37442L8.69316 4.23517C8.57581 4.1178 8.43648 4.0247 8.28313 3.96117C8.12979 3.89765 7.96544 3.86496 7.79946 3.86496C7.63348 3.86496 7.46912 3.89765 7.31578 3.96117C7.16244 4.0247 7.02311 4.1178 6.90575 4.23517L4.60919 6.53353C4.49182 6.65089 4.39872 6.79022 4.3352 6.94356C4.27168 7.09691 4.23898 7.26126 4.23898 7.42724C4.23898 7.59322 4.27168 7.75757 4.3352 7.91092C4.39872 8.06426 4.49182 8.20359 4.60919 8.32095L5.74844 9.4602C5.77485 9.48708 5.79219 9.52156 5.79802 9.5588C5.80384 9.59603 5.79787 9.63416 5.78094 9.66783C5.64527 9.95316 5.52473 10.2454 5.41985 10.5435C5.40784 10.579 5.38503 10.61 5.35462 10.632C5.3242 10.654 5.28768 10.666 5.25014 10.6663H3.63785C3.30266 10.6663 2.9812 10.7994 2.74419 11.0364C2.50718 11.2734 2.37402 11.5949 2.37402 11.9301V15.1799C2.37402 15.5151 2.50718 15.8366 2.74419 16.0736C2.9812 16.3106 3.30266 16.4438 3.63785 16.4438H5.25014C5.28768 16.444 5.3242 16.456 5.35462 16.478C5.38503 16.5 5.40784 16.531 5.41985 16.5665C5.52478 16.8645 5.64531 17.1568 5.78094 17.4422C5.79787 17.4758 5.80384 17.514 5.79802 17.5512C5.79219 17.5884 5.77485 17.6229 5.74844 17.6498L4.60919 18.7909C4.49182 18.9082 4.39872 19.0475 4.3352 19.2009C4.27168 19.3542 4.23898 19.5186 4.23898 19.6846C4.23898 19.8505 4.27168 20.0149 4.3352 20.1682C4.39872 20.3216 4.49182 20.4609 4.60919 20.5783L6.90756 22.8766C7.02491 22.994 7.16424 23.0871 7.31759 23.1506C7.47093 23.2142 7.63528 23.2468 7.80126 23.2468C7.96724 23.2468 8.1316 23.2142 8.28494 23.1506C8.43828 23.0871 8.57761 22.994 8.69497 22.8766L9.83422 21.7374C9.86111 21.711 9.89558 21.6936 9.93282 21.6878C9.97005 21.682 10.0082 21.688 10.0418 21.7049C10.3272 21.8406 10.6195 21.9611 10.9175 22.066C10.9531 22.078 10.984 22.1008 11.006 22.1312C11.028 22.1616 11.04 22.1982 11.0403 22.2357V23.8462C11.0403 24.1814 11.1734 24.5028 11.4104 24.7398C11.6475 24.9768 11.9689 25.11 12.3041 25.11H15.5539C15.8891 25.11 16.2106 24.9768 16.4476 24.7398C16.6846 24.5028 16.8178 24.1814 16.8178 23.8462V22.2339C16.8181 22.1963 16.83 22.1598 16.852 22.1294C16.874 22.099 16.905 22.0762 16.9405 22.0642C17.2386 21.9592 17.5308 21.8387 17.8162 21.7031C17.8499 21.6861 17.888 21.6802 17.9252 21.686C17.9625 21.6918 17.9969 21.7092 18.0238 21.7356L19.1649 22.8748C19.2822 22.9922 19.4216 23.0853 19.5749 23.1488C19.7283 23.2123 19.8926 23.245 20.0586 23.245C20.2246 23.245 20.3889 23.2123 20.5423 23.1488C20.6956 23.0853 20.8349 22.9922 20.9523 22.8748L23.2507 20.5765C23.368 20.4591 23.4611 20.3198 23.5247 20.1664C23.5882 20.0131 23.6209 19.8487 23.6209 19.6828C23.6209 19.5168 23.5882 19.3524 23.5247 19.1991C23.4611 19.0457 23.368 18.9064 23.2507 18.7891L22.1114 17.6498C22.085 17.6229 22.0677 17.5884 22.0618 17.5512C22.056 17.514 22.062 17.4758 22.0789 17.4422C22.2146 17.1568 22.3351 16.8646 22.44 16.5665C22.452 16.531 22.4748 16.5 22.5052 16.478C22.5357 16.456 22.5722 16.444 22.6097 16.4438H24.2202C24.5554 16.4438 24.8768 16.3106 25.1139 16.0736C25.3509 15.8366 25.484 15.5151 25.484 15.1799V11.9301C25.484 11.5949 25.3509 11.2734 25.1139 11.0364C24.8768 10.7994 24.5554 10.6663 24.2202 10.6663ZM24.4007 15.1799C24.4007 15.2278 24.3817 15.2737 24.3479 15.3076C24.314 15.3414 24.2681 15.3605 24.2202 15.3605H22.6079C22.346 15.3608 22.0907 15.4424 21.8773 15.5941C21.6638 15.7458 21.5027 15.96 21.4163 16.2072C21.3239 16.469 21.2179 16.7257 21.0985 16.9764C20.9841 17.2126 20.9461 17.4786 20.9898 17.7375C21.0335 17.9963 21.1567 18.2351 21.3423 18.4207L22.4815 19.56C22.5152 19.5938 22.534 19.6396 22.534 19.6873C22.534 19.735 22.5152 19.7807 22.4815 19.8146L20.185 22.1093C20.1511 22.1429 20.1054 22.1618 20.0577 22.1618C20.01 22.1618 19.9642 22.1429 19.9304 22.1093L18.7912 20.9701C18.6055 20.7845 18.3667 20.6613 18.1079 20.6176C17.849 20.5739 17.583 20.6119 17.3468 20.7263C17.0956 20.8457 16.8382 20.9518 16.5758 21.0441C16.329 21.1308 16.1151 21.292 15.9638 21.5054C15.8124 21.7189 15.731 21.974 15.7309 22.2357V23.8462C15.7309 23.8941 15.7119 23.94 15.678 23.9738C15.6441 24.0077 15.5982 24.0267 15.5503 24.0267H12.3041C12.2562 24.0267 12.2103 24.0077 12.1764 23.9738C12.1426 23.94 12.1236 23.8941 12.1236 23.8462V22.2339C12.1233 21.972 12.0416 21.7167 11.8899 21.5032C11.7382 21.2898 11.524 21.1287 11.2768 21.0423C11.015 20.9499 10.7583 20.8438 10.5077 20.7245C10.2714 20.6101 10.0054 20.5721 9.74656 20.6158C9.48773 20.6595 9.24891 20.7827 9.06329 20.9683L7.92403 22.1075C7.89021 22.1411 7.84445 22.16 7.79675 22.16C7.74905 22.16 7.70329 22.1411 7.66946 22.1075L5.37471 19.8109C5.34109 19.7771 5.32221 19.7314 5.32221 19.6837C5.32221 19.636 5.34109 19.5902 5.37471 19.5564L6.51396 18.4171C6.69956 18.2315 6.82274 17.9927 6.86642 17.7339C6.9101 17.475 6.8721 17.209 6.7577 16.9728C6.63832 16.7215 6.53225 16.4642 6.43994 16.2018C6.35272 15.9559 6.19154 15.743 5.97851 15.5924C5.76548 15.4418 5.51104 15.3607 5.25014 15.3605H3.63785C3.58997 15.3605 3.54404 15.3414 3.51019 15.3076C3.47633 15.2737 3.4573 15.2278 3.4573 15.1799V11.9301C3.4573 11.8822 3.47633 11.8363 3.51019 11.8024C3.54404 11.7686 3.58997 11.7495 3.63785 11.7495H5.25014C5.51201 11.7492 5.76732 11.6676 5.98079 11.5159C6.19425 11.3642 6.35533 11.15 6.44174 10.9028C6.53412 10.641 6.64019 10.3843 6.75951 10.1336C6.87391 9.89738 6.91191 9.63137 6.86823 9.37254C6.82455 9.1137 6.70136 8.87489 6.51577 8.68926L5.37652 7.55001C5.34289 7.51618 5.32402 7.47042 5.32402 7.42273C5.32402 7.37503 5.34289 7.32927 5.37652 7.29544L7.67307 5.00069C7.7069 4.96706 7.75266 4.94819 7.80036 4.94819C7.84806 4.94819 7.89382 4.96706 7.92765 5.00069L9.0669 6.13994C9.25253 6.32553 9.49134 6.44872 9.75017 6.4924C10.009 6.53608 10.275 6.49808 10.5113 6.38368C10.7625 6.2643 11.0198 6.15823 11.2822 6.06592C11.5281 5.9787 11.741 5.81751 11.8916 5.60448C12.0423 5.39145 12.1233 5.13702 12.1236 4.87611V3.26383C12.1236 3.21594 12.1426 3.17002 12.1764 3.13616C12.2103 3.1023 12.2562 3.08328 12.3041 3.08328H15.5539C15.6018 3.08328 15.6478 3.1023 15.6816 3.13616C15.7155 3.17002 15.7345 3.21594 15.7345 3.26383V4.87611C15.7348 5.13798 15.8164 5.3933 15.9681 5.60676C16.1198 5.82023 16.3341 5.9813 16.5813 6.06772C16.843 6.1601 17.0998 6.26617 17.3504 6.38548C17.5866 6.49988 17.8527 6.53788 18.1115 6.4942C18.3703 6.45053 18.6091 6.32734 18.7948 6.14175L19.934 5.00249C19.9678 4.96887 20.0136 4.94999 20.0613 4.94999C20.109 4.94999 20.1548 4.96887 20.1886 5.00249L22.4869 7.30086C22.5206 7.33468 22.5394 7.38044 22.5394 7.42814C22.5394 7.47584 22.5206 7.5216 22.4869 7.55543L21.3477 8.69468C21.1621 8.88031 21.0389 9.11912 20.9952 9.37795C20.9516 9.63679 20.9896 9.9028 21.104 10.1391C21.2233 10.3903 21.3294 10.6476 21.4217 10.91C21.5084 11.1569 21.6696 11.3707 21.8831 11.5221C22.0965 11.6734 22.3517 11.7548 22.6133 11.7549H24.2202C24.2681 11.7549 24.314 11.774 24.3479 11.8078C24.3817 11.8417 24.4007 11.8876 24.4007 11.9355V15.1799Z"/>
</mask>
<path d="M24.2202 10.6663H22.6079C22.5704 10.666 22.5338 10.654 22.5034 10.632C22.473 10.61 22.4502 10.579 22.4382 10.5435C22.3333 10.2455 22.2127 9.95318 22.0771 9.66783C22.0602 9.63416 22.0542 9.59603 22.06 9.5588C22.0659 9.52156 22.0832 9.48708 22.1096 9.4602L23.2489 8.31914C23.3662 8.20178 23.4593 8.06245 23.5229 7.90911C23.5864 7.75577 23.6191 7.59141 23.6191 7.42543C23.6191 7.25945 23.5864 7.0951 23.5229 6.94176C23.4593 6.78841 23.3662 6.64909 23.2489 6.53173L20.9505 4.23517C20.8331 4.1178 20.6938 4.0247 20.5405 3.96117C20.3871 3.89765 20.2228 3.86496 20.0568 3.86496C19.8908 3.86496 19.7265 3.89765 19.5731 3.96117C19.4198 4.0247 19.2804 4.1178 19.1631 4.23517L18.0238 5.37442C17.9969 5.40083 17.9625 5.41817 17.9252 5.42399C17.888 5.42982 17.8499 5.42385 17.8162 5.40692C17.5309 5.27124 17.2386 5.15071 16.9405 5.04583C16.905 5.03381 16.874 5.01101 16.852 4.98059C16.83 4.95017 16.8181 4.91365 16.8178 4.87611V3.26383C16.8178 2.92864 16.6846 2.60718 16.4476 2.37017C16.2106 2.13315 15.8891 2 15.5539 2H12.3041C11.9689 2 11.6475 2.13315 11.4104 2.37017C11.1734 2.60718 11.0403 2.92864 11.0403 3.26383V4.87611C11.04 4.91365 11.028 4.95017 11.006 4.98059C10.984 5.01101 10.9531 5.03381 10.9175 5.04583C10.6195 5.15075 10.3272 5.27128 10.0418 5.40692C10.0082 5.42385 9.97005 5.42982 9.93282 5.42399C9.89558 5.41817 9.86111 5.40083 9.83422 5.37442L8.69316 4.23517C8.57581 4.1178 8.43648 4.0247 8.28313 3.96117C8.12979 3.89765 7.96544 3.86496 7.79946 3.86496C7.63348 3.86496 7.46912 3.89765 7.31578 3.96117C7.16244 4.0247 7.02311 4.1178 6.90575 4.23517L4.60919 6.53353C4.49182 6.65089 4.39872 6.79022 4.3352 6.94356C4.27168 7.09691 4.23898 7.26126 4.23898 7.42724C4.23898 7.59322 4.27168 7.75757 4.3352 7.91092C4.39872 8.06426 4.49182 8.20359 4.60919 8.32095L5.74844 9.4602C5.77485 9.48708 5.79219 9.52156 5.79802 9.5588C5.80384 9.59603 5.79787 9.63416 5.78094 9.66783C5.64527 9.95316 5.52473 10.2454 5.41985 10.5435C5.40784 10.579 5.38503 10.61 5.35462 10.632C5.3242 10.654 5.28768 10.666 5.25014 10.6663H3.63785C3.30266 10.6663 2.9812 10.7994 2.74419 11.0364C2.50718 11.2734 2.37402 11.5949 2.37402 11.9301V15.1799C2.37402 15.5151 2.50718 15.8366 2.74419 16.0736C2.9812 16.3106 3.30266 16.4438 3.63785 16.4438H5.25014C5.28768 16.444 5.3242 16.456 5.35462 16.478C5.38503 16.5 5.40784 16.531 5.41985 16.5665C5.52478 16.8645 5.64531 17.1568 5.78094 17.4422C5.79787 17.4758 5.80384 17.514 5.79802 17.5512C5.79219 17.5884 5.77485 17.6229 5.74844 17.6498L4.60919 18.7909C4.49182 18.9082 4.39872 19.0475 4.3352 19.2009C4.27168 19.3542 4.23898 19.5186 4.23898 19.6846C4.23898 19.8505 4.27168 20.0149 4.3352 20.1682C4.39872 20.3216 4.49182 20.4609 4.60919 20.5783L6.90756 22.8766C7.02491 22.994 7.16424 23.0871 7.31759 23.1506C7.47093 23.2142 7.63528 23.2468 7.80126 23.2468C7.96724 23.2468 8.1316 23.2142 8.28494 23.1506C8.43828 23.0871 8.57761 22.994 8.69497 22.8766L9.83422 21.7374C9.86111 21.711 9.89558 21.6936 9.93282 21.6878C9.97005 21.682 10.0082 21.688 10.0418 21.7049C10.3272 21.8406 10.6195 21.9611 10.9175 22.066C10.9531 22.078 10.984 22.1008 11.006 22.1312C11.028 22.1616 11.04 22.1982 11.0403 22.2357V23.8462C11.0403 24.1814 11.1734 24.5028 11.4104 24.7398C11.6475 24.9768 11.9689 25.11 12.3041 25.11H15.5539C15.8891 25.11 16.2106 24.9768 16.4476 24.7398C16.6846 24.5028 16.8178 24.1814 16.8178 23.8462V22.2339C16.8181 22.1963 16.83 22.1598 16.852 22.1294C16.874 22.099 16.905 22.0762 16.9405 22.0642C17.2386 21.9592 17.5308 21.8387 17.8162 21.7031C17.8499 21.6861 17.888 21.6802 17.9252 21.686C17.9625 21.6918 17.9969 21.7092 18.0238 21.7356L19.1649 22.8748C19.2822 22.9922 19.4216 23.0853 19.5749 23.1488C19.7283 23.2123 19.8926 23.245 20.0586 23.245C20.2246 23.245 20.3889 23.2123 20.5423 23.1488C20.6956 23.0853 20.8349 22.9922 20.9523 22.8748L23.2507 20.5765C23.368 20.4591 23.4611 20.3198 23.5247 20.1664C23.5882 20.0131 23.6209 19.8487 23.6209 19.6828C23.6209 19.5168 23.5882 19.3524 23.5247 19.1991C23.4611 19.0457 23.368 18.9064 23.2507 18.7891L22.1114 17.6498C22.085 17.6229 22.0677 17.5884 22.0618 17.5512C22.056 17.514 22.062 17.4758 22.0789 17.4422C22.2146 17.1568 22.3351 16.8646 22.44 16.5665C22.452 16.531 22.4748 16.5 22.5052 16.478C22.5357 16.456 22.5722 16.444 22.6097 16.4438H24.2202C24.5554 16.4438 24.8768 16.3106 25.1139 16.0736C25.3509 15.8366 25.484 15.5151 25.484 15.1799V11.9301C25.484 11.5949 25.3509 11.2734 25.1139 11.0364C24.8768 10.7994 24.5554 10.6663 24.2202 10.6663ZM24.4007 15.1799C24.4007 15.2278 24.3817 15.2737 24.3479 15.3076C24.314 15.3414 24.2681 15.3605 24.2202 15.3605H22.6079C22.346 15.3608 22.0907 15.4424 21.8773 15.5941C21.6638 15.7458 21.5027 15.96 21.4163 16.2072C21.3239 16.469 21.2179 16.7257 21.0985 16.9764C20.9841 17.2126 20.9461 17.4786 20.9898 17.7375C21.0335 17.9963 21.1567 18.2351 21.3423 18.4207L22.4815 19.56C22.5152 19.5938 22.534 19.6396 22.534 19.6873C22.534 19.735 22.5152 19.7807 22.4815 19.8146L20.185 22.1093C20.1511 22.1429 20.1054 22.1618 20.0577 22.1618C20.01 22.1618 19.9642 22.1429 19.9304 22.1093L18.7912 20.9701C18.6055 20.7845 18.3667 20.6613 18.1079 20.6176C17.849 20.5739 17.583 20.6119 17.3468 20.7263C17.0956 20.8457 16.8382 20.9518 16.5758 21.0441C16.329 21.1308 16.1151 21.292 15.9638 21.5054C15.8124 21.7189 15.731 21.974 15.7309 22.2357V23.8462C15.7309 23.8941 15.7119 23.94 15.678 23.9738C15.6441 24.0077 15.5982 24.0267 15.5503 24.0267H12.3041C12.2562 24.0267 12.2103 24.0077 12.1764 23.9738C12.1426 23.94 12.1236 23.8941 12.1236 23.8462V22.2339C12.1233 21.972 12.0416 21.7167 11.8899 21.5032C11.7382 21.2898 11.524 21.1287 11.2768 21.0423C11.015 20.9499 10.7583 20.8438 10.5077 20.7245C10.2714 20.6101 10.0054 20.5721 9.74656 20.6158C9.48773 20.6595 9.24891 20.7827 9.06329 20.9683L7.92403 22.1075C7.89021 22.1411 7.84445 22.16 7.79675 22.16C7.74905 22.16 7.70329 22.1411 7.66946 22.1075L5.37471 19.8109C5.34109 19.7771 5.32221 19.7314 5.32221 19.6837C5.32221 19.636 5.34109 19.5902 5.37471 19.5564L6.51396 18.4171C6.69956 18.2315 6.82274 17.9927 6.86642 17.7339C6.9101 17.475 6.8721 17.209 6.7577 16.9728C6.63832 16.7215 6.53225 16.4642 6.43994 16.2018C6.35272 15.9559 6.19154 15.743 5.97851 15.5924C5.76548 15.4418 5.51104 15.3607 5.25014 15.3605H3.63785C3.58997 15.3605 3.54404 15.3414 3.51019 15.3076C3.47633 15.2737 3.4573 15.2278 3.4573 15.1799V11.9301C3.4573 11.8822 3.47633 11.8363 3.51019 11.8024C3.54404 11.7686 3.58997 11.7495 3.63785 11.7495H5.25014C5.51201 11.7492 5.76732 11.6676 5.98079 11.5159C6.19425 11.3642 6.35533 11.15 6.44174 10.9028C6.53412 10.641 6.64019 10.3843 6.75951 10.1336C6.87391 9.89738 6.91191 9.63137 6.86823 9.37254C6.82455 9.1137 6.70136 8.87489 6.51577 8.68926L5.37652 7.55001C5.34289 7.51618 5.32402 7.47042 5.32402 7.42273C5.32402 7.37503 5.34289 7.32927 5.37652 7.29544L7.67307 5.00069C7.7069 4.96706 7.75266 4.94819 7.80036 4.94819C7.84806 4.94819 7.89382 4.96706 7.92765 5.00069L9.0669 6.13994C9.25253 6.32553 9.49134 6.44872 9.75017 6.4924C10.009 6.53608 10.275 6.49808 10.5113 6.38368C10.7625 6.2643 11.0198 6.15823 11.2822 6.06592C11.5281 5.9787 11.741 5.81751 11.8916 5.60448C12.0423 5.39145 12.1233 5.13702 12.1236 4.87611V3.26383C12.1236 3.21594 12.1426 3.17002 12.1764 3.13616C12.2103 3.1023 12.2562 3.08328 12.3041 3.08328H15.5539C15.6018 3.08328 15.6478 3.1023 15.6816 3.13616C15.7155 3.17002 15.7345 3.21594 15.7345 3.26383V4.87611C15.7348 5.13798 15.8164 5.3933 15.9681 5.60676C16.1198 5.82023 16.3341 5.9813 16.5813 6.06772C16.843 6.1601 17.0998 6.26617 17.3504 6.38548C17.5866 6.49988 17.8527 6.53788 18.1115 6.4942C18.3703 6.45053 18.6091 6.32734 18.7948 6.14175L19.934 5.00249C19.9678 4.96887 20.0136 4.94999 20.0613 4.94999C20.109 4.94999 20.1548 4.96887 20.1886 5.00249L22.4869 7.30086C22.5206 7.33468 22.5394 7.38044 22.5394 7.42814C22.5394 7.47584 22.5206 7.5216 22.4869 7.55543L21.3477 8.69468C21.1621 8.88031 21.0389 9.11912 20.9952 9.37795C20.9516 9.63679 20.9896 9.9028 21.104 10.1391C21.2233 10.3903 21.3294 10.6476 21.4217 10.91C21.5084 11.1569 21.6696 11.3707 21.8831 11.5221C22.0965 11.6734 22.3517 11.7548 22.6133 11.7549H24.2202C24.2681 11.7549 24.314 11.774 24.3479 11.8078C24.3817 11.8417 24.4007 11.8876 24.4007 11.9355V15.1799Z" fill="white" stroke="white" mask="url(#path-2-inside-1_1679_20212)"/>
</g>
<defs>
<clipPath id="clip0_1679_20212">
<rect width="23.11" height="23.11" fill="white" transform="translate(2.37402 2)"/>
</clipPath>
</defs>
</svg>
