<svg width="16" height="16" viewBox="0 0 16 16" fill="none" xmlns="http://www.w3.org/2000/svg">
<path d="M7.54944 2.33398H2.59111C2.21538 2.33398 1.85505 2.48324 1.58937 2.74892C1.32369 3.01459 1.17444 3.37493 1.17444 3.75065V13.6673C1.17444 14.043 1.32369 14.4034 1.58937 14.6691C1.85505 14.9347 2.21538 15.084 2.59111 15.084H12.5078C12.8835 15.084 13.2438 14.9347 13.5095 14.6691C13.7752 14.4034 13.9244 14.043 13.9244 13.6673V8.70898" stroke="black" stroke-linecap="round" stroke-linejoin="round"/>
<path d="M12.8619 1.27018C13.1437 0.988388 13.5259 0.830078 13.9244 0.830078C14.323 0.830078 14.7051 0.988388 14.9869 1.27018C15.2687 1.55197 15.427 1.93417 15.427 2.33268C15.427 2.73119 15.2687 3.11339 14.9869 3.39518L8.25777 10.1243L5.42444 10.8327L6.13277 7.99935L12.8619 1.27018Z" stroke="black" stroke-linecap="round" stroke-linejoin="round"/>
</svg>
