<svg width="21" height="22" viewBox="0 0 21 22" fill="none" xmlns="http://www.w3.org/2000/svg">
<path fill-rule="evenodd" clip-rule="evenodd" d="M15.4905 19.9747L11.7493 17.7455C11.3575 17.7361 10.9657 17.708 10.5925 17.6518C10.3406 17.6143 10.126 17.4457 10.0327 17.2022C9.93941 16.9586 9.98606 16.6964 10.154 16.4997C10.7697 15.7784 11.0869 14.9167 11.0869 13.9988C11.0869 11.7321 9.09976 9.88685 6.65544 9.88685C5.74115 9.88685 4.86418 10.1398 4.12715 10.6268C3.9219 10.758 3.67001 10.7767 3.4461 10.6737C3.23152 10.5706 3.07293 10.3645 3.04494 10.121C3.01695 9.85875 2.99829 9.59651 2.99829 9.32487C2.99829 4.67903 7.00997 0.904297 11.9359 0.904297C16.8619 0.904297 20.8736 4.67903 20.8736 9.32487C20.8736 11.8726 19.698 14.2142 17.6269 15.8159L17.9441 18.3637C18.0187 19.0006 17.7389 19.6001 17.2071 19.9466C16.9458 20.1152 16.638 20.2089 16.3301 20.2089C16.0409 20.2089 15.7517 20.1339 15.4905 19.9747ZM12.2998 16.4342L16.2088 18.7664C16.3115 18.832 16.3954 18.8039 16.4514 18.7664C16.498 18.7383 16.5727 18.6634 16.554 18.5323L16.1902 15.5724C16.1622 15.3101 16.2741 15.0573 16.4794 14.9074C18.3826 13.568 19.4741 11.526 19.4741 9.30612C19.4741 5.43771 16.0969 2.29054 11.9359 2.29054C7.93358 2.29054 4.6496 5.21296 4.40704 8.88467C5.10675 8.61304 5.86244 8.46316 6.64612 8.46316C9.86479 8.46316 12.477 10.9359 12.477 13.9801C12.4864 14.8043 12.2904 15.6005 11.9266 16.3311C12.0572 16.3217 12.1878 16.3592 12.2998 16.4342Z" fill="black"/>
<path fill-rule="evenodd" clip-rule="evenodd" d="M3.2405 20.8272C2.82068 20.5556 2.59678 20.0873 2.65275 19.5908L2.83934 18.1483C1.57986 17.118 0.833496 15.5912 0.833496 13.9895C0.833496 12.1631 1.78511 10.4583 3.38045 9.43739C4.34139 8.80982 5.47957 8.47266 6.66442 8.47266C9.88308 8.47266 12.4953 10.9454 12.4953 13.9895C12.4953 15.2259 12.0475 16.4436 11.2265 17.4084C10.1723 18.6916 8.59562 19.4409 6.86034 19.4971L4.58395 20.8553C4.3787 20.9771 4.15479 21.0333 3.93089 21.0333C3.68832 21.0333 3.45508 20.9677 3.2405 20.8272ZM4.1268 10.6176C2.93263 11.3857 2.22359 12.6408 2.22359 13.9895C2.22359 15.2915 2.858 16.4811 3.97754 17.2492C4.19212 17.399 4.30406 17.6519 4.27607 17.9142L4.07082 19.5159L6.30057 18.1858C6.41252 18.1203 6.53381 18.0828 6.65509 18.0828C8.02652 18.0828 9.32333 17.4927 10.1443 16.4905C10.7601 15.7599 11.0866 14.8981 11.0866 13.9802C11.0866 11.7228 9.09941 9.87765 6.65509 9.87765C5.7408 9.87765 4.86383 10.1305 4.1268 10.6176Z" fill="black"/>
</svg>
