<svg width="21" height="21" viewBox="0 0 21 21" fill="none" xmlns="http://www.w3.org/2000/svg">
<path fill-rule="evenodd" clip-rule="evenodd" d="M7.77996 9.93464C7.73761 9.9263 7.67831 9.9263 7.62749 9.93464C5.17095 9.85964 3.31583 7.95964 3.31583 5.61797C3.31583 3.23464 5.28954 1.29297 7.7122 1.29297C10.1349 1.29297 12.1086 3.23464 12.1086 5.61797C12.1001 7.95964 10.2365 9.85964 7.87314 9.93464C7.86467 9.93464 7.8562 9.93464 7.84773 9.93464C7.82232 9.93464 7.80537 9.93464 7.77996 9.93464ZM4.58646 5.61797C4.58646 7.28464 5.90791 8.6263 7.5936 8.68464C7.64443 8.6763 7.75455 8.6763 7.86467 8.68464C9.52495 8.60964 10.8295 7.26797 10.8379 5.61797C10.8379 3.9263 9.43177 2.54297 7.7122 2.54297C5.99262 2.54297 4.58646 3.9263 4.58646 5.61797Z" fill="black"/>
<path d="M14.0228 10.0359C13.6755 10.0693 13.3197 9.8276 13.2858 9.48594C13.252 9.14427 13.4637 8.83594 13.811 8.79427C13.9127 8.78594 14.0228 8.78594 14.116 8.78594C15.3527 8.71927 16.3184 7.71927 16.3184 6.49427C16.3184 5.2276 15.2765 4.2026 13.9889 4.2026C13.6416 4.21094 13.3536 3.9276 13.3536 3.58594C13.3536 3.24427 13.6416 2.96094 13.9889 2.96094C15.9711 2.96094 17.589 4.5526 17.589 6.5026C17.589 8.41927 16.0643 9.96927 14.1245 10.0443C14.116 10.0443 14.1075 10.0443 14.099 10.0443C14.0736 10.0443 14.0482 10.0443 14.0228 10.0359Z" fill="black"/>
<path fill-rule="evenodd" clip-rule="evenodd" d="M3.26421 17.7943C2.08677 17.0276 1.44298 15.9776 1.44298 14.8359C1.44298 13.6943 2.08677 12.6359 3.26421 11.8609C5.80546 10.2026 9.92229 10.2026 12.4466 11.8609C13.6156 12.6276 14.2678 13.6776 14.2678 14.8193C14.2678 15.9609 13.624 17.0193 12.4466 17.7943C11.176 18.6276 9.51569 19.0443 7.8554 19.0443C6.19512 19.0443 4.52637 18.6276 3.26421 17.7943ZM2.71361 14.8443C2.71361 15.5526 3.16256 16.2359 3.96729 16.7609C6.07653 18.1526 9.63428 18.1526 11.7435 16.7609C12.5567 16.2276 12.9972 15.5443 12.9972 14.8276C12.9972 14.1193 12.5482 13.4359 11.7435 12.9109C9.63428 11.5276 6.07653 11.5276 3.96729 12.9109C3.15409 13.4443 2.71361 14.1276 2.71361 14.8443Z" fill="black"/>
<path d="M15.0053 17.0436C14.9375 16.702 15.1577 16.377 15.4966 16.302C16.0302 16.1936 16.5215 15.9853 16.9027 15.6936C17.3856 15.3353 17.6482 14.8853 17.6482 14.4103C17.6482 13.9353 17.3856 13.4853 16.9112 13.1353C16.5385 12.852 16.0726 12.652 15.522 12.527C15.1831 12.452 14.9629 12.1186 15.0391 11.777C15.1154 11.4436 15.4542 11.227 15.8015 11.302C16.53 11.4603 17.1653 11.7436 17.682 12.1353C18.4698 12.7186 18.9188 13.5436 18.9188 14.4103C18.9188 15.277 18.4614 16.102 17.6736 16.6936C17.1484 17.0936 16.4877 17.3853 15.7592 17.527C15.7083 17.5436 15.666 17.5436 15.6236 17.5436C15.3272 17.5436 15.0646 17.3436 15.0053 17.0436Z" fill="black"/>
</svg>
