<svg width="16" height="24" viewBox="0 0 16 24" fill="none" xmlns="http://www.w3.org/2000/svg">
<path d="M13.4101 0.525391C14.5112 0.525391 15.4073 1.42151 15.4073 2.52259V21.0278C15.4073 22.1289 14.5112 23.025 13.4101 23.025H2.10841C1.00732 23.025 0.111206 22.1289 0.111206 21.0278V2.52259C0.111206 1.42151 1.00732 0.525391 2.10841 0.525391H13.4101ZM14.2657 21.0278V2.52259C14.2657 2.0507 13.8819 1.6658 13.41 1.6658H2.10838C1.63649 1.6658 1.25276 2.0507 1.25276 2.52259V21.0278C1.25276 21.4997 1.63649 21.8834 2.10838 21.8834H13.41C13.8819 21.8834 14.2657 21.4997 14.2657 21.0278ZM12.035 4.42174C12.5057 4.42174 12.8906 4.80546 12.8906 5.27736V7.53793C12.8906 8.00983 12.5057 8.39355 12.035 8.39355H3.48371C3.01181 8.39355 2.62692 8.00983 2.62692 7.53793V5.27736C2.62692 4.80546 3.01181 4.42174 3.48371 4.42174H12.035ZM3.76851 7.25194H11.7502V5.56218H3.76851V7.25194ZM4.14184 10.4583C4.66258 10.4583 5.08563 10.8802 5.08563 11.4021C5.08563 11.9228 4.66258 12.3459 4.14184 12.3459C3.6211 12.3459 3.19805 11.9228 3.19805 11.4021C3.19805 10.8802 3.6211 10.4583 4.14184 10.4583ZM7.75923 10.4583C8.27997 10.4583 8.70302 10.8802 8.70302 11.4021C8.70302 11.9228 8.27997 12.3459 7.75923 12.3459C7.23848 12.3459 6.81544 11.9228 6.81544 11.4021C6.81544 10.8802 7.23848 10.4583 7.75923 10.4583ZM11.3761 10.3798C11.8969 10.3798 12.3199 10.8016 12.3199 11.3236C12.3199 11.8443 11.8969 12.2674 11.3761 12.2674C10.8554 12.2674 10.4324 11.8443 10.4324 11.3236C10.4324 10.8016 10.8554 10.3798 11.3761 10.3798ZM4.14184 13.8401C4.66258 13.8401 5.08563 14.2619 5.08563 14.7839C5.08563 15.3046 4.66258 15.7265 4.14184 15.7265C3.6211 15.7265 3.19805 15.3046 3.19805 14.7839C3.19805 14.2619 3.6211 13.8401 4.14184 13.8401ZM7.75923 13.8401C8.27997 13.8401 8.70302 14.2619 8.70302 14.7839C8.70302 15.3046 8.27997 15.7265 7.75923 15.7265C7.23848 15.7265 6.81544 15.3046 6.81544 14.7839C6.81544 14.2619 7.23848 13.8401 7.75923 13.8401ZM11.3761 13.8401C11.8969 13.8401 12.3199 14.2619 12.3199 14.7839C12.3199 15.3046 11.8969 15.7265 11.3761 15.7265C10.8554 15.7265 10.4324 15.3046 10.4324 14.7839C10.4324 14.2619 10.8554 13.8401 11.3761 13.8401ZM4.14184 17.2998C4.66258 17.2998 5.08563 17.7217 5.08563 18.2436C5.08563 18.7644 4.66258 19.1862 4.14184 19.1862C3.6211 19.1862 3.19805 18.7644 3.19805 18.2436C3.19805 17.7217 3.6211 17.2998 4.14184 17.2998ZM7.75923 17.2998C8.27997 17.2998 8.70302 17.7217 8.70302 18.2436C8.70302 18.7644 8.27997 19.1862 7.75923 19.1862C7.23848 19.1862 6.81544 18.7644 6.81544 18.2436C6.81544 17.7217 7.23848 17.2998 7.75923 17.2998ZM11.3761 17.2998C11.8969 17.2998 12.3199 17.7217 12.3199 18.2436C12.3199 18.7644 11.8969 19.1862 11.3761 19.1862C10.8554 19.1862 10.4324 18.7644 10.4324 18.2436C10.4324 17.7217 10.8554 17.2998 11.3761 17.2998Z" fill="black"/>
</svg>
