<svg width="20" height="20" viewBox="0 0 20 20" fill="none" xmlns="http://www.w3.org/2000/svg">
<path d="M17.8577 16.746C17.8577 17.627 17.1417 18.37 16.2607 18.37H3.4817C2.6007 18.37 1.8847 17.627 1.8847 16.746V3.96703C1.8847 3.08603 2.6007 2.39603 3.4817 2.39603H10.9357V1.33203H3.4817C2.0137 1.33203 0.819702 2.50003 0.819702 3.96803V16.746C0.819702 18.214 2.0137 19.434 3.4817 19.434H16.2597C17.7277 19.434 18.9217 18.213 18.9217 16.746V9.31803H17.8567L17.8577 16.746Z" fill="black"/>
<path d="M19.0577 1.17016C18.2537 0.365156 16.8507 0.365156 16.0457 1.17016L8.90273 8.31316C8.83473 8.38116 8.78573 8.46716 8.76273 8.56016L8.01073 11.5712C7.96573 11.7522 8.01873 11.9442 8.15073 12.0772C8.25173 12.1782 8.38773 12.2332 8.52673 12.2332C8.56973 12.2332 8.61273 12.2282 8.65573 12.2172L11.6677 11.4642C11.7617 11.4412 11.8467 11.3922 11.9147 11.3242L19.0577 4.18116C19.4597 3.77916 19.6817 3.24416 19.6817 2.67516C19.6817 2.10616 19.4607 1.57216 19.0577 1.17016ZM11.2667 10.4672L9.25873 10.9692L9.76073 8.96116L15.6697 3.05216L17.1757 4.55816L11.2667 10.4672ZM18.3047 3.42816L17.9287 3.80416L16.4227 2.29816L16.7987 1.92216C17.2007 1.52016 17.9027 1.52016 18.3047 1.92216C18.5057 2.12316 18.6167 2.39016 18.6167 2.67516C18.6167 2.96016 18.5057 3.22716 18.3047 3.42816Z" fill="black"/>
</svg>
