<svg width="16" height="21" viewBox="0 0 16 21" fill="none" xmlns="http://www.w3.org/2000/svg">
<path d="M1.70342 19.672C1.21561 19.672 0.819702 19.2761 0.819702 18.7882V9.06731C0.819702 8.5795 1.21561 8.18359 1.70342 8.18359H14.0755C14.5633 8.18359 14.9592 8.5795 14.9592 9.06731V18.7882C14.9592 19.2761 14.5633 19.672 14.0755 19.672H1.70342Z" stroke="black" stroke-miterlimit="10" stroke-linecap="round"/>
<path d="M12.3082 8.1835C12.3082 7.72176 12.3082 5.55222 12.3082 5.09048C12.3082 2.65008 10.3299 0.671875 7.88955 0.671875C5.44916 0.671875 3.47095 2.65008 3.47095 5.09048C3.47095 5.55222 3.47095 7.72176 3.47095 8.1835" stroke="black" stroke-miterlimit="10" stroke-linecap="round"/>
<path d="M9.21513 13.0443C9.21513 12.3122 8.62171 11.7188 7.88955 11.7188C7.15738 11.7188 6.56396 12.3122 6.56396 13.0443C6.56396 13.4354 6.73673 13.7836 7.00583 14.0261V15.2536C7.00583 15.7414 7.40173 16.1374 7.88955 16.1374C8.37736 16.1374 8.77327 15.7414 8.77327 15.2536V14.0261C9.04236 13.7836 9.21513 13.4354 9.21513 13.0443Z" fill="black"/>
</svg>
