<svg width="20" height="19" viewBox="0 0 20 19" fill="none" xmlns="http://www.w3.org/2000/svg">
<path fill-rule="evenodd" clip-rule="evenodd" d="M0.831446 9.5427C0.831446 6.93693 0.827764 4.331 0.833207 1.72523C0.835449 0.663168 0.896604 0.609067 1.97291 0.608109C5.22729 0.605396 8.48152 0.603322 11.7359 0.605237C12.7731 0.606035 12.802 0.63875 12.8031 1.69555C12.8052 3.50369 12.8074 5.31184 12.7994 7.11998C12.798 7.44873 12.8831 7.91011 12.3676 7.89542C11.9163 7.8825 11.8907 7.45831 11.8893 7.10817C11.8824 5.48627 11.8673 3.86388 11.8974 2.24246C11.908 1.67544 11.7042 1.51489 11.153 1.5192C8.27227 1.54059 5.39123 1.5441 2.51067 1.51601C1.87253 1.50979 1.69115 1.71837 1.69435 2.34508C1.71884 7.18445 1.72077 12.024 1.70011 16.8635C1.69723 17.5201 1.89799 17.744 2.56526 17.7373C5.39251 17.7087 8.2204 17.7044 11.0475 17.7405C11.742 17.7494 11.9162 17.4942 11.8976 16.8586C11.8609 15.61 11.8864 14.3594 11.8838 13.1097C11.883 12.7233 11.8939 12.2741 12.3902 12.2776C12.8804 12.2809 12.7997 12.7458 12.8008 13.0795C12.8074 14.6483 12.7864 16.2175 12.8159 17.7858C12.8271 18.3745 12.5929 18.6059 12.0245 18.6045C8.58334 18.5967 5.14229 18.5866 1.70139 18.6035C0.959041 18.607 0.816398 18.2251 0.81976 17.5996C0.833848 14.914 0.825843 12.2284 0.825843 9.5427C0.827444 9.5427 0.829365 9.5427 0.831446 9.5427Z" fill="black"/>
<path fill-rule="evenodd" clip-rule="evenodd" d="M18.0475 9.14674C17.0708 8.194 16.2241 7.40483 15.4262 6.5697C15.1538 6.28452 14.4698 5.97731 14.9174 5.5212C15.4086 5.02057 15.7476 5.70138 16.0593 6.00077C17.0966 6.9966 18.0925 8.03537 19.1296 9.03152C19.5654 9.45012 19.6155 9.78223 19.157 10.2241C17.9683 11.3695 16.8089 12.5452 15.6364 13.7073C15.4178 13.9239 15.1934 14.1248 14.899 13.8043C14.6327 13.5149 14.8508 13.3128 15.0349 13.1263C15.8013 12.3484 16.5798 11.5827 17.3465 10.8052C17.4887 10.6611 17.7608 10.5395 17.6867 10.3114C17.59 10.0146 17.2752 10.1352 17.0558 10.1348C14.1481 10.1274 11.2407 10.1314 8.33306 10.1325C8.17297 10.1327 8.01287 10.1349 7.85294 10.132C7.45767 10.1253 6.92536 10.197 6.91063 9.66254C6.89398 9.05402 7.47 9.22574 7.83197 9.22431C10.9796 9.21218 14.1273 9.21744 17.2751 9.21425C17.4499 9.21409 17.6252 9.18473 18.0475 9.14674Z" fill="black"/>
</svg>
