<svg width="21" height="19" viewBox="0 0 21 19" fill="none" xmlns="http://www.w3.org/2000/svg">
<path d="M12.7103 5.02344H3.9906V5.7801H12.7103V5.02344Z" fill="black"/>
<path d="M12.7103 7.29395H3.9906V8.05061H12.7103V7.29395Z" fill="black"/>
<path d="M10.7285 9.56348H3.9906V10.3201H10.7285V9.56348Z" fill="black"/>
<path d="M8.74679 11.834H3.9906V12.5907H8.74679V11.834Z" fill="black"/>
<path d="M8.74679 14.1035H3.9906V14.8602H8.74679V14.1035Z" fill="black"/>
<path d="M15.881 6.75884V2.97551L12.8743 0.105469H0.819702V18.2655H15.881V11.6121L20.0086 7.67214L17.4664 5.24551L15.881 6.75884ZM15.4846 8.2071L16.9059 9.5638L12.1497 14.1038H10.7284V12.7471L15.4846 8.2071ZM13.1065 1.3971L14.5278 2.7538H13.1065V1.3971ZM15.0883 17.5088H1.6124V0.862135H12.3138V3.51047H15.0883V7.51551L9.93574 12.4338V14.8605H12.4779L15.0883 12.3688V17.5088ZM17.4664 9.02884L16.0451 7.67214L17.4664 6.31543L18.8877 7.67214L17.4664 9.02884Z" fill="black"/>
</svg>
