<svg width="18" height="19" viewBox="0 0 18 19" fill="none" xmlns="http://www.w3.org/2000/svg">
<path d="M9.9452 0.869184L15.3239 3.25771C16.8737 3.94144 16.8737 5.07189 15.3239 5.75563L9.9452 8.14415C9.3344 8.41765 8.33158 8.41765 7.72078 8.14415L2.34204 5.75563C0.792236 5.07189 0.792236 3.94144 2.34204 3.25771L7.72078 0.869184C8.33158 0.595689 9.3344 0.595689 9.9452 0.869184Z" stroke="black" stroke-width="0.8" stroke-linecap="round" stroke-linejoin="round"/>
<path d="M0.819702 8.23535C0.819702 9.00114 1.39404 9.88544 2.09601 10.1954L8.28611 12.9486C8.76017 13.1583 9.29805 13.1583 9.76299 12.9486L15.9531 10.1954C16.6551 9.88544 17.2294 9.00114 17.2294 8.23535" stroke="black" stroke-width="0.8" stroke-linecap="round" stroke-linejoin="round"/>
<path d="M0.819702 12.7939C0.819702 13.6418 1.32111 14.4076 2.09601 14.754L8.28611 17.5072C8.76017 17.7169 9.29805 17.7169 9.76299 17.5072L15.9531 14.754C16.728 14.4076 17.2294 13.6418 17.2294 12.7939" stroke="black" stroke-width="0.8" stroke-linecap="round" stroke-linejoin="round"/>
</svg>
