<svg width="15" height="18" viewBox="0 0 15 18" fill="none" xmlns="http://www.w3.org/2000/svg">
<path fill-rule="evenodd" clip-rule="evenodd" d="M10.5697 3.83398C10.5697 5.62891 9.11463 7.08398 7.3197 7.08398C5.52478 7.08398 4.0697 5.62891 4.0697 3.83398C4.0697 2.03906 5.52478 0.583984 7.3197 0.583984C9.11463 0.583984 10.5697 2.03906 10.5697 3.83398Z" stroke="black" stroke-linecap="round" stroke-linejoin="round"/>
<path d="M1.31948 13.2805C1.31129 13.0045 1.08089 12.7874 0.804872 12.7956C0.528851 12.8038 0.311731 13.0342 0.319922 13.3102L1.31948 13.2805ZM4.82016 17.0701V16.5701C4.81543 16.5701 4.8107 16.5701 4.80597 16.5703L4.82016 17.0701ZM9.81925 17.0701L9.83344 16.5703C9.82871 16.5701 9.82398 16.5701 9.81925 16.5701V17.0701ZM14.3195 13.3102C14.3277 13.0342 14.1106 12.8038 13.8345 12.7956C13.5585 12.7874 13.3281 13.0045 13.3199 13.2805L14.3195 13.3102ZM13.3199 13.1388C13.3281 13.4148 13.5585 13.632 13.8345 13.6238C14.1106 13.6156 14.3277 13.3852 14.3195 13.1092L13.3199 13.1388ZM9.81925 9.34925V9.84925C9.82398 9.84925 9.82871 9.84919 9.83344 9.84905L9.81925 9.34925ZM4.82016 9.34925L4.80597 9.84905C4.8107 9.84919 4.81543 9.84925 4.82016 9.84925V9.34925ZM0.319922 13.1092C0.311731 13.3852 0.528851 13.6156 0.804872 13.6238C1.08089 13.632 1.31129 13.4148 1.31948 13.1388L0.319922 13.1092ZM0.319922 13.3102C0.391799 15.7324 2.41204 17.6386 4.83435 17.5699L4.80597 16.5703C2.93522 16.6234 1.37499 15.1512 1.31948 13.2805L0.319922 13.3102ZM4.82016 17.5701H9.81925V16.5701H4.82016V17.5701ZM9.80506 17.5699C12.2274 17.6386 14.2476 15.7324 14.3195 13.3102L13.3199 13.2805C13.2644 15.1512 11.7042 16.6234 9.83344 16.5703L9.80506 17.5699ZM14.3195 13.1092C14.2476 10.6869 12.2274 8.78069 9.80506 8.84946L9.83344 9.84905C11.7042 9.79594 13.2644 11.2681 13.3199 13.1388L14.3195 13.1092ZM9.81925 8.84925H4.82016V9.84925H9.81925V8.84925ZM4.83435 8.84946C2.41204 8.78069 0.391799 10.6869 0.319922 13.1092L1.31948 13.1388C1.37499 11.2681 2.93522 9.79594 4.80597 9.84905L4.83435 8.84946Z" fill="black"/>
</svg>
