<svg width="22" height="22" viewBox="0 0 22 22" fill="none" xmlns="http://www.w3.org/2000/svg">
<path d="M16.9597 20.6198C16.0797 20.8798 15.0397 20.9998 13.8197 20.9998H7.81969C6.59969 20.9998 5.55969 20.8798 4.67969 20.6198C4.89969 18.0198 7.56969 15.9697 10.8197 15.9697C14.0697 15.9697 16.7397 18.0198 16.9597 20.6198Z" stroke="black" stroke-linecap="round" stroke-linejoin="round"/>
<path d="M0.819702 11.94V14C0.819702 17.78 1.9597 19.85 4.6797 20.62C4.8997 18.02 7.5697 15.97 10.8197 15.97C14.0697 15.97 16.7397 18.02 16.9597 20.62C19.6797 19.85 20.8197 17.78 20.8197 14V8C20.8197 3 18.8197 1 13.8197 1H7.8197C2.8197 1 0.819702 3 0.819702 8V11.94ZM10.8197 13.17C8.8397 13.17 7.2397 11.56 7.2397 9.58002C7.2397 7.60002 8.8397 6 10.8197 6C12.7997 6 14.3997 7.60002 14.3997 9.58002C14.3997 11.56 12.7997 13.17 10.8197 13.17Z" stroke="black" stroke-linecap="round" stroke-linejoin="round"/>
<path d="M14.3997 9.58002C14.3997 11.56 12.7997 13.17 10.8197 13.17C8.83975 13.17 7.23975 11.56 7.23975 9.58002C7.23975 7.60002 8.83975 6 10.8197 6C12.7997 6 14.3997 7.60002 14.3997 9.58002Z" stroke="black" stroke-linecap="round" stroke-linejoin="round"/>
</svg>
