<svg width="20" height="21" viewBox="0 0 20 21" fill="none" xmlns="http://www.w3.org/2000/svg">
<path d="M6.75098 15.8604V16.9039C6.75098 17.315 6.83427 17.7221 6.99608 18.1019C7.1579 18.4816 7.39508 18.8267 7.69408 19.1174C7.99313 19.4082 8.34808 19.6388 8.73866 19.796C9.12935 19.9534 9.54805 20.0344 9.97094 20.0344C10.3938 20.0344 10.8125 19.9534 11.2032 19.796C11.5938 19.6388 11.9487 19.4082 12.2478 19.1174C12.5468 18.8267 12.784 18.4816 12.9458 18.1019C13.1076 17.7221 13.1909 17.315 13.1909 16.9039V15.8604" stroke="black" stroke-linecap="round" stroke-linejoin="round"/>
<path d="M18.5569 15.8601C18.5569 15.8601 16.4103 10.6425 16.4103 7.51201C16.4103 4.10184 13.478 1.25098 9.97036 1.25098C6.46274 1.25098 3.53043 4.10184 3.53043 7.51201C3.53043 11.686 1.38379 15.8601 1.38379 15.8601H18.5569Z" stroke="black" stroke-linecap="round" stroke-linejoin="round"/>
</svg>
