<svg width="14" height="13" viewBox="0 0 14 13" fill="none" xmlns="http://www.w3.org/2000/svg">
<path d="M7.97099 6.53546L13.4295 1.07691C13.4784 1.02808 13.5171 0.970107 13.5435 0.906305C13.57 0.842502 13.5836 0.774117 13.5836 0.705058C13.5836 0.635998 13.57 0.567614 13.5435 0.503811C13.5171 0.440008 13.4784 0.382036 13.4295 0.333203C13.3807 0.28437 13.3227 0.245634 13.2589 0.219206C13.1951 0.192778 13.1267 0.179176 13.0577 0.179176C12.9886 0.179176 12.9202 0.192778 12.8564 0.219206C12.7926 0.245634 12.7347 0.28437 12.6858 0.333203L7.22728 5.73562L1.76873 0.277074C1.7199 0.228241 1.66193 0.189505 1.59813 0.163077C1.53432 0.136649 1.46594 0.123047 1.39688 0.123047C1.32782 0.123047 1.25944 0.136649 1.19563 0.163077C1.13183 0.189505 1.07386 0.228241 1.02502 0.277074C0.976191 0.325907 0.937455 0.383879 0.911027 0.447682C0.884599 0.511485 0.870996 0.579869 0.870996 0.648929C0.870996 0.717988 0.884599 0.786373 0.911027 0.850176C0.937455 0.913979 0.976191 0.971951 1.02502 1.02078L6.48357 6.53546L1.02502 11.9379C0.975379 11.9863 0.935924 12.0441 0.908984 12.1079C0.882044 12.1718 0.868164 12.2404 0.868164 12.3097C0.868164 12.379 0.882044 12.4477 0.908984 12.5115C0.935924 12.5754 0.975379 12.6332 1.02502 12.6816C1.07123 12.7319 1.12772 12.7718 1.19067 12.7984C1.25361 12.8251 1.32154 12.8378 1.38986 12.8359C1.46029 12.8381 1.53037 12.8254 1.59562 12.7988C1.66087 12.7723 1.71984 12.7323 1.76873 12.6816L7.22728 7.22304L12.6858 12.6816C12.732 12.7319 12.7885 12.7718 12.8515 12.7984C12.9144 12.8251 12.9823 12.8378 13.0507 12.8359C13.1212 12.839 13.1916 12.8267 13.2569 12.8001C13.3223 12.7735 13.3812 12.733 13.4295 12.6816C13.4792 12.6332 13.5186 12.5754 13.5456 12.5115C13.5725 12.4477 13.5864 12.379 13.5864 12.3097C13.5864 12.2404 13.5725 12.1718 13.5456 12.1079C13.5186 12.0441 13.4792 11.9863 13.4295 11.9379L7.97099 6.53546Z" fill="black"/>
</svg>
