<svg width="21" height="20" viewBox="0 0 21 20" fill="none" xmlns="http://www.w3.org/2000/svg">
<path d="M20.1702 3.71983H6.45428C6.2403 3.71983 6.03508 3.6298 5.88377 3.46954C5.73246 3.30928 5.64746 3.09192 5.64746 2.86529C5.64746 2.63865 5.73246 2.42129 5.88377 2.26103C6.03508 2.10077 6.2403 2.01074 6.45428 2.01074H20.1702C20.3842 2.01074 20.5894 2.10077 20.7407 2.26103C20.892 2.42129 20.977 2.63865 20.977 2.86529C20.977 3.09192 20.892 3.30928 20.7407 3.46954C20.5894 3.6298 20.3842 3.71983 20.1702 3.71983Z" fill="black"/>
<path d="M3.22727 3.71983H0.806818C0.592837 3.71983 0.387619 3.6298 0.236312 3.46954C0.0850038 3.30928 0 3.09192 0 2.86529C0 2.63865 0.0850038 2.42129 0.236312 2.26103C0.387619 2.10077 0.592837 2.01074 0.806818 2.01074H3.22727C3.44125 2.01074 3.64647 2.10077 3.79778 2.26103C3.94909 2.42129 4.03409 2.63865 4.03409 2.86529C4.03409 3.09192 3.94909 3.30928 3.79778 3.46954C3.64647 3.6298 3.44125 3.71983 3.22727 3.71983Z" fill="black"/>
<path d="M14.5227 10.5558H0.806818C0.592837 10.5558 0.387619 10.4657 0.236312 10.3055C0.0850038 10.1452 0 9.92786 0 9.70122C0 9.47458 0.0850038 9.25723 0.236312 9.09697C0.387619 8.93671 0.592837 8.84668 0.806818 8.84668H14.5227C14.7367 8.84668 14.9419 8.93671 15.0932 9.09697C15.2445 9.25723 15.3295 9.47458 15.3295 9.70122C15.3295 9.92786 15.2445 10.1452 15.0932 10.3055C14.9419 10.4657 14.7367 10.5558 14.5227 10.5558Z" fill="black"/>
<path d="M6.45454 17.3927H0.806818C0.592837 17.3927 0.387619 17.3026 0.236311 17.1424C0.0850038 16.9821 0 16.7648 0 16.5381C0 16.3115 0.0850038 16.0941 0.236311 15.9339C0.387619 15.7736 0.592837 15.6836 0.806818 15.6836H6.45454C6.66853 15.6836 6.87374 15.7736 7.02505 15.9339C7.17636 16.0941 7.26136 16.3115 7.26136 16.5381C7.26136 16.7648 7.17636 16.9821 7.02505 17.1424C6.87374 17.3026 6.66853 17.3927 6.45454 17.3927Z" fill="black"/>
<path d="M4.84087 5.42902C4.36214 5.42902 3.89417 5.27866 3.49613 4.99697C3.09809 4.71527 2.78786 4.31489 2.60466 3.84644C2.42146 3.378 2.37353 2.86254 2.46692 2.36525C2.56031 1.86795 2.79084 1.41116 3.12935 1.05263C3.46785 0.694098 3.89914 0.449937 4.36866 0.351018C4.83818 0.2521 5.32485 0.302869 5.76713 0.496904C6.20941 0.690939 6.58744 1.01952 6.8534 1.44111C7.11936 1.8627 7.26132 2.35835 7.26132 2.86539C7.26132 3.5453 7.00631 4.19737 6.55238 4.67815C6.09846 5.15892 5.48281 5.42902 4.84087 5.42902ZM4.84087 2.01084C4.68129 2.01084 4.5253 2.06096 4.39262 2.15486C4.25994 2.24876 4.15653 2.38222 4.09546 2.53837C4.0344 2.69451 4.01842 2.86633 4.04955 3.0321C4.08068 3.19787 4.15752 3.35013 4.27036 3.46964C4.38319 3.58915 4.52696 3.67054 4.68346 3.70351C4.83997 3.73648 5.00219 3.71956 5.14962 3.65488C5.29705 3.5902 5.42306 3.48067 5.51171 3.34015C5.60036 3.19962 5.64768 3.0344 5.64768 2.86539C5.64768 2.63875 5.56268 2.42139 5.41137 2.26113C5.26006 2.10088 5.05485 2.01084 4.84087 2.01084Z" fill="black"/>
<path d="M16.1363 12.265C15.6576 12.265 15.1896 12.1146 14.7915 11.8329C14.3935 11.5512 14.0833 11.1508 13.9001 10.6824C13.7169 10.2139 13.6689 9.69848 13.7623 9.20119C13.8557 8.70389 14.0862 8.2471 14.4248 7.88857C14.7633 7.53004 15.1945 7.28587 15.6641 7.18696C16.1336 7.08804 16.6203 7.13881 17.0625 7.33284C17.5048 7.52688 17.8828 7.85546 18.1488 8.27705C18.4148 8.69864 18.5567 9.19429 18.5567 9.70133C18.5567 10.3812 18.3017 11.0333 17.8478 11.5141C17.3939 11.9949 16.7782 12.265 16.1363 12.265ZM16.1363 8.84678C15.9767 8.84678 15.8207 8.8969 15.688 8.9908C15.5554 9.0847 15.4519 9.21816 15.3909 9.37431C15.3298 9.53045 15.3138 9.70227 15.345 9.86804C15.3761 10.0338 15.4529 10.1861 15.5658 10.3056C15.6786 10.4251 15.8224 10.5065 15.9789 10.5394C16.1354 10.5724 16.2976 10.5555 16.445 10.4908C16.5925 10.4261 16.7185 10.3166 16.8071 10.1761C16.8958 10.0356 16.9431 9.87034 16.9431 9.70133C16.9431 9.47469 16.8581 9.25733 16.7068 9.09707C16.5555 8.93681 16.3503 8.84678 16.1363 8.84678Z" fill="black"/>
<path d="M8.06792 19.1019C7.5892 19.1019 7.12123 18.9515 6.72318 18.6698C6.32514 18.3881 6.01491 17.9877 5.83171 17.5193C5.64851 17.0509 5.60058 16.5354 5.69397 16.0381C5.78736 15.5408 6.01789 15.084 6.3564 14.7255C6.6949 14.3669 7.12619 14.1228 7.59571 14.0239C8.06523 13.925 8.5519 13.9757 8.99418 14.1698C9.43646 14.3638 9.81449 14.6924 10.0805 15.114C10.3464 15.5356 10.4884 16.0312 10.4884 16.5382C10.4884 17.2182 10.2334 17.8702 9.77944 18.351C9.32551 18.8318 8.70986 19.1019 8.06792 19.1019ZM8.06792 15.6837C7.90834 15.6837 7.75235 15.7338 7.61967 15.8277C7.48699 15.9216 7.38358 16.0551 7.32251 16.2112C7.26145 16.3674 7.24547 16.5392 7.2766 16.705C7.30773 16.8707 7.38457 17.023 7.49741 17.1425C7.61025 17.262 7.75401 17.3434 7.91051 17.3764C8.06702 17.4093 8.22925 17.3924 8.37667 17.3277C8.5241 17.2631 8.65011 17.1535 8.73876 17.013C8.82742 16.8725 8.87473 16.7073 8.87473 16.5382C8.87473 16.3116 8.78973 16.0942 8.63842 15.934C8.48712 15.7737 8.2819 15.6837 8.06792 15.6837Z" fill="black"/>
<path d="M20.1706 10.5558H17.7502C17.5362 10.5558 17.331 10.4657 17.1797 10.3055C17.0284 10.1452 16.9434 9.92786 16.9434 9.70122C16.9434 9.47458 17.0284 9.25723 17.1797 9.09697C17.331 8.93671 17.5362 8.84668 17.7502 8.84668H20.1706C20.3846 8.84668 20.5898 8.93671 20.7411 9.09697C20.8924 9.25723 20.9774 9.47458 20.9774 9.70122C20.9774 9.92786 20.8924 10.1452 20.7411 10.3055C20.5898 10.4657 20.3846 10.5558 20.1706 10.5558Z" fill="black"/>
<path d="M20.1705 17.3927H9.68182C9.46784 17.3927 9.26262 17.3026 9.11131 17.1424C8.96 16.9821 8.875 16.7648 8.875 16.5381C8.875 16.3115 8.96 16.0941 9.11131 15.9339C9.26262 15.7736 9.46784 15.6836 9.68182 15.6836H20.1705C20.3844 15.6836 20.5897 15.7736 20.741 15.9339C20.8923 16.0941 20.9773 16.3115 20.9773 16.5381C20.9773 16.7648 20.8923 16.9821 20.741 17.1424C20.5897 17.3026 20.3844 17.3927 20.1705 17.3927Z" fill="black"/>
</svg>
