<svg width="10" height="10" viewBox="0 0 10 10" fill="none" xmlns="http://www.w3.org/2000/svg">
<path fill-rule="evenodd" clip-rule="evenodd" d="M6.81529 8.77394L5.6557 8.0875C5.53548 8.01769 5.30279 8.01769 5.18644 8.0875L4.02297 8.77394C3.33653 9.18116 2.93319 9.01827 2.75092 8.88641C2.57252 8.75455 2.29329 8.41715 2.47556 7.6415L2.75092 6.45089C2.78194 6.32679 2.71989 6.11348 2.62681 6.02041L1.66502 5.05861C1.18412 4.57771 1.2229 4.16662 1.28883 3.96495C1.35476 3.76328 1.56418 3.40649 2.23124 3.29402L3.46839 3.08847C3.58473 3.06908 3.7515 2.94498 3.80191 2.84027L4.48836 1.47125C4.79862 0.846861 5.20583 0.753784 5.41913 0.753784C5.63243 0.753784 6.03965 0.846861 6.34991 1.47125L7.03247 2.83639C7.08677 2.9411 7.25353 3.0652 7.36988 3.08459L8.60703 3.29014C9.27796 3.40261 9.48738 3.7594 9.54944 3.96107C9.61149 4.16274 9.65027 4.57383 9.17325 5.05473L8.21145 6.02041C8.11837 6.11348 8.0602 6.32291 8.08735 6.45089L8.3627 7.6415C8.5411 8.41715 8.26575 8.75455 8.08735 8.88641C7.99039 8.95622 7.83526 9.03378 7.6142 9.03378C7.40866 9.03378 7.14494 8.96785 6.81529 8.77394ZM5.95045 7.58721L7.11004 8.27365C7.44744 8.47532 7.66074 8.47532 7.74219 8.41715C7.82363 8.35897 7.8818 8.15343 7.79648 7.77336L7.52113 6.58275C7.44744 6.26086 7.56767 5.84589 7.80036 5.60932L8.76216 4.64752C8.95219 4.45748 9.03751 4.27133 8.99873 4.14335C8.95607 4.01537 8.77767 3.91066 8.51395 3.868L7.2768 3.66245C6.97818 3.61203 6.65241 3.37158 6.51667 3.10011L5.8341 1.73497C5.71 1.48677 5.55487 1.3394 5.41913 1.3394C5.28339 1.3394 5.12827 1.48677 5.00804 1.73497L4.3216 3.10011C4.18586 3.37158 3.86009 3.61203 3.56146 3.66245L2.32819 3.868C2.06447 3.91066 1.88607 4.01537 1.84341 4.14335C1.80075 4.27133 1.88995 4.46136 2.07998 4.64752L3.04178 5.60932C3.27448 5.84201 3.3947 6.26086 3.32102 6.58275L3.04566 7.77336C2.95646 8.15731 3.01851 8.35897 3.09996 8.41715C3.1814 8.47532 3.39082 8.47144 3.73211 8.27365L4.89169 7.58721C5.03907 7.49801 5.2291 7.45147 5.41913 7.45147C5.60917 7.45147 5.7992 7.49801 5.95045 7.58721Z" fill="white"/>
</svg>
